<svg width="36" height="36" viewBox="0 0 36 36" fill="none" xmlns="http://www.w3.org/2000/svg">
<g clip-path="url(#clip0_314_11366)">
<path d="M31.9861 9.16576L30.1685 10.9833C29.9612 11.1906 29.9192 11.5061 30.0544 11.7644C30.4089 12.4524 30.7033 13.1614 30.9346 13.8884C31.0217 14.1678 31.2741 14.3601 31.5685 14.3601H34.1371C34.8251 14.3601 35.3809 14.9159 35.3809 15.6039V20.3987C35.3809 21.0866 34.8251 21.6424 34.1371 21.6424H31.5685C31.2771 21.6424 31.0247 21.8347 30.9346 22.1141C30.7033 22.8411 30.4119 23.5501 30.0544 24.2381C29.9192 24.4965 29.9612 24.8119 30.1685 25.0192L31.9861 26.8368C32.4728 27.3235 32.4728 28.1106 31.9861 28.5973L28.5973 31.9861C28.1106 32.4728 27.3235 32.4728 26.8368 31.9861L25.0192 30.1685C24.8119 29.9612 24.4965 29.9192 24.2381 30.0544C23.5501 30.4089 22.8411 30.7033 22.1141 30.9346C21.8347 31.0217 21.6424 31.2741 21.6424 31.5685V34.1371C21.6424 34.8251 21.0866 35.3809 20.3987 35.3809H15.6039C14.9159 35.3809 14.3601 34.8251 14.3601 34.1371V31.5685C14.3601 31.2771 14.1678 31.0247 13.8884 30.9346C13.1614 30.7033 12.4524 30.4119 11.7644 30.0544C11.5061 29.9192 11.1906 29.9612 10.9833 30.1685L9.16576 31.9861C8.67907 32.4728 7.89196 32.4728 7.40527 31.9861L4.01647 28.5973C3.52978 28.1106 3.52978 27.3235 4.01647 26.8368L5.83404 25.0192C6.04133 24.8119 6.08339 24.4965 5.9482 24.2381C5.5937 23.5501 5.29928 22.8411 5.06796 22.1141C4.98083 21.8347 4.72847 21.6424 4.43406 21.6424H1.86241C1.17444 21.6424 0.618652 21.0866 0.618652 20.3987V15.6039C0.618652 14.9159 1.17444 14.3601 1.86241 14.3601H4.43105C4.72247 14.3601 4.97482 14.1678 5.06495 13.8884C5.29628 13.1614 5.58769 12.4524 5.9452 11.7644C6.08039 11.5061 6.03833 11.1906 5.83104 10.9833L4.01346 9.16576C3.52677 8.67907 3.52677 7.89196 4.01346 7.40527L7.40226 4.01647C7.88895 3.52978 8.67607 3.52978 9.16276 4.01647L10.9803 5.83404C11.1876 6.04133 11.5031 6.08339 11.7614 5.9482C12.4494 5.5937 13.1584 5.29928 13.8854 5.06796C14.1648 4.98083 14.3571 4.72847 14.3571 4.43406V1.86241C14.3571 1.17444 14.9129 0.618652 15.6009 0.618652H20.3957C21.0836 0.618652 21.6394 1.17444 21.6394 1.86241V4.43105C21.6394 4.72247 21.8317 4.97482 22.1111 5.06495C22.8381 5.29628 23.5471 5.58769 24.2351 5.9452C24.4935 6.08039 24.8089 6.03833 25.0162 5.83104L26.8338 4.01346C27.3205 3.52677 28.1076 3.52677 28.5943 4.01346L31.9831 7.40226C32.4698 7.88895 32.4698 8.67607 31.9831 9.16276L31.9861 9.16576Z" fill="#FDB924"/>
<path d="M20.3959 36H15.6011C14.5736 36 13.7385 35.1648 13.7385 34.1374V31.5687C13.7385 31.5477 13.7174 31.5327 13.6994 31.5267C12.9363 31.2833 12.1883 30.9739 11.4763 30.6074C11.4582 30.5983 11.4342 30.5953 11.4192 30.6074L9.6016 32.4249C9.2501 32.7764 8.78144 32.9717 8.28273 32.9717C7.78403 32.9717 7.31837 32.7764 6.96387 32.4249L3.57506 29.0361C2.84803 28.3091 2.84803 27.1284 3.57506 26.4014L5.39264 24.5838C5.39264 24.5838 5.40466 24.5448 5.39264 24.5267C5.02312 23.8147 4.71368 23.0667 4.47334 22.3036C4.46733 22.2826 4.45231 22.2645 4.43128 22.2645H1.86264C0.835183 22.2645 0 21.4294 0 20.4019V15.6071C0 14.5797 0.835183 13.7445 1.86264 13.7445H4.43128C4.45231 13.7445 4.46733 13.7234 4.47334 13.7054C4.71668 12.9423 5.02612 12.1943 5.39264 11.4823C5.40165 11.4642 5.40466 11.4372 5.39264 11.4252L3.57506 9.60761C3.22357 9.25611 3.02829 8.78745 3.02829 8.28874C3.02829 7.79004 3.22357 7.32438 3.57506 6.96987L6.96387 3.58107C7.31536 3.22958 7.78403 3.0343 8.28273 3.0343C8.78144 3.0343 9.2471 3.22958 9.6016 3.58107L11.4192 5.39865C11.4192 5.39865 11.4582 5.41066 11.4763 5.39865C12.1883 5.02912 12.9333 4.71969 13.6994 4.47935C13.7204 4.47334 13.7385 4.45832 13.7385 4.43729V1.86264C13.7385 0.835183 14.5736 0 15.6011 0H20.3959C21.4234 0 22.2585 0.835183 22.2585 1.86264V4.43128C22.2585 4.45231 22.2796 4.46733 22.2976 4.47334C23.0607 4.71668 23.8087 5.02612 24.5207 5.39264C24.5388 5.40165 24.5658 5.40466 24.5778 5.39264L26.3924 3.57506C26.7439 3.22357 27.2126 3.02829 27.7113 3.02829C28.21 3.02829 28.6756 3.22357 29.0301 3.57506L32.4189 6.96687C32.7704 7.31837 32.9657 7.78703 32.9657 8.28574C32.9657 8.78444 32.7704 9.2501 32.4189 9.60461L30.6014 11.4222C30.6014 11.4222 30.5893 11.4612 30.6014 11.4793C30.9709 12.1913 31.2803 12.9363 31.5207 13.6994C31.5267 13.7204 31.5417 13.7385 31.5627 13.7385H34.1314C35.1588 13.7385 35.994 14.5736 35.994 15.6011V20.3959C35.994 21.4233 35.1588 22.2585 34.1314 22.2585H31.5627C31.5417 22.2585 31.5267 22.2796 31.5207 22.2976C31.2803 23.0607 30.9709 23.8087 30.6014 24.5207C30.5923 24.5388 30.5893 24.5658 30.6014 24.5778L32.4189 26.3954C33.146 27.1224 33.146 28.3031 32.4189 29.0301L29.0301 32.4189C28.6786 32.7704 28.21 32.9657 27.7113 32.9657C27.2126 32.9657 26.7469 32.7704 26.3924 32.4189L24.5748 30.6014C24.5748 30.6014 24.5358 30.5893 24.5177 30.6014C23.8057 30.9679 23.0607 31.2773 22.2946 31.5207C22.2736 31.5267 22.2555 31.5417 22.2555 31.5627V34.1314C22.2555 35.1588 21.4203 35.994 20.3929 35.994L20.3959 36ZM11.4462 29.3576C11.6505 29.3576 11.8548 29.4057 12.0471 29.5048C12.696 29.8413 13.378 30.1237 14.0749 30.343C14.6157 30.5142 14.9792 31.0069 14.9792 31.5657V34.1344C14.9792 34.4798 15.2586 34.7592 15.6041 34.7592H20.3989C20.7444 34.7592 21.0238 34.4798 21.0238 34.1344V31.5657C21.0238 31.0069 21.3873 30.5142 21.9281 30.343C22.6251 30.1207 23.307 29.8383 23.9559 29.5048C24.4607 29.2434 25.0645 29.3336 25.4581 29.7301L27.2756 31.5477C27.513 31.785 27.9246 31.785 28.1589 31.5477L31.5477 28.1589C31.791 27.9155 31.791 27.519 31.5477 27.2756L29.7301 25.4581C29.3336 25.0615 29.2434 24.4576 29.5048 23.9559C29.8413 23.307 30.1237 22.625 30.343 21.9281C30.5142 21.3873 31.0069 21.0238 31.5657 21.0238H34.1344C34.4799 21.0238 34.7592 20.7444 34.7592 20.3989V15.6041C34.7592 15.2586 34.4799 14.9792 34.1344 14.9792H31.5657C31.0069 14.9792 30.5142 14.6157 30.343 14.0749C30.1237 13.378 29.8413 12.696 29.5048 12.0471C29.2434 11.5424 29.3336 10.9385 29.7301 10.5449L31.5447 8.72736C31.6619 8.6102 31.7279 8.45097 31.7279 8.28574C31.7279 8.1205 31.6619 7.96128 31.5447 7.84411L28.1529 4.45231C27.9155 4.21497 27.504 4.21497 27.2696 4.45231L25.4521 6.26988C25.0555 6.66644 24.4516 6.75657 23.9499 6.4952C23.301 6.15872 22.619 5.87632 21.9251 5.65701C21.3843 5.48577 21.0208 4.99307 21.0208 4.43428V1.86264C21.0208 1.51715 20.7414 1.23775 20.3959 1.23775H15.6011C15.2556 1.23775 14.9762 1.51715 14.9762 1.86264V4.43128C14.9762 4.99007 14.6127 5.48277 14.0719 5.65401C13.3749 5.87332 12.693 6.15572 12.0471 6.4922C11.5424 6.75357 10.9385 6.66344 10.5449 6.26688L8.72736 4.4493C8.49003 4.21197 8.07845 4.21197 7.84411 4.4493L4.45231 7.84111C4.33514 7.95827 4.26905 8.1175 4.26905 8.28273C4.26905 8.44797 4.33514 8.60719 4.45231 8.72436L6.26988 10.5419C6.66644 10.9385 6.75657 11.5424 6.4952 12.0441C6.15873 12.693 5.87633 13.3749 5.65701 14.0719C5.48577 14.6127 4.99307 14.9762 4.43428 14.9762H1.86264C1.51715 14.9762 1.23775 15.2556 1.23775 15.6011V20.3959C1.23775 20.7414 1.51715 21.0208 1.86264 21.0208H4.43128C4.99007 21.0208 5.48277 21.3843 5.65401 21.9251C5.87332 22.622 6.15572 23.304 6.4922 23.9529C6.75357 24.4546 6.66344 25.0615 6.26688 25.4551L4.4493 27.2726C4.20596 27.516 4.20596 27.9125 4.4493 28.1559L7.8381 31.5447C8.07544 31.782 8.48702 31.782 8.72136 31.5447L10.5389 29.7271C10.7823 29.4808 11.1097 29.3546 11.4402 29.3546L11.4462 29.3576Z" fill="#414141"/>
<path d="M22.4147 27.7894C22.1924 27.7894 22.0151 27.6091 22.0151 27.3898V9.01578C22.0151 8.79346 22.1954 8.61621 22.4147 8.61621C22.634 8.61621 22.8143 8.79647 22.8143 9.01578V27.3898C22.8143 27.6121 22.634 27.7894 22.4147 27.7894Z" fill="#3C0F75"/>
<path d="M14.0929 27.7894C13.8706 27.7894 13.6934 27.6091 13.6934 27.3898V9.01578C13.6934 8.79346 13.8736 8.61621 14.0929 8.61621C14.3122 8.61621 14.4925 8.79647 14.4925 9.01578V27.3898C14.4925 27.6121 14.3122 27.7894 14.0929 27.7894Z" fill="#3C0F75"/>
<path d="M25.5988 12.5908H19.2268C18.8303 12.5908 18.5088 12.9123 18.5088 13.3088V15.6251C18.5088 16.0217 18.8303 16.3431 19.2268 16.3431H25.5988C25.9954 16.3431 26.3168 16.0217 26.3168 15.6251V13.3088C26.3168 12.9123 25.9954 12.5908 25.5988 12.5908Z" fill="#F5F5F5"/>
<path d="M25.6021 16.9618H19.227C18.491 16.9618 17.8901 16.364 17.8901 15.6249V13.3056C17.8901 12.5696 18.488 11.9688 19.227 11.9688H25.6021C26.3381 11.9688 26.939 12.5666 26.939 13.3056V15.6249C26.939 16.361 26.3381 16.9618 25.6021 16.9618ZM19.227 13.2095C19.173 13.2095 19.1309 13.2546 19.1309 13.3056V15.6249C19.1309 15.679 19.176 15.7211 19.227 15.7211H25.6021C25.6561 15.7211 25.6982 15.676 25.6982 15.6219V13.3026C25.6982 13.2486 25.6531 13.2065 25.6021 13.2065H19.227V13.2095Z" fill="#414141"/>
<path d="M17.2771 19.6421H10.905C10.5085 19.6421 10.187 19.9636 10.187 20.3601V22.6764C10.187 23.0729 10.5085 23.3944 10.905 23.3944H17.2771C17.6736 23.3944 17.9951 23.0729 17.9951 22.6764V20.3601C17.9951 19.9636 17.6736 19.6421 17.2771 19.6421Z" fill="#00A19C"/>
<path d="M17.2803 24.0131H10.9053C10.1692 24.0131 9.56836 23.4152 9.56836 22.6762V20.3569C9.56836 19.6209 10.1662 19.02 10.9053 19.02H17.2803C18.0163 19.02 18.6172 19.6179 18.6172 20.3569V22.6762C18.6172 23.4122 18.0193 24.0131 17.2803 24.0131ZM10.9053 20.2638C10.8512 20.2638 10.8091 20.3088 10.8091 20.3629V22.6822C10.8091 22.7363 10.8542 22.7783 10.9053 22.7783H17.2803C17.3344 22.7783 17.3764 22.7333 17.3764 22.6822V20.3629C17.3764 20.3088 17.3314 20.2638 17.2803 20.2638H10.9053Z" fill="#414141"/>
</g>
<defs>
<clipPath id="clip0_314_11366">
<rect width="36" height="36" fill="white"/>
</clipPath>
</defs>
</svg>
