<svg width="27" height="36" viewBox="0 0 27 36" fill="none" xmlns="http://www.w3.org/2000/svg">
<g clip-path="url(#clip0_314_11173)">
<path d="M22.6909 8.95604L20.4779 1.69856C20.2744 1.02804 19.7337 0.580078 19.1261 0.580078H7.87396C7.26634 0.580078 6.72562 1.02804 6.52215 1.69856L4.30908 8.95604" fill="#FDB924"/>
<path d="M22.6911 9.53659C22.4458 9.53659 22.2172 9.376 22.142 9.12526L19.9289 1.86779C19.8007 1.44518 19.4774 1.16063 19.1262 1.16063H7.8741C7.5229 1.16063 7.19958 1.44518 7.07137 1.86779L4.8583 9.12526C4.76632 9.43235 4.443 9.60421 4.13919 9.50842C3.83539 9.41545 3.66536 9.08863 3.76013 8.78154L5.9732 1.52407C6.25192 0.611251 7.01563 -0.00292969 7.8741 -0.00292969H19.1262C19.9847 -0.00292969 20.7484 0.611251 21.0271 1.52407L23.2402 8.78154C23.3321 9.08863 23.1649 9.41263 22.8611 9.50842C22.8053 9.52532 22.7468 9.53377 22.6911 9.53377V9.53659Z" fill="#414141"/>
<path d="M18.6689 8.99819L17.5067 5.18069C17.3422 4.6454 16.9102 4.2876 16.4252 4.2876H10.5748C10.0898 4.2876 9.65778 4.6454 9.49333 5.18069L8.33105 8.99819" fill="#00A19C"/>
<path d="M18.6691 9.58157C18.4238 9.58157 18.1952 9.42098 18.12 9.17023L16.9577 5.35274C16.8685 5.06255 16.6567 4.86815 16.4253 4.86815H10.5749C10.3436 4.86815 10.1317 5.06255 10.0426 5.35274L8.88027 9.17023C8.7883 9.47732 8.46498 9.64918 8.16117 9.55339C7.85736 9.46042 7.68734 9.13361 7.7821 8.82652L8.94438 5.00902C9.1813 4.22862 9.83908 3.70459 10.5749 3.70459H16.4253C17.164 3.70459 17.819 4.22862 18.0559 5.00902L19.2181 8.82652C19.3101 9.13361 19.1429 9.4576 18.8391 9.55339C18.7833 9.5703 18.7248 9.57875 18.6691 9.57875V9.58157Z" fill="#414141"/>
<path d="M22.978 11.6133H4.02197V33.9689H22.978V11.6133Z" fill="#F5F5F5"/>
<path d="M22.9779 34.5491H4.02193C3.70418 34.5491 3.44775 34.2899 3.44775 33.9687V11.6131C3.44775 11.2919 3.70418 11.0327 4.02193 11.0327H22.9779C23.2957 11.0327 23.5521 11.2919 23.5521 11.6131V33.9687C23.5521 34.2899 23.2957 34.5491 22.9779 34.5491ZM4.5961 33.3855H22.4038V12.1935H4.5961V33.3883V33.3855Z" fill="#414141"/>
<path d="M25.8517 25.8379H23.5522C23.2351 25.8379 22.978 26.0977 22.978 26.4183V34.8393C22.978 35.1598 23.2351 35.4197 23.5522 35.4197H25.8517C26.1688 35.4197 26.4258 35.1598 26.4258 34.8393V26.4183C26.4258 26.0977 26.1688 25.8379 25.8517 25.8379Z" fill="#00A19C"/>
<path d="M25.8488 36H23.5522C22.9194 36 22.4038 35.4788 22.4038 34.8392V26.421C22.4038 25.7815 22.9194 25.2603 23.5522 25.2603H25.8488C26.4815 25.2603 26.9972 25.7815 26.9972 26.421V34.8392C26.9972 35.4788 26.4815 36 25.8488 36ZM23.5522 26.4182V34.8364H25.8516V26.4182H23.5549H23.5522Z" fill="#414141"/>
<path d="M3.44786 25.8379H1.14839C0.831284 25.8379 0.574219 26.0977 0.574219 26.4183V34.8393C0.574219 35.1598 0.831284 35.4197 1.14839 35.4197H3.44786C3.76497 35.4197 4.02204 35.1598 4.02204 34.8393V26.4183C4.02204 26.0977 3.76497 25.8379 3.44786 25.8379Z" fill="#00A19C"/>
<path d="M3.44782 36H1.14834C0.515639 36 0 35.4788 0 34.8392V26.421C0 25.7815 0.515639 25.2603 1.14834 25.2603H3.44503C4.07773 25.2603 4.59337 25.7815 4.59337 26.421V34.8392C4.59337 35.4788 4.07773 36 3.44503 36H3.44782ZM1.14834 26.4182V34.8364H3.44782V26.4182H1.14834Z" fill="#414141"/>
<path d="M23.5519 9.28906H3.44473C2.81052 9.28906 2.29639 9.80875 2.29639 10.4498V11.9036C2.29639 12.5446 2.81052 13.0643 3.44473 13.0643H23.5519C24.1861 13.0643 24.7002 12.5446 24.7002 11.9036V10.4498C24.7002 9.80875 24.1861 9.28906 23.5519 9.28906Z" fill="#F5F5F5"/>
<path d="M23.552 13.6446H3.44761C2.49716 13.6446 1.7251 12.8642 1.7251 11.9035V10.4525C1.7251 9.49183 2.49716 8.71143 3.44761 8.71143H23.552C24.5024 8.71143 25.2745 9.49183 25.2745 10.4525V11.9035C25.2745 12.8642 24.5024 13.6446 23.552 13.6446ZM3.44761 9.87217C3.12987 9.87217 2.87344 10.1314 2.87344 10.4525V11.9035C2.87344 12.2247 3.12987 12.4838 3.44761 12.4838H23.552C23.8697 12.4838 24.1261 12.2247 24.1261 11.9035V10.4525C24.1261 10.1314 23.8697 9.87217 23.552 9.87217H3.44761Z" fill="#414141"/>
<path d="M17.3979 17.71H18.956V19.2849C18.956 24.5026 14.764 28.7399 9.60201 28.7399H8.04395V27.165C8.04395 21.9472 12.236 17.71 17.3979 17.71Z" fill="#BFD730"/>
<path d="M9.60197 29.323H8.0439C7.72615 29.323 7.46973 29.0638 7.46973 28.7426V27.1677C7.46973 21.6344 11.9237 17.1323 17.3979 17.1323H18.9559C19.2737 17.1323 19.5301 17.3915 19.5301 17.7127V19.2876C19.5301 24.8209 15.0761 29.323 9.59918 29.323H9.60197ZM8.61528 28.1622H9.59918C14.4406 28.1622 18.379 24.1813 18.379 19.2876V18.2931H17.3951C12.5537 18.2931 8.61528 22.274 8.61528 27.1677V28.1622Z" fill="#414141"/>
<path d="M8.04097 29.3229C7.89324 29.3229 7.74831 29.2666 7.63403 29.1539C7.41105 28.9285 7.41105 28.5594 7.63403 28.334L12.5173 23.398C12.743 23.1727 13.1054 23.1727 13.3312 23.398C13.5541 23.6234 13.5541 23.9925 13.3312 24.2179L8.44791 29.1539C8.33642 29.2666 8.18869 29.3229 8.04097 29.3229Z" fill="#414141"/>
</g>
<defs>
<clipPath id="clip0_314_11173">
<rect width="27" height="36" fill="white"/>
</clipPath>
</defs>
</svg>
