<svg width="43" height="34" viewBox="0 0 43 34" fill="none" xmlns="http://www.w3.org/2000/svg">
<g clip-path="url(#clip0_314_11465)">
<path d="M3.44043 33.3268C3.44043 23.102 11.9063 14.811 22.3543 14.811C32.8023 14.811 41.2682 23.0987 41.2682 33.3268H3.44043Z" fill="#00A19C"/>
<path d="M41.2647 33.9998H3.44034C3.05993 33.9998 2.75293 33.6993 2.75293 33.3269C2.75293 22.746 11.5458 14.1382 22.3542 14.1382C33.1626 14.1382 41.9555 22.746 41.9555 33.3269C41.9555 33.6993 41.6485 33.9998 41.2681 33.9998H41.2647ZM4.13777 32.6539H40.5606C40.1969 23.1249 32.1682 15.4873 22.3475 15.4873C12.5269 15.4873 4.50149 23.1249 4.13777 32.6539Z" fill="#414141"/>
<path d="M37.1637 21.8155L34.0404 26.5947C33.2161 27.8589 31.9781 27.9406 30.2562 27.9406C29.5688 27.9406 28.1506 27.5519 27.5066 27.2677C26.7324 26.9247 25.461 26.0917 25.1007 24.9124L24.4132 22.2206C24.0228 20.9335 22.9049 19.7608 21.6636 19.1923L15.5903 16.0367C17.6926 15.2461 19.9684 14.8149 22.351 14.8149C28.3508 14.8149 33.7 17.5525 37.1637 21.8155Z" fill="#FDB924"/>
<path d="M30.2593 28.6133C29.4184 28.6133 27.9001 28.1789 27.2261 27.8816C26.8523 27.715 24.9636 26.8036 24.443 25.1049L23.7456 22.3837C23.4319 21.3547 22.4742 20.3061 21.3697 19.7997C21.3597 19.7965 21.3497 19.7899 21.3397 19.7834L15.2664 16.6278C15.0295 16.5036 14.886 16.2554 14.9027 15.9907C14.9194 15.7261 15.0895 15.4975 15.3432 15.4027C17.5756 14.5632 19.9348 14.1353 22.3508 14.1353C28.3606 14.1353 33.9567 16.7813 37.7041 21.3906C37.8876 21.616 37.9043 21.9296 37.7441 22.1714L34.6207 26.9506C33.5396 28.6068 31.7977 28.6068 30.2593 28.6068V28.6133ZM21.9703 18.5878C23.4219 19.2607 24.6399 20.6066 25.0737 22.0276L25.7711 24.7488C26.0514 25.6635 27.176 26.3822 27.7933 26.6566C28.3973 26.9245 29.7021 27.2707 30.2593 27.2707C31.9779 27.2707 32.8522 27.1695 33.4628 26.2352L36.3159 21.8643C32.8355 17.8038 27.7733 15.4877 22.3508 15.4877C20.6356 15.4877 18.9504 15.7196 17.3253 16.177L21.9703 18.5911V18.5878Z" fill="#414141"/>
<path d="M27.8532 0.672852H15.1294L11.3486 8.75145H31.634L27.8532 0.672852Z" fill="#F5F5F5"/>
<path d="M31.634 9.42775H11.3454C11.1118 9.42775 10.8915 9.31015 10.7681 9.11741C10.6413 8.92467 10.6246 8.68294 10.7213 8.47387L14.5055 0.392006C14.6156 0.153536 14.8625 0 15.1295 0H27.8533C28.1236 0 28.3672 0.153536 28.4773 0.392006L32.2614 8.4706C32.3582 8.67967 32.3415 8.92141 32.2147 9.11414C32.0879 9.30688 31.871 9.42448 31.6374 9.42448L31.634 9.42775ZM12.4199 8.07859H30.5629L27.4095 1.34589H15.5699L12.4165 8.07859H12.4199Z" fill="#414141"/>
<path d="M21.663 15.1478C21.2826 15.1478 20.9756 14.8473 20.9756 14.4748V8.75156C20.9756 8.37915 21.2826 8.07861 21.663 8.07861C22.0434 8.07861 22.3504 8.37915 22.3504 8.75156V14.4748C22.3504 14.8473 22.0434 15.1478 21.663 15.1478Z" fill="#414141"/>
<path d="M17.5821 9.42797C17.5287 9.42797 17.472 9.42143 17.4152 9.40836C17.0482 9.32016 16.8212 8.95429 16.9113 8.59168L18.9536 0.513092C19.0437 0.153753 19.4174 -0.0683833 19.7878 0.0198181C20.1549 0.108019 20.3818 0.473892 20.2917 0.836497L18.2495 8.91509C18.1727 9.22216 17.8924 9.42797 17.5821 9.42797Z" fill="#414141"/>
<path d="M25.8111 9.42775C25.5007 9.42775 25.2204 9.22195 25.1437 8.91488L23.1015 0.836284C23.0114 0.476945 23.235 0.111072 23.6054 0.0196044C23.9758 -0.0718637 24.3462 0.150273 24.4396 0.512879L26.4818 8.59147C26.5719 8.95081 26.3483 9.31668 25.9779 9.40815C25.9212 9.42122 25.8678 9.42775 25.8111 9.42775Z" fill="#414141"/>
<path d="M6.87385 3.70468C6.87385 3.33303 6.56608 3.03174 6.18644 3.03174C5.80679 3.03174 5.49902 3.33303 5.49902 3.70468V23.9028C5.49902 24.2745 5.80679 24.5757 6.18644 24.5757C6.56608 24.5757 6.87385 24.2745 6.87385 23.9028V3.70468Z" fill="#414141"/>
<path d="M11.6925 14.8117C11.5323 14.8117 11.3688 14.7562 11.2387 14.6451L5.73605 9.93124C5.44907 9.68624 5.42238 9.26156 5.67265 8.98062C5.92292 8.69969 6.35672 8.67355 6.6437 8.91856L12.1463 13.6324C12.4333 13.8774 12.46 14.3021 12.2097 14.583C12.0729 14.7366 11.8827 14.8117 11.6925 14.8117Z" fill="#414141"/>
<path d="M0.687275 14.8116C0.497068 14.8116 0.306862 14.7332 0.170047 14.5829C-0.0802247 14.302 -0.0501921 13.8773 0.233449 13.6323L5.73609 8.91842C6.02307 8.67342 6.45687 8.70282 6.70714 8.98049C6.95741 9.25816 6.92738 9.6861 6.64374 9.9311L1.1411 14.645C1.01096 14.756 0.850786 14.8116 0.687275 14.8116Z" fill="#414141"/>
<path d="M38.5116 24.2391C38.1312 24.2391 37.8242 23.9386 37.8242 23.5662V13.129C37.8242 12.7566 38.1312 12.4561 38.5116 12.4561C38.892 12.4561 39.199 12.7566 39.199 13.129V23.5662C39.199 23.9386 38.892 24.2391 38.5116 24.2391Z" fill="#414141"/>
<path d="M37.1272 6.07029L38.5123 4.71436L39.8974 6.07029C43.1182 9.22332 43.1182 14.3421 39.8974 17.4951L38.5123 18.8511L37.1272 17.4951C33.9064 14.3421 33.9064 9.22333 37.1272 6.07029Z" fill="#BFD730"/>
<path d="M38.5113 19.5254C38.3344 19.5254 38.1609 19.4601 38.0241 19.3294L36.6393 17.9737C33.1521 14.56 33.1521 9.00984 36.6393 5.59612L38.0241 4.24044C38.2944 3.9791 38.7282 3.9791 38.9985 4.24044L40.3833 5.59612C43.8704 9.00984 43.8704 14.56 40.3833 17.9737L38.9985 19.3294C38.865 19.4601 38.6882 19.5254 38.5113 19.5254ZM38.5113 5.66473L37.6137 6.54674C34.6638 9.43452 34.6638 14.1321 37.6137 17.0198L38.5113 17.9018L39.4089 17.0198C42.3588 14.1321 42.3588 9.43452 39.4089 6.54674L38.5113 5.66473Z" fill="#414141"/>
<path d="M11.3491 24.2393C11.3491 27.5845 14.1188 30.2991 17.5392 30.2991H17.8829C19.5914 30.2991 20.9762 28.9434 20.9762 27.2709C20.9762 26.1569 20.0519 25.252 18.914 25.252H18.5703C17.4324 25.252 16.5081 24.3471 16.5081 23.2332C16.5081 22.1192 15.5837 21.2144 14.4458 21.2144C12.7373 21.2144 11.3525 22.57 11.3525 24.2426L11.3491 24.2393Z" fill="#BFD730"/>
<path d="M17.8828 30.972H17.5391C13.7483 30.972 10.6616 27.9503 10.6616 24.2393C10.6616 22.1976 12.3568 20.5381 14.4424 20.5381C15.9607 20.5381 17.192 21.7468 17.192 23.2299C17.192 23.9714 17.8094 24.5758 18.5669 24.5758H18.9106C20.4289 24.5758 21.6602 25.7844 21.6602 27.2675C21.6602 29.3092 19.9651 30.972 17.8761 30.972H17.8828ZM14.4424 21.8807C13.1143 21.8807 12.0364 22.9391 12.0364 24.236C12.0364 27.2055 14.5058 29.6228 17.5391 29.6228H17.8828C19.2109 29.6228 20.2887 28.5644 20.2887 27.2675C20.2887 26.526 19.6714 25.9216 18.9139 25.9216H18.5702C17.0519 25.9216 15.8206 24.713 15.8206 23.2299C15.8206 22.4883 15.2032 21.884 14.4457 21.884L14.4424 21.8807Z" fill="#414141"/>
</g>
<defs>
<clipPath id="clip0_314_11465">
<rect width="43" height="34" fill="white"/>
</clipPath>
</defs>
</svg>
