<svg width="36" height="40" viewBox="0 0 36 40" fill="none" xmlns="http://www.w3.org/2000/svg">
<g clip-path="url(#clip0_314_11766)">
<path d="M24.8054 4.34485C24.8699 4.40946 24.9086 4.49991 24.9086 4.59037V6.46082C24.9086 6.74511 25.0151 7.0197 25.2054 7.23291L25.2409 7.27491L25.8248 6.69988C26.27 6.26699 26.9862 6.27669 27.4185 6.71603L29.3413 8.73509L30.4994 9.57825L31.1737 8.916L30.222 7.87901L25.8087 3.46615C25.5893 3.24648 25.299 3.12695 24.986 3.12695H23.6182V4.2544L24.5602 4.24147C24.6505 4.24147 24.7408 4.27701 24.8086 4.34162L24.8054 4.34485Z" fill="#BFD730"/>
<path d="M22.9244 2.96891C22.9244 1.71547 21.905 0.691406 20.65 0.691406H4.68407C3.42911 0.691406 2.40967 1.71224 2.40967 2.96891V36.6856H22.9212V2.96891H22.9244ZM4.88086 3.25642C4.88086 3.06582 5.03571 2.91076 5.22605 2.91076H20.1048C20.2951 2.91076 20.45 3.06582 20.45 3.25642V14.0657C20.45 14.2563 20.2951 14.4113 20.1048 14.4113H5.22928C5.03894 14.4113 4.88408 14.2563 4.88408 14.0657V3.25642H4.88086ZM21.2404 34.6859C21.2404 34.8765 21.0855 35.0316 20.8952 35.0316H4.5034C4.31306 35.0316 4.15821 34.8765 4.15821 34.6859V16.6533C4.15821 16.4627 4.31306 16.3076 4.5034 16.3076H20.8952C21.0855 16.3076 21.2404 16.4627 21.2404 16.6533V34.6859Z" fill="#00A19C"/>
<path d="M23.6796 37.377H1.65503C1.12273 37.377 0.69043 37.8098 0.69043 38.3429V39.3056H24.641V38.3429C24.641 37.8098 24.2087 37.377 23.6764 37.377H23.6796Z" fill="#BFD730"/>
<path d="M19.7598 3.60205H5.57471V13.7167H19.7598V3.60205Z" fill="#F5F5F5"/>
<path d="M5.22947 14.4112H20.1082C20.2986 14.4112 20.4534 14.2561 20.4534 14.0655V3.25631C20.4534 3.06571 20.2986 2.91064 20.1082 2.91064H5.22947C5.03913 2.91064 4.88428 3.06571 4.88428 3.25631V14.0655C4.88428 14.2561 5.03913 14.4112 5.22947 14.4112ZM5.57466 3.60197H19.7598V13.7167H5.57466V3.60197Z" fill="#414141"/>
<path d="M25.2764 23.4501V31.5425C25.2893 32.9736 26.2507 35.6872 29.78 35.6872C31.9157 35.6872 33.5191 34.5436 34.4159 32.3824C37.0742 25.9699 33.1126 11.8978 31.6189 9.45557L30.9769 10.0855C31.5898 11.2226 32.8061 14.9216 33.6255 19.1341C34.432 23.2756 35.0644 28.9258 33.4803 32.321C32.7125 33.9718 31.4673 34.8085 29.78 34.8085C26.9733 34.8085 26.1829 32.7571 26.1571 31.5425V23.4501C26.1571 22.7749 25.6054 22.2257 24.9312 22.2257H23.6182V23.1044H24.9312C25.1215 23.1044 25.2764 23.2595 25.2764 23.4501Z" fill="#F5F5F5"/>
<path d="M29.7801 36.3786C32.219 36.3786 34.0418 35.0864 35.0548 32.6442C37.9389 25.6857 33.4514 10.2859 31.9125 8.6965L30.7286 7.40753C30.7286 7.40753 30.7221 7.40107 30.7189 7.39784L26.2991 2.97852C25.9475 2.62962 25.4829 2.43579 24.9893 2.43579H23.5699C23.3182 1.05314 22.1084 0 20.6535 0H4.68429C3.04866 0 1.71951 1.33096 1.71951 2.96883V36.6855H1.65499C0.742002 36.6855 0 37.4285 0 38.3428V39.6511C0 39.8417 0.154853 39.9968 0.345192 39.9968H24.9893C25.1797 39.9968 25.3345 39.8417 25.3345 39.6511V38.3428C25.3345 37.4285 24.5925 36.6855 23.6795 36.6855H23.615V23.7958H24.5796V31.5426C24.5958 33.216 25.7023 36.3754 29.7769 36.3754L29.7801 36.3786ZM24.6441 39.3054H0.693611V38.3428C0.693611 37.8097 1.12591 37.3768 1.65821 37.3768H23.6828C24.2151 37.3768 24.6474 37.8097 24.6474 38.3428V39.3054H24.6441ZM2.41312 36.6855V2.96883C2.41312 1.71539 3.43257 0.691326 4.68752 0.691326H20.6535C21.9084 0.691326 22.9279 1.71216 22.9279 2.96883V36.6855H2.41312ZM23.615 3.13035H24.9829C25.2926 3.13035 25.5862 3.24988 25.8055 3.46955L30.2188 7.88241L31.1705 8.9194L30.4963 9.58165L29.3381 8.73849L27.4154 6.71943C26.9798 6.28008 26.2669 6.27362 25.8217 6.70328L25.2377 7.27831L25.2023 7.23631C25.0119 7.0231 24.9055 6.74851 24.9055 6.46422V4.59377C24.9055 4.50008 24.8667 4.41286 24.8022 4.34825C24.7377 4.28364 24.6441 4.2481 24.5538 4.2481L23.6118 4.26102V3.13358L23.615 3.13035ZM23.615 4.94912L24.2151 4.94266V6.46099C24.2151 6.91649 24.3828 7.35584 24.6829 7.69181L26.6508 9.95316C26.6508 9.95316 26.6605 9.96608 26.6669 9.96931C27.2057 10.5088 28.0832 10.5088 28.6219 9.96931L29.1413 9.4492L30.2801 10.2794C31.1802 11.4812 35.6903 25.9086 32.8417 32.0239C32.1771 33.4486 31.2028 34.1108 29.7704 34.1108C27.0347 34.1108 26.8476 31.9561 26.8411 31.5329V23.4502C26.8411 22.3906 25.9797 21.5313 24.9216 21.5313H23.6086V4.94912H23.615ZM28.6284 8.99047L28.138 9.48151C27.8702 9.74641 27.4379 9.74964 27.167 9.48797L25.883 8.01163L25.57 7.91795L26.3056 7.19755C26.4798 7.02956 26.7572 7.03279 26.9218 7.19755L28.6284 8.99047ZM23.615 22.2258H24.928C25.6055 22.2258 26.154 22.775 26.154 23.4502V31.5426C26.1798 32.754 26.9734 34.8086 29.7769 34.8086C31.4641 34.8086 32.7062 33.9719 33.4772 32.3211C35.0612 28.9226 34.4289 23.2757 33.6224 19.1342C32.7997 14.9217 31.5867 11.2227 30.9737 10.0856L31.6157 9.45566C33.1094 11.8979 37.0711 25.97 34.4128 32.3825C33.5159 34.5437 31.9125 35.6873 29.7769 35.6873C26.2475 35.6873 25.2861 32.9737 25.2732 31.5426V23.4502C25.2732 23.2596 25.1184 23.1045 24.928 23.1045H23.615V22.2258Z" fill="#414141"/>
<path d="M4.84863 34.3369H20.55V16.9956H4.84863V34.3369ZM12.7558 19.2828C16.4142 19.2828 19.3919 22.2645 19.3919 25.9279C19.3919 29.5913 16.4142 32.5731 12.7558 32.5731C9.0974 32.5731 6.11971 29.5913 6.11971 25.9279C6.11971 22.2645 9.0974 19.2828 12.7558 19.2828Z" fill="#F5F5F5"/>
<path d="M20.8952 16.3042H4.5034C4.31306 16.3042 4.1582 16.4593 4.1582 16.6499V34.6825C4.1582 34.8731 4.31306 35.0282 4.5034 35.0282H20.8952C21.0855 35.0282 21.2404 34.8731 21.2404 34.6825V16.6499C21.2404 16.4593 21.0855 16.3042 20.8952 16.3042ZM20.55 34.3368H4.84859V16.9955H20.55V34.3368Z" fill="#414141"/>
<path d="M12.7687 31.8819C16.0464 31.8755 18.7079 29.1974 18.6982 25.9152C18.6918 22.633 16.0174 19.9679 12.7396 19.9776C9.46194 19.984 6.80041 22.6621 6.81008 25.9443C6.81654 29.2265 9.49097 31.8916 12.7687 31.8819ZM9.81681 26.0864L13.6913 21.1147C13.7914 20.9855 13.972 20.9435 14.1172 21.0178C14.2656 21.0921 14.3398 21.2568 14.2979 21.4151L13.3752 24.9525H15.4689C15.6012 24.9461 15.7238 25.0236 15.7819 25.1431C15.8399 25.2627 15.8238 25.4048 15.7431 25.5082L11.8686 30.4799C11.8009 30.5671 11.7008 30.6124 11.5976 30.6124C11.546 30.6124 11.4944 30.5994 11.4428 30.5768C11.2944 30.5025 11.2202 30.3378 11.2621 30.1795L12.1848 26.6421H10.091C9.95875 26.6485 9.83616 26.571 9.77809 26.4515C9.72002 26.332 9.73293 26.1898 9.81681 26.0864Z" fill="#FDB924"/>
<path d="M12.7562 32.5764C16.4146 32.5764 19.3923 29.5946 19.3923 25.9313C19.3923 22.2679 16.4146 19.2861 12.7562 19.2861C9.0978 19.2861 6.12012 22.2679 6.12012 25.9313C6.12012 29.5946 9.0978 32.5764 12.7562 32.5764ZM12.7562 19.9775C16.0339 19.9775 18.7019 22.6491 18.7019 25.9313C18.7019 29.2134 16.0339 31.8851 12.7562 31.8851C9.47848 31.8851 6.8105 29.2134 6.8105 25.9313C6.8105 22.6491 9.47848 19.9775 12.7562 19.9775Z" fill="#414141"/>
<path d="M12.9045 26.083C12.969 26.167 12.9916 26.2801 12.9658 26.3834L12.3496 28.7288L14.7595 25.6501H12.9271C12.8206 25.6501 12.7174 25.6017 12.6529 25.5144C12.5883 25.4304 12.5658 25.3174 12.5916 25.214L13.2077 22.8687L10.7979 25.9473H12.6303C12.7367 25.9473 12.84 25.9958 12.9045 26.083Z" fill="#BFD730"/>
<path d="M10.088 26.6385H12.1818L11.2494 30.1727C11.2075 30.331 11.2817 30.499 11.4301 30.5733C11.4785 30.5991 11.5333 30.6088 11.585 30.6088C11.6882 30.6088 11.7914 30.5636 11.8592 30.4763L15.7434 25.5143C15.824 25.4109 15.8402 25.2688 15.7821 25.1493C15.724 25.0297 15.6047 24.9554 15.4692 24.9554H13.3754L14.3078 21.4213C14.3497 21.263 14.2755 21.095 14.1271 21.0239C13.9787 20.9496 13.8013 20.9916 13.7013 21.1208L9.81705 26.0829C9.7364 26.1862 9.72027 26.3284 9.77834 26.4479C9.83641 26.5674 9.95578 26.6417 10.0913 26.6417L10.088 26.6385ZM13.2109 22.8685L12.5947 25.2139C12.5689 25.3172 12.5883 25.4303 12.656 25.5143C12.7205 25.5983 12.8238 25.65 12.9302 25.65H14.7627L12.3528 28.7286L12.9689 26.3833C12.9948 26.2799 12.9754 26.1669 12.9077 26.0829C12.8431 25.9989 12.7399 25.9472 12.6334 25.9472H10.801L13.2109 22.8685Z" fill="#414141"/>
</g>
<defs>
<clipPath id="clip0_314_11766">
<rect width="36" height="40" fill="white"/>
</clipPath>
</defs>
</svg>
