<svg width="46" height="32" viewBox="0 0 46 32" fill="none" xmlns="http://www.w3.org/2000/svg">
<g clip-path="url(#clip0_314_10954)">
<path d="M6.27363 24.0991H5.67922C5.2105 24.0991 4.83008 24.4815 4.83008 24.9527V30.3475C4.83008 30.8187 5.2105 31.2011 5.67922 31.2011H6.27363V24.0991Z" fill="#FDB924"/>
<path d="M8.36248 24.0991H7.07178V31.2011H8.36248C10.3087 31.2011 11.8949 29.61 11.8949 27.6501C11.8949 25.6902 10.3121 24.0991 8.36248 24.0991Z" fill="#FDB924"/>
<path d="M4.46973 9.55001V14.3131C4.46973 14.9721 4.9962 15.4501 5.72307 15.4501H7.84254C8.04294 13.3025 9.84653 11.6157 12.0373 11.6157C14.2281 11.6157 16.0283 13.3025 16.2321 15.4501H31.1092C31.3096 13.3025 33.1132 11.6157 35.304 11.6157C37.4948 11.6157 39.295 13.3025 39.4987 15.4501H43.6698C44.3593 15.4501 44.9231 14.8833 44.9231 14.1902V12.6674C44.9231 11.2538 43.9653 10.0485 42.593 9.73439L36.9309 8.22863C35.7489 7.95889 34.6212 7.39209 33.6872 6.59653L27.7432 1.51928C27.2031 1.05833 26.517 0.805664 25.8071 0.805664H12.4619C11.6128 0.805664 10.7976 1.17101 10.2303 1.80951L5.23736 7.42624C4.76863 7.95547 4.47652 8.76811 4.47652 9.55342L4.46973 9.55001ZM18.0493 8.61104L23.1476 2.21241C23.2664 2.06559 23.4702 2.0212 23.6401 2.10656C23.8099 2.19192 23.8948 2.38654 23.8439 2.57092L22.5939 7.17015L25.3893 7.15991C25.5422 7.15991 25.6814 7.24869 25.7494 7.38526C25.8173 7.52525 25.7969 7.68915 25.7018 7.80865L20.6035 14.2073C20.5254 14.3063 20.4099 14.3575 20.291 14.3575C20.2299 14.3575 20.1688 14.3439 20.111 14.3131C19.9412 14.2278 19.8563 14.0331 19.9072 13.8488L21.1572 9.24954L18.3618 9.25978C18.1987 9.27003 18.0663 9.17101 18.0017 9.03443C17.9338 8.89444 17.9542 8.73055 18.0493 8.61104Z" fill="#00A19C"/>
<path d="M38.7143 15.85C38.7143 13.9584 37.1824 12.415 35.2973 12.415C33.4122 12.415 31.8804 13.9549 31.8804 15.85C31.8804 17.745 33.4122 19.2849 35.2973 19.2849C37.1824 19.2849 38.7143 17.745 38.7143 15.85ZM33.3749 15.85C33.3749 15.628 33.5549 15.4505 33.7723 15.4505C33.9897 15.4505 34.1697 15.6314 34.1697 15.85C34.1697 16.4748 34.6758 16.9835 35.2973 16.9835C35.9189 16.9835 36.425 16.4748 36.425 15.85C36.425 15.2251 35.9189 14.7164 35.2973 14.7164C35.0766 14.7164 34.8999 14.5354 34.8999 14.3169C34.8999 14.0984 35.08 13.9174 35.2973 13.9174C36.3571 13.9174 37.2232 14.7847 37.2232 15.8534C37.2232 16.9221 36.3605 17.7893 35.2973 17.7893C34.2342 17.7893 33.3715 16.9221 33.3715 15.8534L33.3749 15.85Z" fill="#F5F5F5"/>
<path d="M41.5572 19.2847H37.7497C38.7109 18.5881 39.3732 17.4989 39.4887 16.2493H43.6597C44.7908 16.2493 45.7113 15.3239 45.7113 14.1869V12.6641C45.7113 10.8715 44.4987 9.34528 42.7732 8.95262L37.1111 7.44686C36.0412 7.20102 35.0324 6.69569 34.1934 5.98207L28.2494 0.904823C27.5667 0.320956 26.6938 0 25.7971 0H12.4519C11.3752 0 10.346 0.464362 9.62591 1.27017L4.63293 6.8869C4.03852 7.55612 3.66829 8.57362 3.66829 9.54673V12.6265C1.48768 12.787 -0.00341797 14.2723 -0.00341797 16.3483C-0.00341797 18.4242 1.66431 20.0871 3.71585 20.0871H41.5572C43.568 20.0871 45.2018 21.7294 45.2018 23.7507C45.2018 25.7721 43.568 27.4144 41.5572 27.4144H12.6794C12.5572 25.1233 10.6721 23.2932 8.36238 23.2932H5.67908C4.77219 23.2932 4.03173 24.0376 4.03173 24.9492V25.6219H0.397379C0.176601 25.6219 -2.13799e-05 25.8028 -2.13799e-05 26.0213C-2.13799e-05 26.2399 0.179998 26.4208 0.397379 26.4208H4.03173V29.2002H0.397379C0.176601 29.2002 -2.13799e-05 29.3811 -2.13799e-05 29.5997C-2.13799e-05 29.8182 0.179998 29.9991 0.397379 29.9991H4.03173V30.3338C4.03173 31.2454 4.76879 31.9898 5.67908 31.9898H8.36238C10.5566 31.9898 12.3704 30.3372 12.6489 28.2066H41.5572C44.0062 28.2066 46 26.2023 46 23.7405C46 21.2787 44.0062 19.2744 41.5572 19.2744V19.2847ZM12.4519 0.80239H25.7971C26.507 0.80239 27.1931 1.05506 27.7331 1.51601L33.6772 6.59326C34.6112 7.39223 35.7389 7.95561 36.9209 8.22535L42.583 9.73111C43.9552 10.0452 44.9131 11.2505 44.9131 12.6641V14.1869C44.9131 14.8801 44.3492 15.4469 43.6597 15.4469H39.4887C39.2883 13.2992 37.4847 11.6125 35.2939 11.6125C33.1031 11.6125 31.3029 13.2992 31.0991 15.4469H16.2221C16.0217 13.2992 14.2181 11.6125 12.0273 11.6125C9.8365 11.6125 8.03631 13.2992 7.83251 15.4469H5.71304C4.98617 15.4469 4.4597 14.9688 4.4597 14.3099V9.54673C4.4597 8.76142 4.75181 7.94878 5.22054 7.41955L10.2203 1.80623C10.7875 1.16773 11.5993 0.80239 12.4519 0.80239ZM8.62052 15.8498C8.62052 13.9582 10.1524 12.4149 12.0375 12.4149C13.9226 12.4149 15.4545 13.9548 15.4545 15.8498C15.4545 17.7448 13.9226 19.2847 12.0375 19.2847C10.1524 19.2847 8.62052 17.7448 8.62052 15.8498ZM31.8838 15.8498C31.8838 13.9582 33.4156 12.4149 35.3007 12.4149C37.1858 12.4149 38.7177 13.9548 38.7177 15.8498C38.7177 17.7448 37.1858 19.2847 35.3007 19.2847C33.4156 19.2847 31.8838 17.7448 31.8838 15.8498ZM16.2289 16.2493H31.1059C31.2248 17.4989 31.8838 18.5881 32.845 19.2847H14.4898C15.4511 18.5881 16.1134 17.4989 16.2289 16.2493ZM0.798177 16.3483C0.798177 14.7162 1.93603 13.5826 3.67169 13.4324V14.3133C3.67169 15.4195 4.5548 16.2527 5.72323 16.2527H7.8427C7.96158 17.5023 8.62052 18.5915 9.58176 19.2881H3.71924C2.10926 19.2881 0.798177 17.9701 0.798177 16.3517V16.3483ZM8.36238 31.1976H7.07168V24.0956H8.36238C10.3086 24.0956 11.8948 25.6867 11.8948 27.6466C11.8948 29.6065 10.312 31.1976 8.36238 31.1976ZM4.82993 30.344V24.9492C4.82993 24.478 5.21035 24.0956 5.67908 24.0956H6.27348V31.1976H5.67908C5.21035 31.1976 4.82993 30.8152 4.82993 30.344Z" fill="#414141"/>
<path d="M12.0376 19.2814C13.9227 19.2814 15.4545 17.7415 15.4545 15.8465C15.4545 13.9515 13.9227 12.4116 12.0376 12.4116C10.1525 12.4116 8.62061 13.9515 8.62061 15.8465C8.62061 17.7415 10.1525 19.2814 12.0376 19.2814ZM10.1117 15.8499C10.1117 14.7846 10.9744 13.914 12.0376 13.914C13.1007 13.914 13.9634 14.7812 13.9634 15.8499C13.9634 16.0719 13.7834 16.2494 13.566 16.2494C13.3487 16.2494 13.1686 16.0685 13.1686 15.8499C13.1686 15.2251 12.6625 14.7164 12.041 14.7164C11.4194 14.7164 10.9133 15.2251 10.9133 15.8499C10.9133 16.4748 11.4194 16.9835 12.041 16.9835C12.2617 16.9835 12.4384 17.1645 12.4384 17.383C12.4384 17.6015 12.2584 17.7825 12.041 17.7825C10.9812 17.7825 10.1151 16.9152 10.1151 15.8465L10.1117 15.8499Z" fill="#F5F5F5"/>
<path d="M12.0377 17.7855C12.2584 17.7855 12.4351 17.6046 12.4351 17.386C12.4351 17.1675 12.255 16.9866 12.0377 16.9866C11.4161 16.9866 10.91 16.4778 10.91 15.853C10.91 15.2281 11.4161 14.7194 12.0377 14.7194C12.6592 14.7194 13.1653 15.2281 13.1653 15.853C13.1653 16.0749 13.3453 16.2525 13.5627 16.2525C13.7801 16.2525 13.9601 16.0715 13.9601 15.853C13.9601 14.7877 13.0974 13.917 12.0343 13.917C10.9711 13.917 10.1084 14.7843 10.1084 15.853C10.1084 16.9217 10.9711 17.789 12.0343 17.789L12.0377 17.7855Z" fill="#414141"/>
<path d="M37.2233 15.8496C37.2233 14.7843 36.3606 13.9136 35.2975 13.9136C35.0767 13.9136 34.9001 14.0945 34.9001 14.3131C34.9001 14.5316 35.0801 14.7125 35.2975 14.7125C35.919 14.7125 36.4251 15.2213 36.4251 15.8461C36.4251 16.471 35.919 16.9797 35.2975 16.9797C34.6759 16.9797 34.1698 16.471 34.1698 15.8461C34.1698 15.6242 33.9898 15.4467 33.7724 15.4467C33.555 15.4467 33.375 15.6276 33.375 15.8461C33.375 16.9149 34.2377 17.7821 35.3009 17.7821C36.364 17.7821 37.2267 16.9149 37.2267 15.8461L37.2233 15.8496Z" fill="#414141"/>
<path d="M21.6841 8.44728C21.8097 8.44728 21.9252 8.50532 21.9999 8.60434C22.0747 8.70336 22.1018 8.83311 22.0679 8.95261L21.1882 12.1963L24.561 7.96243L22.0747 7.97267C21.949 7.97267 21.8335 7.91463 21.7588 7.81561C21.6841 7.71659 21.6569 7.58684 21.6909 7.46734L22.5706 4.22363L19.1978 8.45752L21.6841 8.44728Z" fill="#FDB924"/>
<path d="M18.362 9.26326L21.1573 9.25302L19.9074 13.8523C19.8565 14.0366 19.9414 14.2278 20.1112 14.3166C20.1689 14.3473 20.2301 14.361 20.2912 14.361C20.4101 14.361 20.5256 14.3098 20.6037 14.2108L25.702 7.81213C25.7971 7.69263 25.8175 7.52532 25.7495 7.38874C25.6816 7.24875 25.5423 7.16339 25.3895 7.16339L22.5941 7.17363L23.844 2.5744C23.895 2.39002 23.8101 2.19881 23.6403 2.11004C23.4704 2.02468 23.2666 2.06907 23.1477 2.21589L18.0495 8.61452C17.9544 8.73403 17.934 8.90133 18.0019 9.03791C18.0698 9.1779 18.1989 9.2735 18.362 9.26326ZM22.5703 4.22357L21.6906 7.46727C21.6566 7.58678 21.6838 7.71653 21.7585 7.81555C21.8333 7.91456 21.9521 7.97261 22.0744 7.97261L24.5607 7.96237L21.1879 12.1963L22.0676 8.95255C22.1016 8.83304 22.0744 8.7033 21.9997 8.60428C21.925 8.50526 21.8061 8.44721 21.6838 8.44721L19.1975 8.45746L22.5703 4.22357Z" fill="#414141"/>
</g>
<defs>
<clipPath id="clip0_314_10954">
<rect width="46" height="32" fill="white"/>
</clipPath>
</defs>
</svg>
