<svg width="37" height="33" viewBox="0 0 37 33" fill="none" xmlns="http://www.w3.org/2000/svg">
<g clip-path="url(#clip0_314_10981)">
<path d="M18.5002 28.7214C18.1591 28.7214 17.8838 28.4486 17.8838 28.1106V19.8613C17.8838 19.5233 18.1591 19.2505 18.5002 19.2505C18.8413 19.2505 19.1165 19.5233 19.1165 19.8613V28.1106C19.1165 28.4486 18.8413 28.7214 18.5002 28.7214Z" fill="#414141"/>
<path d="M14.4909 6.11133C14.1498 6.11133 13.8745 5.83853 13.8745 5.50049V0.610837C13.8745 0.272801 14.1498 0 14.4909 0C14.832 0 15.1072 0.272801 15.1072 0.610837V5.50049C15.1072 5.83853 14.832 6.11133 14.4909 6.11133Z" fill="#414141"/>
<path d="M22.5094 6.11133C22.1683 6.11133 21.8931 5.83853 21.8931 5.50049V0.610837C21.8931 0.272801 22.1683 0 22.5094 0C22.8505 0 23.1258 0.272801 23.1258 0.610837V5.50049C23.1258 5.83853 22.8505 6.11133 22.5094 6.11133Z" fill="#414141"/>
<path d="M21.2734 16.8071V18.0288C21.2734 19.0399 20.4446 19.8613 19.4243 19.8613H17.5752C16.5549 19.8613 15.7261 19.0399 15.7261 18.0288V16.8071" fill="#F5F5F5"/>
<path d="M19.4244 20.4721H17.5753C16.2139 20.4721 15.1099 19.375 15.1099 18.0288V16.8071C15.1099 16.4691 15.3851 16.1963 15.7262 16.1963C16.0673 16.1963 16.3426 16.4691 16.3426 16.8071V18.0288C16.3426 18.7019 16.8961 19.2505 17.5753 19.2505H19.4244C20.1036 19.2505 20.6572 18.7019 20.6572 18.0288V16.8071C20.6572 16.4691 20.9324 16.1963 21.2735 16.1963C21.6146 16.1963 21.8899 16.4691 21.8899 16.8071V18.0288C21.8899 19.378 20.7828 20.4721 19.4244 20.4721Z" fill="#414141"/>
<path d="M24.6664 8.55469V13.4443C24.6664 15.3006 23.1494 16.8069 21.2734 16.8069H15.7231C13.8501 16.8069 12.3301 15.3035 12.3301 13.4443V8.55469" fill="#F5F5F5"/>
<path d="M21.2735 17.4177H15.7232C13.5121 17.4177 11.7139 15.6356 11.7139 13.4443V8.55468C11.7139 8.21665 11.9891 7.94385 12.3302 7.94385C12.6713 7.94385 12.9466 8.21665 12.9466 8.55468V13.4443C12.9466 14.9596 14.1913 16.1931 15.7203 16.1931H21.2706C22.7995 16.1931 24.0442 14.9596 24.0442 13.4443V8.55468C24.0442 8.21665 24.3195 7.94385 24.6606 7.94385C25.0017 7.94385 25.2769 8.21665 25.2769 8.55468V13.4443C25.2769 15.6356 23.4787 17.4177 21.2676 17.4177H21.2735Z" fill="#414141"/>
<path d="M24.8222 8.55467H11.8725C11.0197 8.55467 10.3315 7.8697 10.3315 7.02758C10.3315 6.18249 11.0227 5.50049 11.8725 5.50049H24.8222C25.6749 5.50049 26.3631 6.18546 26.3631 7.02758C26.3631 7.87267 25.6719 8.55467 24.8222 8.55467Z" fill="#00A19C"/>
<path d="M24.8223 9.1655H11.8726C10.6818 9.1655 9.71533 8.20477 9.71533 7.02758C9.71533 5.85038 10.6848 4.88965 11.8726 4.88965H24.8223C26.0132 4.88965 26.9796 5.85038 26.9796 7.02758C26.9796 8.20477 26.0102 9.1655 24.8223 9.1655ZM11.8726 6.11132C11.364 6.11132 10.9481 6.52349 10.9481 7.02758C10.9481 7.53167 11.364 7.94383 11.8726 7.94383H24.8223C25.331 7.94383 25.7469 7.53167 25.7469 7.02758C25.7469 6.52349 25.331 6.11132 24.8223 6.11132H11.8726Z" fill="#414141"/>
<path d="M33.915 16.8071H36.3805V19.5559C36.3805 26.6398 30.5789 32.3894 23.4308 32.3894H20.9653V29.6406C20.9653 22.5567 26.767 16.8071 33.915 16.8071Z" fill="#BFD730"/>
<path d="M23.4339 33.0002H20.9684C20.6273 33.0002 20.3521 32.7274 20.3521 32.3894V29.6406C20.3521 22.2276 26.4379 16.1963 33.9181 16.1963H36.3836C36.7247 16.1963 37 16.4691 37 16.8071V19.5559C37 26.969 30.9141 33.0002 23.4339 33.0002ZM21.5818 31.7786H23.4309C30.2319 31.7786 35.7642 26.2958 35.7642 19.5559V17.418H33.9151C27.1141 17.418 21.5818 22.9007 21.5818 29.6406V31.7786Z" fill="#414141"/>
<path d="M20.9655 33.0004C20.8069 33.0004 20.6513 32.9411 20.5286 32.8225C20.2893 32.5853 20.2893 32.1969 20.5286 31.9597L27.3117 25.2375C27.554 25.0003 27.943 25.0003 28.1854 25.2375C28.4247 25.4747 28.4247 25.8631 28.1854 26.1004L21.4023 32.8225C21.2826 32.9411 21.1241 33.0004 20.9655 33.0004Z" fill="#414141"/>
<path d="M16.0347 32.3892H13.5692C6.42113 32.3892 0.619497 26.6396 0.619497 19.5557V16.8069H3.08497C10.233 16.8069 16.0347 22.5565 16.0347 29.6404V32.3892Z" fill="#BFD730"/>
<path d="M16.0315 33.0002H13.5661C6.08588 33.0002 0 26.969 0 19.5559V16.8071C0 16.4691 0.275271 16.1963 0.616367 16.1963H3.08184C10.562 16.1963 16.6479 22.2276 16.6479 29.6406V32.3894C16.6479 32.7274 16.3726 33.0002 16.0315 33.0002ZM1.23273 17.418V19.5559C1.23273 26.2958 6.76508 31.7786 13.5661 31.7786H15.4152V29.6406C15.4152 22.9007 9.88282 17.418 3.08184 17.418H1.23273Z" fill="#414141"/>
<path d="M16.0317 33.0004C15.8731 33.0004 15.7176 32.9411 15.5949 32.8225L8.81185 26.1004C8.57248 25.8631 8.57248 25.4747 8.81185 25.2375C9.05421 25.0003 9.44318 25.0003 9.68553 25.2375L16.4686 31.9597C16.7079 32.1969 16.7079 32.5853 16.4686 32.8225C16.3489 32.9411 16.1903 33.0004 16.0317 33.0004Z" fill="#414141"/>
</g>
<defs>
<clipPath id="clip0_314_10981">
<rect width="37" height="33" fill="white"/>
</clipPath>
</defs>
</svg>
