<svg width="26" height="37" viewBox="0 0 26 37" fill="none" xmlns="http://www.w3.org/2000/svg">
<g clip-path="url(#clip0_314_10113)">
<path d="M0.448242 34.4827V23.6124C0.448242 23.3683 0.649813 23.1688 0.896472 23.1688H5.37877V18.1051L10.5135 23.1688H12.7732V18.1051L17.8443 23.3919H19.9449V15.3908C19.9449 15.0311 20.2393 14.7397 20.6027 14.7397H24.8914C25.2547 14.7397 25.5491 15.0311 25.5491 15.3908V35.6745C25.5491 36.1627 25.1486 36.5565 24.658 36.5565H0.448242V34.4827Z" fill="#00A19C"/>
<path d="M24.658 36.9999H0.44823C0.201571 36.9999 0 36.8004 0 36.5563V23.6122C0 23.1239 0.403142 22.7249 0.89646 22.7249H4.93053V18.1048C4.93053 17.9263 5.03927 17.7636 5.20637 17.6953C5.37346 17.6271 5.56707 17.6638 5.69438 17.7898L10.6992 22.7249H12.3277V18.1048C12.3277 17.9237 12.439 17.761 12.6088 17.6927C12.7785 17.6245 12.9748 17.6665 13.0995 17.8003L18.0379 22.948H19.4967V15.3905C19.4967 14.7868 19.9927 14.2959 20.6027 14.2959H24.8914C25.5014 14.2959 25.9973 14.7868 25.9973 15.3905V35.6743C25.9973 36.4066 25.3953 36.9999 24.658 36.9999ZM0.89646 36.1126H24.658C24.902 36.1126 25.1009 35.9158 25.1009 35.6743V15.3932C25.1009 15.2777 25.0081 15.1858 24.8914 15.1858H20.6027C20.486 15.1858 20.3931 15.2777 20.3931 15.3932V23.3943C20.3931 23.6384 20.1916 23.8379 19.9449 23.8379H17.8443C17.7223 23.8379 17.603 23.7881 17.5181 23.6988L13.2188 19.2179V23.1712C13.2188 23.4153 13.0172 23.6148 12.7706 23.6148H10.5109C10.3915 23.6148 10.2775 23.5676 10.1952 23.4862L5.82434 19.1759V23.1712C5.82434 23.4153 5.62277 23.6148 5.37611 23.6148H0.89646V36.1153V36.1126Z" fill="#414141"/>
<path d="M22.4138 26.0537H17.2578C17.0102 26.0537 16.8096 26.2523 16.8096 26.4973V29.6028C16.8096 29.8478 17.0102 30.0464 17.2578 30.0464H22.4138C22.6613 30.0464 22.862 29.8478 22.862 29.6028V26.4973C22.862 26.2523 22.6613 26.0537 22.4138 26.0537Z" fill="#FDB924"/>
<path d="M22.4113 30.4898H17.2553C16.762 30.4898 16.3589 30.0908 16.3589 29.6026V26.4971C16.3589 26.0089 16.762 25.6099 17.2553 25.6099H22.4113C22.9046 25.6099 23.3078 26.0089 23.3078 26.4971V29.6026C23.3078 30.0908 22.9046 30.4898 22.4113 30.4898ZM22.4113 26.4971H17.2553V29.6026H22.4113V26.4971Z" fill="#414141"/>
<path d="M15.5713 12.645H13.6272C8.02034 12.645 3.46908 8.14044 3.46908 2.5911V0.446439H5.41317C11.02 0.446439 15.5713 4.95101 15.5713 10.5004V12.645Z" fill="#BFD730"/>
<path d="M15.5739 13.0885H13.6298C7.78157 13.0885 3.02344 8.37914 3.02344 2.59092V0.443633C3.02344 0.199503 3.22501 0 3.47167 0H5.41577C11.264 0 16.0221 4.70933 16.0221 10.4976V12.6422C16.0221 12.8863 15.8205 13.0858 15.5739 13.0858V13.0885ZM3.9199 0.887265V2.58829C3.9199 7.88826 8.27489 12.1986 13.6298 12.1986H15.1257V10.4976C15.1257 5.19759 10.768 0.887265 5.41311 0.887265H3.91725H3.9199Z" fill="#414141"/>
<path d="M15.5741 13.0887C15.4601 13.0887 15.3434 13.0441 15.2558 12.9601L9.93011 7.68897C9.75507 7.51571 9.75507 7.23483 9.93011 7.06158C10.1052 6.88833 10.389 6.88833 10.564 7.06158L15.8897 12.3327C16.0648 12.5059 16.0648 12.7868 15.8897 12.9601C15.8022 13.0467 15.6881 13.0887 15.5714 13.0887H15.5741Z" fill="#414141"/>
<path d="M25.2124 12.645H23.9473C20.1917 12.645 17.1443 9.62884 17.1443 5.91178V4.43651L18.4094 4.43651C22.165 4.43651 25.2124 7.45268 25.2124 11.1697V12.645Z" fill="#BFD730"/>
<path d="M25.2122 13.0885H23.9471C19.9475 13.0885 16.6958 9.86753 16.6958 5.91158V4.43631C16.6958 4.19218 16.8974 3.99268 17.144 3.99268H18.4092C22.4087 3.99268 25.6604 7.21361 25.6604 11.1695V12.6448C25.6604 12.889 25.4588 13.0885 25.2122 13.0885ZM17.5896 4.87994V5.91158C17.5896 9.37927 20.4408 12.2012 23.9444 12.2012H24.7613V11.1695C24.7613 7.70186 21.9101 4.87994 18.4065 4.87994H17.5896Z" fill="#414141"/>
<path d="M25.2119 13.0883C25.0979 13.0883 24.9812 13.0437 24.8963 12.9597L21.3105 9.41065C21.1354 9.23739 21.1354 8.95651 21.3105 8.78326C21.4855 8.61001 21.7693 8.61001 21.9444 8.78326L25.5302 12.3323C25.7053 12.5056 25.7053 12.7865 25.5302 12.9597C25.4427 13.0463 25.3286 13.091 25.2119 13.091V13.0883Z" fill="#414141"/>
</g>
<defs>
<clipPath id="clip0_314_10113">
<rect width="26" height="37" fill="white"/>
</clipPath>
</defs>
</svg>
