<svg width="41" height="37" viewBox="0 0 41 37" fill="none" xmlns="http://www.w3.org/2000/svg">
<g clip-path="url(#clip0_314_11317)">
<path d="M0.694336 36.3153V2.05481C0.694336 1.29679 1.3181 0.685059 2.08348 0.685059H11.4636C12.2323 0.685059 12.8527 1.30012 12.8527 2.05481L12.6808 35.9729" fill="#F5F5F5"/>
<path d="M0.694572 37C0.310197 37 0 36.6941 0 36.3151V2.05463C0 0.920927 0.933964 0 2.08372 0H11.4638C12.6136 0 13.5475 0.920927 13.5475 2.05463L13.3756 35.976C13.3756 36.3517 13.062 36.6576 12.681 36.6576H12.6776C12.2933 36.6576 11.9831 36.3484 11.9864 35.9694L12.1584 2.05131C12.1584 1.67562 11.8482 1.36975 11.4638 1.36975H2.08372C1.69934 1.36975 1.38914 1.67562 1.38914 2.05463V36.3151C1.38914 36.6941 1.07895 37 0.694572 37Z" fill="#414141"/>
<path d="M27.1017 6.50928H9.06979C8.28418 6.50928 7.64355 7.13764 7.64355 7.9156V17.8164H27.7963" fill="#FDB924"/>
<path d="M27.7965 18.4982H7.64379C7.25942 18.4982 6.94922 18.1923 6.94922 17.8133V7.91249C6.94922 6.75884 7.90004 5.82129 9.07002 5.82129H27.1019C27.4863 5.82129 27.7965 6.12716 27.7965 6.50617C27.7965 6.88518 27.4863 7.19104 27.1019 7.19104H9.07002C8.66879 7.19104 8.33836 7.51353 8.33836 7.91249V17.1284H27.7965C28.1809 17.1284 28.4911 17.4343 28.4911 17.8133C28.4911 18.1923 28.1809 18.4982 27.7965 18.4982Z" fill="#414141"/>
<path d="M38.9163 1.37012H29.1855C28.4183 1.37012 27.7964 1.98338 27.7964 2.73987V34.9457C27.7964 35.7022 28.4183 36.3155 29.1855 36.3155H38.9163C39.6835 36.3155 40.3054 35.7022 40.3054 34.9457V2.73987C40.3054 1.98338 39.6835 1.37012 38.9163 1.37012Z" fill="#F5F5F5"/>
<path d="M38.9132 37.0002H29.1858C28.036 37.0002 27.1021 36.0793 27.1021 34.9455V2.73969C27.1021 1.60599 28.036 0.685059 29.1858 0.685059H38.9132C40.0629 0.685059 40.9969 1.60599 40.9969 2.73969V34.9455C40.9969 36.0793 40.0629 37.0002 38.9132 37.0002ZM29.1858 2.05481C28.8014 2.05481 28.4912 2.36068 28.4912 2.73969V34.9455C28.4912 35.3246 28.8014 35.6304 29.1858 35.6304H38.9132C39.2975 35.6304 39.6077 35.3246 39.6077 34.9455V2.73969C39.6077 2.36068 39.2975 2.05481 38.9132 2.05481H29.1858Z" fill="#414141"/>
<path d="M0.694824 36.3147L3.47986 33.7547C5.02747 32.3284 5.90749 30.3336 5.90749 28.2457V19.1861C5.90749 15.4026 9.01958 12.334 12.8566 12.334H27.7966V36.3147" fill="#00A19C"/>
<path d="M0.694813 36.9998C0.509369 36.9998 0.323925 36.9266 0.185685 36.7837C-0.0773082 36.5077 -0.0604497 36.0722 0.219402 35.8162L3.00444 33.2529C4.40707 31.9629 5.21291 30.1344 5.21291 28.2426V19.183C5.21291 15.0272 8.64194 11.646 12.8566 11.646H27.7966C28.181 11.646 28.4912 11.9519 28.4912 12.3309V36.3116C28.4912 36.6906 28.181 36.9964 27.7966 36.9964C27.4123 36.9964 27.1021 36.6906 27.1021 36.3116V13.0191H12.8566C9.40731 13.0191 6.60205 15.7852 6.60205 19.1863V28.246C6.60205 30.5167 5.63774 32.7076 3.95189 34.2569L1.16685 36.8202C1.03198 36.9432 0.863399 37.0031 0.691442 37.0031L0.694813 36.9998Z" fill="#414141"/>
<path d="M8.68566 37.0001C8.51708 37.0001 8.34849 36.9403 8.21362 36.8173C7.9304 36.5613 7.91354 36.1257 8.17316 35.8498L11.238 32.5783C11.8315 31.9433 12.1585 31.1188 12.1585 30.2544V18.5018C12.1585 18.1228 12.4687 17.8169 12.8531 17.8169C13.2375 17.8169 13.5477 18.1228 13.5477 18.5018V30.2544C13.5477 31.4646 13.0891 32.6182 12.2563 33.5092L9.19142 36.7807C9.05318 36.927 8.86773 37.0001 8.67892 37.0001H8.68566Z" fill="#414141"/>
<path d="M16.6764 37.0001C16.5078 37.0001 16.3392 36.9403 16.2043 36.8173C15.9211 36.5613 15.9043 36.1257 16.1639 35.8498L19.2288 32.5783C19.8222 31.9433 20.1492 31.1188 20.1492 30.2544V18.5018C20.1492 18.1228 20.4594 17.8169 20.8438 17.8169C21.2282 17.8169 21.5384 18.1228 21.5384 18.5018V30.2544C21.5384 31.4646 21.0798 32.6182 20.247 33.5092L17.1821 36.7807C17.0439 36.927 16.8585 37.0001 16.6696 37.0001H16.6764Z" fill="#414141"/>
<path d="M34.7455 37.0001H0.694572C0.310197 37.0001 0 36.6943 0 36.3153C0 35.9362 0.310197 35.6304 0.694572 35.6304H34.7455C35.1299 35.6304 35.44 35.9362 35.44 36.3153C35.44 36.6943 35.1299 37.0001 34.7455 37.0001Z" fill="#414141"/>
</g>
<defs>
<clipPath id="clip0_314_11317">
<rect width="41" height="37" fill="white"/>
</clipPath>
</defs>
</svg>
