<svg width="38" height="37" viewBox="0 0 38 37" fill="none" xmlns="http://www.w3.org/2000/svg">
<g clip-path="url(#clip0_314_10059)">
<path d="M10.7109 16.0791H27.1881C30.1587 16.0791 32.5696 18.5248 32.5696 21.5447V28.7156H35.6979C36.2892 28.7156 36.5934 29.4385 36.183 29.8728L30.2936 36.1051C30.0439 36.3704 29.6306 36.3879 29.3608 36.143L22.4726 29.9224C22.0076 29.5026 22.3032 28.7243 22.9232 28.7302L26.1779 28.7564V23.594C26.1779 22.839 25.5751 22.2268 24.8318 22.2268H13.736" fill="#00A19C"/>
<path d="M29.8087 37C30.1618 37 30.5148 36.8571 30.7788 36.5773L36.6683 30.3421C37.0414 29.9457 37.1476 29.3656 36.9352 28.8613C36.7228 28.357 36.2377 28.0305 35.6982 28.0305H33.2414V21.5418C33.2414 18.1516 30.5263 15.394 27.1883 15.394H10.7112C10.3409 15.394 10.0396 15.7001 10.0396 16.0762C10.0396 16.4522 10.3409 16.7583 10.7112 16.7583H27.1883C29.7829 16.7583 31.8953 18.9037 31.8953 21.5388V28.7097C31.8953 29.0858 32.1967 29.3918 32.5669 29.3918H35.6953L29.8059 35.6241L22.9176 29.4035L26.1723 29.4297H26.1781C26.356 29.4297 26.5254 29.3598 26.6516 29.2315C26.7779 29.1033 26.8497 28.9284 26.8497 28.7476V23.5852C26.8497 22.4542 25.9456 21.5359 24.832 21.5359H13.7362C13.366 21.5359 13.0646 21.842 13.0646 22.218C13.0646 22.5941 13.366 22.9001 13.7362 22.9001H24.832C25.2022 22.9001 25.5036 23.2062 25.5036 23.5823V28.0568L22.9263 28.0364C22.3522 28.0305 21.8643 28.3745 21.6605 28.9109C21.4568 29.4472 21.6003 30.0419 22.0222 30.4237L28.9104 36.6443C29.1658 36.8775 29.4873 36.9912 29.803 36.9912L29.8087 37Z" fill="#414141"/>
<path d="M3.16309 17.8486H14.2158C16.2076 17.8486 17.8235 19.4898 17.8235 21.5128V26.3225H19.9215C20.3176 26.3225 20.5214 26.8064 20.2459 27.0979L16.2966 31.278C16.1302 31.4558 15.8518 31.4675 15.6709 31.3042L11.0501 27.1329C10.7401 26.853 10.9382 26.3283 11.3543 26.3313L13.5385 26.3488V22.8857C13.5385 22.3785 13.1338 21.9704 12.6373 21.9704H5.19224" fill="#BFD730"/>
<path d="M15.9752 32.1552C15.6996 32.1552 15.4212 32.0561 15.1974 31.8549L10.5765 27.6836C10.2092 27.3513 10.0857 26.8353 10.2637 26.3689C10.4388 25.9025 10.8607 25.6023 11.3629 25.6081L12.8238 25.6198V22.8913C12.8238 22.7893 12.7406 22.7048 12.6401 22.7048H5.19511V21.2473H12.6401C13.5327 21.2473 14.2589 21.9848 14.2589 22.8913V27.0889L12.0604 27.0714L15.9608 30.5928L19.3016 27.0569H17.1089V21.5184C17.1089 19.8976 15.8116 18.583 14.2187 18.583H3.16309V17.1255H14.2158C16.6009 17.1255 18.541 19.096 18.541 21.5184V25.5994H19.9215C20.3894 25.5994 20.8113 25.8821 20.9978 26.3194C21.1815 26.7566 21.0897 27.2638 20.7654 27.6078L16.8161 31.7879C16.5865 32.0298 16.2794 32.1552 15.9723 32.1552H15.9752Z" fill="#414141"/>
<path d="M15.9751 31.884C16.2133 31.884 16.4487 31.7878 16.6266 31.6012L20.5758 27.4182C20.8255 27.1529 20.8973 26.7623 20.7538 26.4242C20.6132 26.086 20.286 25.8674 19.9243 25.8674H18.2769V21.5153C18.2769 19.2416 16.4544 17.3906 14.2157 17.3906H3.16301C2.91331 17.3906 2.7124 17.5947 2.7124 17.8483C2.7124 18.1019 2.91331 18.3059 3.16301 18.3059H14.2157C15.9579 18.3059 17.3728 19.7459 17.3728 21.5124V26.3222C17.3728 26.5758 17.5737 26.7798 17.8234 26.7798H19.9215L15.9722 30.9599L11.3514 26.7886L13.5355 26.8061H13.5384C13.6561 26.8061 13.7709 26.7594 13.857 26.672C13.9431 26.5874 13.989 26.4679 13.989 26.3455V22.8825C13.989 22.1246 13.3805 21.5066 12.6343 21.5066H5.18929C4.93959 21.5066 4.73869 21.7106 4.73869 21.9642C4.73869 22.2179 4.93959 22.4219 5.18929 22.4219H12.6343C12.884 22.4219 13.0849 22.626 13.0849 22.8796V25.882L11.3571 25.8674C10.9725 25.8645 10.6453 26.0948 10.5076 26.4563C10.3727 26.8148 10.4674 27.2141 10.7515 27.4707L15.3724 31.642C15.5446 31.7965 15.7598 31.8752 15.9722 31.8752L15.9751 31.884Z" fill="#414141"/>
<path d="M27.9114 9.54371C28.7753 9.11812 29.7454 8.87909 30.77 8.87909C34.3921 8.87909 37.3282 11.8611 37.3282 15.5398C37.3282 19.2186 34.3921 22.2006 30.77 22.2006H7.22954C3.60749 22.2006 0.671387 19.2186 0.671387 15.5398C0.671387 11.8611 3.60749 8.87909 7.22954 8.87909C8.25417 8.87909 9.22426 9.11812 10.0882 9.54371V9.5612C10.0882 4.56198 14.0776 0.682129 18.9998 0.682129C23.922 0.682129 27.9114 4.5649 27.9114 9.5612" fill="#FDB924"/>
<path d="M30.7702 22.8827H7.22976C3.2432 22.8827 0 19.5887 0 15.5398C0 11.4909 3.2432 8.19696 7.22976 8.19696C7.99894 8.19696 8.74804 8.31647 9.46556 8.5555C9.95635 3.68455 13.9687 0 19 0C24.0313 0 28.0437 3.68455 28.5344 8.5555C29.252 8.31939 30.0011 8.19696 30.7702 8.19696C34.7568 8.19696 38 11.4909 38 15.5398C38 19.5887 34.7568 22.8827 30.7702 22.8827ZM7.22976 9.56409C3.98369 9.56409 1.34607 12.2459 1.34607 15.5398C1.34607 18.8338 3.98656 21.5156 7.22976 21.5156H30.7674C34.0134 21.5156 36.6511 18.8338 36.6511 15.5398C36.6511 12.2459 34.0106 9.56409 30.7674 9.56409C29.9121 9.56409 29.0912 9.74482 28.3249 10.1004C28.2101 10.1908 28.0666 10.2462 27.9116 10.2462C27.5414 10.2462 27.24 9.94012 27.24 9.56409C27.24 9.56409 27.24 9.54368 27.24 9.53494C27.2228 4.95257 23.6122 1.36713 19.0029 1.36713C14.3935 1.36713 10.7628 4.96715 10.7628 9.56409C10.7628 9.94012 10.4615 10.2462 10.0912 10.2462C9.93338 10.2462 9.78988 10.1908 9.67508 10.1004C8.90589 9.74482 8.08505 9.56409 7.23263 9.56409H7.22976Z" fill="#414141"/>
<path d="M16.1412 19.4661H15.1338C13.2797 19.4661 11.77 17.9328 11.77 16.0497V10.9281C11.77 9.04501 13.2797 7.51172 15.1338 7.51172H16.1412C16.5114 7.51172 16.8128 7.81779 16.8128 8.19383C16.8128 8.56986 16.5114 8.87594 16.1412 8.87594H15.1338C14.0202 8.87594 13.1161 9.79416 13.1161 10.9252V16.0468C13.1161 17.1778 14.0202 18.0961 15.1338 18.0961H16.1412C16.5114 18.0961 16.8128 18.4021 16.8128 18.7782C16.8128 19.1542 16.5114 19.4603 16.1412 19.4603V19.4661Z" fill="#414141"/>
<path d="M20.5124 19.4661C18.8449 19.4661 17.4873 18.0873 17.4873 16.3937V10.5871C17.4873 8.89344 18.8449 7.51465 20.5124 7.51465C22.1799 7.51465 23.5375 8.89344 23.5375 10.5871V16.3937C23.5375 18.0873 22.1799 19.4661 20.5124 19.4661ZM20.5124 8.87886C19.5853 8.87886 18.8305 9.64551 18.8305 10.5871V16.3937C18.8305 17.3353 19.5853 18.1019 20.5124 18.1019C21.4394 18.1019 22.1943 17.3353 22.1943 16.3937V10.5871C22.1943 9.64551 21.4394 8.87886 20.5124 8.87886Z" fill="#414141"/>
<path d="M28.5831 19.4663H25.2624C25.0012 19.4663 24.763 19.3118 24.654 19.0728C24.5449 18.8338 24.5793 18.5481 24.7487 18.3441L27.2399 15.3329V14.3447H26.2325V14.6857C26.2325 15.0618 25.9311 15.3678 25.5609 15.3678C25.1907 15.3678 24.8893 15.0618 24.8893 14.6857V13.6626C24.8893 13.2865 25.1907 12.9805 25.5609 12.9805H27.9144C28.2846 12.9805 28.586 13.2865 28.586 13.6626V15.5836C28.586 15.7439 28.5314 15.8984 28.4281 16.0237L26.7089 18.1021H28.586C28.9562 18.1021 29.2576 18.4082 29.2576 18.7842C29.2576 19.1603 28.9562 19.4663 28.586 19.4663H28.5831Z" fill="#414141"/>
</g>
<defs>
<clipPath id="clip0_314_10059">
<rect width="38" height="37" fill="white"/>
</clipPath>
</defs>
</svg>
