<svg width="42" height="36" viewBox="0 0 42 36" fill="none" xmlns="http://www.w3.org/2000/svg">
<g clip-path="url(#clip0_314_10027)">
<path d="M21.3891 35.2842L35.1044 23.0256C41.1686 16.8906 42.0907 13.3149 41.0555 9.13234C40.2748 5.96892 38.1337 2.34745 33.0594 0.907453C28.811 -0.297795 24.2232 1.92662 21.0836 5.06427C21.061 5.08717 21.0355 5.11294 21.0129 5.13584C20.9903 5.11294 20.9648 5.08717 20.9422 5.06427C17.7998 1.92376 13.2148 -0.300658 8.96362 0.904591C3.88934 2.34745 1.74818 5.96892 0.967524 9.13234C-0.0648691 13.3149 0.49234 16.5184 7.06854 23.1745L20.6367 35.2842C20.8517 35.476 21.177 35.476 21.3919 35.2842H21.3891Z" fill="#FDB924"/>
<path d="M21.0128 36.0001C20.7441 36.0001 20.4754 35.9056 20.2604 35.7138L6.69509 23.6069C6.69509 23.6069 6.67812 23.5898 6.66963 23.5812C0.00292295 16.8364 -0.664597 13.3752 0.418709 8.99222C1.03814 6.48152 2.95585 2.01838 8.81079 0.355083C13.3618 -0.93605 18.0288 1.5088 21.01 4.33727C24.0025 1.50594 28.6638 -0.93605 33.212 0.355083C39.0698 2.01838 40.9847 6.48152 41.6069 8.99508C42.6422 13.1805 41.9746 16.885 35.5059 23.4323C35.4974 23.4409 35.4889 23.4495 35.4805 23.4552L21.7652 35.7138C21.5502 35.9056 21.2815 36.0001 21.0128 36.0001ZM21.0072 34.855H21.0128L34.7139 22.6078C40.7923 16.4527 41.4401 13.0574 40.5038 9.26991C39.8193 6.49584 37.9441 2.88868 32.9037 1.45727C28.6497 0.249159 24.2118 2.73695 21.4767 5.47095L21.4088 5.53966C21.3013 5.64844 21.1627 5.69711 21.0072 5.70856C20.8573 5.70856 20.713 5.64844 20.6084 5.53966L20.5376 5.46808C17.811 2.73695 13.3731 0.249159 9.11626 1.45727C4.07592 2.88868 2.20065 6.49584 1.51616 9.26991C0.514877 13.3179 1.14845 16.3697 7.45312 22.7567L21.0072 34.8521V34.855Z" fill="#414141"/>
<path d="M21.4481 28.9719C27.4341 28.9719 32.2868 24.0603 32.2868 18.0016C32.2868 11.9428 27.4341 7.03125 21.4481 7.03125C15.462 7.03125 10.6094 11.9428 10.6094 18.0016C10.6094 24.0603 15.462 28.9719 21.4481 28.9719Z" fill="#00A19C"/>
<path d="M21.4482 29.3554C15.2623 29.3554 10.2305 24.2624 10.2305 18.0014C10.2305 11.7404 15.2623 6.64746 21.4482 6.64746C27.6341 6.64746 32.6659 11.7404 32.6659 18.0014C32.6659 24.2624 27.6341 29.3554 21.4482 29.3554ZM21.4482 7.4147C15.6809 7.4147 10.9913 12.1641 10.9913 17.9986C10.9913 23.833 15.6838 28.5824 21.4482 28.5824C27.2126 28.5824 31.9051 23.833 31.9051 17.9986C31.9051 12.1641 27.2126 7.4147 21.4482 7.4147Z" fill="#414141"/>
<path d="M27.0827 8.62857L22.7777 10.6869C21.9461 11.082 21.14 11.9122 20.877 12.8026L20.498 14.5346C20.2547 15.3533 19.3072 16.029 18.7867 16.2666C18.354 16.467 17.5366 16.6502 17.0755 16.6502C15.9215 16.6502 14.9683 16.759 14.4139 15.8801L12.3633 12.0124C14.298 9.00933 17.644 7.02539 21.4483 7.02539C23.5131 7.02539 25.4421 7.60941 27.0855 8.62285L27.0827 8.62857Z" fill="#BFD730"/>
<path d="M16.4135 17.088C15.4773 17.088 14.6175 17.005 14.0546 16.1147C14.0489 16.1061 14.0433 16.0975 14.0376 16.086L11.987 12.2184C11.9134 12.0809 11.9219 11.912 12.0068 11.7803C14.097 8.53676 17.627 6.59863 21.4482 6.59863C23.5215 6.59863 25.5467 7.17406 27.306 8.25907C27.4389 8.34209 27.5181 8.49096 27.5096 8.64841C27.5012 8.80587 27.4078 8.94615 27.2664 9.01486L22.9615 11.0732C22.1949 11.4368 21.5105 12.1897 21.2898 12.9112L20.9136 14.626C20.9136 14.626 20.908 14.646 20.9052 14.6575C20.6025 15.6738 19.5022 16.4095 18.962 16.6586C18.4755 16.8848 17.593 17.0823 17.0754 17.0823C16.9594 17.0823 16.8463 17.0823 16.7332 17.0823C16.6257 17.0823 16.521 17.0823 16.4135 17.0823V17.088ZM14.7787 15.6652C15.1351 16.2149 15.6923 16.2378 16.7247 16.2263C16.8378 16.2263 16.9566 16.2263 17.0754 16.2263C17.4714 16.2263 18.2323 16.0545 18.6113 15.8799C19.1119 15.6509 19.8954 15.0525 20.0877 14.4285L20.4639 12.7136C20.4639 12.7136 20.4696 12.6936 20.4724 12.6821C20.7552 11.7259 21.6123 10.7669 22.5994 10.3003L26.1576 8.59688C24.7066 7.85255 23.0944 7.46034 21.4482 7.46034C17.9975 7.46034 14.8041 9.16659 12.8582 12.0409L14.7787 15.6652Z" fill="#414141"/>
<path d="M29.0543 15.3075V17.0395C29.0543 18.3163 28.0332 19.3498 26.7717 19.3498H24.871C23.717 19.3498 22.7808 18.4022 22.7808 17.2341C22.7808 16.4898 23.3776 15.8857 24.113 15.8857H24.3025C25.0379 15.8857 25.6347 15.2817 25.6347 14.5374C25.6347 13.793 26.2315 13.189 26.9669 13.189C28.1209 13.189 29.0571 14.1366 29.0571 15.3046L29.0543 15.3075Z" fill="#BFD730"/>
<path d="M26.7716 19.7764H24.8709C23.4849 19.7764 22.3535 18.6341 22.3535 17.2285C22.3535 16.2494 23.1398 15.4507 24.11 15.4507H24.2995C24.8001 15.4507 25.2074 15.0384 25.2074 14.5317C25.2074 13.5526 25.9938 12.7539 26.9639 12.7539C28.3499 12.7539 29.4784 13.8962 29.4784 15.3018V17.0338C29.4784 18.5454 28.265 19.7735 26.7716 19.7735V19.7764ZM24.11 16.3124C23.6094 16.3124 23.2021 16.7246 23.2021 17.2314C23.2021 18.1618 23.9488 18.9204 24.8709 18.9204H26.7716C27.7955 18.9204 28.6299 18.0759 28.6299 17.0396V15.3075C28.6299 14.3771 27.8832 13.6185 26.9639 13.6185C26.4633 13.6185 26.056 14.0307 26.056 14.5374C26.056 15.5165 25.2697 16.3153 24.2995 16.3153H24.11V16.3124Z" fill="#414141"/>
<path d="M30.3582 23.7265L26.0702 24.1015C25.2414 24.176 24.2402 23.8983 23.632 23.3229L22.5572 22.1462C21.9972 21.6166 20.9563 21.5279 20.4415 21.5823C20.0116 21.6252 19.2932 21.8571 18.9311 22.0689C18.0288 22.6014 17.2369 22.9536 17.1973 23.8954L17.333 27.8604C20.1926 29.3147 23.6999 29.3233 26.6727 27.5713C28.2849 26.6208 29.5294 25.2782 30.3582 23.7294V23.7265Z" fill="#BFD730"/>
<path d="M21.7454 29.3521C20.1756 29.3521 18.6001 28.9828 17.1435 28.2442C17.0049 28.1726 16.9144 28.0324 16.9087 27.8749L16.7729 23.9099C16.7729 23.9099 16.7729 23.887 16.7729 23.8784C16.8182 22.7934 17.6469 22.3153 18.4502 21.8544C18.5379 21.8029 18.6284 21.7513 18.7189 21.6998C19.1262 21.4593 19.9126 21.2045 20.3991 21.1559C20.9365 21.1015 22.1442 21.1702 22.8457 21.8344C22.8542 21.8401 22.8598 21.8487 22.8683 21.8573L23.9318 23.0224C24.4211 23.4748 25.281 23.7439 26.0305 23.6751L30.3213 23.3001C30.4769 23.2887 30.6268 23.3602 30.7117 23.4919C30.7965 23.6236 30.805 23.7925 30.7286 23.9328C29.8377 25.599 28.5083 26.9846 26.8847 27.9436C25.2923 28.8826 23.5217 29.3521 21.7426 29.3521H21.7454ZM17.7516 27.5858C20.5461 28.917 23.7847 28.7767 26.4605 27.1993C27.7163 26.4607 28.777 25.4415 29.569 24.2277L26.1069 24.5283C25.1141 24.617 24.0025 24.2592 23.3435 23.6351C23.335 23.6293 23.3293 23.6208 23.3209 23.6122L22.2574 22.447C21.8359 22.0605 20.9704 21.9546 20.4839 22.0061C20.1134 22.0433 19.4515 22.2581 19.1432 22.4384C19.0499 22.4928 18.9594 22.5472 18.8688 22.5987C18.0712 23.0568 17.6526 23.3259 17.6215 23.8985L17.7488 27.5858H17.7516Z" fill="#414141"/>
</g>
<defs>
<clipPath id="clip0_314_10027">
<rect width="42" height="36" fill="white"/>
</clipPath>
</defs>
</svg>
