<svg width="32" height="32" viewBox="0 0 32 32" fill="none" xmlns="http://www.w3.org/2000/svg">
<mask id="mask0_464_917" style="mask-type:luminance" maskUnits="userSpaceOnUse" x="16" y="1" width="16" height="30">
<path d="M30.4005 17.9318C30.104 18.5344 29.9685 19.08 30.1125 19.8017C30.6251 22.3778 29.2005 25.0852 26.8192 26.2127C26.3443 26.4371 24.0008 28.9373 23.5619 29.1997C22.799 29.6538 22.031 30.0838 21.1978 30.3963C20.7795 30.5534 19.1148 30.9488 18.4925 30.8884C17.3627 30.7796 16.761 30.2012 16.761 29.065C16.7541 20.3525 16.7541 11.6417 16.761 2.92918C16.761 1.88112 17.4073 1.23882 18.604 1.05407C18.9125 1.00572 19.2331 1.04371 19.5434 1.00745C20.08 0.947019 21.6435 1.26472 22.2436 1.57896C23.9528 2.47335 25.4203 3.62156 26.2003 5.46386C26.3838 5.89552 26.7198 6.14242 27.0507 6.40487C28.105 7.2371 28.7633 8.33523 29.0685 9.61984C29.2125 10.2276 29.4542 10.718 29.8262 11.2118C31.4035 13.3165 31.5612 15.5801 30.4005 17.9318Z" fill="white"/>
</mask>
<g mask="url(#mask0_464_917)">
<path d="M24.1502 0.46875H15.0469V15.9479H24.1502V0.46875Z" fill="#763F98"/>
<path d="M31.3985 0.46875H23.9102V15.9479H31.3985V0.46875Z" fill="#FDB924"/>
<path d="M23.9102 15.9478H16.4219V31.4269H23.9102V15.9478Z" fill="#BED731"/>
<path d="M31.3985 15.9478H23.9102V31.4269H31.3985V15.9478Z" fill="#20419A"/>
</g>
<path d="M10.4851 30.1946C8.71929 29.4021 7.26207 28.4852 6.30545 26.9347C6.11001 26.6188 5.86829 26.4547 5.54084 26.3132C3.28473 25.3411 1.74008 22.8323 1.90294 20.4754C1.95609 19.7036 2.13781 19.1494 3.11158 19.3186C3.61046 19.4049 4.13677 19.3514 4.65108 19.329C5.36769 19.2996 5.96943 19.3497 6.53003 19.9903C7.19007 20.7431 8.40041 20.567 9.02444 19.8072C9.64333 19.0544 9.54047 18.0116 8.781 17.3434C8.02325 16.6786 7.0392 16.72 6.35174 17.5247C6.05515 17.8717 5.76028 17.9908 5.32997 17.9805C4.33049 17.9563 3.33101 17.9563 2.33325 17.9805C1.90123 17.9908 1.67322 17.851 1.50692 17.4262C0.629164 15.1764 0.879463 13.089 2.35039 11.1776C2.67098 10.7615 2.91785 10.3436 3.031 9.82219C3.35844 8.30449 4.12991 7.06133 5.40198 6.16176C5.72599 5.93211 5.87514 5.60233 6.03115 5.26046C6.77347 3.64779 8.06954 2.59974 9.56104 1.74851C10.0805 1.45153 10.2777 1.58966 10.2434 2.18362C10.1954 3.01412 10.1611 3.84636 10.1559 4.67859C10.1525 5.03082 9.91077 5.16031 9.70505 5.35542C8.94215 6.07197 8.88215 7.18219 9.55419 7.89701C10.2519 8.63773 11.3697 8.66881 12.0795 7.96607C12.8406 7.21327 12.8595 6.09442 12.0143 5.39341C11.5686 5.02391 11.4811 4.64233 11.4949 4.1347C11.5171 3.30074 11.524 2.46679 11.5017 1.63283C11.4897 1.18563 11.6526 1.00088 12.0932 1.01988C12.52 1.03887 12.9521 1.00261 13.3772 1.03887C14.783 1.15973 15.4208 1.85729 15.4225 3.27312C15.4276 7.61557 15.4242 11.9563 15.4259 16.2987C15.4259 16.518 15.4259 16.7373 15.4259 17.0757C14.8105 16.7891 14.4864 16.3454 14.099 15.9897C13.4647 15.4095 12.8492 14.8121 12.2115 14.2354C11.6783 13.752 11.2154 13.3221 11.2891 12.4415C11.3663 11.5212 10.3394 10.7753 9.41018 10.8823C8.39527 10.9997 7.76438 11.8285 7.87581 12.8973C7.97353 13.8418 8.87015 14.6136 9.7942 14.4219C10.2725 14.3218 10.5297 14.4651 10.84 14.7586C12.1909 16.038 13.5487 17.3105 14.927 18.5606C15.299 18.899 15.4379 19.2599 15.4345 19.7606C15.4156 22.7511 15.4276 25.7416 15.4242 28.7322C15.4225 30.4968 13.7235 31.512 12.1155 30.7368C11.8343 30.6021 11.8377 30.4122 11.8377 30.1842C11.836 28.9186 11.8497 27.653 11.8309 26.3891C11.8257 26.0214 12.0057 25.8401 12.2646 25.6225C13.1321 24.8973 13.1921 23.7526 12.4463 22.9721C11.7434 22.2383 10.6514 22.2487 9.93478 22.9963C9.19245 23.7716 9.24045 24.7989 10.0805 25.5759C10.2948 25.7744 10.5005 25.9247 10.4971 26.27C10.4799 27.5321 10.4902 28.7943 10.4902 30.1963L10.4851 30.1946Z" stroke="white" stroke-miterlimit="10"/>
<path fill-rule="evenodd" clip-rule="evenodd" d="M8.76239 18.714C8.76239 19.3407 8.2635 19.8484 7.64633 19.8484C7.02916 19.8484 6.53027 19.3407 6.53027 18.714C6.53027 18.0872 7.02916 17.5796 7.64633 17.5796C8.2635 17.5796 8.76239 18.0872 8.76239 18.714Z" fill="#20419A"/>
<path fill-rule="evenodd" clip-rule="evenodd" d="M11.9597 6.66906C11.9597 7.29582 11.4608 7.80345 10.8436 7.80345C10.2264 7.80345 9.72754 7.29582 9.72754 6.66906C9.72754 6.04229 10.2264 5.53467 10.8436 5.53467C11.4608 5.53467 11.9597 6.04229 11.9597 6.66906Z" fill="#FDB924"/>
<path fill-rule="evenodd" clip-rule="evenodd" d="M10.7204 12.6188C10.7204 13.2455 10.2215 13.7532 9.60434 13.7532C8.98716 13.7532 8.48828 13.2455 8.48828 12.6188C8.48828 11.992 8.98716 11.4844 9.60434 11.4844C10.2215 11.4844 10.7204 11.992 10.7204 12.6188Z" fill="#BED731"/>
<path fill-rule="evenodd" clip-rule="evenodd" d="M12.3278 24.2306C12.3278 24.8573 11.8289 25.365 11.2118 25.365C10.5946 25.365 10.0957 24.8573 10.0957 24.2306C10.0957 23.6038 10.5946 23.0962 11.2118 23.0962C11.8289 23.0962 12.3278 23.6038 12.3278 24.2306Z" fill="#763F98"/>
<path d="M30.4005 17.9318C30.104 18.5344 29.9685 19.08 30.1125 19.8017C30.6251 22.3778 29.2005 25.0852 26.8192 26.2127C26.3443 26.4371 24.0008 28.9373 23.5619 29.1997C22.799 29.6538 22.031 30.0838 21.1978 30.3963C20.7795 30.5534 19.1148 30.9488 18.4925 30.8884C17.3627 30.7796 16.761 30.2012 16.761 29.065C16.7541 20.3525 16.7541 11.6417 16.761 2.92918C16.761 1.88112 17.4073 1.23882 18.604 1.05407C18.9125 1.00572 19.2331 1.04371 19.5434 1.00745C20.08 0.947019 21.6435 1.26472 22.2436 1.57896C23.9528 2.47335 25.4203 3.62156 26.2003 5.46386C26.3838 5.89552 26.7198 6.14242 27.0507 6.40487C28.105 7.2371 28.7633 8.33523 29.0685 9.61984C29.2125 10.2276 29.4542 10.718 29.8262 11.2118C31.4035 13.3165 31.5612 15.5801 30.4005 17.9318Z" stroke="white" stroke-miterlimit="10"/>
</svg>
