<svg width="33" height="32" viewBox="0 0 33 32" fill="none" xmlns="http://www.w3.org/2000/svg">
<g clip-path="url(#clip0_314_11723)">
<path d="M26.0969 21.959L21.8677 14.5931L25.895 13.7763C26.123 13.7309 26.3248 13.6067 26.4721 13.4252L28.7374 10.6021L31.9574 16.2101C32.2281 16.6806 32.411 17.2012 32.4774 17.741C32.5843 18.6104 32.4893 19.8309 31.454 20.7624C30.3807 21.7273 28.9986 21.8706 28.2103 21.947L26.0969 21.9566V21.959Z" fill="#F5F5F5"/>
<path d="M26.0969 22.4512C25.9212 22.4512 25.7597 22.3581 25.6742 22.2052L21.445 14.8393C21.3667 14.7032 21.3572 14.536 21.4236 14.3903C21.4878 14.247 21.6184 14.1419 21.7727 14.1108L25.8001 13.294C25.914 13.2701 26.0185 13.208 26.0921 13.1149L28.3575 10.2918C28.4596 10.1652 28.614 10.0983 28.7754 10.1103C28.9369 10.1222 29.0794 10.2153 29.1601 10.3539L32.3801 15.9619C32.6936 16.5088 32.8906 17.0868 32.9619 17.6791C33.083 18.6584 32.9738 20.0532 31.7793 21.128C30.5778 22.21 29.0675 22.3581 28.2578 22.4369C28.2435 22.4369 28.2269 22.4369 28.2127 22.4369L26.0993 22.4464L26.0969 22.4512ZM22.6323 14.9396L26.3795 21.4648L28.1865 21.4576C28.8918 21.3884 30.1765 21.2546 31.1287 20.3972C32.0073 19.6066 32.0833 18.5485 31.993 17.801C31.9361 17.34 31.7817 16.8862 31.5347 16.4563L28.6733 11.4693L26.8544 13.7335C26.6383 14.0034 26.332 14.1897 25.9948 14.2589L22.6347 14.9396H22.6323Z" fill="#414141"/>
<path d="M32.0576 20.0342L26.7788 28.1453C26.273 28.9167 25.411 29.3753 24.492 29.3633L20.8969 29.318L20.8399 31.2359C20.8304 31.5177 20.4623 31.6108 20.3222 31.3672L17.0049 25.6111L20.2937 19.4872C20.4314 19.2317 20.8138 19.3296 20.8161 19.6186L20.8209 21.8637C20.8209 21.8637 27.4247 22.0261 28.2131 21.9497C29.0014 21.8733 30.3835 21.73 31.4568 20.765L32.0599 20.0342H32.0576Z" fill="#FDB924"/>
<path d="M20.5571 31.9999C20.2888 31.9999 20.0371 31.859 19.897 31.6154L16.5796 25.8593C16.4941 25.7112 16.4918 25.5297 16.5725 25.3792L19.8613 19.2553C20.0299 18.9401 20.3766 18.7848 20.7233 18.8732C21.07 18.9616 21.3027 19.2601 21.3027 19.6208V21.3858C23.39 21.4336 27.5883 21.5172 28.163 21.4622C28.8564 21.3954 30.141 21.2688 31.1004 20.4233L31.6798 19.7235C31.846 19.5228 32.1381 19.487 32.347 19.6423C32.556 19.7975 32.6083 20.0889 32.4658 20.3086L27.187 28.4197C26.5839 29.3369 25.577 29.879 24.4847 29.8623L21.3692 29.8241L21.3265 31.2595C21.317 31.6082 21.0843 31.8996 20.7471 31.9832C20.683 31.9999 20.6188 32.0071 20.5547 32.0071L20.5571 31.9999ZM17.5627 25.6038L20.3695 30.4761L20.4051 29.3034C20.4122 29.0359 20.6402 28.8257 20.9014 28.8257L24.4966 28.8711C25.2493 28.8783 25.9522 28.5081 26.3678 27.8728L30.141 22.0737C29.4097 22.3245 28.7186 22.3913 28.2556 22.4367C27.4601 22.5155 21.4832 22.3698 20.8041 22.3531C20.5381 22.346 20.3268 22.1286 20.3268 21.8611V20.4567L17.5603 25.599L17.5627 25.6038Z" fill="#414141"/>
<path d="M16.8429 4.70961L12.6375 12.0898L9.91143 8.99921C9.75708 8.82485 9.54812 8.71021 9.32015 8.67438L5.75586 8.12266L8.95684 2.5051C9.22517 2.0322 9.57899 1.61184 10.0112 1.28224C10.7046 0.752007 11.8016 0.21939 13.1219 0.651694C14.4921 1.09833 15.3089 2.22805 15.772 2.87531L16.8429 4.70961Z" fill="#F5F5F5"/>
<path d="M12.6376 12.582C12.4975 12.582 12.3645 12.5223 12.2719 12.4172L9.54582 9.32663C9.46745 9.23826 9.36297 9.18093 9.24661 9.16183L5.68232 8.6101C5.52322 8.58622 5.38549 8.48352 5.31663 8.33782C5.24777 8.19213 5.25252 8.02016 5.33325 7.87925L8.53423 2.26169C8.8453 1.71475 9.24424 1.25378 9.71679 0.890742C10.498 0.293638 11.7518 -0.31302 13.2763 0.183771C14.8103 0.685338 15.6961 1.92254 16.171 2.58891C16.1805 2.60085 16.1876 2.61518 16.1947 2.62712L17.2657 4.46142C17.3535 4.61428 17.3559 4.80297 17.2681 4.95583L13.0626 12.336C12.9843 12.4746 12.8442 12.5653 12.6874 12.582C12.6708 12.582 12.6542 12.5844 12.6376 12.5844V12.582ZM6.53243 7.7455L9.39147 8.18735C9.73104 8.2399 10.0469 8.41186 10.2748 8.6722L12.5497 11.2517L16.2755 4.7146L15.3589 3.1478C14.9172 2.53158 14.1858 1.52128 12.9676 1.12242C11.8444 0.754602 10.8993 1.22034 10.3033 1.67653C9.93525 1.95836 9.62418 2.31901 9.37722 2.75132L6.53006 7.74788L6.53243 7.7455Z" fill="#414141"/>
<path d="M12.1909 0.494141L21.8152 1.00526C22.7318 1.05781 23.5605 1.57609 24.0117 2.38099L25.7808 5.53131L27.4596 4.61655C27.7042 4.4828 27.9702 4.75746 27.8324 5.00108L24.5531 10.781L17.6358 11.0008C17.3485 11.0103 17.2393 10.6258 17.4862 10.4801L19.412 9.348C19.412 9.348 16.2324 3.52504 15.7694 2.87778C15.3063 2.23052 14.4895 1.1008 13.1193 0.654165L12.1885 0.496529L12.1909 0.494141Z" fill="#00A19C"/>
<path d="M17.624 11.4905C17.2773 11.4905 16.9852 11.2684 16.8879 10.9316C16.7881 10.5877 16.9306 10.2342 17.2369 10.0527L18.7519 9.1618C17.7475 7.32749 15.7077 3.63261 15.3705 3.1621C14.9359 2.55305 14.2093 1.53797 13.0006 1.12955L12.1078 0.979083C11.8513 0.936091 11.6732 0.699638 11.7017 0.439301C11.7302 0.178963 11.9534 -0.0121099 12.2146 0.00222058L21.8389 0.513342C22.9289 0.575441 23.9001 1.1821 24.4368 2.13746L25.9708 4.86504L27.2269 4.18195C27.5309 4.01715 27.899 4.07208 28.1412 4.32048C28.3834 4.56887 28.4309 4.93908 28.2599 5.24241L24.9806 11.0224C24.8951 11.1705 24.7407 11.266 24.5698 11.2708L17.6525 11.4905C17.6525 11.4905 17.6359 11.4905 17.6264 11.4905H17.624ZM14.9074 1.13194C15.4916 1.64067 15.8977 2.20912 16.1684 2.58888C16.6338 3.24091 19.5166 8.50976 19.8419 9.10925C19.9701 9.34332 19.8894 9.63709 19.6591 9.77084L18.4527 10.4802L24.2611 10.2963L27.037 5.40482L26.0111 5.96371C25.7761 6.09268 25.484 6.0067 25.351 5.77263L23.5819 2.62231C23.2091 1.96072 22.5371 1.54036 21.782 1.49737L14.9027 1.13194H14.9074Z" fill="#414141"/>
<path d="M6.46574 21.4842L14.9217 21.4316L13.6347 25.3558C13.5611 25.5779 13.5682 25.8168 13.6537 26.0341L14.9716 29.4113L8.53403 29.4519C7.99262 29.4543 7.45358 29.3588 6.95254 29.1486C6.14992 28.8118 5.14071 28.1264 4.84626 26.7602C4.54231 25.3439 5.10272 24.0661 5.42566 23.3376L6.46337 21.4842H6.46574Z" fill="#F5F5F5"/>
<path d="M8.50571 29.9439C7.88831 29.9439 7.30416 29.8293 6.76512 29.6024C5.85802 29.2226 4.70871 28.4392 4.36914 26.8629C4.02957 25.2769 4.64934 23.8845 4.98179 23.1369C4.98891 23.1226 4.99366 23.1083 5.00316 23.0963L6.04086 21.2429C6.12635 21.0901 6.28782 20.9945 6.46354 20.9921L14.9195 20.9396C15.081 20.9276 15.2259 21.0136 15.3185 21.1426C15.4111 21.2716 15.4372 21.4364 15.3873 21.5868L14.1003 25.511C14.0647 25.6233 14.0671 25.7451 14.1098 25.8549L15.4277 29.2322C15.4871 29.3826 15.4681 29.5546 15.3778 29.6884C15.2876 29.8221 15.138 29.9033 14.9765 29.9033L8.53896 29.9439C8.53896 29.9439 8.51996 29.9439 8.50809 29.9439H8.50571ZM5.86514 23.5597C5.55644 24.2523 5.0554 25.3988 5.32611 26.6551C5.57544 27.8158 6.45167 28.4034 7.14268 28.6948C7.56774 28.8739 8.03554 28.9694 8.53183 28.9599L14.257 28.9241L13.2003 26.2156C13.0745 25.8932 13.065 25.5349 13.1718 25.2053L14.2452 21.9308L6.75325 21.9762L5.86514 23.5597Z" fill="#414141"/>
<path d="M5.1814 27.6463L0.783613 19.0218C0.368055 18.1978 0.396551 17.2185 0.861975 16.4208L2.67855 13.2991L1.04957 12.2984C0.812108 12.1527 0.911842 11.7825 1.19205 11.7801L7.80772 11.7275L11.4717 17.6341C11.6237 17.8801 11.3506 18.1667 11.0989 18.0258L9.1565 16.92C9.1565 16.92 5.74893 22.6116 5.42598 23.34C5.10303 24.0685 4.54263 25.3463 4.84658 26.7626L5.17902 27.6511L5.1814 27.6463Z" fill="#BFD730"/>
<path d="M5.18138 28.1406C5.00328 28.1406 4.83231 28.0426 4.74682 27.8731L0.349038 19.2461C-0.144882 18.2668 -0.111637 17.118 0.439273 16.1698L2.01364 13.4661L0.795465 12.7186C0.501013 12.537 0.363286 12.1907 0.455896 11.854C0.548505 11.5196 0.842958 11.2903 1.18965 11.2879L7.80532 11.2354C7.9763 11.2354 8.1354 11.3213 8.22326 11.467L11.8873 17.3736C12.0773 17.6769 12.0369 18.0567 11.7899 18.3146C11.543 18.5726 11.1678 18.6299 10.8591 18.4531L9.3322 17.5838C8.25887 19.3799 6.10985 23.0102 5.87476 23.5405C5.57081 24.2259 5.06264 25.3676 5.3191 26.6239L5.6373 27.4766C5.72754 27.7202 5.61356 27.9949 5.37847 28.1C5.31435 28.1286 5.24787 28.143 5.18138 28.143V28.1406ZM1.94003 12.2671L2.93499 12.8786C3.16295 13.0171 3.23657 13.3157 3.10121 13.5473L1.28464 16.669C0.902323 17.3258 0.878577 18.1212 1.22052 18.7995L4.36451 24.9664C4.50936 24.2021 4.79194 23.5644 4.98191 23.1368C5.30723 22.4036 8.38948 17.2494 8.74092 16.6642C8.87865 16.4349 9.17073 16.3585 9.40106 16.4899L10.6169 17.1825L7.53937 12.2242L1.94003 12.2671Z" fill="#414141"/>
</g>
<defs>
<clipPath id="clip0_314_11723">
<rect width="33" height="32" fill="white"/>
</clipPath>
</defs>
</svg>
