<svg width="41" height="41" viewBox="0 0 41 41" fill="none" xmlns="http://www.w3.org/2000/svg">
<g clip-path="url(#clip0_314_10965)">
<path d="M21.2328 14.7017C18.8639 18.5183 16.2393 23.3936 16.2393 25.248C16.2393 27.9457 18.4787 30.1393 21.2328 30.1393C23.9868 30.1393 26.2263 27.9457 26.2263 25.248C26.2263 23.3936 23.6017 18.5183 21.2328 14.7017Z" fill="#00A19C"/>
<path d="M21.2329 30.7924C18.11 30.7924 15.5728 28.304 15.5728 25.2482C15.5728 22.7598 19.4692 16.2868 20.6634 14.3627C20.7831 14.1661 20.9999 14.0488 21.2329 14.0488C21.466 14.0488 21.6828 14.1693 21.8025 14.3627C22.9967 16.2868 26.8931 22.7598 26.8931 25.2482C26.8931 28.3072 24.3527 30.7924 21.2329 30.7924ZM21.2329 15.9698C18.6213 20.2904 16.9061 23.9517 16.9061 25.2451C16.9061 27.5813 18.8478 29.4833 21.2329 29.4833C23.6181 29.4833 25.5598 27.5813 25.5598 25.2451C25.5598 23.9517 23.8446 20.2904 21.2329 15.9698Z" fill="#414141"/>
<path d="M21.5275 13.8747L21.233 13.4087L20.9385 13.8747C19.6731 15.8844 15.5469 22.6427 15.5469 25.2484C15.5469 28.3201 18.097 30.818 21.233 30.818C24.3689 30.818 26.919 28.3201 26.919 25.2484C26.919 22.6427 22.7928 15.8844 21.5275 13.8747ZM21.233 30.1396C18.4789 30.1396 16.2394 27.946 16.2394 25.2484C16.2394 23.394 18.864 18.5186 21.233 14.702C23.6019 18.5186 26.2265 23.394 26.2265 25.2484C26.2265 27.946 23.987 30.1396 21.233 30.1396Z" fill="#3B3B3B"/>
<path d="M38.8707 23.1914C38.8448 23.0646 38.7542 22.96 38.6312 22.9156C38.5082 22.8712 38.3691 22.8934 38.2687 22.9727L31.2299 28.4028C31.1231 28.4852 31.0713 28.6152 31.0908 28.7451C31.1102 28.8751 31.2008 28.9861 31.327 29.0336L33.8319 30.0004C33.2558 30.907 32.6053 31.6995 31.7607 32.5237C30.382 33.8741 28.7801 34.9329 26.9969 35.6715C25.149 36.4386 23.1911 36.8253 21.1717 36.8253C19.7607 36.8253 18.3658 36.632 17.0228 36.2547C16.8221 36.1977 16.615 36.3118 16.5568 36.5083C16.4985 36.7049 16.615 36.9077 16.8157 36.9648C18.2267 37.3642 19.6927 37.5671 21.1717 37.5671C23.2914 37.5671 25.3529 37.1582 27.2914 36.353C29.1652 35.5764 30.848 34.4637 32.2946 33.0467C33.2979 32.0641 34.0422 31.1258 34.7121 30.0036C34.7153 29.9973 34.7186 29.9878 34.7218 29.9782C34.7251 29.9687 34.7315 29.9624 34.7348 29.9529C34.7348 29.9529 34.7348 29.9465 34.7348 29.9434C34.738 29.9307 34.7412 29.918 34.7445 29.9053C34.7445 29.8927 34.7509 29.8832 34.7509 29.8705C34.7509 29.8578 34.7509 29.8451 34.7509 29.8356C34.7509 29.8229 34.7509 29.8102 34.7509 29.8007C34.7509 29.7881 34.7509 29.7785 34.7477 29.7659C34.7477 29.7532 34.7477 29.7405 34.7412 29.7278C34.7412 29.7151 34.7348 29.7056 34.7315 29.6961C34.7283 29.6834 34.7251 29.6739 34.7186 29.6613C34.7121 29.6517 34.7056 29.6391 34.7024 29.6296C34.6959 29.62 34.6895 29.6105 34.683 29.601C34.6765 29.5915 34.6668 29.582 34.6603 29.5725C34.6506 29.563 34.6441 29.5535 34.6344 29.544C34.6247 29.5376 34.6183 29.5313 34.6086 29.5218C34.5988 29.5123 34.5859 29.5059 34.5762 29.4996C34.5762 29.4996 34.573 29.4964 34.5697 29.4932C34.56 29.4869 34.5535 29.4869 34.5438 29.4806C34.5341 29.4774 34.5276 29.4711 34.5179 29.4679L32.2073 28.5771L38.2461 23.9173L39.7898 31.5093L37.4953 30.6376C37.4953 30.6376 37.4856 30.6376 37.4823 30.6344C37.4694 30.6313 37.4564 30.6281 37.4435 30.6249C37.4306 30.6249 37.4208 30.6186 37.4111 30.6186C37.3982 30.6186 37.3853 30.6186 37.3723 30.6186C37.3594 30.6186 37.3497 30.6186 37.3367 30.6186C37.3238 30.6186 37.3108 30.6186 37.2979 30.6217C37.2849 30.6217 37.2752 30.6249 37.2655 30.6281C37.2526 30.6281 37.2429 30.6344 37.2299 30.6408C37.2202 30.6439 37.2073 30.6471 37.1975 30.6534C37.1846 30.6598 37.1749 30.6661 37.1652 30.6725C37.1555 30.6788 37.1458 30.6851 37.1361 30.6915C37.1263 30.6978 37.1166 30.7073 37.1069 30.7137C37.0972 30.7232 37.0875 30.7295 37.081 30.739C37.0746 30.7485 37.0649 30.7581 37.0584 30.7676C37.0519 30.7771 37.0422 30.7898 37.0357 30.7993C37.0357 30.8024 37.0293 30.8056 37.0293 30.8088C36.2073 32.2543 35.217 33.5381 34.0001 34.73C32.3302 36.3657 30.3885 37.6495 28.2267 38.5466C25.9872 39.4754 23.6118 39.9477 21.1652 39.9477C19.4241 39.9477 17.7056 39.7068 16.0519 39.2313C15.8513 39.1742 15.6441 39.2852 15.5827 39.4817C15.5244 39.6783 15.6377 39.8811 15.8383 39.9414C17.56 40.439 19.3529 40.6895 21.1652 40.6895C23.7153 40.6895 26.1878 40.1981 28.5212 39.2313C30.7736 38.2962 32.7963 36.9585 34.5341 35.2562C35.7218 34.0928 36.7024 32.8439 37.5244 31.4523L40.1587 32.454C40.204 32.4698 40.2493 32.4793 40.2946 32.4793C40.382 32.4793 40.4694 32.4508 40.5374 32.3937C40.6441 32.3082 40.6927 32.1718 40.6636 32.0387L38.8642 23.1977L38.8707 23.1914Z" fill="#414141"/>
<path d="M21.1715 41.0004C19.3268 41.0004 17.5048 40.7436 15.754 40.2396C15.3818 40.1318 15.1715 39.7514 15.2783 39.3869C15.3883 39.0255 15.7766 38.8163 16.1456 38.9209C17.7702 39.39 19.4627 39.6246 21.1715 39.6246C23.576 39.6246 25.9093 39.1618 28.1067 38.2488C30.2297 37.3676 32.1391 36.106 33.7766 34.4988C34.9708 33.3291 35.9449 32.0675 36.7507 30.6473L36.7734 30.6125C36.7734 30.6125 36.7928 30.5871 36.7993 30.5744C36.8187 30.5491 36.8316 30.5332 36.8446 30.5205C36.864 30.5015 36.8802 30.4857 36.8996 30.4698C36.9158 30.454 36.932 30.4413 36.9514 30.4286C36.9676 30.4159 36.9902 30.4032 37.0096 30.3906C37.0226 30.3811 37.0452 30.3715 37.0647 30.362C37.0873 30.3525 37.1067 30.3462 37.1261 30.3367C37.1456 30.3303 37.1682 30.3208 37.1909 30.3177L37.2491 30.305C37.2782 30.3018 37.3009 30.2986 37.3203 30.2955H37.3365H37.3818C37.4206 30.2955 37.4433 30.2955 37.4627 30.3018L37.5145 30.3113C37.5501 30.3208 37.5728 30.324 37.5922 30.3335L39.3592 31.0055L38.0323 24.4881L32.8511 28.4886L34.7702 29.2462C34.7702 29.2462 34.7928 29.2621 34.8025 29.2716C34.8316 29.2938 34.8446 29.3033 34.8575 29.316L34.8996 29.3603C34.919 29.3825 34.9352 29.3984 34.9482 29.4174L34.9805 29.4681C34.9967 29.4935 35.0064 29.5125 35.0129 29.5283L35.0355 29.5822C35.0485 29.6171 35.055 29.6361 35.0582 29.6551L35.0679 29.7154C35.0711 29.7439 35.0744 29.7661 35.0744 29.7851V29.801V29.8453C35.0744 29.877 35.0744 29.8961 35.0679 29.9182L35.055 29.9753C35.0485 29.9975 35.0452 30.0133 35.0388 30.0292L34.9773 30.1655C34.2977 31.3067 33.5372 32.2672 32.5113 33.2689C31.0355 34.7144 29.3171 35.8492 27.4077 36.6417C25.4271 37.4627 23.3268 37.8811 21.1617 37.8811C19.6504 37.8811 18.1553 37.6751 16.7151 37.2693C16.5339 37.2186 16.385 37.1013 16.2977 36.9428C16.2071 36.7812 16.1844 36.5973 16.2362 36.4198C16.288 36.2423 16.4077 36.0965 16.5695 36.0077C16.7346 35.9189 16.9223 35.8968 17.1035 35.9506C18.4174 36.3215 19.7799 36.5117 21.1617 36.5117C23.1359 36.5117 25.055 36.1313 26.8608 35.3832C28.6051 34.6605 30.1747 33.6239 31.521 32.302C32.2427 31.5951 32.8252 30.9041 33.3333 30.156L31.1941 29.3318C30.9611 29.2399 30.7928 29.0338 30.7572 28.7929C30.7216 28.552 30.8187 28.3047 31.0161 28.1558L38.0549 22.7257C38.2459 22.5798 38.5048 22.5386 38.7313 22.621C38.9611 22.7035 39.1261 22.8937 39.1747 23.1314L40.974 31.9724C41.0226 32.2196 40.932 32.47 40.7378 32.6317C40.5469 32.7902 40.2685 32.8346 40.0355 32.7458L37.6569 31.8424C36.8446 33.1706 35.8964 34.3625 34.7572 35.4783C32.9902 37.2091 30.932 38.569 28.6407 39.52C26.2685 40.5058 23.7507 41.0035 21.1585 41.0035L21.1715 41.0004ZM15.9514 39.5295C15.9287 39.5295 15.9061 39.5454 15.8996 39.5675C15.8899 39.5961 15.9061 39.6246 15.9352 39.6341C17.6278 40.1223 19.3883 40.3695 21.1715 40.3695C23.6763 40.3695 26.11 39.8877 28.4012 38.9367C30.6148 38.0174 32.6019 36.7051 34.3106 35.0314C35.4757 33.8902 36.4368 32.6666 37.2491 31.294L37.3883 31.0594L40.2815 32.1594C40.3074 32.1594 40.3236 32.1594 40.3333 32.1499C40.3494 32.1372 40.3559 32.1182 40.3527 32.0992L38.5533 23.2582C38.5501 23.2392 38.5371 23.2265 38.521 23.2202C38.5048 23.2138 38.4854 23.217 38.4692 23.2297L31.4304 28.6598C31.4304 28.6598 31.4077 28.6883 31.4109 28.7073C31.4109 28.7263 31.4271 28.7422 31.4433 28.7485L34.3106 29.8548L34.1035 30.1782C33.5177 31.0975 32.8478 31.9153 31.987 32.7585C30.5792 34.1374 28.9417 35.2184 27.1197 35.976C25.2329 36.759 23.2297 37.1552 21.1682 37.1552C19.7281 37.1552 18.3009 36.9587 16.932 36.5719C16.9061 36.5656 16.8737 36.5846 16.8672 36.6068C16.8608 36.6322 16.8802 36.6639 16.9028 36.6734C18.2847 37.0633 19.7216 37.263 21.1715 37.263C23.2491 37.263 25.2653 36.8636 27.165 36.0743C28.9999 35.3135 30.6472 34.223 32.0647 32.8346C33.0485 31.8709 33.7766 30.9516 34.4304 29.8548L34.4336 29.8168L34.3753 29.7693L31.5663 28.6851L38.4627 23.3628L40.2265 32.0263L37.3818 30.9453L37.3041 30.6283L37.3494 30.9421L37.1132 30.7171L37.3203 30.9612L37.3106 30.9802C36.4789 32.4415 35.4724 33.7475 34.2362 34.9584C32.5372 36.6227 30.5598 37.9287 28.3592 38.8416C26.0808 39.7863 23.6634 40.2681 21.1715 40.2681C19.4012 40.2681 17.6504 40.0208 15.9643 39.5358C15.9611 39.5358 15.9546 39.5358 15.9514 39.5358V39.5295Z" fill="#414141"/>
<path d="M10.3141 35.047C10.3885 35.047 10.4662 35.0248 10.5277 34.9804C10.6312 34.9107 10.6895 34.7965 10.6895 34.6729L10.6053 25.3153C10.6053 25.1821 10.5309 25.0585 10.4112 24.9951C10.2914 24.9317 10.1458 24.9349 10.0325 25.0046L6.97426 26.8463C6.45322 25.3374 6.18785 23.7652 6.18785 22.158C6.18785 20.18 6.58591 18.259 7.36585 16.4521C8.11989 14.7055 9.20403 13.1363 10.5794 11.786C10.7283 11.6401 10.7283 11.4087 10.5794 11.2629C10.4306 11.1171 10.1943 11.1171 10.0455 11.2629C8.59886 12.6799 7.46293 14.3282 6.67005 16.1636C5.84805 18.0624 5.43057 20.0817 5.43057 22.158C5.43057 24.0029 5.76067 25.8098 6.41439 27.5279C6.41439 27.5279 6.41439 27.5279 6.41439 27.531C6.4241 27.5501 6.43057 27.5723 6.44352 27.5913C6.44999 27.6008 6.45646 27.6071 6.46293 27.6166C6.46941 27.623 6.47264 27.6293 6.47912 27.6357C6.50177 27.661 6.52442 27.6832 6.55031 27.7022C6.55031 27.7022 6.55679 27.7054 6.56002 27.7086C6.58591 27.7244 6.61504 27.7371 6.64416 27.7466C6.65064 27.7466 6.65711 27.7498 6.66358 27.7529C6.69594 27.7625 6.72831 27.7656 6.76067 27.7688H6.7639C6.76714 27.7688 6.77038 27.7688 6.77361 27.7688C6.81568 27.7688 6.85452 27.7625 6.89659 27.7466C6.89659 27.7466 6.91277 27.7371 6.92248 27.7339C6.93543 27.7276 6.94837 27.7212 6.96132 27.7149L9.84805 25.9778L9.92248 34.1372L1.53737 30.9768L4.21051 29.3696C4.21051 29.3696 4.21051 29.3696 4.21374 29.3664C4.22669 29.3601 4.2364 29.3506 4.24611 29.3411C4.25581 29.3347 4.26229 29.3284 4.272 29.3221C4.2817 29.3126 4.28818 29.303 4.29789 29.2935C4.30436 29.284 4.31407 29.2777 4.32054 29.2682C4.32701 29.2587 4.33348 29.2492 4.33672 29.2365C4.34319 29.227 4.34967 29.2143 4.3529 29.2048C4.35937 29.1953 4.35937 29.1826 4.36585 29.1699C4.36908 29.1604 4.37556 29.1477 4.37556 29.1382C4.37556 29.1255 4.37879 29.1128 4.38203 29.1033C4.38203 29.0907 4.38526 29.0811 4.38526 29.0685C4.38526 29.0558 4.38526 29.0463 4.38526 29.0336C4.38526 29.0209 4.38526 29.0082 4.38526 28.9956C4.38526 28.986 4.37879 28.9734 4.37556 28.9639C4.37232 28.9512 4.36908 28.9385 4.36261 28.9258C4.36261 28.9258 4.36261 28.9227 4.36261 28.9195C3.48235 26.7671 3.00015 24.3674 3.00015 22.158C3.00015 19.7615 3.48235 17.4348 4.43057 15.2412C5.34643 13.1237 6.65711 11.2217 8.32701 9.58602C8.47588 9.4402 8.47588 9.20879 8.32701 9.06298C8.17814 8.91716 7.9419 8.91716 7.79303 9.06298C6.05517 10.7652 4.68947 12.7464 3.73478 14.9527C2.74772 17.2382 2.24611 19.6601 2.24611 22.158C2.24611 24.3611 2.71213 26.7417 3.55031 28.9005L0.49206 30.7422C0.369083 30.8151 0.301122 30.9514 0.314067 31.0909C0.327012 31.2304 0.420863 31.3508 0.553549 31.4015L10.1684 35.0248C10.2137 35.0406 10.2591 35.0501 10.3044 35.0501L10.3141 35.047Z" fill="#414141"/>
<path d="M10.314 35.3642C10.2298 35.3642 10.1424 35.3483 10.0615 35.3198L0.449873 31.6966C0.200682 31.6015 0.0291607 31.3796 0.00327077 31.1196C-0.0226192 30.8565 0.106831 30.6093 0.333368 30.473L3.16508 28.7707C2.36897 26.6374 1.93207 24.3011 1.93207 22.1614C1.93207 19.6223 2.44016 17.1561 3.44664 14.8325C4.41751 12.5882 5.80586 10.5753 7.57285 8.84131C7.84469 8.57503 8.2913 8.57503 8.56314 8.84131C8.69583 8.97128 8.76702 9.14245 8.76702 9.32631C8.76702 9.51017 8.69259 9.68134 8.55991 9.81131C6.91913 11.4185 5.63434 13.2856 4.73466 15.365C3.80262 17.5174 3.33013 19.803 3.33013 22.1582C3.33013 24.3296 3.80586 26.6881 4.66994 28.8024L4.68288 28.8373C4.68935 28.8531 4.69259 28.869 4.69583 28.8817C4.7023 28.907 4.70877 28.926 4.71201 28.9482L4.71848 29.0085C4.71848 29.037 4.72172 29.056 4.71848 29.075L4.71201 29.1353C4.70877 29.1638 4.70554 29.186 4.69906 29.2082L4.68288 29.2621C4.67317 29.2906 4.6667 29.3128 4.65699 29.3318L4.62787 29.3889C4.61492 29.411 4.60521 29.4301 4.59227 29.4459L4.55343 29.4935C4.53401 29.5157 4.51783 29.5347 4.50165 29.5474L4.45635 29.5854C4.45635 29.5854 4.43046 29.6076 4.41427 29.6171L4.38515 29.6393L2.27188 30.9104L9.60198 33.6714L9.53725 26.5359L7.13919 27.9782C7.1133 27.9941 7.09065 28.0036 7.07123 28.0131C7.05181 28.0226 7.03563 28.0321 7.01298 28.0385C6.95473 28.0607 6.89 28.0733 6.82204 28.0765H6.70877H6.69583C6.65376 28.0733 6.61492 28.0638 6.57609 28.0543L6.52754 28.0385C6.48547 28.0258 6.43369 28.0004 6.38515 27.9687C6.32042 27.9275 6.27512 27.8831 6.23304 27.8356L6.17156 27.7563C6.15537 27.731 6.14243 27.7056 6.13272 27.6803L6.10683 27.6169C5.4434 25.8671 5.10683 24.0285 5.10683 22.1487C5.10683 20.028 5.53078 17.9707 6.3722 16.0307C7.18126 14.1573 8.33984 12.4741 9.81557 11.0317C9.94825 10.9018 10.123 10.832 10.3107 10.832C10.4984 10.832 10.6732 10.9018 10.8059 11.0317C11.0777 11.298 11.0777 11.7355 10.8059 12.0017C9.45634 13.3236 8.40133 14.8579 7.66023 16.5665C6.89324 18.3353 6.50813 20.2151 6.50813 22.1487C6.50813 23.5784 6.72495 24.9922 7.15214 26.3552L9.86088 24.7259C10.0745 24.5959 10.3463 24.5896 10.5664 24.71C10.7864 24.8305 10.9256 25.0587 10.9288 25.306L11.013 34.6636C11.013 34.8919 10.9029 35.1043 10.712 35.2342C10.5955 35.3135 10.4563 35.3579 10.314 35.3579V35.3642ZM8.068 9.26925C8.068 9.26925 8.04211 9.27559 8.02916 9.2851C6.32042 10.9588 4.97738 12.9052 4.04211 15.0734C3.07123 17.3177 2.57932 19.7015 2.57932 22.1551C2.57932 24.3011 3.03563 26.6564 3.86411 28.7866L3.95796 29.0307L0.673174 31.0087C0.656992 31.0182 0.647284 31.0372 0.647284 31.0594C0.647284 31.0784 0.663465 31.0975 0.682882 31.1038L10.3172 34.7302C10.3172 34.7302 10.3398 34.727 10.3463 34.7207C10.3625 34.7112 10.369 34.6953 10.369 34.6763L10.2848 25.3187C10.2848 25.2996 10.2751 25.2838 10.2589 25.2743C10.2428 25.2648 10.2201 25.2648 10.2039 25.2743L6.79939 27.3221L6.66994 26.9448C6.13596 25.3979 5.86411 23.7876 5.86411 22.1551C5.86411 20.1326 6.26864 18.1736 7.068 16.3255C7.83822 14.5409 8.94502 12.9369 10.3528 11.5579C10.369 11.5421 10.369 11.5009 10.3528 11.485C10.3398 11.4724 10.3237 11.4692 10.314 11.4692C10.314 11.4692 10.2881 11.4692 10.2751 11.485C8.85764 12.8735 7.74761 14.487 6.96767 16.2843C6.16185 18.1451 5.75408 20.12 5.75408 22.1551C5.75408 23.9492 6.07447 25.7022 6.7023 27.3728L6.72172 27.3981L6.72819 27.4362H6.73143L6.76055 27.4489L6.80586 27.4362L10.1716 25.4106L10.2525 34.5971L0.812332 31.0404L4.04534 29.0941L4.30748 29.2811L4.20392 29.1892L4.04858 29.0941L4.06476 29.0624L4.38515 29.018L4.06152 29.0307C3.16832 26.8434 2.67641 24.3994 2.67641 22.1519C2.67641 19.711 3.16508 17.3431 4.13272 15.1114C5.06476 12.9559 6.39809 11.0191 8.09712 9.35484C8.11007 9.34216 8.1133 9.32631 8.1133 9.3168C8.1133 9.30729 8.1133 9.29144 8.09712 9.27876C8.08741 9.26925 8.07447 9.26291 8.05829 9.26291L8.068 9.26925ZM6.57932 27.5249L6.47253 27.62L6.66023 27.4869H6.64081L6.57932 27.5249Z" fill="#414141"/>
<path d="M23.8965 4.56824C25.3884 4.79014 26.8448 5.19272 28.2331 5.76965C30.3949 6.66674 32.3367 7.95057 34.0066 9.58626C35.6765 11.2219 36.9872 13.1239 37.903 15.2414C37.9645 15.3809 38.1037 15.4665 38.2493 15.4665C38.2978 15.4665 38.3496 15.457 38.3949 15.438C38.5859 15.3587 38.6765 15.1432 38.5956 14.953C37.6409 12.7467 36.2752 10.7655 34.5373 9.06322C32.7994 7.36096 30.7768 6.02324 28.5244 5.08811C27.1781 4.5302 25.7671 4.12762 24.327 3.88988V0.685066C24.327 0.551929 24.2525 0.428301 24.136 0.364902C24.0163 0.298333 23.8739 0.301503 23.7574 0.371242L15.5308 5.22759C15.4176 5.29416 15.3496 5.41145 15.3496 5.54141C15.3496 5.66821 15.4143 5.78867 15.5276 5.85841L23.7541 10.9208C23.8156 10.9588 23.8836 10.9779 23.9548 10.9779C24.0163 10.9779 24.081 10.962 24.136 10.9303C24.2558 10.8669 24.3302 10.7401 24.3302 10.607V7.81743C25.2428 8.0108 26.1393 8.28341 26.9969 8.63844C28.78 9.38021 30.382 10.439 31.7606 11.7862C33.1393 13.1366 34.2202 14.7057 34.9742 16.4523C35.0357 16.5918 35.1749 16.6774 35.3205 16.6774C35.369 16.6774 35.4208 16.6679 35.4661 16.6489C35.6571 16.5696 35.7477 16.3541 35.6668 16.1639C34.8739 14.3285 33.738 12.6801 32.2914 11.2632C30.8448 9.84619 29.1619 8.73354 27.2881 7.95691C26.2396 7.52263 25.1393 7.19929 24.0163 6.99642C23.9969 6.99325 23.9807 6.99325 23.9613 6.99325C23.9548 6.99325 23.9516 6.99325 23.9451 6.99325C23.9224 6.99325 23.8998 6.99325 23.8771 6.99959H23.8706C23.8512 7.00276 23.8286 7.0091 23.8092 7.01861C23.8092 7.01861 23.8027 7.01861 23.7994 7.02178C23.78 7.02812 23.7638 7.03763 23.7477 7.0503C23.7444 7.0503 23.738 7.05347 23.7347 7.05664C23.7185 7.06615 23.7056 7.07883 23.6894 7.09151C23.6862 7.09468 23.6797 7.09785 23.6765 7.10102C23.6635 7.1137 23.6538 7.12638 23.6441 7.13906C23.6409 7.1454 23.6344 7.14857 23.6312 7.15491C23.6247 7.16442 23.6182 7.1771 23.6117 7.18978C23.6053 7.19929 23.5988 7.2088 23.5956 7.22148C23.5923 7.23099 23.5891 7.2405 23.5859 7.25001C23.5826 7.26586 23.5761 7.27854 23.5729 7.29439C23.5729 7.29439 23.5729 7.29439 23.5729 7.29756C23.5729 7.30707 23.5729 7.31658 23.5729 7.32926C23.5729 7.34194 23.5697 7.35462 23.5697 7.36413V9.94129L16.437 5.55409L23.5697 1.34758V4.08324C23.5697 4.10543 23.5697 4.12445 23.5761 4.14664C23.5761 4.14664 23.5761 4.15298 23.5761 4.15615C23.5438 4.35903 23.6862 4.54605 23.8933 4.57775L23.8965 4.56824Z" fill="#414141"/>
<path d="M35.3204 16.9911C35.0389 16.9911 34.7865 16.8263 34.6764 16.5727C33.9353 14.8641 32.8803 13.3267 31.5308 12.008C30.1813 10.6893 28.6149 9.65271 26.8706 8.9268C26.1683 8.63516 25.424 8.39425 24.6538 8.21039V10.6037C24.6538 10.8541 24.5146 11.0824 24.2913 11.2028C24.0745 11.3201 23.7929 11.3138 23.5793 11.1838L15.3528 6.1214C15.1489 5.9946 15.0227 5.76954 15.0259 5.53496C15.0292 5.30038 15.1586 5.07532 15.3657 4.95486L23.589 0.0985132C23.8059 -0.0282844 24.0777 -0.0314544 24.2945 0.0890034C24.5146 0.209461 24.6505 0.440867 24.6505 0.684952V3.62032C26.0292 3.86757 27.3722 4.26381 28.6505 4.79319C30.9418 5.74418 32.9968 7.10408 34.767 8.83487C36.534 10.5657 37.9224 12.5817 38.8933 14.8261C38.9677 14.9941 38.9677 15.1811 38.8965 15.3523C38.8253 15.5234 38.6926 15.6566 38.5211 15.7263C38.4337 15.7612 38.3431 15.7802 38.2492 15.7802C37.9677 15.7802 37.7153 15.6154 37.6052 15.3618C36.7056 13.2823 35.4175 11.412 33.78 9.80804C32.1392 8.20088 30.2298 6.93924 28.1101 6.058C26.7476 5.49058 25.314 5.09434 23.8512 4.87878C23.4822 4.82489 23.2234 4.49522 23.2589 4.13385C23.2589 4.11483 23.2589 4.09264 23.2589 4.07362V1.89904L17.068 5.55081L23.2589 9.36108L23.2687 7.24673C23.2687 7.24673 23.2687 7.24673 23.2687 7.24356V7.23405C23.2687 7.23405 23.2719 7.21503 23.2784 7.19601C23.2816 7.17699 23.2881 7.16431 23.2913 7.14846C23.2978 7.12944 23.3043 7.11042 23.3107 7.09457L23.3399 7.03751C23.3528 7.01215 23.3657 6.99313 23.3787 6.97411L23.4111 6.93607C23.424 6.92022 23.4434 6.89803 23.4628 6.87584L23.5049 6.84098C23.5049 6.84098 23.5373 6.81245 23.5664 6.79343L23.6085 6.76807C23.6085 6.76807 23.6505 6.74271 23.6829 6.73003L23.7314 6.71418C23.7314 6.71418 23.78 6.69516 23.8188 6.68882L23.8544 6.68248C23.8771 6.67931 23.8997 6.67614 23.9191 6.67614H23.9871H24.0195C24.0195 6.67614 24.0551 6.67614 24.0874 6.68248C25.2331 6.88852 26.356 7.2182 27.4272 7.66199C29.3399 8.45447 31.0551 9.58931 32.5308 11.0348C34.0065 12.4803 35.1651 14.1635 35.9774 16.037C36.1295 16.3857 35.9612 16.7882 35.6052 16.9372C35.5211 16.9721 35.4272 16.9911 35.3334 16.9911H35.3204ZM24.0065 7.42107L24.3981 7.50349C25.3496 7.7032 26.2654 7.98532 27.123 8.34353C28.945 9.10114 30.5826 10.1821 31.9903 11.561C33.3981 12.9399 34.5017 14.5439 35.2751 16.3286C35.2848 16.354 35.3075 16.3603 35.3237 16.3603C35.3722 16.3445 35.3852 16.3128 35.3722 16.2874C34.5955 14.49 33.4823 12.8765 32.0648 11.4881C30.6473 10.0997 29 9.00921 27.1651 8.24843C26.136 7.82049 25.0583 7.50666 23.9612 7.30696H23.9515L23.903 7.35134V7.37987V10.5118L15.8318 5.54447L23.903 0.78005V4.20042C23.903 4.22577 23.9224 4.24796 23.9483 4.2543C25.4661 4.47937 26.9483 4.88829 28.3625 5.47473C30.5632 6.38767 32.5373 7.69369 34.2395 9.35791C35.9386 11.0221 37.2719 12.959 38.2039 15.1145C38.2136 15.1367 38.2363 15.1462 38.2525 15.1462C38.2978 15.1335 38.3107 15.0955 38.301 15.0733C37.3625 12.9051 36.0227 10.9587 34.314 9.285C32.6052 7.61127 30.6182 6.29575 28.4046 5.37963C27.0907 4.8344 25.7023 4.43816 24.2784 4.20359L24.0098 4.15921V0.684952C24.0098 0.665932 24 0.650083 23.9839 0.640573C23.9677 0.631063 23.945 0.631063 23.9289 0.640573L15.7023 5.49375C15.7023 5.49375 15.6764 5.51911 15.6764 5.53813C15.6764 5.55715 15.6861 5.573 15.7023 5.58251L23.9289 10.6449H23.9839C24 10.6354 24.0098 10.6195 24.0098 10.6005V7.4179L24.0065 7.42107Z" fill="#414141"/>
</g>
<defs>
<clipPath id="clip0_314_10965">
<rect width="41" height="41" fill="white"/>
</clipPath>
</defs>
</svg>
