<svg width="39" height="30" viewBox="0 0 39 30" fill="none" xmlns="http://www.w3.org/2000/svg">
<g clip-path="url(#clip0_314_11219)">
<path d="M8.12443 29.3376C12.2525 29.3376 15.599 25.9429 15.599 21.7552C15.599 17.5676 12.2525 14.1729 8.12443 14.1729C3.99636 14.1729 0.649902 17.5676 0.649902 21.7552C0.649902 25.9429 3.99636 29.3376 8.12443 29.3376Z" fill="#F5F5F5"/>
<path d="M8.12421 30C3.64265 30 0 26.3016 0 21.7585C0 17.2155 3.6458 13.5171 8.12421 13.5171C12.6026 13.5171 16.2484 17.2155 16.2484 21.7585C16.2484 26.3016 12.6026 30 8.12421 30ZM8.12421 14.832C4.36172 14.832 1.29937 17.9385 1.29937 21.7553C1.29937 25.5721 4.36172 28.6787 8.12421 28.6787C11.8867 28.6787 14.9491 25.5721 14.9491 21.7553C14.9491 17.9385 11.8867 14.832 8.12421 14.832Z" fill="#414141"/>
<path d="M38.1471 23.4969C39.0954 19.4213 36.6071 15.3375 32.5895 14.3756C28.5718 13.4136 24.5461 15.9378 23.5978 20.0134C22.6496 24.0891 25.1378 28.1729 29.1555 29.1348C33.1732 30.0968 37.1989 27.5726 38.1471 23.4969Z" fill="#F5F5F5"/>
<path d="M30.8757 30.0005C26.3941 30.0005 22.7515 26.3021 22.7515 21.759C22.7515 17.216 26.3973 13.5176 30.8757 13.5176C35.3541 13.5176 38.9999 17.216 38.9999 21.759C38.9999 26.3021 35.3541 30.0005 30.8757 30.0005ZM30.8757 14.8325C27.1132 14.8325 24.0508 17.939 24.0508 21.7558C24.0508 25.5726 27.1132 28.6791 30.8757 28.6791C34.6382 28.6791 37.7005 25.5726 37.7005 21.7558C37.7005 17.939 34.6382 14.8325 30.8757 14.8325Z" fill="#414141"/>
<path d="M8.12402 21.0964L20.4743 18.7897L26.3247 10.2188L13.9743 12.1959L8.12402 21.0964Z" fill="#FDB924"/>
<path d="M8.1242 21.7587C7.90974 21.7587 7.70475 21.6499 7.58175 21.4611C7.43667 21.2404 7.43983 20.9524 7.58175 20.7317L13.4321 11.8312C13.533 11.6776 13.6907 11.5752 13.8704 11.5464L26.2208 9.56927C26.4762 9.52768 26.7348 9.64605 26.8736 9.87001C27.0124 10.094 27.0061 10.3787 26.8578 10.5962L21.0075 19.1672C20.9097 19.3112 20.7584 19.4072 20.5912 19.4392L8.24089 21.7459C8.20305 21.7523 8.16205 21.7555 8.1242 21.7555V21.7587ZM14.3561 12.8038L9.51503 20.1686L20.0898 18.1914L24.9214 11.1113L14.353 12.8038H14.3561Z" fill="#414141"/>
<path d="M30.8756 22.4178C30.617 22.4178 30.371 22.261 30.2701 22.0019L23.4452 4.52721C23.3664 4.32565 23.3916 4.0953 23.5115 3.91294C23.6313 3.73378 23.8331 3.625 24.0476 3.625H31.1973C31.5568 3.625 31.847 3.91934 31.847 4.28406V6.59077C31.847 6.95549 31.5568 7.24983 31.1973 7.24983C30.8378 7.24983 30.5476 6.95549 30.5476 6.59077V4.94312H25.0032L31.4748 21.5156C31.6073 21.8547 31.4433 22.2386 31.109 22.3698C31.0301 22.4018 30.9481 22.4178 30.8693 22.4178H30.8756Z" fill="#414141"/>
<path d="M12.12 0.662379H12.4543C14.1731 0.649582 15.8446 1.23506 17.1913 2.31323L18.8218 3.61855L17.5666 4.7991C16.119 6.15881 14.2047 6.89145 12.2335 6.84026C10.8616 6.80507 9.52441 6.39236 8.3638 5.64372L5.86914 4.03446L6.22552 3.57696C7.65104 1.74695 9.82086 0.675176 12.12 0.65918V0.662379Z" fill="#BFD730"/>
<path d="M12.426 7.5056C12.3566 7.5056 12.2841 7.5056 12.2147 7.5056C10.7229 7.46721 9.27218 7.0193 8.01381 6.20668L5.51915 4.59742C5.36461 4.49824 5.25739 4.33508 5.22585 4.14951C5.19431 3.96715 5.24162 3.77839 5.35831 3.63123L5.71469 3.17372C7.27267 1.17095 9.60333 0.0159966 12.1138 0H12.4481C12.4638 0 12.4796 0 12.4954 0C14.3372 0 16.1475 0.636664 17.5919 1.79802L19.2225 3.10334C19.3707 3.22171 19.4621 3.40087 19.4684 3.59603C19.4748 3.78799 19.3991 3.97355 19.2603 4.10472L18.0051 5.28527C16.4755 6.72177 14.5012 7.5056 12.426 7.5056ZM6.82483 3.87437L8.71081 5.09011C9.77049 5.77157 10.9942 6.15229 12.2462 6.18428C14.066 6.23867 15.7911 5.56681 17.122 4.31908L17.8222 3.66322L16.7877 2.8346C15.5609 1.84921 14.0218 1.32452 12.4575 1.32132H12.1232C10.0575 1.33412 8.13366 2.26192 6.82483 3.87437Z" fill="#414141"/>
<path d="M20.424 19.3974C20.2568 19.3974 20.0928 19.3334 19.9635 19.2054L5.71462 4.75089C5.46231 4.49495 5.46231 4.07583 5.71462 3.81989C5.97008 3.56394 6.38007 3.56394 6.63553 3.81989L20.8844 18.2744C21.1367 18.5304 21.1367 18.9495 20.8844 19.2054C20.7583 19.3334 20.5911 19.3974 20.424 19.3974Z" fill="#414141"/>
</g>
<defs>
<clipPath id="clip0_314_11219">
<rect width="39" height="30" fill="white"/>
</clipPath>
</defs>
</svg>
