<svg width="36" height="36" viewBox="0 0 36 36" fill="none" xmlns="http://www.w3.org/2000/svg">
<g clip-path="url(#clip0_314_11200)">
<path d="M26.2865 15.4084C26.2865 19.8018 22.5771 23.3634 17.9999 23.3634C13.4228 23.3634 9.71338 19.8018 9.71338 15.4084C9.71338 8.51355 17.7249 0.618652 17.9999 0.618652C18.2749 0.618652 26.2865 8.51355 26.2865 15.4084Z" fill="#BFD730"/>
<path d="M18 23.982C13.0836 23.982 9.08398 20.1351 9.08398 15.4084C9.08398 11.6456 11.342 7.70871 13.2395 5.07207C14.3578 3.51351 15.4272 2.29429 16.1239 1.54354C17.56 0 17.7647 0 18 0C18.2352 0 18.44 0 19.876 1.54354C20.5758 2.29429 21.6421 3.51351 22.7604 5.07207C24.6549 7.71171 26.9159 11.6456 26.9159 15.4084C26.9159 20.1351 22.9163 23.982 18 23.982ZM18 1.42042C16.4905 2.85886 10.3429 9.5976 10.3429 15.4084C10.3429 19.4535 13.7772 22.7447 18 22.7447C22.2227 22.7447 25.6571 19.4535 25.6571 15.4084C25.6571 9.6006 19.5124 2.86186 18 1.42042Z" fill="#414141"/>
<path d="M26.1948 14.1084C25.1559 15.5168 23.897 15.9372 22.4182 15.9372C19.103 15.9372 17.9235 12.4897 14.4097 12.4897C11.0945 12.4897 9.71338 15.4057 9.71338 15.4057C9.71338 19.7991 13.4228 23.3606 17.9999 23.3606C22.5771 23.3606 26.2865 19.7991 26.2865 15.4057C26.2865 14.9732 26.2528 14.5408 26.1948 14.1054V14.1084Z" fill="#00A19C"/>
<path d="M18 23.9822C13.0836 23.9822 9.08398 20.1354 9.08398 15.4086C9.08398 15.3185 9.10537 15.2285 9.14204 15.1474C9.2062 15.0122 10.734 11.8711 14.4097 11.8711C16.408 11.8711 17.7433 12.8741 18.9227 13.76C20.038 14.5978 21.0005 15.3185 22.4182 15.3185C23.836 15.3185 24.8687 14.8471 25.6846 13.745C25.8373 13.5408 26.1001 13.4477 26.3476 13.5077C26.5982 13.5708 26.7845 13.775 26.8182 14.0273C26.8823 14.5137 26.9159 14.9642 26.9159 15.4086C26.9159 20.1354 22.9163 23.9822 18 23.9822ZM10.3459 15.5558C10.4284 19.5348 13.8292 22.745 18 22.745C22.1707 22.745 25.5685 19.5378 25.654 15.5618C24.7801 16.2375 23.7229 16.5588 22.4182 16.5588C20.5727 16.5588 19.3444 15.6369 18.1588 14.745C17.0375 13.9041 15.9803 13.1113 14.4097 13.1113C11.8828 13.1113 10.624 15.0633 10.3459 15.5588V15.5558Z" fill="#414141"/>
<path d="M27.4293 35.4383V35.2942C27.4293 34.8467 27.6096 34.4173 27.9304 34.102L34.5914 27.5554C35.1261 27.0299 35.4286 26.3152 35.4286 25.5704V11.9218C35.4286 10.9518 34.6281 10.165 33.6411 10.165C32.7123 10.165 31.9392 10.8647 31.8598 11.7716L31.1295 20.1921L31.1112 20.3632C30.4298 20.0239 29.5743 20.132 29.0029 20.6936L26.9221 22.7386C26.3324 23.3182 25.5318 23.6425 24.7007 23.6425H24.6824C23.6985 23.6425 22.7513 24.0269 22.0547 24.7116L18.8372 27.8737C18.3025 28.3993 18 29.114 18 29.8587V35.4353" fill="#F5F5F5"/>
<path d="M27.4293 36C27.1145 36 26.8579 35.7477 26.8579 35.4384V35.2943C26.8579 34.6937 27.0962 34.1291 27.527 33.7057L34.188 27.1591C34.6189 26.7357 34.8572 26.1712 34.8572 25.5706V11.9219C34.8572 11.2643 34.3103 10.7267 33.6411 10.7267C32.972 10.7267 32.4831 11.1982 32.4311 11.8198L31.6795 20.4264C31.6581 20.6096 31.5481 20.7718 31.3831 20.8588C31.2181 20.9459 31.0195 20.9489 30.8545 20.8649C30.3717 20.6246 29.7912 20.7147 29.4092 21.0901L27.3284 23.1351C26.6257 23.8258 25.6937 24.2042 24.7007 24.2042C23.8452 24.2042 23.0538 24.5255 22.461 25.1081L19.2436 28.2703C18.8127 28.6937 18.5744 29.2582 18.5744 29.8588V35.4354C18.5744 35.7447 18.3177 35.997 18.003 35.997C17.6883 35.997 17.4316 35.7447 17.4316 35.4354V29.8588C17.4316 28.9579 17.7891 28.1141 18.4369 27.4775L21.6544 24.3153C22.4641 23.5195 23.5396 23.0811 24.6854 23.0811C25.3882 23.0811 26.036 22.8168 26.5218 22.3423L28.6026 20.2973C29.1434 19.7657 29.8859 19.5315 30.61 19.6276L31.2975 11.7207C31.4014 10.5105 32.4128 9.60059 33.6472 9.60059C34.9489 9.60059 36.0061 10.6396 36.0061 11.9189V25.5676C36.0061 26.4685 35.6486 27.3153 35.0008 27.9489L28.3398 34.4955C28.1259 34.7057 28.0037 34.994 28.0037 35.2913V35.4354C28.0037 35.7447 27.747 35.997 27.4323 35.997L27.4293 36Z" fill="#512A7A"/>
<path d="M26.5706 28.6998C26.424 28.6998 26.2773 28.6457 26.1673 28.5346C25.9442 28.3154 25.9442 27.961 26.1673 27.7418L31.1661 22.8289C31.6519 22.3514 31.6519 21.5736 31.1661 21.0962C31.0714 21.0031 30.9644 20.928 30.8483 20.8679C30.5672 20.7268 30.4542 20.3905 30.5978 20.1142C30.7414 19.8379 31.0836 19.7268 31.3647 19.8679C31.5878 19.979 31.7925 20.1262 31.9728 20.3034C32.9047 21.2193 32.9047 22.7088 31.9728 23.6247L26.9739 28.5376C26.8609 28.6487 26.7173 28.7028 26.5706 28.7028V28.6998Z" fill="#512A7A"/>
<path d="M8.57061 35.4383V35.2942C8.57061 34.8467 8.39033 34.4173 8.06951 34.102L1.4085 27.5554C0.873784 27.0299 0.571289 26.3152 0.571289 25.5704V11.9218C0.571289 10.9518 1.37183 10.165 2.35876 10.165C3.28764 10.165 4.06068 10.8647 4.14012 11.7716L4.87039 20.1921L4.91622 20.3512C5.59454 20.0239 6.43786 20.138 7.00008 20.6936L9.08088 22.7386C9.67059 23.3182 10.4711 23.6425 11.3022 23.6425H11.3206C12.3044 23.6425 13.2516 24.0269 13.9483 24.7116L17.1658 27.8737C17.7005 28.3993 18.003 29.114 18.003 29.8587V35.4353" fill="#F5F5F5"/>
<path d="M18 35.9999C17.6853 35.9999 17.4286 35.7477 17.4286 35.4384V29.8618C17.4286 29.2612 17.1903 28.6966 16.7595 28.2732L13.542 25.111C12.9492 24.5284 12.1579 24.2071 11.3207 24.2071C10.3123 24.2071 9.38041 23.8287 8.67764 23.1381L6.59684 21.093C6.22101 20.7236 5.64658 20.6275 5.16686 20.8588C5.01409 20.9308 4.83687 20.9338 4.68104 20.8648C4.52521 20.7957 4.4091 20.6636 4.36632 20.5014L4.32049 20.3423C4.31132 20.3092 4.30521 20.2762 4.30216 20.2432L3.57189 11.8227C3.51689 11.1981 2.99745 10.7296 2.35885 10.7296C1.6897 10.7296 1.14276 11.2672 1.14276 11.9248V25.5735C1.14276 26.1741 1.38109 26.7386 1.81192 27.1621L8.47293 33.7086C8.90375 34.132 9.14208 34.6966 9.14208 35.2972V35.4414C9.14208 35.7507 8.88542 36.0029 8.5707 36.0029C8.25598 36.0029 7.99932 35.7507 7.99932 35.4414V35.2972C7.99932 34.9999 7.8771 34.7116 7.66322 34.5014L1.00526 27.9519C0.357495 27.3152 0 26.4684 0 25.5705V11.9218C0 10.6426 1.05721 9.60352 2.35885 9.60352C3.6605 9.60352 4.60465 10.5164 4.70854 11.7236L5.39603 19.6305C6.12018 19.5375 6.86573 19.7717 7.4035 20.2972L9.4843 22.3423C9.97012 22.8197 10.6148 23.081 11.3023 23.081C12.4634 23.081 13.539 23.5194 14.3487 24.3152L17.5661 27.4774C18.2139 28.114 18.5714 28.9609 18.5714 29.8588V35.4353C18.5714 35.7447 18.3147 35.9969 18 35.9969V35.9999Z" fill="#512A7A"/>
<path d="M9.42921 28.6996C9.28255 28.6996 9.13588 28.6455 9.02588 28.5344L4.02707 23.6215C3.09514 22.7056 3.09514 21.2161 4.02707 20.3002C4.21651 20.114 4.4304 19.9638 4.66873 19.8497C4.95289 19.7146 5.29511 19.8287 5.43261 20.108C5.5701 20.3873 5.45399 20.7236 5.16983 20.8587C5.04761 20.9188 4.93456 20.9969 4.83678 21.093C4.35096 21.5704 4.35096 22.3482 4.83678 22.8257L9.83559 27.7386C10.0586 27.9578 10.0586 28.3122 9.83559 28.5314C9.7256 28.6425 9.57893 28.6966 9.43227 28.6966L9.42921 28.6996Z" fill="#512A7A"/>
</g>
<defs>
<clipPath id="clip0_314_11200">
<rect width="36" height="36" fill="white"/>
</clipPath>
</defs>
</svg>
