<svg width="40" height="39" viewBox="0 0 40 39" fill="none" xmlns="http://www.w3.org/2000/svg">
<g clip-path="url(#clip0_314_11333)">
<path d="M19.6817 38.3858V12.992C19.6817 11.7637 18.6848 10.771 17.458 10.771H8.2408C7.01105 10.771 6.01709 11.7667 6.01709 12.992V38.3828H19.6817V38.3858Z" fill="#BFD730"/>
<path d="M19.6819 38.9998H6.01722C5.67695 38.9998 5.40234 38.7255 5.40234 38.3857V12.9919C5.40234 11.4267 6.67688 10.1567 8.24094 10.1567H17.4582C19.0252 10.1567 20.2968 11.4297 20.2968 12.9919V38.3827C20.2968 38.7226 20.0221 38.9968 19.6819 38.9968V38.9998ZM6.6321 37.7716H19.067V12.9919C19.067 12.1064 18.3447 11.385 17.4582 11.385H8.24094C7.35444 11.385 6.6321 12.1064 6.6321 12.9919V37.7686V37.7716Z" fill="#414141"/>
<path d="M31.7588 38.386V18.3881L38.433 11.7222C39.1344 11.0216 39.1344 9.88275 38.433 9.18217C37.7315 8.48159 36.5913 8.48159 35.8899 9.18217L31.1231 13.9431H19.6821V38.383H31.7588V38.386Z" fill="#00A19C"/>
<path d="M31.759 38.9999H19.6823C19.342 38.9999 19.0674 38.7256 19.0674 38.3858V13.9459C19.0674 13.6061 19.342 13.3318 19.6823 13.3318H30.8695L35.4572 8.74972C36.3974 7.81064 37.9287 7.81064 38.8689 8.74972C39.3256 9.20584 39.5763 9.81102 39.5763 10.455C39.5763 11.0989 39.3256 11.7041 38.8689 12.1602L32.3768 18.6443V38.3858C32.3768 38.7256 32.1022 38.9999 31.762 38.9999H31.759ZM20.2971 37.7717H31.1441V18.3879C31.1441 18.224 31.2098 18.0689 31.3232 17.9527L37.9973 11.2867C38.2212 11.0631 38.3436 10.768 38.3436 10.452C38.3436 10.136 38.2212 9.84083 37.9973 9.61724C37.5376 9.15814 36.7855 9.15814 36.3258 9.61724L31.559 14.3782C31.4426 14.4945 31.2874 14.5571 31.1232 14.5571H20.2971V37.7687V37.7717Z" fill="#414141"/>
<path d="M26.9919 11.7249C29.0987 11.7249 30.8065 10.0191 30.8065 7.91495C30.8065 5.81076 29.0987 4.10498 26.9919 4.10498C24.8851 4.10498 23.1772 5.81076 23.1772 7.91495C23.1772 10.0191 24.8851 11.7249 26.9919 11.7249Z" fill="#F5F5F5"/>
<path d="M26.992 12.336C24.5504 12.336 22.5625 10.3505 22.5625 7.91189C22.5625 5.47327 24.5504 3.48779 26.992 3.48779C29.4336 3.48779 31.4215 5.47327 31.4215 7.91189C31.4215 10.3505 29.4336 12.336 26.992 12.336ZM26.992 4.71903C25.228 4.71903 23.7923 6.15298 23.7923 7.91189C23.7923 9.67079 25.228 11.1077 26.992 11.1077C28.7561 11.1077 30.1888 9.67377 30.1888 7.91189C30.1888 6.15 28.7531 4.71903 26.992 4.71903Z" fill="#414141"/>
<path d="M9.73024 23.0711C10.2142 21.0232 8.9443 18.9712 6.89387 18.4878C4.84344 18.0045 2.78892 19.2728 2.30497 21.3207C1.82103 23.3686 3.09091 25.4206 5.14134 25.904C7.19178 26.3873 9.24629 25.119 9.73024 23.0711Z" fill="#F5F5F5"/>
<path d="M6.0179 26.6221C3.57629 26.6221 1.58838 24.6366 1.58838 22.198C1.58838 19.7594 3.57629 17.7739 6.0179 17.7739C8.45951 17.7739 10.4474 19.7594 10.4474 22.198C10.4474 24.6366 8.45951 26.6221 6.0179 26.6221ZM6.0179 19.0022C4.25385 19.0022 2.81814 20.4361 2.81814 22.198C2.81814 23.9599 4.25385 25.3939 6.0179 25.3939C7.78195 25.3939 9.21766 23.9599 9.21766 22.198C9.21766 20.4361 7.78195 19.0022 6.0179 19.0022Z" fill="#414141"/>
<path d="M4.11001 34.8949H10.3066C11.2707 34.8949 12.0557 35.676 12.0557 36.6419C12.0557 37.6048 11.2737 38.3889 10.3066 38.3889H2.36387C1.39976 38.3889 0.614746 37.6078 0.614746 36.6419V30.4529C0.614746 29.2247 1.61169 28.2319 2.83846 28.2319H7.92166C9.15142 28.2319 10.1454 29.2277 10.1454 30.4529V34.8979" fill="#00A19C"/>
<path d="M10.3067 38.9999H2.364C1.05962 38.9999 0 37.9416 0 36.6388V30.4499C0 28.8847 1.27453 27.6147 2.83859 27.6147H7.92478C9.49183 27.6147 10.7634 28.8877 10.7634 30.4499V34.3224C11.8499 34.5341 12.6707 35.494 12.6707 36.6388C12.6707 37.9416 11.6111 38.9999 10.3067 38.9999ZM2.83859 28.843C1.95209 28.843 1.22976 29.5644 1.22976 30.4499V36.6388C1.22976 37.2619 1.73718 37.7687 2.36102 37.7687H10.3067C10.9305 37.7687 11.438 37.2619 11.438 36.6388C11.438 36.0158 10.9305 35.509 10.3067 35.509H4.11014C3.76987 35.509 3.49526 35.2347 3.49526 34.8948C3.49526 34.555 3.76987 34.2807 4.11014 34.2807H9.53362V30.4499C9.53362 29.5644 8.81128 28.843 7.92478 28.843H2.83859Z" fill="#414141"/>
<path d="M35.408 29.3357C36.8977 27.8478 36.8977 25.4354 35.408 23.9475C33.9183 22.4597 31.503 22.4597 30.0133 23.9475C28.5236 25.4354 28.5236 27.8478 30.0133 29.3357C31.503 30.8235 33.9183 30.8235 35.408 29.3357Z" fill="#F5F5F5"/>
<path d="M32.7108 31.064C30.2692 31.064 28.2812 29.0785 28.2812 26.6399C28.2812 24.2013 30.2692 22.2158 32.7108 22.2158C35.1524 22.2158 37.1403 24.2013 37.1403 26.6399C37.1403 29.0785 35.1524 31.064 32.7108 31.064ZM32.7108 23.4471C30.9467 23.4471 29.514 24.881 29.514 26.6429C29.514 28.4048 30.9497 29.8358 32.7108 29.8358C34.4718 29.8358 35.9105 28.4018 35.9105 26.6429C35.9105 24.884 34.4748 23.4471 32.7108 23.4471Z" fill="#414141"/>
<path d="M39.3849 38.3862V35.2112C39.3849 33.983 38.3879 32.9902 37.1612 32.9902H27.9439C26.7142 32.9902 25.7202 33.986 25.7202 35.2112V38.3862H39.3849Z" fill="#BFD730"/>
<path d="M39.385 39.0002H25.7203C25.3801 39.0002 25.1055 38.7259 25.1055 38.3861V35.2111C25.1055 33.646 26.38 32.376 27.9441 32.376H37.1613C38.7283 32.376 39.9999 33.6489 39.9999 35.2111V38.3861C39.9999 38.7259 39.7253 39.0002 39.385 39.0002ZM26.3352 37.7719H38.7701V35.2111C38.7701 34.3257 38.0478 33.6042 37.1613 33.6042H27.9441C27.0576 33.6042 26.3352 34.3257 26.3352 35.2111V37.7719Z" fill="#414141"/>
<path d="M14.1519 7.94371C16.0983 7.13847 17.0226 4.90976 16.2163 2.96575C15.4101 1.02173 13.1787 0.0985676 11.2323 0.903805C9.28588 1.70904 8.36158 3.93775 9.16781 5.88177C9.97403 7.82578 12.2055 8.74895 14.1519 7.94371Z" fill="#F5F5F5"/>
<path d="M12.6912 8.84521C10.2496 8.84521 8.26172 6.85973 8.26172 4.42111C8.26172 1.98249 10.2496 0 12.6912 0C15.1328 0 17.1208 1.98548 17.1208 4.42409C17.1208 6.86271 15.1328 8.84819 12.6912 8.84819V8.84521ZM12.6912 1.22825C10.9272 1.22825 9.49148 2.66221 9.49148 4.42409C9.49148 6.18598 10.9272 7.61994 12.6912 7.61994C14.4553 7.61994 15.891 6.18598 15.891 4.42409C15.891 2.66221 14.4553 1.22825 12.6912 1.22825Z" fill="#414141"/>
<path d="M22.5413 33.625V36.165C22.5413 37.3932 21.5443 38.386 20.3176 38.386H18.4102C17.1805 38.386 16.1865 37.3902 16.1865 36.165V33.625" fill="#F5F5F5"/>
<path d="M20.3177 39H18.4104C16.8433 39 15.5718 37.727 15.5718 36.1648V33.6249C15.5718 33.285 15.8464 33.0107 16.1867 33.0107C16.5269 33.0107 16.8015 33.285 16.8015 33.6249V36.1648C16.8015 37.0503 17.5239 37.7717 18.4104 37.7717H20.3177C21.2042 37.7717 21.9265 37.0503 21.9265 36.1648V33.6249C21.9265 33.285 22.2011 33.0107 22.5414 33.0107C22.8817 33.0107 23.1563 33.285 23.1563 33.6249V36.1648C23.1563 37.73 21.8818 39 20.3177 39Z" fill="#414141"/>
<path d="M26.3471 22.7886C26.4516 24.8367 25.6665 26.7089 24.3472 28.0474C23.3742 29.0372 22.8608 30.3906 22.8608 31.7769V33.6223H15.8703V31.765C15.8703 30.3727 15.3419 29.0252 14.3659 28.0295C13.1332 26.7715 12.375 25.0454 12.375 23.1493C12.375 19.1515 15.7389 15.9378 19.7953 16.1793C23.3145 16.388 26.171 19.2708 26.3501 22.7886H26.3471Z" fill="#FDB924"/>
<path d="M22.8609 34.2392H15.8704C15.5301 34.2392 15.2555 33.965 15.2555 33.6251V31.7678C15.2555 30.5127 14.7839 29.3352 13.9273 28.4617C12.5303 27.0337 11.7603 25.1466 11.7603 23.1522C11.7603 21.1577 12.6318 19.053 14.1511 17.622C15.6913 16.1732 17.7091 15.4428 19.8313 15.568C23.637 15.7946 26.7711 18.9546 26.9621 22.7586C27.0696 24.8812 26.2756 26.9681 24.7861 28.4796C23.9534 29.3262 23.4758 30.5276 23.4758 31.7797V33.6251C23.4758 33.965 23.2012 34.2392 22.8609 34.2392ZM16.4853 33.011H22.246V31.7797C22.246 30.1848 22.837 28.7091 23.9086 27.618C25.1772 26.3301 25.8249 24.6278 25.7323 22.8212C25.5712 19.6314 22.9475 16.9841 19.7567 16.7962C17.9777 16.6919 16.2853 17.3001 14.9928 18.5164C13.7004 19.7327 12.987 21.3783 12.987 23.1522C12.987 24.8246 13.6318 26.4076 14.8048 27.6031C15.8883 28.7091 16.4853 30.1908 16.4853 31.7708V33.014V33.011Z" fill="#414141"/>
<path d="M19.0463 27.9906C18.9239 27.9906 18.8075 27.9339 18.7299 27.8355L15.551 23.7096C15.4167 23.5366 15.4496 23.2862 15.6227 23.1521C15.7958 23.0179 16.0465 23.0507 16.1808 23.2236L19.0015 26.8875L22.5147 21.0384C22.6281 20.8506 22.8699 20.788 23.0609 20.9013C23.249 21.0146 23.3117 21.259 23.1982 21.4468L19.3836 27.7938C19.3149 27.9071 19.1955 27.9786 19.0642 27.9846C19.0553 27.9846 19.0493 27.9846 19.0403 27.9846L19.0463 27.9906Z" fill="#3C0F75"/>
<path d="M30.4872 38.7823H9.83204C9.61116 38.7823 9.43506 38.6034 9.43506 38.3858C9.43506 38.1681 9.61415 37.9893 9.83204 37.9893H30.4872C30.7081 37.9893 30.8842 38.1681 30.8842 38.3858C30.8842 38.6034 30.7051 38.7823 30.4872 38.7823Z" fill="#3C0F75"/>
</g>
<defs>
<clipPath id="clip0_314_11333">
<rect width="40" height="39" fill="white"/>
</clipPath>
</defs>
</svg>
