<svg width="42" height="36" viewBox="0 0 42 36" fill="none" xmlns="http://www.w3.org/2000/svg">
<g clip-path="url(#clip0_314_11260)">
<path d="M20.0891 35.223C27.9054 35.223 34.2417 28.7619 34.2417 20.7917C34.2417 12.8215 27.9054 6.36035 20.0891 6.36035C12.2729 6.36035 5.93652 12.8215 5.93652 20.7917C5.93652 28.7619 12.2729 35.223 20.0891 35.223Z" fill="#FDB924"/>
<path d="M32.2598 10.2423C32.1032 10.2423 31.9497 10.1821 31.8286 10.0616C31.5923 9.82072 31.5923 9.42621 31.8286 9.18529L34.5664 6.39358C34.8056 6.15266 35.1895 6.15266 35.4287 6.39358C35.665 6.63451 35.665 7.02902 35.4287 7.26994L32.691 10.0616C32.5728 10.1821 32.4163 10.2423 32.2598 10.2423Z" fill="#414141"/>
<path d="M7.60792 10.2425C7.45139 10.2425 7.29781 10.1822 7.17673 10.0618L4.13179 6.95988C3.89552 6.71896 3.89552 6.32445 4.13179 6.08352C4.36806 5.8426 4.75496 5.8426 4.99418 6.08352L8.03911 9.18542C8.27538 9.42634 8.27538 9.82085 8.03911 10.0618C7.92098 10.1822 7.76445 10.2425 7.60792 10.2425Z" fill="#414141"/>
<path d="M7.6079 10.2423C7.45137 10.2423 7.29779 10.1821 7.1767 10.0616L4.43892 7.26994C4.20265 7.02902 4.20265 6.63451 4.43892 6.39358C4.67815 6.15266 5.06208 6.15266 5.30131 6.39358L8.03909 9.18529C8.27536 9.42621 8.27536 9.82072 8.03909 10.0616C7.92095 10.1821 7.76443 10.2423 7.6079 10.2423Z" fill="#414141"/>
<path d="M5.17431 34.7564C5.01779 34.7564 4.86126 34.6961 4.74312 34.5757C4.50685 34.3347 4.50685 33.9402 4.74312 33.6993L7.1767 31.2178C7.41298 30.9769 7.79987 30.9769 8.03614 31.2178C8.27241 31.4587 8.27241 31.8532 8.03614 32.0942L5.60255 34.5757C5.48442 34.6961 5.32789 34.7564 5.17136 34.7564H5.17431Z" fill="#414141"/>
<path d="M19.7817 4.96604C19.4451 4.96604 19.1733 4.68897 19.1733 4.34566V0.620378C19.1733 0.277062 19.4451 0 19.7817 0C20.1184 0 20.3901 0.277062 20.3901 0.620378V4.34566C20.3901 4.68897 20.1184 4.96604 19.7817 4.96604Z" fill="#414141"/>
<path d="M3.65333 21.4121H0.608396C0.271711 21.4121 0 21.1351 0 20.7918C0 20.4484 0.271711 20.1714 0.608396 20.1714H3.65038C3.98706 20.1714 4.25877 20.4484 4.25877 20.7918C4.25877 21.1351 3.98706 21.4121 3.65038 21.4121H3.65333Z" fill="#414141"/>
<path d="M20.0859 35.9999C11.8637 35.9999 5.17432 29.1788 5.17432 20.7946C5.17432 12.4105 11.8637 5.58936 20.0859 5.58936C26.0931 5.58936 31.486 9.23332 33.825 14.877C33.955 15.1932 33.8103 15.5576 33.5002 15.6901C33.1901 15.8226 32.8327 15.675 32.7028 15.3588C30.5527 10.1759 25.5999 6.83011 20.083 6.83011C12.5312 6.83011 6.38815 13.0941 6.38815 20.7946C6.38815 28.4952 12.5312 34.7592 20.083 34.7592C20.4197 34.7592 20.6914 35.0362 20.6914 35.3796C20.6914 35.7229 20.4197 35.9999 20.083 35.9999H20.0859Z" fill="#414141"/>
<path d="M27.6938 35.6866C27.3572 35.6866 27.0854 35.4095 27.0854 35.0662V28.239C27.0854 27.8957 27.3572 27.6187 27.6938 27.6187C28.0305 27.6187 28.3022 27.8957 28.3022 28.239V35.0662C28.3022 35.4095 28.0305 35.6866 27.6938 35.6866Z" fill="#414141"/>
<path d="M33.7808 35.7045L22.8237 35.6895C22.487 35.6895 22.2153 35.4094 22.2153 35.0691C22.2153 34.7258 22.487 34.4487 22.8237 34.4487L33.7808 34.4638C34.1174 34.4638 34.3892 34.7439 34.3892 35.0842C34.3892 35.4275 34.1174 35.7045 33.7808 35.7045Z" fill="#414141"/>
<path d="M35.9131 17.0693H19.4775L13.999 28.2392H41.3916L35.9131 17.0693Z" fill="#00A19C"/>
<path d="M41.3914 28.8595H13.9989C13.7892 28.8595 13.5913 28.748 13.482 28.5643C13.3698 28.3806 13.3609 28.1518 13.4554 27.959L18.9339 16.7862C19.0373 16.5754 19.247 16.4429 19.4774 16.4429H35.9129C36.1433 16.4429 36.353 16.5754 36.4563 16.7862L41.9349 27.959C42.0294 28.1518 42.0205 28.3806 41.9083 28.5643C41.796 28.748 41.6011 28.8595 41.3914 28.8595ZM14.9853 27.6187H40.405L35.5349 17.6866H19.8524L14.9823 27.6187H14.9853Z" fill="#414141"/>
<path d="M21.6068 28.8593C21.5477 28.8593 21.4887 28.8502 21.4296 28.8321C21.1077 28.7328 20.9275 28.3864 21.025 28.0582L24.3741 16.8854C24.4716 16.5571 24.8112 16.3734 25.1331 16.4728C25.4551 16.5722 25.6352 16.9185 25.5377 17.2467L22.1886 28.4196C22.1089 28.6876 21.8667 28.8593 21.6068 28.8593Z" fill="#414141"/>
<path d="M33.7806 28.8593C33.5207 28.8593 33.2786 28.6876 33.1988 28.4196L29.8497 17.2467C29.7522 16.9185 29.9324 16.5722 30.2543 16.4728C30.5762 16.3734 30.9159 16.5571 31.0133 16.8854L34.3625 28.0582C34.4599 28.3864 34.2798 28.7328 33.9578 28.8321C33.8988 28.8502 33.8397 28.8593 33.7806 28.8593Z" fill="#414141"/>
</g>
<defs>
<clipPath id="clip0_314_11260">
<rect width="42" height="36" fill="white"/>
</clipPath>
</defs>
</svg>
