<svg width="30" height="39" viewBox="0 0 30 39" fill="none" xmlns="http://www.w3.org/2000/svg">
<g clip-path="url(#clip0_314_11107)">
<path d="M16.404 37.3276H13.5952V37.6266C13.5952 38.0367 13.7873 38.3225 14.0593 38.3225H15.9398C16.2119 38.3225 16.404 38.0367 16.404 37.6266V37.3276Z" fill="#00A19C"/>
<path d="M15.94 38.7222H14.0595C13.5581 38.7222 13.1953 38.2618 13.1953 37.6295V37.3305C13.1953 37.1109 13.374 36.9336 13.5954 36.9336H16.4042C16.6256 36.9336 16.8043 37.1109 16.8043 37.3305V37.6295C16.8043 38.2618 16.4415 38.7222 15.94 38.7222ZM14.0009 37.7274C14.0169 37.8623 14.0622 37.9258 14.0755 37.9337L15.9374 37.9284C15.9374 37.9284 15.9801 37.8623 15.9961 37.7274H13.9982H14.0009Z" fill="#414141"/>
<path d="M18.4183 32.126H11.5791V34.0151H18.4183V32.126Z" fill="#00A19C"/>
<path d="M18.4209 34.4119H11.5817C11.3604 34.4119 11.1816 34.2346 11.1816 34.015V32.1259C11.1816 31.9063 11.3604 31.729 11.5817 31.729H18.4209C18.6423 31.729 18.821 31.9063 18.821 32.1259V34.015C18.821 34.2346 18.6423 34.4119 18.4209 34.4119ZM11.9792 33.6181H18.0181V32.5228H11.9792V33.6181Z" fill="#414141"/>
<path d="M11.5791 36.0076C11.5791 36.3621 11.8698 36.6532 12.2299 36.6532H18.0262C18.2422 36.6532 18.4209 36.4785 18.4209 36.2616V34.6899H11.5818V36.0076H11.5791Z" fill="#00A19C"/>
<path d="M18.0264 37.05H12.2301C11.6513 37.05 11.1792 36.5816 11.1792 36.0075V34.6898C11.1792 34.4702 11.3579 34.293 11.5793 34.293H18.4185C18.6399 34.293 18.8186 34.4702 18.8186 34.6898V36.2615C18.8186 36.6954 18.4611 37.05 18.0237 37.05H18.0264ZM11.9794 35.0867V36.0075C11.9794 36.1451 12.0914 36.2562 12.2301 36.2562H18.0264L18.021 35.0867H11.9794Z" fill="#414141"/>
<path d="M28.9758 6.41907L25.9937 7.83196C25.8229 7.91134 25.7509 8.11507 25.8336 8.28176C25.8923 8.40347 26.015 8.47491 26.1404 8.47491C26.1884 8.47491 26.2391 8.46433 26.2871 8.44316L29.2692 7.03027C29.4399 6.95089 29.5119 6.74716 29.4292 6.58047C29.3492 6.41114 29.1438 6.3397 28.9758 6.42172V6.41907Z" fill="#414141"/>
<path d="M27.3271 13.9915C27.3271 14.1794 27.4792 14.3302 27.6686 14.3302H29.6611C29.8505 14.3302 30.0025 14.1794 30.0025 13.9915C30.0025 13.8036 29.8505 13.6528 29.6611 13.6528H27.6686C27.4792 13.6528 27.3271 13.8036 27.3271 13.9915Z" fill="#414141"/>
<path d="M22.0434 4.11963C22.1527 4.11963 22.2594 4.06671 22.3261 3.97146L23.4464 2.33103C23.5531 2.17757 23.5104 1.9659 23.3557 1.86271C23.1984 1.75687 22.9876 1.79921 22.8809 1.95267L21.7606 3.5931C21.6539 3.74656 21.6966 3.95823 21.8513 4.06142C21.91 4.10111 21.9767 4.11963 22.0434 4.11963Z" fill="#414141"/>
<path d="M3.71295 8.44274C3.76096 8.46391 3.81164 8.47449 3.85965 8.47449C3.98769 8.47449 4.10772 8.40305 4.1664 8.28134C4.24642 8.11201 4.1744 7.91092 4.00636 7.83155L1.02423 6.41866C0.853519 6.33928 0.650798 6.41072 0.570776 6.57741C0.490755 6.74674 0.562774 6.94783 0.730819 7.02721L3.71295 8.4401V8.44274Z" fill="#414141"/>
<path d="M0 13.9915C0 14.1794 0.152041 14.3302 0.341424 14.3302H2.33396C2.52334 14.3302 2.67538 14.1794 2.67538 13.9915C2.67538 13.8036 2.52334 13.6528 2.33396 13.6528H0.341424C0.152041 13.6528 0 13.8036 0 13.9915Z" fill="#414141"/>
<path d="M7.1191 1.95267C7.0124 1.79921 6.80168 1.75687 6.6443 1.86271C6.4896 1.96854 6.44692 2.17757 6.55361 2.33103L7.67391 3.97146C7.7406 4.06671 7.84729 4.11963 7.95665 4.11963C8.02334 4.11963 8.09002 4.10111 8.14871 4.06142C8.30341 3.95558 8.34609 3.74656 8.2394 3.5931L7.1191 1.95267Z" fill="#414141"/>
<path d="M15.508 2.07436V0.33867C15.508 0.150814 15.356 0 15.1666 0C14.9772 0 14.8252 0.150814 14.8252 0.33867V2.07436C14.8252 2.26221 14.9772 2.41303 15.1666 2.41303C15.356 2.41303 15.508 2.26221 15.508 2.07436Z" fill="#414141"/>
<path d="M12.7263 27.6175V25.522L10.6831 25.9744V27.6175H12.7263Z" fill="#FDB924"/>
<path d="M12.7263 28.0144H10.6804C10.459 28.0144 10.2803 27.8372 10.2803 27.6176V25.9771C10.2803 25.7919 10.411 25.6305 10.5924 25.5908L12.6382 25.1384C12.7556 25.1119 12.881 25.1384 12.9743 25.2151C13.0677 25.2892 13.1237 25.403 13.1237 25.5247V27.6176C13.1237 27.8372 12.945 28.0144 12.7236 28.0144H12.7263ZM11.0832 27.2207H12.3288V26.0195L11.0832 26.2946V27.2207Z" fill="#414141"/>
<path d="M17.5005 24.469V27.6176H19.5464V24.0166L17.5005 24.469Z" fill="#FDB924"/>
<path d="M19.5466 28.0143H17.5007C17.2793 28.0143 17.1006 27.837 17.1006 27.6174V24.4688C17.1006 24.2836 17.2313 24.1222 17.4127 24.0825L19.4585 23.6301C19.5759 23.6036 19.7013 23.6301 19.7946 23.7068C19.888 23.7809 19.944 23.8947 19.944 24.0164V27.6174C19.944 27.837 19.7653 28.0143 19.5439 28.0143H19.5466ZM17.9008 27.2205H19.1465V24.5112L17.9008 24.7863V27.2205Z" fill="#414141"/>
<path d="M9.09033 28.2925V29.5043C9.09033 30.5759 9.97057 31.449 11.0509 31.449H18.949C20.0292 31.449 20.9095 30.5759 20.9095 29.5043V28.2925H9.09033Z" fill="#00A19C"/>
<path d="M18.9492 31.8458H11.0511C9.74938 31.8458 8.69043 30.7954 8.69043 29.5042V28.2924C8.69043 28.0728 8.86914 27.8955 9.09054 27.8955H20.9097C21.1311 27.8955 21.3098 28.0728 21.3098 28.2924V29.5042C21.3098 30.7954 20.2508 31.8458 18.9492 31.8458ZM9.49064 28.6893V29.5042C9.49064 30.3562 10.1895 31.052 11.0511 31.052H18.9492C19.8107 31.052 20.5096 30.3588 20.5096 29.5042V28.6893H9.49064Z" fill="#414141"/>
<path d="M21.494 22.892C21.9475 22.7914 22.3342 22.5215 22.585 22.1326C22.833 21.7437 22.9157 21.2806 22.8144 20.8308C22.633 20.0291 21.9128 19.4814 21.1179 19.4814C20.9925 19.4814 20.8672 19.4947 20.7391 19.5238L8.84797 22.1511C8.39451 22.2517 8.00774 22.5215 7.75701 22.9105C7.50894 23.2994 7.42626 23.7625 7.52762 24.2122C7.73567 25.1409 8.66659 25.7257 9.60284 25.5219L21.494 22.892Z" fill="#FDB924"/>
<path d="M9.22668 25.9584C8.24509 25.9584 7.35952 25.2837 7.13546 24.2968C7.01009 23.7438 7.11145 23.175 7.4182 22.6961C7.72495 22.2172 8.19974 21.8864 8.75722 21.7621L20.6484 19.1347C20.8004 19.1003 20.9578 19.0845 21.1152 19.0845C22.1075 19.0845 22.9877 19.783 23.2037 20.7461C23.3291 21.2991 23.2278 21.8679 22.921 22.3468C22.6143 22.8257 22.1395 23.1565 21.5793 23.2808L9.68814 25.9108C9.53343 25.9452 9.37872 25.9611 9.22402 25.9611L9.22668 25.9584ZM21.1179 19.8809C21.0192 19.8809 20.9231 19.8915 20.8271 19.9126L8.93327 22.54C8.58384 22.6167 8.2851 22.8257 8.09305 23.1247C7.901 23.4237 7.83965 23.7809 7.917 24.1248C8.07704 24.8392 8.79457 25.2917 9.51476 25.1329L21.4059 22.5056C21.7554 22.4288 22.0541 22.2198 22.2435 21.9208C22.4329 21.6219 22.4969 21.2647 22.4195 20.9181C22.2835 20.3148 21.734 19.8782 21.1125 19.8782L21.1179 19.8809Z" fill="#414141"/>
<path d="M21.6432 23.5532C22.2754 23.413 22.8142 23.0399 23.1609 22.4975C23.5077 21.9551 23.6224 21.3122 23.481 20.6878C23.1903 19.3939 21.8939 18.5764 20.5922 18.8674L8.70107 21.4974C8.06891 21.6376 7.5301 22.0107 7.18334 22.5531C6.83658 23.0955 6.72188 23.7384 6.86325 24.3629C7.00462 24.9899 7.38072 25.5244 7.92753 25.8684C8.31964 26.1171 8.76776 26.2441 9.22121 26.2441C9.39726 26.2441 9.57597 26.2256 9.75202 26.1859L10.0001 26.1303V27.6199H8.74909C8.5597 27.6199 8.40766 27.7707 8.40766 27.9586V29.5091C8.40766 30.9034 9.51196 32.0438 10.8963 32.1232V36.0126C10.8963 36.7402 11.4938 37.3329 12.2273 37.3329H12.9102V37.6319C12.9102 38.4283 13.393 39.0051 14.0572 39.0051H15.9377C16.6018 39.0051 17.0846 38.4283 17.0846 37.6319V37.3329H18.0236C18.6157 37.3329 19.0985 36.854 19.0985 36.2666V32.1232C20.4855 32.0438 21.5872 30.9034 21.5872 29.5091V27.9586C21.5872 27.7707 21.4351 27.6199 21.2458 27.6199H20.2241V23.8681L21.6405 23.5559L21.6432 23.5532ZM20.9097 29.5038C20.9097 30.5754 20.0294 31.4485 18.9491 31.4485H11.051C9.97075 31.4485 9.09051 30.5754 9.09051 29.5038V28.292H20.9097V29.5038ZM18.421 36.2613C18.421 36.4756 18.245 36.6529 18.0262 36.6529H12.23C11.8726 36.6529 11.5792 36.3645 11.5792 36.0073V34.6897H18.4183V36.2613H18.421ZM15.9403 38.3251H14.0598C13.7878 38.3251 13.5957 38.0393 13.5957 37.6292V37.3302H16.4045V37.6292C16.4045 38.0393 16.2124 38.3251 15.9403 38.3251ZM18.421 34.015H11.5818V32.1258H18.421V34.015ZM7.52743 24.2121C7.42607 23.7623 7.50876 23.2992 7.75682 22.9103C8.00489 22.5214 8.39433 22.2515 8.84778 22.1509L20.7389 19.5236C20.867 19.4945 20.9924 19.4813 21.1177 19.4813C21.9153 19.4813 22.6355 20.029 22.8142 20.8306C22.9155 21.2804 22.8328 21.7435 22.5848 22.1324C22.3367 22.5214 21.9473 22.7912 21.4938 22.8918L9.60265 25.5218C8.6664 25.7281 7.73548 25.1408 7.52743 24.2121ZM13.409 27.6173V25.3736L16.8179 24.6195V27.6173H13.409ZM12.7261 25.5218V27.6146H10.6803V25.9742L12.7261 25.5218ZM17.5008 27.6173V24.4687L19.5466 24.0163V27.6173H17.5008Z" fill="#414141"/>
<path d="M22.8139 15.1052C22.6325 14.3036 21.9123 13.7559 21.1174 13.7559C20.9921 13.7559 20.8667 13.7691 20.7387 13.7982L8.84748 16.4282C8.39403 16.5287 8.00726 16.7986 7.75652 17.1875C7.50846 17.5765 7.42577 18.0395 7.52713 18.4893C7.73518 19.418 8.6661 20.0054 9.60235 19.799L21.4935 17.1717C21.947 17.0711 22.3337 16.8012 22.5845 16.4123C22.8325 16.0234 22.9152 15.5603 22.8139 15.1105V15.1052Z" fill="#FDB924"/>
<path d="M9.22646 20.2328C8.24486 20.2328 7.35929 19.5581 7.1379 18.5712C7.01253 18.0182 7.11389 17.4494 7.42064 16.9705C7.72739 16.4916 8.20218 16.1609 8.75967 16.0365L20.6508 13.4092C20.8055 13.3748 20.9603 13.3589 21.1176 13.3589C22.1099 13.3589 22.9901 14.0574 23.2062 15.0205C23.3316 15.5735 23.2302 16.1423 22.9234 16.6212C22.6167 17.1001 22.1419 17.4309 21.5844 17.5552L9.69325 20.1826C9.53854 20.217 9.38116 20.2328 9.22912 20.2328H9.22646ZM21.1176 14.1526C21.0189 14.1526 20.9229 14.1632 20.8269 14.1844L8.93571 16.8117C8.58629 16.8885 8.28754 17.0975 8.09549 17.3965C7.90344 17.6955 7.84209 18.0526 7.91944 18.3993C8.07948 19.1136 8.79701 19.5661 9.5172 19.4073L21.4084 16.78C21.7578 16.7033 22.0565 16.4942 22.2486 16.1952C22.4406 15.8963 22.502 15.5391 22.4246 15.1925C22.2886 14.5892 21.7391 14.1526 21.1176 14.1526Z" fill="#414141"/>
<path d="M23.481 14.9597C23.3396 14.3326 22.9635 13.7982 22.4167 13.4542C21.8699 13.1102 21.2217 12.9965 20.5922 13.1367L8.70107 15.764C8.06891 15.9043 7.5301 16.2773 7.18334 16.8197C6.83658 17.3621 6.72188 18.0051 6.86325 18.6295C7.11398 19.7461 8.11692 20.5081 9.22655 20.5081C9.39993 20.5081 9.57597 20.4896 9.75202 20.4499L21.6432 17.8225C22.2754 17.6823 22.8142 17.3092 23.1609 16.7668C23.5077 16.2244 23.6224 15.5815 23.481 14.9571V14.9597ZM21.4938 17.1637L9.60265 19.791C8.6664 19.9974 7.73548 19.41 7.52743 18.4813C7.42607 18.0315 7.50876 17.5685 7.75682 17.1796C8.00489 16.7906 8.39433 16.5208 8.84778 16.4202L20.7389 13.7902C20.867 13.7611 20.9924 13.7479 21.1177 13.7479C21.9153 13.7479 22.6355 14.2956 22.8142 15.0973C22.9155 15.5471 22.8328 16.0101 22.5848 16.399C22.3367 16.788 21.9473 17.0579 21.4938 17.1584V17.1637Z" fill="#414141"/>
<path d="M8.84504 10.6973C8.39158 10.7978 8.00481 11.0677 7.75408 11.4567C7.50601 11.8456 7.42333 12.3086 7.52469 12.7584C7.73274 13.6871 8.66366 14.2745 9.59991 14.0681L21.4911 11.4408C21.9445 11.3402 22.3313 11.0704 22.582 10.6814C22.8301 10.2925 22.9128 9.82946 22.8114 9.37966C22.63 8.57797 21.9099 8.03027 21.115 8.03027C20.9896 8.03027 20.8642 8.0435 20.7362 8.07261L8.84504 10.6999V10.6973Z" fill="#FDB924"/>
<path d="M9.22402 14.5045C8.24242 14.5045 7.35685 13.8298 7.13546 12.8429C7.01009 12.2899 7.11145 11.7211 7.4182 11.2422C7.72495 10.7633 8.19974 10.4325 8.75722 10.3082L20.6484 7.6782C20.8031 7.64381 20.9578 7.62793 21.1152 7.62793C22.1075 7.62793 22.9877 8.32644 23.2037 9.28953C23.3291 9.84252 23.2278 10.4114 22.921 10.8903C22.6143 11.3692 22.1395 11.6999 21.582 11.8243L9.69081 14.4516C9.5361 14.486 9.37872 14.5019 9.22668 14.5019L9.22402 14.5045ZM8.93327 11.0861C8.58384 11.1628 8.2851 11.3718 8.09305 11.6708C7.901 11.9698 7.83965 12.3243 7.917 12.6709C8.07704 13.3853 8.79457 13.8378 9.51476 13.679L21.4059 11.0517C21.7554 10.9749 22.0541 10.7659 22.2462 10.4669C22.4382 10.168 22.4996 9.81077 22.4222 9.46416C22.2862 8.8609 21.7367 8.42433 21.1152 8.42433C21.0165 8.42433 20.9205 8.43492 20.8244 8.45608L8.93327 11.0834V11.0861Z" fill="#414141"/>
<path d="M7.18041 11.0943C6.83365 11.6367 6.71895 12.2796 6.86032 12.904C7.11105 14.0206 8.11399 14.7826 9.22362 14.7826C9.397 14.7826 9.57304 14.7641 9.74909 14.7244L21.6403 12.0971C22.2724 11.9568 22.8112 11.5838 23.158 11.0414C23.5048 10.499 23.6195 9.85601 23.4781 9.23159C23.1873 7.94041 21.891 7.12019 20.5893 7.41123L8.69814 10.0386C8.06598 10.1788 7.52717 10.5519 7.18041 11.0943ZM22.8139 9.37711C22.9153 9.82691 22.8326 10.2899 22.5845 10.6789C22.3364 11.0678 21.947 11.3377 21.4936 11.4382L9.60239 14.0656C8.66614 14.272 7.73522 13.6846 7.52717 12.7559C7.42581 12.3061 7.50849 11.8431 7.75656 11.4541C8.00463 11.0652 8.39406 10.7953 8.84752 10.6947L20.7387 8.06741C20.8667 8.0383 20.9921 8.02507 21.1175 8.02507C21.915 8.02507 22.6352 8.57277 22.8139 9.37446V9.37711Z" fill="#414141"/>
<path d="M10.6619 6.20478C10.4298 6.25506 10.2298 6.39529 10.1017 6.59373C9.97371 6.79217 9.93103 7.03029 9.98438 7.26313C10.0911 7.73938 10.5712 8.04101 11.0513 7.93518L18.1092 6.37412C18.3413 6.32385 18.5413 6.18362 18.6694 5.98518C18.7974 5.78674 18.8401 5.54861 18.7867 5.31577C18.7334 5.08558 18.5947 4.88714 18.3946 4.76014C18.2506 4.66754 18.0852 4.62256 17.9172 4.62256C17.8531 4.62256 17.7865 4.6305 17.7198 4.64373L10.6619 6.20478Z" fill="#FDB924"/>
<path d="M10.8564 8.35319C10.2616 8.35319 9.72544 7.94573 9.59207 7.35041C9.51738 7.01438 9.57873 6.67307 9.76278 6.38202C9.94683 6.09362 10.2349 5.89254 10.5737 5.81845L17.6315 4.2574C17.973 4.18331 18.3197 4.24681 18.6078 4.42673C18.8986 4.6093 19.1013 4.89505 19.176 5.23107C19.2506 5.5671 19.1893 5.91106 19.0052 6.19946C18.8212 6.48786 18.5331 6.68894 18.1944 6.76303L11.1365 8.32408C11.0431 8.34525 10.9498 8.35584 10.8564 8.35584V8.35319ZM17.917 5.0194C17.8823 5.0194 17.8449 5.0247 17.8076 5.03263L10.7497 6.59369C10.6217 6.6228 10.5123 6.69953 10.4403 6.80801C10.3683 6.91913 10.3469 7.04878 10.3763 7.17843C10.435 7.44037 10.699 7.6097 10.9658 7.54885L18.0237 5.98779C18.1517 5.95868 18.261 5.88195 18.3331 5.77347C18.4051 5.66235 18.4264 5.5327 18.3971 5.40305C18.3677 5.27605 18.2904 5.16757 18.181 5.09613C18.101 5.04586 18.0103 5.0194 17.917 5.0194Z" fill="#414141"/>
<path d="M9.52544 6.2311C9.29871 6.583 9.22669 7.00104 9.31738 7.40851C9.48009 8.13612 10.1336 8.63089 10.8565 8.63089C10.9685 8.63089 11.0832 8.61767 11.2006 8.59385L18.2584 7.03279C18.6692 6.94283 19.0186 6.69942 19.2454 6.34487C19.4721 5.99297 19.5441 5.57492 19.4534 5.16746C19.3627 4.76 19.1147 4.41339 18.7599 4.18849C18.4051 3.96359 17.9837 3.89216 17.5729 3.98212L10.515 5.54317C10.1043 5.63313 9.75483 5.87655 9.52811 6.2311H9.52544ZM18.3945 4.76264C18.5972 4.88965 18.7359 5.08809 18.7866 5.31828C18.8373 5.54847 18.7972 5.78659 18.6692 5.98768C18.5412 6.18876 18.3411 6.32635 18.1091 6.37662L11.0512 7.93768C10.5711 8.04351 10.0909 7.74188 9.98423 7.26563C9.93355 7.03544 9.97356 6.79731 10.1016 6.59623C10.2296 6.39514 10.4297 6.25756 10.6617 6.20728L17.7196 4.64623C17.7836 4.633 17.8503 4.62506 17.917 4.62506C18.0851 4.62506 18.2504 4.67269 18.3945 4.76264Z" fill="#414141"/>
</g>
<defs>
<clipPath id="clip0_314_11107">
<rect width="30" height="39" fill="white"/>
</clipPath>
</defs>
</svg>
