<svg width="28" height="38" viewBox="0 0 28 38" fill="none" xmlns="http://www.w3.org/2000/svg">
<g clip-path="url(#clip0_314_11149)">
<path d="M12.1257 18.7079H3.60857C1.93316 18.7079 0.577148 17.3349 0.577148 15.6386C0.577148 13.9423 1.93316 12.5693 3.60857 12.5693H12.1257V18.7079Z" fill="#FDB924"/>
<path d="M12.1257 19.2921H3.60857C1.61937 19.2921 0 17.6525 0 15.6385C0 13.6245 1.61937 11.9849 3.60857 11.9849H12.1257C12.4451 11.9849 12.7028 12.2458 12.7028 12.5692V18.7078C12.7028 19.0311 12.4451 19.2921 12.1257 19.2921ZM3.60857 13.1536C2.25535 13.1536 1.15429 14.2684 1.15429 15.6385C1.15429 17.0086 2.25535 18.1234 3.60857 18.1234H11.5485V13.1536H3.60857Z" fill="#414141"/>
<path d="M8.37158 24.0379V35.3704L12.1482 35.3335V21.2637" fill="#BFD730"/>
<path d="M8.37158 35.9547C8.22029 35.9547 8.0746 35.8951 7.96534 35.7845C7.85607 35.6738 7.79443 35.5263 7.79443 35.3703V24.0378C7.79443 23.7144 8.05219 23.4535 8.37158 23.4535C8.69097 23.4535 8.94873 23.7144 8.94873 24.0378V34.7803L11.5711 34.7547V21.2636C11.5711 20.9402 11.8289 20.6792 12.1482 20.6792C12.4676 20.6792 12.7254 20.9402 12.7254 21.2636V35.3363C12.7254 35.6568 12.4704 35.9178 12.1538 35.9206L8.37718 35.9547H8.37158Z" fill="#414141"/>
<path d="M7.51708 33.6143H13.0028C14.2775 33.6143 15.3114 34.661 15.3114 35.9517V37.4126H5.2085V35.9517C5.2085 34.661 6.24232 33.6143 7.51708 33.6143Z" fill="#00A19C"/>
<path d="M15.3114 37.9997H5.20849C4.8891 37.9997 4.63135 37.7387 4.63135 37.4154V35.9545C4.63135 34.3433 5.92572 33.0327 7.51708 33.0327H13.0028C14.5941 33.0327 15.8885 34.3433 15.8885 35.9545V37.4154C15.8885 37.7387 15.6307 37.9997 15.3114 37.9997ZM5.78564 36.831H14.7342V35.9545C14.7342 34.9872 13.9581 34.2014 13.0028 34.2014H7.51708C6.56171 34.2014 5.78564 34.9872 5.78564 35.9545V36.831Z" fill="#414141"/>
<path d="M10.6859 15.7212L0.936099 24.5517C0.577484 24.8751 0.549467 25.4311 0.868859 25.7942L2.36496 27.4763C2.66193 27.8082 3.15783 27.865 3.51925 27.6012L14.4346 19.5847" fill="#F5F5F5"/>
<path d="M3.01204 28.3498C2.6142 28.3498 2.22196 28.1853 1.93619 27.8647L0.440095 26.1826C0.18234 25.8904 0.0506612 25.516 0.070273 25.1245C0.0898848 24.7331 0.260787 24.3756 0.54936 24.1118L10.2992 15.2813C10.5374 15.0657 10.9016 15.0855 11.1145 15.3267C11.3274 15.5678 11.3078 15.9365 11.0697 16.1521L1.31982 24.9884C1.24138 25.0593 1.22737 25.1444 1.22457 25.1898C1.22176 25.2692 1.24698 25.3429 1.30021 25.4025L2.79351 27.0818C2.89437 27.1924 3.05967 27.2123 3.18294 27.1244L14.0983 19.1108C14.356 18.9207 14.7175 18.9803 14.9052 19.2413C15.0929 19.5022 15.0341 19.8682 14.7763 20.0582L3.86095 28.0747C3.60599 28.2619 3.30902 28.3526 3.01484 28.3526L3.01204 28.3498Z" fill="#414141"/>
<path d="M18.1888 15.7861L27.1682 24.8777C27.4792 25.1925 27.5072 25.6974 27.2326 26.0464L25.9439 27.6774C25.6469 28.0547 25.1034 28.1171 24.7307 27.8193L14.4346 19.5901" fill="#F5F5F5"/>
<path d="M25.2657 28.5851C24.9519 28.5851 24.6381 28.4829 24.3719 28.273L14.0758 20.0439C13.8264 19.8424 13.7816 19.4765 13.9805 19.2241C14.1794 18.9716 14.5409 18.9262 14.7902 19.1276L25.0864 27.3568C25.2097 27.4561 25.3918 27.4334 25.4898 27.3086L26.7786 25.6775C26.871 25.5612 26.8626 25.3938 26.7562 25.2889L17.7768 16.1973C17.5527 15.9704 17.5527 15.5988 17.7768 15.3719C18.0037 15.1449 18.3679 15.1449 18.5949 15.3719L27.5743 24.4634C28.0954 24.991 28.1402 25.8278 27.6807 26.4093L26.392 28.0404C26.109 28.4007 25.6859 28.5879 25.2629 28.5879L25.2657 28.5851Z" fill="#414141"/>
<path d="M11.8877 12.9976L12.6498 1.40134C12.6806 0.938963 13.0588 0.581543 13.5155 0.581543H15.359C15.8157 0.581543 16.1911 0.938963 16.2219 1.40134L17.0036 13.0147" fill="#F5F5F5"/>
<path d="M17.0037 13.6019C16.7039 13.6019 16.4489 13.3665 16.4293 13.0573L15.6477 1.44396C15.6364 1.28794 15.5132 1.17164 15.3619 1.17164H13.5184C13.3671 1.17164 13.2382 1.29078 13.227 1.44679L12.4649 13.0403C12.4425 13.3608 12.168 13.6048 11.8514 13.5849C11.532 13.5622 11.291 13.2842 11.3135 12.9637L12.0755 1.36737C12.1287 0.601467 12.7619 0.00292969 13.5184 0.00292969H15.3619C16.1155 0.00292969 16.7487 0.601466 16.8019 1.36453L17.5836 12.9778C17.606 13.3012 17.3651 13.5792 17.0457 13.6019C17.0317 13.6019 17.0177 13.6019 17.0065 13.6019H17.0037Z" fill="#414141"/>
<path d="M14.4344 19.5876C16.5078 19.5876 18.1887 17.8858 18.1887 15.7865C18.1887 13.6872 16.5078 11.9854 14.4344 11.9854C12.361 11.9854 10.6802 13.6872 10.6802 15.7865C10.6802 17.8858 12.361 19.5876 14.4344 19.5876Z" fill="#FDB924"/>
<path d="M14.4344 20.1689C12.0474 20.1689 10.103 18.2031 10.103 15.7834C10.103 13.3638 12.0446 11.3979 14.4344 11.3979C16.8243 11.3979 18.7658 13.3638 18.7658 15.7834C18.7658 18.2031 16.8243 20.1689 14.4344 20.1689ZM14.4344 12.5695C12.6834 12.5695 11.2573 14.0134 11.2573 15.7863C11.2573 17.5592 12.6806 19.0031 14.4344 19.0031C16.1883 19.0031 17.6087 17.5592 17.6087 15.7863C17.6087 14.0134 16.1855 12.5695 14.4344 12.5695Z" fill="#414141"/>
</g>
<defs>
<clipPath id="clip0_314_11149">
<rect width="28" height="38" fill="white"/>
</clipPath>
</defs>
</svg>
