<svg width="36" height="36" viewBox="0 0 36 36" fill="none" xmlns="http://www.w3.org/2000/svg">
<path d="M14.8845 3C15.2668 3.00042 15.6345 3.14682 15.9126 3.40927C16.1906 3.67173 16.3579 4.03043 16.3803 4.41209C16.4027 4.79375 16.2785 5.16957 16.0331 5.46275C15.7877 5.75593 15.4396 5.94434 15.06 5.9895L14.8845 6H8.655C7.98901 6.00036 7.34748 6.25101 6.85764 6.70223C6.36781 7.15345 6.06543 7.77228 6.0105 8.436L6 8.655V27.348C6 28.74 7.0725 29.883 8.436 29.9925L8.655 30H27.348C28.014 29.9996 28.6555 29.749 29.1454 29.2978C29.6352 28.8466 29.9376 28.2277 29.9925 27.564L30 27.345V21.114C30.0004 20.7317 30.1468 20.364 30.4093 20.0859C30.6717 19.8079 31.0304 19.6406 31.4121 19.6182C31.7938 19.5958 32.1696 19.72 32.4627 19.9654C32.7559 20.2108 32.9443 20.5589 32.9895 20.9385L33 21.114V27.345C32.9996 28.7939 32.4431 30.1874 31.4453 31.238C30.4475 32.2886 29.0845 32.9161 27.6375 32.991L27.345 33H8.6535C7.20459 32.9996 5.81108 32.4431 4.76051 31.4453C3.70994 30.4475 3.08244 29.0845 3.0075 27.6375L3 27.345V8.6535C3.00037 7.20459 3.55687 5.81108 4.55469 4.76051C5.55252 3.70994 6.91552 3.08244 8.3625 3.0075L8.655 3H14.886H14.8845Z" fill="#00A19C"/>
<path d="M25.1895 4.18952C26.0477 3.32212 27.2107 2.82408 28.4307 2.80146C29.6507 2.77885 30.8313 3.23347 31.721 4.06847C32.6108 4.90347 33.1394 6.05288 33.1942 7.27185C33.249 8.49082 32.8257 9.68303 32.0145 10.5945L31.8105 10.8105L19.0605 23.5605C18.8272 23.7937 18.5235 23.9434 18.1965 23.9865L18 24H13.5C13.1326 24 12.778 23.8651 12.5034 23.621C12.2289 23.3768 12.0535 23.0404 12.0105 22.6755L12 22.5V18C12 17.6703 12.1086 17.3498 12.309 17.088L12.4395 16.938L25.1895 4.18802V4.18952ZM29.6895 6.31052C29.398 6.01929 29.0097 5.84514 28.5983 5.82108C28.1869 5.79703 27.781 5.92475 27.4575 6.18002L27.3105 6.31052L15 18.621V20.9985H17.3775L29.6895 8.68952C29.9807 8.39798 30.1549 8.00971 30.1789 7.59833C30.203 7.18694 30.0753 6.78102 29.82 6.45752L29.6895 6.31052Z" fill="#00A19C"/>
<path d="M22.9394 6.43954C23.1977 6.18127 23.5414 6.02612 23.9059 6.0032C24.2704 5.98028 24.6308 6.09116 24.9194 6.31504L25.0604 6.43954L29.5604 10.9395C29.8294 11.2095 29.9856 11.5717 29.9973 11.9526C30.0089 12.3335 29.8751 12.7046 29.6231 12.9905C29.371 13.2763 29.0196 13.4555 28.6402 13.4916C28.2608 13.5278 27.8819 13.4182 27.5804 13.185L27.4394 13.0605L22.9394 8.56054C22.6582 8.27924 22.5002 7.89778 22.5002 7.50004C22.5002 7.10229 22.6582 6.72083 22.9394 6.43954Z" fill="#00A19C"/>
</svg>
