<svg width="261" height="113" viewBox="0 0 261 113" fill="none" xmlns="http://www.w3.org/2000/svg">
<path d="M80.0017 66.963C79.7654 66.963 79.5409 66.8566 79.3874 66.6734C79.2397 66.4902 79.1806 66.2479 79.2279 66.0115L92.7373 1.42428C92.8141 1.05788 93.1331 0.797852 93.5111 0.797852H227.052C237.059 0.797852 246.41 5.25377 252.718 13.0191C259.027 20.7845 261.467 30.8606 259.417 40.6589C256.227 55.9 242.617 66.9689 227.052 66.9689H80.0017V66.963Z" fill="white"/>
<path d="M227.053 1.58381C247.538 1.58381 262.844 20.4299 258.649 40.4934C255.519 55.4567 242.334 66.171 227.053 66.171H80.0021L93.5116 1.58381H227.053ZM227.053 0.00590647H93.5116C92.7673 0.00590647 92.1175 0.531877 91.9639 1.25877L78.4545 65.846C78.36 66.3129 78.4722 66.7975 78.7735 67.1639C79.0747 67.5303 79.5237 67.7489 79.9962 67.7489H227.047C234.797 67.7489 242.381 65.0541 248.395 60.1668C254.408 55.2795 258.596 48.4065 260.185 40.8125C262.282 30.7837 259.784 20.4713 253.321 12.5168C246.865 4.5623 237.284 0 227.041 0L227.053 0.00590647Z" fill="white"/>
<path d="M36.4372 111.74C35.0668 111.74 33.6609 111.392 32.255 110.7C30.8314 109.997 30.1521 107.887 30.6542 98.7627V98.615C30.6778 98.2781 30.6956 98.0063 30.7015 97.8053C30.9318 91.9429 31.6111 87.2328 32.2727 82.6824C32.8221 78.8765 32.9934 76.9559 33.1883 73.1441C30.7842 73.3864 26.1707 73.7942 21.0552 73.7942C13.8427 73.7942 8.05968 72.9964 3.85385 71.4303C3.60575 71.3357 2.60155 70.8334 2.25894 70.077C0.788083 66.8266 0.734924 64.6932 0.82353 61.8034C0.92395 58.4762 2.31802 55.2022 4.5627 53.0393C3.88339 52.2474 3.36357 51.3077 2.90282 50.3858C2.15853 48.9084 1.81001 46.509 2.03448 44.4111C2.34755 41.4858 4.97619 37.5913 7.13227 35.9306C7.30358 35.8006 7.4867 35.6765 7.68163 35.5701C6.6479 33.8327 6.43524 31.4806 7.03776 28.5612C7.29767 27.2965 9.30016 21.6823 12.0529 19.8326C12.7912 19.3362 13.6478 18.952 14.6461 18.6684C14.2798 17.2914 14.3035 15.7253 14.7347 14.242C16.0992 9.54377 19.6612 5.85612 25.3319 3.2913C28.9589 1.6484 33.7849 0.850586 40.076 0.850586C40.5131 0.850586 40.9384 0.850588 41.346 0.862408C43.1595 0.886047 48.3104 0.897865 56.6512 0.897865C66.4687 0.897865 78.8381 0.880134 87.9055 0.868314C87.9055 0.868314 96.3998 0.856492 97.4985 0.856492C97.7348 0.856492 97.9652 0.962867 98.1129 1.15198C98.1838 1.24062 98.2369 1.347 98.2665 1.45929C101.462 10.377 101.781 22.0487 99.1643 34.335C97.912 40.2211 96.0572 45.9299 93.653 51.3136C91.4852 56.1655 88.1595 62.8789 84.6093 67.323C84.4794 67.4885 84.2903 67.589 84.0777 67.6126C84.0481 67.6126 84.0186 67.6126 83.9891 67.6126C83.9123 67.6126 83.8296 67.6008 83.7587 67.5771H83.4811C82.6777 67.5594 81.7562 67.5476 80.7579 67.5476C77.2727 67.5476 72.1572 67.6894 67.9219 68.9305C61.9971 70.662 57.8562 74.0483 55.263 79.2902C51.2699 87.351 48.5349 93.5858 46.1307 100.146C43.4725 107.397 42.935 108.744 42.1789 109.418C40.4363 110.96 38.4988 111.746 36.4313 111.746L36.4372 111.74Z" fill="#FDB924"/>
<path d="M40.088 1.63078C40.5251 1.63078 40.9445 1.63078 41.3462 1.6426C43.4019 1.67215 49.3503 1.67806 56.7282 1.67806C66.7229 1.67806 79.3286 1.66032 88.4196 1.64851C93.3225 1.6426 95.8625 1.63669 97.5106 1.63669C100.677 10.4363 100.996 21.9838 98.4025 34.1578C97.162 39.9848 95.325 45.6463 92.9444 50.9769C90.493 56.4611 87.2972 62.6899 84.0011 66.8149L83.9598 66.7795H83.5049C82.6956 66.7617 81.7742 66.7499 80.77 66.7499C76.9067 66.7499 71.868 66.9508 67.7094 68.1623C61.5661 69.9589 57.2657 73.4811 54.5603 78.9298C50.8152 86.4883 47.968 92.8472 45.3984 99.8679C42.9175 106.64 42.2736 108.277 41.6652 108.815C40.0644 110.234 38.2982 110.943 36.4433 110.943C35.2029 110.943 33.9151 110.624 32.6097 109.979C31.57 109.471 30.9734 107.373 31.446 98.7924C31.4696 98.3846 31.4873 98.0536 31.4932 97.8291C31.7177 92.008 32.397 87.3157 33.0527 82.783C33.6434 78.7112 33.8029 76.7491 34.0214 72.2578C32.0249 72.4646 26.9034 72.9965 21.0554 72.9965C15.2074 72.9965 8.96958 72.4882 4.13169 70.6858C3.8836 70.5912 3.17475 70.1775 2.97982 69.7461C1.57394 66.6435 1.52668 64.6815 1.61529 61.8212C1.7098 58.6713 3.03298 55.5806 5.15952 53.5535C5.33674 53.388 5.51986 53.2285 5.70297 53.0748C4.78147 52.2534 4.14351 51.0951 3.60596 50.0254C2.93847 48.6898 2.61358 46.4146 2.81442 44.4939C3.09796 41.8405 5.57892 38.1173 7.61095 36.5513C7.97719 36.2735 8.4025 36.0549 8.88688 35.8953C7.51054 34.3056 7.15021 31.9003 7.8118 28.715C8.10715 27.2907 10.0801 22.1079 12.4961 20.4828C13.394 19.88 14.475 19.4781 15.6741 19.2181C15.0952 17.8352 15.0184 16.1155 15.5028 14.4489C16.8023 9.9812 20.2166 6.46492 25.6629 3.99466C30.1582 1.95581 35.8172 1.62487 40.088 1.62487M40.088 0.0528847C33.6729 0.0528847 28.7464 0.874335 25.0132 2.56451C19.1297 5.22979 15.4201 9.08293 13.9847 14.0175C13.583 15.4004 13.5003 16.8128 13.7248 18.1307C12.9391 18.4085 12.2421 18.7571 11.616 19.1767C8.62107 21.186 6.55359 27.013 6.26414 28.4018C5.69116 31.1734 5.82112 33.4841 6.64811 35.3043C4.31482 37.1009 1.58575 41.1549 1.24314 44.3284C1.00686 46.5623 1.38491 49.139 2.18827 50.7405C2.57223 51.5028 2.99163 52.277 3.50555 52.9862C1.41444 55.2791 0.126705 58.5058 0.026285 61.7798C-0.0623209 64.7761 -0.00915543 66.9981 1.53259 70.4021C1.98153 71.3949 3.15703 72.0155 3.57052 72.1691C7.85905 73.7706 13.7425 74.5803 21.0495 74.5803C25.6216 74.5803 29.7802 74.2552 32.3438 74.0129C32.1666 77.216 31.9835 79.1012 31.4814 82.5584C30.8198 87.1325 30.1346 91.8662 29.9042 97.77C29.8983 97.9886 29.8806 98.3019 29.857 98.686C29.3785 107.432 29.857 110.399 31.8949 111.404C33.4071 112.148 34.9311 112.527 36.4256 112.527C38.6939 112.527 40.8027 111.676 42.693 110.003C43.5968 109.199 44.1048 107.935 46.8634 100.412C49.2617 93.8755 51.9789 87.6644 55.9603 79.6331C58.4531 74.6039 62.4344 71.3476 68.1347 69.6811C72.2756 68.4696 77.3202 68.3337 80.7522 68.3337C81.7151 68.3337 82.5834 68.3455 83.4577 68.3573H83.6408C83.753 68.3869 83.8652 68.3987 83.9775 68.3987C84.0306 68.3987 84.0897 68.3987 84.1488 68.3869C84.5682 68.3396 84.9521 68.1328 85.2121 67.8018C88.8095 63.2927 92.1765 56.5143 94.3621 51.621C96.7899 46.19 98.6624 40.4221 99.9266 34.4829C102.567 22.0784 102.242 10.2767 99.0228 1.22892C98.8456 0.549304 98.2312 0.0469782 97.4987 0.0469782C96.4237 0.0469782 94.9646 0.0469782 92.714 0.0469782H88.4078L88.266 0.0528847C79.1455 0.0647041 66.658 0.082435 56.7164 0.082435C48.3402 0.082435 43.1715 0.070617 41.3521 0.0469782C40.9445 0.0469782 40.5133 0.0351562 40.0703 0.0351562L40.088 0.0528847Z" fill="white"/>
<path d="M6.09302 54.7295L5.09473 53.4826C7.06769 51.6033 9.76721 50.5514 12.7089 50.5218C13.4296 50.5159 14.9359 50.5927 16.8557 50.6873C21.3155 50.9118 28.0614 51.2546 31.1508 50.8468L30.9795 52.6788C27.7365 53.1043 20.9079 52.7616 16.3949 52.5311C14.5047 52.4365 13.0161 52.3597 12.3427 52.3656C10.9191 52.3834 8.21365 52.7084 6.09893 54.7236L6.09302 54.7295Z" fill="white"/>
<path d="M8.81591 37.6028L8.03027 36.1786C10.529 34.2875 15.2369 34.6598 20.695 35.0912C25.1253 35.4399 29.7033 35.8063 33.4484 35.0144L33.407 36.8228C29.4198 37.6619 24.7236 37.2896 20.1811 36.935C15.5145 36.5627 10.6885 36.1845 8.81001 37.6028H8.81591Z" fill="white"/>
<path d="M15.6745 20.8085L15.5859 19.0297C19.3251 17.96 25.0136 18.2732 30.0228 18.5451C33.4903 18.7342 36.7628 18.9174 38.7416 18.5983L38.6176 20.4244C36.4615 20.7671 33.1063 20.5839 29.5502 20.3889C24.6651 20.1171 19.1243 19.8157 15.6686 20.8026L15.6745 20.8085Z" fill="white"/>
<path d="M84.0724 66.8794L82.8496 65.8807C89.0934 58.068 94.1262 46.7509 96.6603 34.831C99.2772 22.5329 99.0231 11.074 95.9515 2.5522L97.5995 1.58301C100.778 10.3944 101.043 22.202 98.3557 34.8429C95.7506 47.0996 90.5406 58.7772 84.0665 66.8794H84.0724Z" fill="white"/>
<path d="M33.9209 72.6477L34.1808 70.8098L39.0246 70.4375L38.7647 72.2813L33.9209 72.6477Z" fill="white"/>
<path d="M121.505 15.3184H143.379L141.979 22.8296H128.812L127.359 30.3408H138.222L136.822 37.8521H125.912L123.307 51.1253H114.594L121.505 15.3184Z" fill="#763F98"/>
<path d="M156.894 35.0518H157.242C157.289 34.7031 157.343 34.248 157.343 34.1003C157.343 32.3983 156.143 31.7482 154.088 31.7482C150.833 31.7482 146.627 34.1003 146.627 34.1003L144.772 27.5878C144.772 27.5878 150.077 24.7334 155.783 24.7334C160.137 24.7334 165.996 26.4354 165.996 32.9479C165.996 33.6984 165.896 34.5494 165.748 35.4536L162.747 51.1321H154.838L155.139 49.5778C155.287 48.7268 155.588 47.9763 155.588 47.9763H155.488C155.488 47.9763 152.682 51.7349 147.879 51.7349C144.022 51.7349 140.318 49.4301 140.318 45.0746C140.318 37.262 150.284 35.0577 156.888 35.0577L156.894 35.0518ZM151.14 45.116C153.391 45.116 155.848 42.6635 156.244 40.5596L156.344 40.01H155.541C153.686 40.01 149.031 40.4119 149.031 43.4672C149.031 44.4186 149.681 45.1219 151.134 45.1219L151.14 45.116Z" fill="#763F98"/>
<path d="M170.309 41.1084L175.313 15.3125H183.972L179.164 40.1569C179.016 40.807 178.916 41.658 178.916 42.1071C178.916 43.4073 179.82 43.7619 180.871 43.7619C181.421 43.7619 181.923 43.7146 181.923 43.7146L180.47 51.2258C180.47 51.2258 179.318 51.3736 178.119 51.3736C173.564 51.3736 169.961 49.6716 169.961 44.2642C169.961 43.36 170.061 42.314 170.309 41.1084Z" fill="#763F98"/>
<path d="M187.93 42.4093C187.93 42.4093 190.583 44.7141 194.44 44.7141C195.793 44.7141 197.246 44.3123 197.246 43.414C197.246 41.1092 187.032 40.7073 187.032 33.0956C187.032 28.0901 192.337 24.7334 197.848 24.7334C204.057 24.7334 207.559 27.6883 207.559 27.6883L203.856 33.598C203.856 33.598 201.706 31.7423 197.848 31.7423C196.596 31.7423 195.042 32.1442 195.042 33.0956C195.042 35.099 205.303 35.6486 205.303 43.414C205.303 48.4195 200.896 51.729 194.44 51.729C187.983 51.729 183.624 47.9704 183.624 47.9704L187.93 42.4093Z" fill="#763F98"/>
<path d="M223.874 24.7334C231.181 24.7334 234.885 28.8879 234.885 34.8508C234.885 37.2029 233.934 39.9095 233.934 39.9095H217.666C217.666 42.8171 219.52 44.5191 222.722 44.5191C226.479 44.5191 230.384 41.9129 230.384 41.9129L232.587 48.3722C232.587 48.3722 228.033 51.729 222.173 51.729C213.359 51.729 209.006 46.5225 209.006 40.4591C209.006 31.4941 215.362 24.7334 223.874 24.7334ZM226.426 34.9513C226.426 34.9513 226.473 34.3485 226.473 34.0471C226.473 32.4456 225.469 31.24 223.72 31.24C221.216 31.24 219.615 32.8947 218.812 34.9454H226.42L226.426 34.9513Z" fill="#763F98"/>
<path fill-rule="evenodd" clip-rule="evenodd" d="M125.889 85.3473C125.889 87.9771 123.774 90.1164 121.169 90.1164C118.564 90.1164 116.449 87.983 116.449 85.3473C116.449 82.7115 118.564 80.5781 121.169 80.5781C123.774 80.5781 125.889 82.7115 125.889 85.3473Z" fill="#FDB924"/>
<path fill-rule="evenodd" clip-rule="evenodd" d="M80.5459 85.3473C80.5459 87.9771 78.4312 90.1164 75.8262 90.1164C73.2212 90.1164 71.1064 87.983 71.1064 85.3473C71.1064 82.7115 73.2212 80.5781 75.8262 80.5781C78.4312 80.5781 80.5459 82.7115 80.5459 85.3473Z" fill="#763F98"/>
<path fill-rule="evenodd" clip-rule="evenodd" d="M171.226 85.3473C171.226 87.9771 169.111 90.1164 166.506 90.1164C163.901 90.1164 161.786 87.983 161.786 85.3473C161.786 82.7115 163.901 80.5781 166.506 80.5781C169.111 80.5781 171.226 82.7115 171.226 85.3473Z" fill="#BED731"/>
<path fill-rule="evenodd" clip-rule="evenodd" d="M216.568 85.3473C216.568 87.9771 214.454 90.1164 211.849 90.1164C209.244 90.1164 207.129 87.983 207.129 85.3473C207.129 82.7115 209.244 80.5781 211.849 80.5781C214.454 80.5781 216.568 82.7115 216.568 85.3473Z" fill="#20419A"/>
</svg>
