<svg width="164" height="63" viewBox="0 0 164 63" fill="none" xmlns="http://www.w3.org/2000/svg">
<path d="M132.249 52.4126L129.977 48.3566H131.893L132.672 50.0089C132.893 50.4788 133.087 50.9985 133.087 50.9985H133.106C133.106 50.9985 133.299 50.4788 133.521 50.0089L134.291 48.3566H136.207L133.935 52.4126V55.2278H132.249V52.4126Z" fill="#00B1A9"/>
<path d="M137.699 48.3566H142.013V49.7988H139.385V51.0483H141.484V52.4906H139.385V53.7878H142.15V55.23H137.702V48.3587L137.699 48.3566Z" fill="#00B1A9"/>
<path d="M147.531 53.7856H145.383L144.968 55.2278H143.235L145.574 48.3566H147.346L149.685 55.2278H147.952L147.529 53.7856H147.531ZM146.452 49.9223C146.452 49.9223 146.298 50.6715 146.172 51.1046L145.778 52.4408H147.136L146.75 51.1046C146.624 50.6715 146.47 49.9223 146.47 49.9223H146.45H146.452Z" fill="#00B1A9"/>
<path d="M151.18 48.3565H153.578C154.281 48.3565 154.617 48.4042 154.916 48.519C155.695 48.8178 156.188 49.5194 156.188 50.5177C156.188 51.2475 155.841 52.0466 155.157 52.3909V52.4104C155.157 52.4104 155.253 52.536 155.418 52.8241L156.756 55.2256H154.88L153.656 52.9107H152.866V55.2256H151.18V48.3544V48.3565ZM153.597 51.4706C154.135 51.4706 154.474 51.1717 154.474 50.6239C154.474 50.1041 154.281 49.7966 153.435 49.7966H152.866V51.4684H153.597V51.4706Z" fill="#00B1A9"/>
<path d="M158.872 53.0839C158.872 53.0839 159.651 53.7942 160.519 53.7942C160.866 53.7942 161.241 53.66 161.241 53.2464C161.241 52.43 158.141 52.4581 158.141 50.3445C158.141 49.0755 159.21 48.2396 160.577 48.2396C162.059 48.2396 162.793 49.0171 162.793 49.0171L162.081 50.3922C162.081 50.3922 161.387 49.7858 160.56 49.7858C160.213 49.7858 159.829 49.9396 159.829 50.325C159.829 51.1891 162.929 51.0353 162.929 53.2074C162.929 54.3508 162.053 55.3404 160.504 55.3404C158.954 55.3404 157.991 54.3595 157.991 54.3595L158.876 53.0818L158.872 53.0839Z" fill="#00B1A9"/>
<path d="M161.953 18.5522C158.471 10.1369 149.36 5.70624 140.759 7.80249C139.869 8.01904 138.984 8.30706 138.112 8.66654C131.442 11.4146 127.593 17.4868 124.549 24.3191L123.091 27.9464C120.519 26.7856 114.681 23.7041 109.74 23.9076C107.282 24.0094 105.316 24.7002 104.836 24.9103L105.665 15.0787H122.941V7.76568H98.3184L96.14 31.4827L102.901 34.2091C108.423 29.6593 113.845 33.3797 120.001 35.8181C119.072 37.9555 118.063 40.238 118.061 40.238C117.141 42.3213 115.887 44.4023 113.993 45.7363C112.407 46.8494 110.597 47.2955 108.681 47.2955C102.608 47.2955 98.7133 42.6179 98.7133 42.6179L94.3564 49.0085C94.3564 49.0085 97.4701 52.8826 103.571 54.5674C105.292 55.0525 107.251 55.3643 109.449 55.3643C112.945 55.3643 116.453 54.2859 119.382 52.3499C122.383 50.3663 124.295 47.5272 125.803 44.333C126.51 42.8367 127.061 41.3771 127.868 39.3761C136.001 42.8518 144.263 45.5522 152.046 42.3451C152.918 41.9856 153.747 41.5655 154.533 41.0934C162.112 36.5219 165.433 26.9654 161.953 18.5501V18.5522ZM148.728 34.3282C143.951 36.2967 137.68 34.3261 130.976 31.4437C133.675 24.2303 136.213 18.6605 141.429 16.6877C146.359 14.821 151.905 17.0017 153.919 21.8655C155.932 26.7293 153.604 32.3208 148.731 34.3304L148.728 34.3282Z" fill="#00B1A9"/>
<path style="mix-blend-mode:multiply" d="M117.519 25.4972L114.385 33.4361C116.202 34.1594 118.065 35.0537 120.003 35.8203C120.218 35.2681 123.091 27.9464 123.091 27.9464C121.843 27.3834 119.827 26.3699 117.519 25.4972Z" fill="url(#paint0_linear_264_494)"/>
<path style="mix-blend-mode:multiply" d="M136.671 33.6461C134.827 33.0376 132.92 32.2796 130.976 31.4437L127.871 39.3783C129.754 40.1839 131.644 40.944 133.532 41.6023L136.671 33.6461Z" fill="url(#paint1_linear_264_494)"/>
<path d="M78.2178 0.142944V63" stroke="#00B1A9" stroke-width="2" stroke-miterlimit="10"/>
<path d="M41.8742 21.5493L53.1722 2.02478H35.7381C30.8757 2.15255 29.6042 3.10972 27.7512 6.30606L16.5357 25.6963C15.1449 28.0719 14.3291 30.8612 14.3291 33.8106C14.3291 39.6511 17.4557 44.7596 22.1294 47.5662C24.5443 49.0171 27.378 49.853 30.4049 49.853C39.2835 49.853 46.4785 42.6699 46.4785 33.8106C46.4785 30.7745 45.6322 27.9377 44.1655 25.5166L41.872 21.5515L41.8742 21.5493Z" fill="white"/>
<path d="M28.1243 57.9868V57.9694C28.1243 56.3345 26.9245 55.3751 25.0628 55.3751H22.1792C21.9015 55.3751 21.6584 55.5982 21.6584 55.8559V62.7336H23.7002V60.8756C23.7002 60.7565 23.8174 60.6309 23.9324 60.6309H24.6549L26.0783 62.7336H28.439L26.74 60.2671C27.5949 59.8448 28.1265 59.0782 28.1265 57.9889M26.0848 58.0799C26.0848 58.6581 25.6443 59.0349 24.9174 59.0349H23.698V57.4129C23.698 57.2375 23.8412 57.0946 24.0148 57.0946H24.9044C25.6421 57.0946 26.0848 57.4281 26.0848 58.0604V58.082V58.0799Z" fill="#3C3835"/>
<path d="M32.9262 55.23C30.6523 55.23 28.9512 56.9429 28.9512 59.0565V59.0717C28.9512 61.1896 30.6327 62.883 32.9066 62.883C35.1806 62.883 36.8903 61.1657 36.8903 59.0565V59.0327C36.8903 56.9213 35.2001 55.23 32.9262 55.23ZM34.8008 59.0738C34.8008 60.1349 34.0588 61.0401 32.9262 61.0401C31.7936 61.0401 31.0428 60.1154 31.0428 59.0587V59.0348C31.0428 57.9737 31.7936 57.0685 32.9088 57.0685C34.0241 57.0685 34.803 57.9954 34.803 59.0587V59.0738H34.8008Z" fill="#3C3835"/>
<path d="M42.9179 55.8472V59.2666L39.8867 55.3751H38.5046C38.2138 55.3751 37.9795 55.6133 37.9795 55.9014V62.7315H40.0017V58.6992L43.1522 62.7315H44.9357V55.3751H43.4364C43.1631 55.3751 42.9179 55.583 42.9179 55.8472Z" fill="#3C3835"/>
<path d="M14.1665 55.8798V57.1639H16.3753V62.7294H18.4192V57.3956C18.4192 57.27 18.5234 57.1618 18.6752 57.1618H20.6302V55.3708H14.6872C14.4052 55.3708 14.1665 55.6156 14.1643 55.8754" fill="#3C3835"/>
<path d="M7.33811 55.8841V62.7315H13.2637V60.9948H9.35815V60.1091C9.35815 59.9726 9.48183 59.8297 9.61202 59.8297H12.8037V58.2229H9.35815V57.387C9.35815 57.2549 9.47098 57.1076 9.59683 57.1076H13.2637V55.3708H7.86102C7.58112 55.3708 7.33594 55.6047 7.33594 55.8798" fill="#3C3835"/>
<path d="M58.0824 58.1492C57.0561 57.9197 56.8066 57.7724 56.8066 57.4411V57.4151C56.8066 57.1509 57.0453 56.9408 57.5422 56.9408C57.9957 56.9408 58.4795 57.0621 58.9612 57.2917L59.1131 57.3696C59.2541 57.4324 59.4147 57.4844 59.6143 57.4432C59.7575 57.4129 59.8595 57.283 59.9875 57.1314L60.6276 56.2305C59.8291 55.5874 58.8527 55.2517 57.5964 55.2517C55.8302 55.2517 54.7432 56.2414 54.7432 57.6078V57.6273C54.7432 59.1389 55.9582 59.5785 57.5226 59.9401C58.5229 60.1675 58.7616 60.3364 58.7616 60.6439V60.6612C58.7616 60.9817 58.4687 61.1658 57.9241 61.1658C57.2796 61.1658 56.6591 60.9926 56.0819 60.6569C55.9149 60.5746 55.7109 60.462 55.4484 60.5205C55.3399 60.5443 55.2574 60.6179 55.1685 60.7219L54.3982 61.6422C55.303 62.4435 56.5484 62.8571 57.8525 62.8571C59.6425 62.8571 60.8294 61.9627 60.8294 60.462V60.4425C60.8294 59.0674 59.7749 58.5173 58.0846 58.1492" fill="#3C3835"/>
<path d="M48.0037 62.7315L48.3748 61.8025C48.4334 61.6552 48.557 61.5014 48.7133 61.4733H51.3473L51.8638 62.7315H54.053L50.9351 55.3751H49.2622C49.0149 55.4033 48.915 55.5354 48.8283 55.7129L45.8535 62.7315H48.0037ZM49.9413 57.7919L50.7637 59.8838H49.106L49.9413 57.7919Z" fill="#3C3835"/>
<path d="M2.04175 62.7337C2.04175 62.1858 2.03958 60.9493 2.04175 60.8778C2.04608 60.7782 2.11552 60.6764 2.21316 60.6418L2.35202 60.631H3.13964C3.68642 60.631 4.23103 60.5855 4.74961 60.3992C5.29422 60.2043 5.78675 59.8708 6.09703 59.3728C6.40297 58.8834 6.5006 58.29 6.45721 57.7205C6.42466 57.296 6.29665 56.8781 6.0558 56.5229C5.54374 55.7693 4.63244 55.4488 3.75803 55.3882C3.64086 55.3795 3.51935 55.373 3.40436 55.3752C3.05502 55.3752 2.70569 55.3752 2.35853 55.3752H0.9113C0.566308 55.3752 0.00216976 55.36 0 55.8559V62.7337H2.04175ZM4.42848 58.0799C4.42848 58.6581 3.98802 59.0349 3.26115 59.0349H2.04175V57.4129C2.04175 57.2375 2.18495 57.0946 2.35853 57.0946H3.24813C3.98585 57.0946 4.42848 57.4281 4.42848 58.0604V58.0821V58.0799Z" fill="#3C3835"/>
<path d="M30.407 51.8756C27.1176 51.8756 23.8956 50.9834 21.0879 49.2986C15.67 46.046 12.3047 40.1102 12.3047 33.8085C12.3047 30.6035 13.1639 27.4439 14.7869 24.672C14.9735 24.3494 16.271 22.1037 25.9937 5.29259C28.3219 1.27767 30.4048 0.14076 35.686 0H35.7403H56.6872L44.2175 21.5493L45.9143 24.4858C47.6132 27.2945 48.5115 30.5168 48.5115 33.8085C48.5115 43.7721 40.3901 51.8756 30.4092 51.8756" fill="white"/>
<path d="M39.3247 33.8084C39.3247 38.7242 35.3323 42.7088 30.4069 42.7088C25.4816 42.7088 21.4871 38.7242 21.4871 33.8084C21.4871 28.8926 25.4794 24.9059 30.4069 24.9059C35.3345 24.9059 39.3247 28.8905 39.3247 33.8084Z" fill="#00B1A9"/>
<path d="M41.8743 21.5493L53.1722 2.02478H35.7382C30.8758 2.15255 29.6021 3.10972 27.7513 6.30389L16.538 25.6942C15.145 28.0698 14.3335 30.859 14.3335 33.8085C14.3335 39.6489 17.4601 44.7575 22.1338 47.564C24.5487 49.0149 27.3824 49.8508 30.4071 49.8508C39.2857 49.8508 46.4828 42.6677 46.4828 33.8085C46.4828 30.7724 45.6366 27.9355 44.1677 25.5144L41.8743 21.5493ZM35.8271 6.12849H46.0489L39.5006 17.4478L37.27 13.5888L33.1193 6.41434C33.716 6.21078 34.5296 6.12849 35.8271 6.12849ZM30.4071 45.7644C27.4692 45.7644 24.7766 44.7055 22.6914 42.9536C20.0855 40.762 18.4278 37.4791 18.4278 33.8085C18.4278 31.5996 19.0267 29.5272 20.0747 27.7514L30.4049 9.89004L34.4233 16.8241L34.4277 16.8284L40.7373 27.7449L40.7417 27.7558C41.7897 29.5315 42.3907 31.6018 42.3907 33.8106C42.3907 40.4134 37.027 45.7688 30.4093 45.7688" fill="#00B1A9"/>
<defs>
<linearGradient id="paint0_linear_264_494" x1="115.898" y1="29.5013" x2="134.177" y2="36.8997" gradientUnits="userSpaceOnUse">
<stop offset="0.03" stop-color="#00B1A9" stop-opacity="0"/>
<stop offset="0.17" stop-color="#15847E" stop-opacity="0.36"/>
<stop offset="0.38" stop-color="#314C49" stop-opacity="0.83"/>
<stop offset="0.5" stop-color="#3C3835"/>
</linearGradient>
<linearGradient id="paint1_linear_264_494" x1="135.122" y1="37.674" x2="116.824" y2="30.2669" gradientUnits="userSpaceOnUse">
<stop offset="0.03" stop-color="#00B1A9" stop-opacity="0"/>
<stop offset="0.17" stop-color="#15847E" stop-opacity="0.36"/>
<stop offset="0.38" stop-color="#314C49" stop-opacity="0.83"/>
<stop offset="0.5" stop-color="#3C3835"/>
</linearGradient>
</defs>
</svg>
