<svg width="318" height="111" viewBox="0 0 318 111" fill="none" xmlns="http://www.w3.org/2000/svg">
<path d="M123.976 47L126.808 12.68H135.928L140.92 27.176C141.688 29.384 142.648 32.84 142.648 32.84H142.744C142.744 32.84 143.704 29.384 144.472 27.176L149.464 12.68H158.584L161.368 47H152.968L151.912 31.544C151.72 28.952 151.912 25.784 151.912 25.784H151.816C151.816 25.784 150.664 29.384 149.896 31.544L146.296 41.48H139.096L135.496 31.544C134.728 29.384 133.576 25.784 133.576 25.784H133.48C133.48 25.784 133.672 28.952 133.48 31.544L132.424 47H123.976ZM165.655 34.616C165.655 27.368 170.551 21.704 178.519 21.704C185.815 21.704 189.943 26.792 189.943 33.656C189.943 34.472 189.751 36.248 189.751 36.248H174.151C174.775 39.272 177.271 40.664 179.911 40.664C183.463 40.664 186.727 38.168 186.727 38.168L189.799 43.976C189.799 43.976 185.815 47.576 179.239 47.576C170.407 47.576 165.655 41.192 165.655 34.616ZM174.343 31.496H181.591C181.591 29.624 180.295 27.944 178.327 27.944C175.927 27.944 174.775 29.672 174.343 31.496ZM194.478 47V22.28H202.446V24.44C202.446 25.256 202.35 25.976 202.35 25.976H202.446C203.598 24.248 205.902 21.704 209.79 21.704C212.91 21.704 215.406 23.096 216.702 25.88H216.798C218.094 23.816 221.022 21.704 224.718 21.704C229.23 21.704 232.734 24.152 232.734 30.968V47H224.43V32.36C224.43 30.536 224.094 29.24 222.51 29.24C219.87 29.24 218.478 31.16 217.95 33.896C217.758 34.76 217.758 35.768 217.758 36.776V47H209.454V32.36C209.454 30.536 209.118 29.24 207.534 29.24C204.942 29.24 203.598 31.064 203.022 33.704C202.83 34.616 202.782 35.72 202.782 36.776V47H194.478ZM236.717 34.712C236.717 26.936 242.957 21.704 250.685 21.704C258.509 21.704 264.749 26.936 264.749 34.712C264.749 42.44 258.509 47.576 250.733 47.576C242.957 47.576 236.717 42.44 236.717 34.712ZM245.117 34.712C245.117 38.408 247.709 40.664 250.733 40.664C253.757 40.664 256.349 38.408 256.349 34.712C256.349 30.968 253.757 28.616 250.733 28.616C247.709 28.616 245.117 30.968 245.117 34.712ZM269.056 47V22.28H277.024V26.456C277.024 27.272 276.928 27.992 276.928 27.992H277.024C278.08 24.632 281.2 21.848 284.896 21.848C285.376 21.848 285.856 21.944 285.856 21.944V30.104C285.856 30.104 285.184 29.96 284.176 29.96C282.208 29.96 278.992 30.584 277.792 34.28C277.504 35.192 277.36 36.296 277.36 37.64V47H269.056ZM288.111 55.352L290.751 49.256C290.751 49.256 292.095 50.168 293.295 50.168C294.639 50.168 296.415 49.784 297.279 47.672L297.759 46.52L287.246 22.28H296.655L300.303 33.656C300.734 35 301.215 37.496 301.215 37.496H301.311C301.311 37.496 301.791 35.144 302.127 33.8L305.247 22.28H314.319L304.191 49.64C302.127 55.16 297.807 57.08 293.871 57.08C290.607 57.08 288.111 55.352 288.111 55.352ZM123.976 95L126.808 60.68H135.928L140.92 75.176C141.688 77.384 142.648 80.84 142.648 80.84H142.744C142.744 80.84 143.704 77.384 144.472 75.176L149.464 60.68H158.584L161.368 95H152.968L151.912 79.544C151.72 76.952 151.912 73.784 151.912 73.784H151.816C151.816 73.784 150.664 77.384 149.896 79.544L146.296 89.48H139.096L135.496 79.544C134.728 77.384 133.576 73.784 133.576 73.784H133.48C133.48 73.784 133.672 76.952 133.48 79.544L132.424 95H123.976ZM165.559 87.608C165.559 80.408 176.071 79.592 179.911 79.592H180.247V79.16C180.247 77.096 178.663 76.424 176.599 76.424C173.479 76.424 169.927 78.776 169.927 78.776L167.047 72.92C167.047 72.92 171.319 69.704 177.415 69.704C184.375 69.704 188.551 73.496 188.551 79.784V95H180.967V93.512C180.967 92.696 181.063 91.976 181.063 91.976H180.967C180.967 91.976 179.143 95.576 173.959 95.576C169.351 95.576 165.559 92.504 165.559 87.608ZM173.911 87.176C173.911 88.328 174.631 89.24 176.263 89.24C178.423 89.24 180.343 86.888 180.343 84.872V84.344H179.575C176.935 84.344 173.911 85.112 173.911 87.176ZM195.539 85.88V77.192H192.371V70.712H195.779V63.608H203.843V70.712H209.027V77.192H203.843V84.776C203.843 87.56 206.675 87.944 208.259 87.944C208.931 87.944 209.363 87.896 209.363 87.896V95.096C209.363 95.096 208.451 95.24 207.107 95.24C203.171 95.24 195.539 94.184 195.539 85.88ZM212.389 82.616C212.389 75.992 217.285 69.704 226.165 69.704C232.885 69.704 236.005 73.448 236.005 73.448L232.501 79.016C232.501 79.016 230.101 76.616 226.693 76.616C222.757 76.616 220.789 79.592 220.789 82.52C220.789 85.448 222.805 88.664 226.981 88.664C230.437 88.664 233.749 85.688 233.749 85.688L236.773 91.496C236.773 91.496 233.077 95.576 226.165 95.576C217.333 95.576 212.389 89.432 212.389 82.616ZM240.65 95V60.68H248.954V71.528C248.954 72.776 248.858 73.64 248.858 73.64H248.954C250.346 71.192 253.226 69.704 256.49 69.704C261.482 69.704 265.37 72.008 265.37 78.968V95H257.066V80.504C257.066 78.2 256.154 77.24 254.33 77.24C251.786 77.24 250.106 78.728 249.386 80.888C249.05 81.848 248.954 82.904 248.954 84.056V95H240.65Z" fill="white"/>
<mask id="mask0_301_1266" style="mask-type:luminance" maskUnits="userSpaceOnUse" x="58" y="2" width="53" height="107">
<path d="M107.973 62.596C106.904 64.7525 106.415 66.7052 106.935 69.2881C108.782 78.5076 103.647 88.1967 95.0641 92.2318C93.3525 93.0351 84.9054 101.983 83.3235 102.922C80.5737 104.547 77.8054 106.086 74.8023 107.204C73.2945 107.766 67.2944 109.182 65.0514 108.965C60.9792 108.576 58.8103 106.506 58.8103 102.44C58.7856 71.2593 58.7856 40.0848 58.8103 8.9042C58.8103 5.15338 61.1399 2.85469 65.453 2.19351C66.5653 2.02049 67.7208 2.15643 68.8393 2.02667C70.7734 1.81039 76.4089 2.94738 78.5716 4.07201C84.7324 7.27287 90.0218 11.3821 92.8334 17.9754C93.4946 19.5202 94.7057 20.4038 95.8983 21.3431C99.6986 24.3215 102.071 28.2515 103.171 32.8489C103.69 35.024 104.562 36.7789 105.903 38.5462C111.588 46.0787 112.156 54.1798 107.973 62.596Z" fill="white"/>
</mask>
<g mask="url(#mask0_301_1266)">
<path d="M85.4431 0.0987549H52.6311V55.496H85.4431V0.0987549Z" fill="#763F98"/>
<path d="M111.569 0.0987549H84.5779V55.496H111.569V0.0987549Z" fill="#FDB924"/>
<path d="M84.578 55.496H57.5869V110.893H84.578V55.496Z" fill="#BED731"/>
<path d="M111.569 55.496H84.5779V110.893H111.569V55.496Z" fill="#20419A"/>
</g>
<path d="M36.188 106.481C29.8234 103.645 24.571 100.364 21.123 94.8147C20.4185 93.6839 19.5472 93.0969 18.367 92.5902C10.2351 89.1112 4.66753 80.1327 5.25456 71.698C5.44612 68.9359 6.10113 66.9523 9.61096 67.5579C11.4091 67.8669 13.3062 67.6753 15.1599 67.595C17.7429 67.4899 19.9118 67.6691 21.9324 69.9616C24.3115 72.6558 28.674 72.0255 30.9233 69.3066C33.154 66.6125 32.7833 62.8802 30.0458 60.4888C27.3146 58.1098 23.7677 58.2581 21.2898 61.1376C20.2208 62.3797 19.1579 62.806 17.6069 62.769C14.0044 62.6825 10.4019 62.6825 6.80556 62.769C5.24839 62.806 4.42654 62.3055 3.82715 60.7854C0.663361 52.7338 1.56554 45.2631 6.86736 38.4226C8.02288 36.9334 8.9127 35.438 9.32053 33.5719C10.5008 28.1403 13.2814 23.6912 17.8665 20.4718C19.0344 19.65 19.572 18.4697 20.1343 17.2462C22.8099 11.4748 27.4814 7.72396 32.8574 4.67757C34.7297 3.61474 35.4403 4.10908 35.3168 6.23475C35.1437 9.20698 35.0201 12.1854 35.0016 15.1638C34.9893 16.4244 34.118 16.8878 33.3765 17.5861C30.6267 20.1505 30.4104 24.1238 32.8327 26.682C35.3477 29.3329 39.3765 29.4441 41.9348 26.9292C44.6784 24.235 44.7463 20.2308 41.7 17.722C40.0933 16.3997 39.7782 15.034 39.8276 13.2173C39.908 10.2327 39.9327 7.24815 39.8523 4.26356C39.8091 2.66313 40.3961 2.00194 41.9842 2.06992C43.5228 2.13789 45.08 2.00812 46.6125 2.13789C51.6795 2.57044 53.9782 5.06687 53.9844 10.1339C54.0029 25.6748 53.9905 41.2095 53.9967 56.7504C53.9967 57.5351 53.9967 58.3199 53.9967 59.531C51.7784 58.5053 50.6105 56.9172 49.214 55.6443C46.9276 53.568 44.7093 51.43 42.4106 49.3661C40.4888 47.6359 38.8204 46.0973 39.0861 42.9458C39.3642 39.6523 35.6628 36.9828 32.3136 37.366C28.6555 37.7861 26.3815 40.7522 26.7832 44.5772C27.1354 47.9572 30.3672 50.7194 33.6978 50.0335C35.4218 49.6751 36.3487 50.188 37.4671 51.2384C42.3364 55.8173 47.2304 60.3714 52.1985 64.8452C53.5394 66.0563 54.04 67.3478 54.0276 69.1398C53.9596 79.8423 54.0029 90.5448 53.9905 101.247C53.9844 107.563 47.8607 111.196 42.0645 108.421C41.0511 107.939 41.0635 107.26 41.0635 106.444C41.0573 101.915 41.1067 97.3853 41.0388 92.8621C41.0202 91.5459 41.6691 90.897 42.6021 90.1185C45.7288 87.5232 45.9451 83.4263 43.2571 80.6333C40.7236 78.0071 36.7874 78.0441 34.2045 80.7198C31.5289 83.4943 31.7019 87.1709 34.7297 89.9516C35.5021 90.6622 36.2436 91.1998 36.2313 92.4357C36.1695 96.9527 36.2066 101.47 36.2066 106.487L36.188 106.481Z" stroke="white" stroke-width="3" stroke-miterlimit="10"/>
<path fill-rule="evenodd" clip-rule="evenodd" d="M29.9778 65.3951C29.9778 67.6382 28.1796 69.4549 25.9551 69.4549C23.7305 69.4549 21.9324 67.6382 21.9324 65.3951C21.9324 63.152 23.7305 61.3353 25.9551 61.3353C28.1796 61.3353 29.9778 63.152 29.9778 65.3951Z" fill="#20419A"/>
<path fill-rule="evenodd" clip-rule="evenodd" d="M41.5022 22.2885C41.5022 24.5316 39.704 26.3483 37.4795 26.3483C35.255 26.3483 33.4568 24.5316 33.4568 22.2885C33.4568 20.0455 35.255 18.2288 37.4795 18.2288C39.704 18.2288 41.5022 20.0455 41.5022 22.2885Z" fill="#FDB924"/>
<path fill-rule="evenodd" clip-rule="evenodd" d="M37.0347 43.5822C37.0347 45.8253 35.2365 47.642 33.012 47.642C30.7874 47.642 28.9893 45.8253 28.9893 43.5822C28.9893 41.3392 30.7874 39.5225 33.012 39.5225C35.2365 39.5225 37.0347 41.3392 37.0347 43.5822Z" fill="#BED731"/>
<path fill-rule="evenodd" clip-rule="evenodd" d="M42.8308 85.1379C42.8308 87.381 41.0327 89.1977 38.8081 89.1977C36.5836 89.1977 34.7854 87.381 34.7854 85.1379C34.7854 82.8948 36.5836 81.0781 38.8081 81.0781C41.0327 81.0781 42.8308 82.8948 42.8308 85.1379Z" fill="#763F98"/>
<path d="M107.973 62.596C106.904 64.7525 106.415 66.7052 106.935 69.2881C108.782 78.5076 103.647 88.1967 95.0641 92.2318C93.3525 93.0351 84.9054 101.983 83.3235 102.922C80.5737 104.547 77.8054 106.086 74.8023 107.204C73.2945 107.766 67.2944 109.182 65.0514 108.965C60.9792 108.576 58.8103 106.506 58.8103 102.44C58.7856 71.2593 58.7856 40.0848 58.8103 8.9042C58.8103 5.15338 61.1399 2.85469 65.453 2.19351C66.5653 2.02049 67.7208 2.15643 68.8393 2.02667C70.7734 1.81039 76.4089 2.94738 78.5716 4.07201C84.7324 7.27287 90.0218 11.3821 92.8334 17.9754C93.4946 19.5202 94.7057 20.4038 95.8983 21.3431C99.6986 24.3215 102.071 28.2515 103.171 32.8489C103.69 35.024 104.562 36.7789 105.903 38.5462C111.588 46.0787 112.156 54.1798 107.973 62.596Z" stroke="white" stroke-width="3" stroke-miterlimit="10"/>
</svg>
