<svg width="663" height="111" viewBox="0 0 663 111" fill="none" xmlns="http://www.w3.org/2000/svg">
<path d="M143.34 79L147.47 28.95H160.77L168.05 50.09C169.17 53.31 170.57 58.35 170.57 58.35H170.71C170.71 58.35 172.11 53.31 173.23 50.09L180.51 28.95H193.81L197.87 79H185.62L184.08 56.46C183.8 52.68 184.08 48.06 184.08 48.06H183.94C183.94 48.06 182.26 53.31 181.14 56.46L175.89 70.95H165.39L160.14 56.46C159.02 53.31 157.34 48.06 157.34 48.06H157.2C157.2 48.06 157.48 52.68 157.2 56.46L155.66 79H143.34ZM204.122 60.94C204.122 50.37 211.262 42.11 222.882 42.11C233.522 42.11 239.542 49.53 239.542 59.54C239.542 60.73 239.262 63.32 239.262 63.32H216.512C217.422 67.73 221.062 69.76 224.912 69.76C230.092 69.76 234.852 66.12 234.852 66.12L239.332 74.59C239.332 74.59 233.522 79.84 223.932 79.84C211.052 79.84 204.122 70.53 204.122 60.94ZM216.792 56.39H227.362C227.362 53.66 225.472 51.21 222.602 51.21C219.102 51.21 217.422 53.73 216.792 56.39ZM246.156 79V42.95H257.776V46.1C257.776 47.29 257.636 48.34 257.636 48.34H257.776C259.456 45.82 262.816 42.11 268.486 42.11C273.036 42.11 276.676 44.14 278.566 48.2H278.706C280.596 45.19 284.866 42.11 290.256 42.11C296.836 42.11 301.946 45.68 301.946 55.62V79H289.836V57.65C289.836 54.99 289.346 53.1 287.036 53.1C283.186 53.1 281.156 55.9 280.386 59.89C280.106 61.15 280.106 62.62 280.106 64.09V79H267.996V57.65C267.996 54.99 267.506 53.1 265.196 53.1C261.416 53.1 259.456 55.76 258.616 59.61C258.336 60.94 258.266 62.55 258.266 64.09V79H246.156ZM307.754 61.08C307.754 49.74 316.854 42.11 328.124 42.11C339.534 42.11 348.634 49.74 348.634 61.08C348.634 72.35 339.534 79.84 328.194 79.84C316.854 79.84 307.754 72.35 307.754 61.08ZM320.004 61.08C320.004 66.47 323.784 69.76 328.194 69.76C332.604 69.76 336.384 66.47 336.384 61.08C336.384 55.62 332.604 52.19 328.194 52.19C323.784 52.19 320.004 55.62 320.004 61.08ZM354.916 79V42.95H366.536V49.04C366.536 50.23 366.396 51.28 366.396 51.28H366.536C368.076 46.38 372.626 42.32 378.016 42.32C378.716 42.32 379.416 42.46 379.416 42.46V54.36C379.416 54.36 378.436 54.15 376.966 54.15C374.096 54.15 369.406 55.06 367.656 60.45C367.236 61.78 367.026 63.39 367.026 65.35V79H354.916ZM382.703 91.18L386.553 82.29C386.553 82.29 388.513 83.62 390.263 83.62C392.223 83.62 394.813 83.06 396.073 79.98L396.773 78.3L381.443 42.95H395.163L400.483 59.54C401.113 61.5 401.813 65.14 401.813 65.14H401.953C401.953 65.14 402.653 61.71 403.143 59.75L407.693 42.95H420.923L406.153 82.85C403.143 90.9 396.843 93.7 391.103 93.7C386.343 93.7 382.703 91.18 382.703 91.18ZM441.182 79L445.312 28.95H458.612L465.892 50.09C467.012 53.31 468.412 58.35 468.412 58.35H468.552C468.552 58.35 469.952 53.31 471.072 50.09L478.352 28.95H491.652L495.712 79H483.462L481.922 56.46C481.642 52.68 481.922 48.06 481.922 48.06H481.782C481.782 48.06 480.102 53.31 478.982 56.46L473.732 70.95H463.232L457.982 56.46C456.862 53.31 455.182 48.06 455.182 48.06H455.042C455.042 48.06 455.322 52.68 455.042 56.46L453.502 79H441.182ZM501.824 68.22C501.824 57.72 517.154 56.53 522.754 56.53H523.244V55.9C523.244 52.89 520.934 51.91 517.924 51.91C513.374 51.91 508.194 55.34 508.194 55.34L503.994 46.8C503.994 46.8 510.224 42.11 519.114 42.11C529.264 42.11 535.354 47.64 535.354 56.81V79H524.294V76.83C524.294 75.64 524.434 74.59 524.434 74.59H524.294C524.294 74.59 521.634 79.84 514.074 79.84C507.354 79.84 501.824 75.36 501.824 68.22ZM514.004 67.59C514.004 69.27 515.054 70.6 517.434 70.6C520.584 70.6 523.384 67.17 523.384 64.23V63.46H522.264C518.414 63.46 514.004 64.58 514.004 67.59ZM545.544 65.7V53.03H540.924V43.58H545.894V33.22H557.654V43.58H565.214V53.03H557.654V64.09C557.654 68.15 561.784 68.71 564.094 68.71C565.074 68.71 565.704 68.64 565.704 68.64V79.14C565.704 79.14 564.374 79.35 562.414 79.35C556.674 79.35 545.544 77.81 545.544 65.7ZM570.117 60.94C570.117 51.28 577.257 42.11 590.207 42.11C600.007 42.11 604.557 47.57 604.557 47.57L599.447 55.69C599.447 55.69 595.947 52.19 590.977 52.19C585.237 52.19 582.367 56.53 582.367 60.8C582.367 65.07 585.307 69.76 591.397 69.76C596.437 69.76 601.267 65.42 601.267 65.42L605.677 73.89C605.677 73.89 600.287 79.84 590.207 79.84C577.327 79.84 570.117 70.88 570.117 60.94ZM611.332 79V28.95H623.442V44.77C623.442 46.59 623.302 47.85 623.302 47.85H623.442C625.472 44.28 629.672 42.11 634.432 42.11C641.712 42.11 647.382 45.47 647.382 55.62V79H635.272V57.86C635.272 54.5 633.942 53.1 631.282 53.1C627.572 53.1 625.122 55.27 624.072 58.42C623.582 59.82 623.442 61.36 623.442 63.04V79H611.332Z" fill="white"/>
<mask id="mask0_304_9015" style="mask-type:luminance" maskUnits="userSpaceOnUse" x="58" y="2" width="53" height="107">
<path d="M107.973 62.596C106.904 64.7525 106.415 66.7052 106.935 69.2881C108.782 78.5076 103.647 88.1967 95.0641 92.2318C93.3525 93.0351 84.9054 101.983 83.3235 102.922C80.5737 104.547 77.8054 106.086 74.8023 107.204C73.2945 107.766 67.2944 109.182 65.0514 108.965C60.9792 108.576 58.8103 106.506 58.8103 102.44C58.7856 71.2593 58.7856 40.0848 58.8103 8.9042C58.8103 5.15338 61.1399 2.85469 65.453 2.19351C66.5653 2.02049 67.7208 2.15643 68.8393 2.02667C70.7734 1.81039 76.4089 2.94738 78.5716 4.07201C84.7324 7.27287 90.0218 11.3821 92.8334 17.9754C93.4946 19.5202 94.7057 20.4038 95.8983 21.3431C99.6986 24.3215 102.071 28.2515 103.171 32.8489C103.69 35.024 104.562 36.7789 105.903 38.5462C111.588 46.0787 112.156 54.1798 107.973 62.596Z" fill="white"/>
</mask>
<g mask="url(#mask0_304_9015)">
<path d="M85.4431 0.0986328H52.6311V55.4959H85.4431V0.0986328Z" fill="#763F98"/>
<path d="M111.569 0.0986328H84.5779V55.4959H111.569V0.0986328Z" fill="#FDB924"/>
<path d="M84.578 55.4958H57.5869V110.893H84.578V55.4958Z" fill="#BED731"/>
<path d="M111.569 55.4958H84.5779V110.893H111.569V55.4958Z" fill="#20419A"/>
</g>
<path d="M36.188 106.481C29.8234 103.645 24.571 100.364 21.123 94.8147C20.4185 93.6839 19.5472 93.0969 18.367 92.5902C10.2351 89.1112 4.66753 80.1327 5.25456 71.698C5.44612 68.9359 6.10113 66.9523 9.61096 67.5579C11.4091 67.8669 13.3062 67.6753 15.1599 67.595C17.7429 67.4899 19.9118 67.6691 21.9324 69.9616C24.3115 72.6558 28.674 72.0255 30.9233 69.3066C33.154 66.6125 32.7833 62.8802 30.0458 60.4888C27.3146 58.1098 23.7677 58.2581 21.2898 61.1376C20.2208 62.3797 19.1579 62.806 17.6069 62.769C14.0044 62.6825 10.4019 62.6825 6.80556 62.769C5.24839 62.806 4.42654 62.3055 3.82715 60.7854C0.663361 52.7338 1.56554 45.2631 6.86736 38.4226C8.02288 36.9334 8.9127 35.438 9.32053 33.5719C10.5008 28.1403 13.2814 23.6912 17.8665 20.4718C19.0344 19.65 19.572 18.4697 20.1343 17.2462C22.8099 11.4748 27.4814 7.72396 32.8574 4.67757C34.7297 3.61474 35.4403 4.10908 35.3168 6.23475C35.1437 9.20698 35.0201 12.1854 35.0016 15.1638C34.9893 16.4244 34.118 16.8878 33.3765 17.5861C30.6267 20.1505 30.4104 24.1238 32.8327 26.682C35.3477 29.3329 39.3765 29.4441 41.9348 26.9292C44.6784 24.235 44.7463 20.2308 41.7 17.722C40.0933 16.3997 39.7782 15.034 39.8276 13.2173C39.908 10.2327 39.9327 7.24815 39.8523 4.26356C39.8091 2.66313 40.3961 2.00194 41.9842 2.06992C43.5228 2.13789 45.08 2.00812 46.6125 2.13789C51.6795 2.57044 53.9782 5.06687 53.9844 10.1339C54.0029 25.6748 53.9905 41.2095 53.9967 56.7504C53.9967 57.5351 53.9967 58.3199 53.9967 59.531C51.7784 58.5053 50.6105 56.9172 49.214 55.6443C46.9276 53.568 44.7093 51.43 42.4106 49.3661C40.4888 47.6359 38.8204 46.0973 39.0861 42.9458C39.3642 39.6523 35.6628 36.9828 32.3136 37.366C28.6555 37.7861 26.3815 40.7522 26.7832 44.5772C27.1354 47.9572 30.3672 50.7194 33.6978 50.0335C35.4218 49.6751 36.3487 50.188 37.4671 51.2384C42.3364 55.8173 47.2304 60.3714 52.1985 64.8452C53.5394 66.0563 54.04 67.3478 54.0276 69.1398C53.9596 79.8423 54.0029 90.5448 53.9905 101.247C53.9844 107.563 47.8607 111.196 42.0645 108.421C41.0511 107.939 41.0635 107.26 41.0635 106.444C41.0573 101.915 41.1067 97.3853 41.0388 92.8621C41.0202 91.5459 41.6691 90.897 42.6021 90.1185C45.7288 87.5232 45.9451 83.4263 43.2571 80.6333C40.7236 78.0071 36.7874 78.0441 34.2045 80.7198C31.5289 83.4943 31.7019 87.1709 34.7297 89.9516C35.5021 90.6622 36.2436 91.1998 36.2313 92.4357C36.1695 96.9527 36.2066 101.47 36.2066 106.487L36.188 106.481Z" stroke="white" stroke-width="3" stroke-miterlimit="10"/>
<path fill-rule="evenodd" clip-rule="evenodd" d="M29.9778 65.3952C29.9778 67.6383 28.1796 69.455 25.9551 69.455C23.7305 69.455 21.9324 67.6383 21.9324 65.3952C21.9324 63.1522 23.7305 61.3354 25.9551 61.3354C28.1796 61.3354 29.9778 63.1522 29.9778 65.3952Z" fill="#20419A"/>
<path fill-rule="evenodd" clip-rule="evenodd" d="M41.5022 22.2885C41.5022 24.5316 39.704 26.3483 37.4795 26.3483C35.255 26.3483 33.4568 24.5316 33.4568 22.2885C33.4568 20.0455 35.255 18.2288 37.4795 18.2288C39.704 18.2288 41.5022 20.0455 41.5022 22.2885Z" fill="#FDB924"/>
<path fill-rule="evenodd" clip-rule="evenodd" d="M37.0347 43.5822C37.0347 45.8253 35.2365 47.642 33.012 47.642C30.7874 47.642 28.9893 45.8253 28.9893 43.5822C28.9893 41.3392 30.7874 39.5225 33.012 39.5225C35.2365 39.5225 37.0347 41.3392 37.0347 43.5822Z" fill="#BED731"/>
<path fill-rule="evenodd" clip-rule="evenodd" d="M42.8308 85.1379C42.8308 87.381 41.0327 89.1977 38.8081 89.1977C36.5836 89.1977 34.7854 87.381 34.7854 85.1379C34.7854 82.8948 36.5836 81.0781 38.8081 81.0781C41.0327 81.0781 42.8308 82.8948 42.8308 85.1379Z" fill="#763F98"/>
<path d="M107.973 62.596C106.904 64.7525 106.415 66.7052 106.935 69.2881C108.782 78.5076 103.647 88.1967 95.0641 92.2318C93.3525 93.0351 84.9054 101.983 83.3235 102.922C80.5737 104.547 77.8054 106.086 74.8023 107.204C73.2945 107.766 67.2944 109.182 65.0514 108.965C60.9792 108.576 58.8103 106.506 58.8103 102.44C58.7856 71.2593 58.7856 40.0848 58.8103 8.9042C58.8103 5.15338 61.1399 2.85469 65.453 2.19351C66.5653 2.02049 67.7208 2.15643 68.8393 2.02667C70.7734 1.81039 76.4089 2.94738 78.5716 4.07201C84.7324 7.27287 90.0218 11.3821 92.8334 17.9754C93.4946 19.5202 94.7057 20.4038 95.8983 21.3431C99.6986 24.3215 102.071 28.2515 103.171 32.8489C103.69 35.024 104.562 36.7789 105.903 38.5462C111.588 46.0787 112.156 54.1798 107.973 62.596Z" stroke="white" stroke-width="3" stroke-miterlimit="10"/>
</svg>
