<svg width="75" height="75" viewBox="0 0 75 75" fill="none" xmlns="http://www.w3.org/2000/svg">
<path d="M37.4363 73.0255C57.0778 73.0255 73.0004 57.0957 73.0004 37.4454C73.0004 17.795 57.0778 1.86523 37.4363 1.86523C17.7947 1.86523 1.87207 17.795 1.87207 37.4454C1.87207 57.0957 17.7947 73.0255 37.4363 73.0255Z" fill="#F5F5F5" stroke="#00A19C" stroke-width="3" stroke-miterlimit="10"/>
<path d="M28.1993 26.0098C34.6903 26.0098 39.3807 29.8244 39.3807 35.6901C39.3807 43.3192 32.6401 48.5946 25.9373 48.5946C19.2345 48.5946 14.7559 44.8254 14.7559 38.9143C14.7559 31.3305 21.4587 26.0098 28.1993 26.0098ZM26.0659 42.5548C28.9558 42.5548 32.0576 40.0798 32.0576 36.1442C32.0576 33.586 30.3856 32.042 28.1236 32.042C25.2791 32.042 22.0941 34.638 22.0941 38.5813C22.0941 41.094 23.7661 42.5624 26.0734 42.5624L26.0659 42.5548Z" fill="#00A19C"/>
<path d="M45.1152 26.5083H52.0677L51.3565 30.1564C51.2279 30.8678 51.0237 31.496 51.0237 31.496H51.0691C52.4535 28.5594 55.5099 26.1299 58.5662 26.1299C59.2773 26.1299 59.822 26.2131 59.822 26.2131L58.4376 33.3352C58.4376 33.3352 57.8929 33.2066 57.0153 33.2066C54.8366 33.2066 50.7362 34.9246 49.6014 40.7449L48.1791 48.0789H40.9316L45.1228 26.5007L45.1152 26.5083Z" fill="#00A19C"/>
</svg>
