<svg width="154" height="59" viewBox="0 0 154 59" fill="none" xmlns="http://www.w3.org/2000/svg">
<path d="M97.1794 27.4485V27.4155C97.1794 24.614 95.1099 22.9695 91.8889 22.9695H86.9071C86.4314 22.9695 86.0059 23.3496 86.0059 23.7959V35.5802H89.5273V32.3986C89.5273 32.192 89.7359 31.9771 89.9279 31.9771H91.1796L93.6329 35.5802H97.7135L94.7761 31.3491C96.2531 30.6301 97.1711 29.3161 97.1711 27.4402L97.1794 27.4485ZM93.6579 27.6055C93.6579 28.5972 92.8986 29.2418 91.6385 29.2418H89.5357V26.4651C89.5357 26.1676 89.786 25.9197 90.0864 25.9197H91.6218C92.8986 25.9197 93.6579 26.4899 93.6579 27.5725V27.6055Z" fill="white"/>
<path d="M105.381 22.519C101.516 22.519 98.614 25.5414 98.614 29.279V29.3046C98.614 33.0421 101.475 36.0305 105.348 36.0305C109.22 36.0305 112.123 32.9996 112.123 29.279V29.2365C112.123 25.5074 109.245 22.519 105.381 22.519ZM108.571 29.3046C108.571 31.1776 107.305 32.7782 105.381 32.7782C103.457 32.7782 102.174 31.1435 102.174 29.279V29.2365C102.174 27.3634 103.449 25.7628 105.348 25.7628C107.247 25.7628 108.571 27.3975 108.571 29.2705V29.2961V29.3046Z" fill="white"/>
<path d="M123.009 23.7799V29.6428L117.712 22.9695H115.295C114.788 22.9695 114.374 23.3747 114.374 23.8708V35.5802H117.906V28.667L123.415 35.5802H126.532V22.9695H123.913C123.431 22.9695 123.001 23.3251 123.001 23.7799" fill="white"/>
<path d="M72.9473 23.8378V26.0374H76.7923V35.5802H80.3512V26.4343C80.3512 26.2193 80.5363 26.0374 80.7971 26.0374H84.2046V22.9695H73.8559C73.3595 22.9695 72.9473 23.3912 72.9473 23.8378Z" fill="white"/>
<path d="M60.7896 23.8378V35.5802H71.1378V32.6032H64.3178V31.0899C64.3178 30.8501 64.5372 30.6103 64.7651 30.6103H70.3444V27.8566H64.3262V26.426C64.3262 26.2028 64.5203 25.9464 64.7398 25.9464H71.1463V22.9695H61.7096C61.22 22.9695 60.7896 23.3664 60.7896 23.846" fill="white"/>
<path d="M149.188 27.6618C147.394 27.251 146.955 26.9943 146.955 26.4039V26.3611C146.955 25.8905 147.378 25.5225 148.24 25.5225C149.035 25.5225 149.881 25.7365 150.727 26.1472C150.727 26.1472 150.913 26.2413 150.997 26.2841C151.243 26.3953 151.522 26.4895 151.877 26.4125C152.122 26.3611 152.308 26.1301 152.528 25.8563L153.645 24.2561C152.249 23.118 150.541 22.519 148.342 22.519C145.246 22.519 143.352 24.2732 143.352 26.7034V26.7376C143.352 29.4245 145.475 30.2032 148.215 30.845C149.966 31.2471 150.38 31.5466 150.38 32.0943V32.1285C150.38 32.6933 149.873 33.0184 148.908 33.0184C147.784 33.0184 146.692 32.7104 145.686 32.12C145.39 31.9745 145.035 31.7777 144.578 31.8804C144.392 31.9231 144.24 32.0515 144.087 32.2398L142.743 33.8741C144.324 35.2946 146.506 36.0305 148.79 36.0305C151.919 36.0305 154 34.4474 154 31.7862V31.752C154 29.3133 152.156 28.3378 149.196 27.6789" fill="white"/>
<path d="M131.662 35.5802L132.315 33.9842C132.417 33.7278 132.638 33.4632 132.91 33.4219H137.537L138.446 35.5802H142.292L136.816 22.9695H133.878C133.445 23.0191 133.266 23.2424 133.114 23.5483L127.883 35.5802H131.662ZM135.067 27.1124L136.51 30.7013H133.598L135.067 27.1124Z" fill="white"/>
<path d="M51.7309 35.5802C51.7309 34.646 51.7309 32.5213 51.7309 32.3973C51.7309 32.2237 51.8571 32.0501 52.0337 31.9922C52.1094 31.9674 52.1935 31.9757 52.2776 31.9757C52.7318 31.9757 53.1945 31.9757 53.6487 31.9757C54.5991 31.9757 55.5496 31.9013 56.4496 31.5789C57.4 31.2482 58.258 30.6695 58.7963 29.8179C59.3262 28.983 59.5028 27.9578 59.4187 26.9823C59.3599 26.2548 59.1412 25.5356 58.7206 24.932C57.829 23.6424 56.2477 23.0885 54.7169 22.9893C54.515 22.9727 54.2963 22.9645 54.1029 22.9727C53.4973 22.9727 52.8917 22.9727 52.2776 22.9727H49.7627C49.1655 22.9645 48.1814 22.9397 48.1814 23.7912C48.1814 24.1963 48.1814 24.6014 48.1814 25.0064V35.5802H51.7309ZM55.886 27.6023C55.886 28.5944 55.1206 29.2392 53.8505 29.2392H51.7309V26.4615C51.7309 26.1639 51.9832 25.9158 52.2861 25.9158H53.8337C55.1206 25.9158 55.886 26.4863 55.886 27.5693V27.6023Z" fill="white"/>
<path d="M20.5707 59C16.8365 59 13.1738 57.9852 9.98331 56.0708C3.82749 52.3737 0 45.6213 0 38.452C0 34.8098 0.977465 31.2169 2.82257 28.0628C3.03124 27.6953 4.50842 25.1447 15.5571 6.02287C18.2039 1.45361 20.5707 0.159074 26.5672 0H26.6277H50.4328L36.265 24.5084L38.1925 27.8489C40.12 31.0414 41.1413 34.711 41.1413 38.452C41.1413 49.7847 31.9104 59 20.5707 59Z" fill="white"/>
<path d="M30.6198 38.2824C30.6198 43.7519 26.0864 48.1908 20.4883 48.1908C14.8901 48.1908 10.3567 43.7573 10.3567 38.2824C10.3567 32.8076 14.8901 28.374 20.4883 28.374C26.0864 28.374 30.6198 32.8076 30.6198 38.2824Z" fill="#00A99D"/>
<path d="M33.5445 24.3172L46.3801 2.25195H26.5722C21.0492 2.39913 19.5999 3.47841 17.4972 7.08691C17.4972 7.08691 4.76589 28.9887 4.75491 28.9996C3.17379 31.6869 2.25146 34.8375 2.25146 38.168C2.25146 44.7691 5.8035 50.5416 11.1123 53.714C13.8573 55.3547 17.0745 56.2978 20.5112 56.2978C30.5964 56.2978 38.7765 48.1813 38.7765 38.168C38.7765 34.7394 37.8157 31.5288 36.1468 28.7924L33.539 24.3118L33.5445 24.3172ZM26.6765 6.89068H38.2879L30.8489 19.684L28.3125 15.3232L23.5966 7.21773C24.2774 6.9888 25.1997 6.89613 26.671 6.89613M20.5112 51.6917C17.1733 51.6917 14.1154 50.4925 11.7437 48.5139C8.77908 46.0337 6.9015 42.3271 6.9015 38.1789C6.9015 35.6824 7.58226 33.3385 8.77359 31.3326C8.77359 31.3326 20.4673 11.2242 20.5112 11.1478L25.0789 18.9863V18.9917L32.2489 31.3271C32.2489 31.3271 32.2489 31.3326 32.2489 31.338C33.4402 33.344 34.1209 35.6824 34.1209 38.1789C34.1209 45.6412 28.027 51.6917 20.5112 51.6917Z" fill="#00A99D"/>
</svg>
