<svg width="220" height="14" viewBox="0 0 220 14" fill="none" xmlns="http://www.w3.org/2000/svg">
<g clip-path="url(#clip0_289_99)">
<path fill-rule="evenodd" clip-rule="evenodd" d="M92.5234 6.71494C92.5234 4.59084 94.2295 2.86768 96.3334 2.86768C98.4374 2.86768 100.143 4.58942 100.143 6.71494C100.143 8.84046 98.4374 10.5622 96.3334 10.5622C94.2295 10.5622 92.5234 8.84046 92.5234 6.71494Z" fill="#FAB520"/>
<path fill-rule="evenodd" clip-rule="evenodd" d="M212.378 6.71494C212.378 4.59084 214.085 2.86768 216.188 2.86768C218.292 2.86768 219.998 4.58942 219.998 6.71494C219.998 8.84046 218.292 10.5622 216.188 10.5622C214.085 10.5622 212.378 8.84046 212.378 6.71494Z" fill="#754198"/>
<path fill-rule="evenodd" clip-rule="evenodd" d="M48.7087 6.71494C48.7087 4.59084 50.4148 2.86768 52.5188 2.86768C54.6227 2.86768 56.3288 4.58942 56.3288 6.71494C56.3288 8.84046 54.6227 10.5622 52.5188 10.5622C50.4148 10.5622 48.7087 8.84046 48.7087 6.71494Z" fill="#BBD531"/>
<path fill-rule="evenodd" clip-rule="evenodd" d="M0 6.71494C0 4.59084 1.70611 2.86768 3.81001 2.86768C5.91392 2.86768 7.62003 4.58942 7.62003 6.71494C7.62003 8.84046 5.91392 10.5622 3.81001 10.5622C1.70611 10.5622 0 8.83904 0 6.71494Z" fill="#1F4694"/>
<path d="M16.1591 6.48467L12.5444 0.179199H15.5919L16.8327 2.74973C17.1845 3.48193 17.4904 4.28806 17.4904 4.28806H17.5206C17.5206 4.28806 17.8265 3.48193 18.1783 2.74973L19.4033 0.179199H22.4508L18.8375 6.48467V10.8622H16.1577V6.48467H16.1591Z" fill="#414141"/>
<path d="M26.4158 2.98853C28.9117 2.98853 30.9022 4.61643 30.9022 7.03768C30.9022 9.45892 28.9117 11.0413 26.4316 11.0413C23.9514 11.0413 21.9609 9.44328 21.9609 7.03768C21.9609 4.63207 23.9514 2.98853 26.4158 2.98853ZM26.4316 8.89022C27.3966 8.89022 28.2224 8.18788 28.2224 7.03768C28.2224 5.88748 27.3952 5.13964 26.4316 5.13964C25.4679 5.13964 24.6407 5.87184 24.6407 7.03768C24.6407 8.20351 25.4679 8.89022 26.4316 8.89022Z" fill="#414141"/>
<path d="M32.1718 3.16772H34.82V7.68037C34.82 8.39693 35.1115 8.69692 35.6616 8.69692C36.7947 8.69692 37.3303 7.72586 37.3303 6.57567V3.16915H39.9785V10.8637H37.4366V10.1912C37.4366 9.93669 37.4668 9.71347 37.4668 9.71347H37.4366C37.0072 10.5352 36.0278 11.0428 34.9708 11.0428C33.4097 11.0428 32.1689 10.3263 32.1689 8.1595V3.16772H32.1718Z" fill="#414141"/>
<path d="M64.878 0.179199H67.7875L69.3802 4.69184C69.6258 5.37855 69.9316 6.45482 69.9316 6.45482H69.9618C69.9618 6.45482 70.2677 5.37855 70.5133 4.69184L72.1059 0.179199H75.0155L75.903 10.8622H73.2232L72.8857 6.05104C72.824 5.2449 72.8857 4.25821 72.8857 4.25821H72.8556C72.8556 4.25821 72.4879 5.37855 72.2438 6.05104L71.0949 9.14335H68.7985L67.6497 6.05104C67.4041 5.37855 67.0379 4.25821 67.0379 4.25821H67.0077C67.0077 4.25821 67.0695 5.2449 67.0077 6.05104L66.6702 10.8622H63.9761L64.8794 0.179199H64.878Z" fill="#414141"/>
<path d="M81.3659 2.98853C83.6938 2.98853 85.0093 4.57236 85.0093 6.70925C85.0093 6.96375 84.9476 7.51539 84.9476 7.51539H79.9714C80.171 8.45659 80.9667 8.89022 81.8082 8.89022C82.9413 8.89022 83.9825 8.11394 83.9825 8.11394L84.9619 9.92241C84.9619 9.92241 83.691 11.0428 81.5942 11.0428C78.7766 11.0428 77.2615 9.05514 77.2615 7.00924C77.2615 4.75292 78.8225 2.98995 81.3645 2.98995L81.3659 2.98853ZM82.3468 6.03676C82.3468 5.45384 81.9332 4.93064 81.3056 4.93064C80.5401 4.93064 80.1725 5.46806 80.0346 6.03676H82.3468Z" fill="#414141"/>
<path d="M107.663 7.5296C107.663 7.5296 108.904 8.63573 110.281 8.63573C110.832 8.63573 111.43 8.42673 111.43 7.7841C111.43 6.51447 106.499 6.55855 106.499 3.27145C106.499 1.29948 108.198 0 110.373 0C112.731 0 113.894 1.20991 113.894 1.20991L112.761 3.34681C112.761 3.34681 111.658 2.40561 110.343 2.40561C109.791 2.40561 109.179 2.64446 109.179 3.2416C109.179 4.58657 114.109 4.34772 114.109 7.72438C114.109 9.503 112.716 11.0413 110.251 11.0413C107.785 11.0413 106.254 9.51721 106.254 9.51721L107.663 7.5296Z" fill="#414141"/>
<path d="M115.533 3.16772H118.181V7.68037C118.181 8.39693 118.472 8.69692 119.022 8.69692C120.156 8.69692 120.691 7.72586 120.691 6.57567V3.16915H123.339V10.8637H120.797V10.1912C120.797 9.93669 120.828 9.71347 120.828 9.71347H120.797C120.368 10.5352 119.389 11.0428 118.332 11.0428C116.771 11.0428 115.53 10.3263 115.53 8.1595V3.16772H115.533Z" fill="#414141"/>
<path d="M125.82 8.17219C125.82 8.17219 126.693 8.94847 127.826 8.94847C128.224 8.94847 128.607 8.84326 128.607 8.59019C128.607 7.9177 124.918 7.84377 124.918 5.33295C124.918 3.88419 126.342 2.98706 128.163 2.98706C129.984 2.98706 130.935 3.86855 130.935 3.86855L130.032 5.70687C130.032 5.70687 129.266 5.07988 128.163 5.07988C127.766 5.07988 127.382 5.18509 127.382 5.4538C127.382 6.03672 131.071 6.12629 131.071 8.60583C131.071 9.92095 129.877 11.0413 127.84 11.0413C125.804 11.0413 124.687 9.90531 124.687 9.90531L125.82 8.17219Z" fill="#414141"/>
<path d="M132.908 5.31887H131.897V3.3014H132.984V1.09058H135.556V3.3014H137.209V5.31887H135.556V7.67898C135.556 8.54625 136.46 8.66568 136.965 8.66568C137.179 8.66568 137.317 8.65146 137.317 8.65146V10.8921C137.317 10.8921 137.026 10.9376 136.598 10.9376C135.342 10.9376 132.908 10.6092 132.908 8.02446V5.32029V5.31887Z" fill="#414141"/>
<path d="M142.845 6.06662H142.952V5.93155C142.952 5.28892 142.447 5.07992 141.789 5.07992C140.794 5.07992 139.661 5.81213 139.661 5.81213L138.742 3.98944C138.742 3.98944 140.105 2.98853 142.049 2.98853C144.269 2.98853 145.601 4.16858 145.601 6.12633V10.8622H143.181V10.3987C143.181 10.1442 143.211 9.92099 143.211 9.92099H143.181C143.181 9.92099 142.599 11.0413 140.945 11.0413C139.476 11.0413 138.265 10.0845 138.265 8.5618C138.265 6.32111 141.618 6.06662 142.843 6.06662H142.845ZM141.681 9.06936C142.371 9.06936 142.983 8.33716 142.983 7.71017V7.54524H142.737C141.895 7.54524 140.93 7.7841 140.93 8.42673C140.93 8.78501 141.16 9.06936 141.68 9.06936H141.681Z" fill="#414141"/>
<path d="M147.438 3.16772H150.086V10.8622H147.438V3.16772ZM147.468 0.179199H150.056V2.19667H147.468V0.179199Z" fill="#414141"/>
<path d="M152.046 3.16767H154.588V3.84016C154.588 4.09465 154.558 4.31786 154.558 4.31786H154.588C154.955 3.72073 155.705 2.98853 157.098 2.98853C158.691 2.98853 159.93 3.70509 159.93 5.87184V10.8622H157.282V6.34955C157.282 5.63299 156.99 5.333 156.409 5.333C155.582 5.333 155.076 5.78085 154.846 6.43912C154.739 6.73769 154.693 7.08175 154.693 7.45567V10.8622H152.044V3.16767H152.046Z" fill="#414141"/>
<path d="M165.764 6.06662H165.871V5.93155C165.871 5.28892 165.366 5.07992 164.708 5.07992C163.713 5.07992 162.58 5.81213 162.58 5.81213L161.661 3.98944C161.661 3.98944 163.023 2.98853 164.968 2.98853C167.188 2.98853 168.52 4.16858 168.52 6.12633V10.8622H166.1V10.3987C166.1 10.1442 166.13 9.92099 166.13 9.92099H166.1C166.1 9.92099 165.518 11.0413 163.864 11.0413C162.394 11.0413 161.184 10.0845 161.184 8.5618C161.184 6.32111 164.537 6.06662 165.762 6.06662H165.764ZM164.6 9.06936C165.29 9.06936 165.901 8.33716 165.901 7.71017V7.54524H165.656C164.814 7.54524 163.849 7.7841 163.849 8.42673C163.849 8.78501 164.079 9.06936 164.599 9.06936H164.6Z" fill="#414141"/>
<path d="M170.356 0.179199H173.005V3.15208C173.005 3.54022 172.974 3.80893 172.974 3.80893H173.005C173.005 3.80893 173.74 2.98716 175.133 2.98716C177.277 2.98716 178.684 4.63071 178.684 7.02067C178.684 9.41064 177.108 11.04 175.009 11.04C173.555 11.04 172.851 10.1741 172.851 10.1741H172.821C172.821 10.1741 172.837 10.3689 172.837 10.6078V10.8623H170.356V0.179199ZM174.475 8.9045C175.302 8.9045 176.022 8.24765 176.022 7.06617C176.022 5.88469 175.394 5.16813 174.475 5.16813C173.68 5.16813 172.929 5.73541 172.929 7.06617C172.929 7.99315 173.434 8.9045 174.475 8.9045Z" fill="#414141"/>
<path d="M180.109 3.16772H182.757V10.8622H180.109V3.16772ZM180.139 0.179199H182.727V2.19667H180.139V0.179199Z" fill="#414141"/>
<path d="M184.61 0.179199H187.258V7.67894C187.258 8.41115 187.396 8.66564 187.993 8.66564C188.161 8.66564 188.315 8.65142 188.315 8.65142V10.8921C188.315 10.8921 187.947 10.9376 187.519 10.9376C186.111 10.9376 184.61 10.6092 184.61 8.02443V0.179199Z" fill="#414141"/>
<path d="M189.662 3.16772H192.31V10.8622H189.662V3.16772ZM189.692 0.179199H192.28V2.19667H189.692V0.179199Z" fill="#414141"/>
<path d="M194.668 5.31887H193.657V3.3014H194.744V1.09058H197.316V3.3014H198.969V5.31887H197.316V7.67898C197.316 8.54625 198.22 8.66568 198.725 8.66568C198.939 8.66568 199.077 8.65146 199.077 8.65146V10.8921C199.077 10.8921 198.786 10.9376 198.358 10.9376C197.102 10.9376 194.668 10.6092 194.668 8.02446V5.32029V5.31887Z" fill="#414141"/>
<path d="M200.5 11.5646C200.5 11.5646 200.928 11.849 201.312 11.849C201.741 11.849 202.307 11.7296 202.583 11.0727L202.736 10.7144L199.383 3.16919H202.385L203.548 6.71078C203.686 7.12877 203.839 7.90647 203.839 7.90647H203.869C203.869 7.90647 204.023 7.17427 204.129 6.75627L205.125 3.17061H208.018L204.787 11.6869C204.129 13.4044 202.751 14.0029 201.496 14.0029C200.454 14.0029 199.659 13.4655 199.659 13.4655L200.5 11.5675V11.5646Z" fill="#414141"/>
</g>
<defs>
<clipPath id="clip0_289_99">
<rect width="220" height="14" fill="white"/>
</clipPath>
</defs>
</svg>
