<svg width="308" height="124" viewBox="0 0 308 124" fill="none" xmlns="http://www.w3.org/2000/svg">
<path d="M0.807617 71.1067C0.807617 60.061 9.76192 51.1067 20.8076 51.1067H307.367V103.904C307.367 114.95 298.412 123.904 287.367 123.904H0.807617V71.1067Z" fill="url(#paint0_linear_411_961)"/>
<path d="M27.8086 86.7517C27.8086 77.4712 34.9499 70.3323 44.546 70.3323C52.4461 70.3323 56.5077 74.8387 56.5077 74.8387L52.8924 80.7283C52.8924 80.7283 49.3218 77.4712 44.9031 77.4712C38.7883 77.4712 35.8872 81.9776 35.8872 86.5732C35.8872 91.3027 39.0115 96.1661 44.9031 96.1661C49.7235 96.1661 53.3834 92.2397 53.3834 92.2397L57.4004 97.9508C57.4004 97.9508 52.8924 103.305 44.546 103.305C34.5482 103.305 27.8086 96.2107 27.8086 86.7517Z" fill="white"/>
<path d="M59.5305 91.3473C59.5305 84.1192 65.3329 79.2559 72.5188 79.2559C79.794 79.2559 85.5963 84.1192 85.5963 91.3473C85.5963 98.5308 79.794 103.305 72.5634 103.305C65.3329 103.305 59.5305 98.5308 59.5305 91.3473ZM67.3413 91.3473C67.3413 94.7829 69.7515 96.88 72.5634 96.88C75.3753 96.88 77.7855 94.7829 77.7855 91.3473C77.7855 87.8671 75.3753 85.6809 72.5634 85.6809C69.7515 85.6809 67.3413 87.8671 67.3413 91.3473Z" fill="white"/>
<path d="M89.6018 102.77V79.7913H97.0109V81.7991C97.0109 82.5576 96.9216 83.2269 96.9216 83.2269H97.0109C98.0821 81.4422 100.269 79.2559 104.331 79.2559C108.973 79.2559 112.588 81.3975 112.588 87.8671V102.77H104.866V89.2949C104.866 87.1533 104.018 86.2609 102.322 86.2609C99.912 86.2609 98.4391 87.5994 97.7696 89.5626C97.4572 90.455 97.3233 91.4812 97.3233 92.5966V102.77H89.6018Z" fill="white"/>
<path d="M117.977 102.77V79.7913H125.386V81.7991C125.386 82.5576 125.297 83.2269 125.297 83.2269H125.386C126.457 81.4422 128.644 79.2559 132.706 79.2559C137.348 79.2559 140.963 81.3975 140.963 87.8671V102.77H133.241V89.2949C133.241 87.1533 132.393 86.2609 130.697 86.2609C128.287 86.2609 126.814 87.5994 126.145 89.5626C125.832 90.455 125.698 91.4812 125.698 92.5966V102.77H117.977Z" fill="white"/>
<path d="M144.701 91.2581C144.701 84.5208 149.253 79.2559 156.662 79.2559C163.447 79.2559 167.285 83.9854 167.285 90.3657C167.285 91.1243 167.107 92.7751 167.107 92.7751H152.601C153.181 95.5861 155.502 96.88 157.957 96.88C161.26 96.88 164.295 94.5598 164.295 94.5598L167.151 99.9586C167.151 99.9586 163.447 103.305 157.332 103.305C149.119 103.305 144.701 97.3708 144.701 91.2581ZM152.779 88.3579H159.519C159.519 86.6178 158.314 85.0562 156.484 85.0562C154.252 85.0562 153.181 86.6625 152.779 88.3579Z" fill="white"/>
<path d="M169.806 91.2581C169.806 85.1008 174.358 79.2559 182.615 79.2559C188.864 79.2559 191.765 82.7361 191.765 82.7361L188.507 87.9118C188.507 87.9118 186.275 85.6809 183.106 85.6809C179.447 85.6809 177.617 88.4472 177.617 91.1689C177.617 93.8906 179.491 96.88 183.374 96.88C186.588 96.88 189.668 94.1137 189.668 94.1137L192.479 99.5124C192.479 99.5124 189.043 103.305 182.615 103.305C174.403 103.305 169.806 97.5939 169.806 91.2581Z" fill="white"/>
<path d="M197.245 94.2921V86.2163H194.3V80.1928H197.469V73.5894H204.967V80.1928H209.787V86.2163H204.967V93.2659C204.967 95.8538 207.6 96.2107 209.073 96.2107C209.698 96.2107 210.1 96.1661 210.1 96.1661V102.859C210.1 102.859 209.252 102.993 208.002 102.993C204.342 102.993 197.245 102.011 197.245 94.2921Z" fill="white"/>
<path d="M214.699 76.8911V70.8677H222.242V76.8911H214.699ZM214.609 102.77V79.7913H222.331V102.77H214.609Z" fill="white"/>
<path d="M226.338 91.3473C226.338 84.1192 232.14 79.2559 239.326 79.2559C246.602 79.2559 252.404 84.1192 252.404 91.3473C252.404 98.5308 246.602 103.305 239.371 103.305C232.14 103.305 226.338 98.5308 226.338 91.3473ZM234.149 91.3473C234.149 94.7829 236.559 96.88 239.371 96.88C242.183 96.88 244.593 94.7829 244.593 91.3473C244.593 87.8671 242.183 85.6809 239.371 85.6809C236.559 85.6809 234.149 87.8671 234.149 91.3473Z" fill="white"/>
<path d="M256.409 102.77V79.7913H263.818V81.7991C263.818 82.5576 263.729 83.2269 263.729 83.2269H263.818C264.89 81.4422 267.077 79.2559 271.138 79.2559C275.78 79.2559 279.395 81.3975 279.395 87.8671V102.77H271.674V89.2949C271.674 87.1533 270.826 86.2609 269.13 86.2609C266.72 86.2609 265.247 87.5994 264.577 89.5626C264.265 90.455 264.131 91.4812 264.131 92.5966V102.77H256.409Z" fill="white"/>
<path d="M13.7278 27.7576L17.6307 22.0911C17.6307 22.0911 21.0669 25.2439 24.8849 25.2439C26.4121 25.2439 28.0666 24.6474 28.0666 22.8154C28.0666 19.1939 14.4065 19.3217 14.4065 9.94852C14.4065 4.3246 19.1154 0.61792 25.1394 0.61792C31.6725 0.61792 34.8966 4.06897 34.8966 4.06897L31.7573 10.1616C31.7573 10.1616 28.7029 7.47741 25.0546 7.47741C23.5274 7.47741 21.8305 8.15909 21.8305 9.86331C21.8305 13.6978 35.4905 13.0161 35.4905 22.645C35.4905 27.715 31.6301 32.1034 24.8001 32.1034C17.6731 32.1034 13.7278 27.7576 13.7278 27.7576Z" fill="white"/>
<path d="M39.4391 23.8805V9.65029H46.7782V22.5171C46.7782 24.5622 47.5842 25.4143 49.1115 25.4143C52.2507 25.4143 53.7355 22.645 53.7355 19.3643V9.65029H61.0746V31.5921H54.0325V29.6749C54.0325 28.9506 54.1173 28.3115 54.1173 28.3115H54.0325C52.8446 30.6548 50.1296 32.1034 47.2024 32.1034C42.8753 32.1034 39.4391 30.0583 39.4391 23.8805Z" fill="white"/>
<path d="M64.8018 28.8654L67.9411 23.9231C67.9411 23.9231 70.3592 26.1386 73.4984 26.1386C74.6014 26.1386 75.662 25.8404 75.662 25.1161C75.662 23.1988 65.4382 22.9858 65.4382 15.8281C65.4382 11.6954 69.3834 9.13902 74.4317 9.13902C79.5224 9.13902 82.1102 11.6527 82.1102 11.6527L79.6073 16.8932C79.6073 16.8932 77.4861 15.1038 74.4317 15.1038C73.3287 15.1038 72.2682 15.402 72.2682 16.1689C72.2682 17.8305 82.492 18.0862 82.492 25.1587C82.492 28.908 79.183 32.1034 73.5408 32.1034C68.0683 32.1034 64.8018 28.8654 64.8018 28.8654Z" fill="white"/>
<path d="M87.5701 23.4971V15.7855H84.7702V10.0337H87.7822V3.72812H94.9092V10.0337H99.4908V15.7855H94.9092V22.5171C94.9092 24.9883 97.4121 25.3291 98.8121 25.3291C99.406 25.3291 99.7878 25.2865 99.7878 25.2865V31.6773C99.7878 31.6773 98.9818 31.8051 97.7939 31.8051C94.3153 31.8051 87.5701 30.8678 87.5701 23.4971Z" fill="white"/>
<path d="M102.42 25.0309C102.42 18.64 111.71 17.9158 115.104 17.9158H115.401V17.5323C115.401 15.7003 114.001 15.1038 112.177 15.1038C109.419 15.1038 106.28 17.1915 106.28 17.1915L103.735 11.9936C103.735 11.9936 107.51 9.13902 112.898 9.13902C119.049 9.13902 122.74 12.5049 122.74 18.0862V31.5921H116.037V30.2713C116.037 29.5471 116.122 28.908 116.122 28.908H116.037C116.037 28.908 114.425 32.1034 109.844 32.1034C105.771 32.1034 102.42 29.3766 102.42 25.0309ZM109.801 24.6474C109.801 25.67 110.437 26.4795 111.88 26.4795C113.789 26.4795 115.486 24.3918 115.486 22.6024V22.1337H114.807C112.474 22.1337 109.801 22.8154 109.801 24.6474Z" fill="white"/>
<path d="M127.897 6.88093V1.12919H135.067V6.88093H127.897ZM127.812 31.5921V9.65029H135.152V31.5921H127.812Z" fill="white"/>
<path d="M140.572 31.5921V9.65029H147.614V11.5675C147.614 12.2918 147.53 12.9309 147.53 12.9309H147.614C148.633 11.2267 150.711 9.13902 154.572 9.13902C158.984 9.13902 162.42 11.1841 162.42 17.3619V31.5921H155.081V18.7253C155.081 16.6802 154.275 15.8281 152.663 15.8281C150.372 15.8281 148.972 17.1062 148.336 18.9809C148.039 19.833 147.911 20.8129 147.911 21.8781V31.5921H140.572Z" fill="white"/>
<path d="M165.888 25.0309C165.888 18.64 175.178 17.9158 178.572 17.9158H178.869V17.5323C178.869 15.7003 177.469 15.1038 175.645 15.1038C172.887 15.1038 169.748 17.1915 169.748 17.1915L167.203 11.9936C167.203 11.9936 170.978 9.13902 176.366 9.13902C182.517 9.13902 186.208 12.5049 186.208 18.0862V31.5921H179.505V30.2713C179.505 29.5471 179.59 28.908 179.59 28.908H179.505C179.505 28.908 177.893 32.1034 173.312 32.1034C169.239 32.1034 165.888 29.3766 165.888 25.0309ZM173.269 24.6474C173.269 25.67 173.906 26.4795 175.348 26.4795C177.257 26.4795 178.954 24.3918 178.954 22.6024V22.1337H178.275C175.942 22.1337 173.269 22.8154 173.269 24.6474Z" fill="white"/>
<path d="M191.281 31.5921V1.12919H198.62V9.60768C198.62 10.7154 198.535 11.4823 198.535 11.4823H198.62C198.62 11.4823 200.656 9.13902 204.516 9.13902C210.455 9.13902 214.358 13.8256 214.358 20.6425C214.358 27.5872 209.989 32.1034 204.177 32.1034C200.147 32.1034 198.195 29.6323 198.195 29.6323H198.111C198.111 29.6323 198.153 30.1861 198.153 30.8678V31.5921H191.281ZM198.407 20.7703C198.407 23.4119 199.807 26.0108 202.692 26.0108C204.983 26.0108 206.977 24.1362 206.977 20.7703C206.977 17.4897 205.238 15.3594 202.692 15.3594C200.486 15.3594 198.407 16.9784 198.407 20.7703Z" fill="white"/>
<path d="M218.377 6.88093V1.12919H225.546V6.88093H218.377ZM218.292 31.5921V9.65029H225.631V31.5921H218.292Z" fill="white"/>
<path d="M230.755 23.4971V1.12919H238.094V22.5171C238.094 24.6048 238.476 25.3291 240.13 25.3291C240.597 25.3291 241.021 25.2865 241.021 25.2865V31.6773C241.021 31.6773 240.003 31.8051 238.815 31.8051C234.912 31.8051 230.755 30.8678 230.755 23.4971Z" fill="white"/>
<path d="M244.849 6.88093V1.12919H252.019V6.88093H244.849ZM244.764 31.5921V9.65029H252.103V31.5921H244.764Z" fill="white"/>
<path d="M258.627 23.4971V15.7855H255.827V10.0337H258.839V3.72812H265.966V10.0337H270.548V15.7855H265.966V22.5171C265.966 24.9883 268.469 25.3291 269.869 25.3291C270.463 25.3291 270.845 25.2865 270.845 25.2865V31.6773C270.845 31.6773 270.039 31.8051 268.851 31.8051C265.372 31.8051 258.627 30.8678 258.627 23.4971Z" fill="white"/>
<path d="M272.459 39.0055L274.792 33.5946C274.792 33.5946 275.98 34.4041 277.04 34.4041C278.228 34.4041 279.798 34.0632 280.561 32.1886L280.986 31.1661L271.695 9.65029H280.01L283.234 19.7478C283.616 20.9407 284.04 23.1562 284.04 23.1562H284.125C284.125 23.1562 284.549 21.0686 284.846 19.8756L287.603 9.65029H295.621L286.67 33.9354C284.846 38.835 281.028 40.5393 277.549 40.5393C274.665 40.5393 272.459 39.0055 272.459 39.0055Z" fill="white"/>
<defs>
<linearGradient id="paint0_linear_411_961" x1="0.807617" y1="123.904" x2="309.832" y2="63.7798" gradientUnits="userSpaceOnUse">
<stop stop-color="#763F98"/>
<stop offset="0.25" stop-color="#20419A"/>
<stop offset="0.5" stop-color="#00A19C"/>
<stop offset="0.75" stop-color="#BFD730"/>
<stop offset="1" stop-color="#FDB924"/>
</linearGradient>
</defs>
</svg>
