<svg width="856" height="94" viewBox="0 0 856 94" fill="none" xmlns="http://www.w3.org/2000/svg">
<path d="M461.665 20.2396C461.665 9.1939 470.62 0.239594 481.665 0.239594H855.417V73.9984C855.417 85.0441 846.463 93.9984 835.417 93.9984H461.665V20.2396Z" fill="url(#paint0_linear_284_1278)"/>
<path d="M496.346 46.1481C496.346 34.1954 505.518 25.001 517.844 25.001C527.991 25.001 533.208 30.8049 533.208 30.8049L528.564 38.3903C528.564 38.3903 523.978 34.1954 518.303 34.1954C510.449 34.1954 506.722 39.9994 506.722 45.9183C506.722 52.0096 510.735 58.2733 518.303 58.2733C524.494 58.2733 529.195 53.2163 529.195 53.2163L534.354 60.5719C534.354 60.5719 528.564 67.4677 517.844 67.4677C505.002 67.4677 496.346 58.3307 496.346 46.1481Z" fill="white"/>
<path d="M537.09 52.067C537.09 42.7577 544.543 36.494 553.773 36.494C563.117 36.494 570.57 42.7577 570.57 52.067C570.57 61.3189 563.117 67.4677 553.83 67.4677C544.543 67.4677 537.09 61.3189 537.09 52.067ZM547.123 52.067C547.123 56.4918 550.218 59.1927 553.83 59.1927C557.442 59.1927 560.537 56.4918 560.537 52.067C560.537 47.5848 557.442 44.769 553.83 44.769C550.218 44.769 547.123 47.5848 547.123 52.067Z" fill="white"/>
<path d="M575.715 66.7781V37.1836H585.231V39.7695C585.231 40.7464 585.116 41.6084 585.116 41.6084H585.231C586.607 39.3098 589.416 36.494 594.633 36.494C600.595 36.494 605.238 39.2523 605.238 47.5848V66.7781H595.321V49.4236C595.321 46.6653 594.231 45.516 592.053 45.516C588.957 45.516 587.065 47.24 586.206 49.7684C585.804 50.9177 585.632 52.2394 585.632 53.6761V66.7781H575.715Z" fill="white"/>
<path d="M612.16 66.7781V37.1836H621.677V39.7695C621.677 40.7464 621.562 41.6084 621.562 41.6084H621.677C623.053 39.3098 625.862 36.494 631.078 36.494C637.041 36.494 641.684 39.2523 641.684 47.5848V66.7781H631.766V49.4236C631.766 46.6653 630.677 45.516 628.499 45.516C625.403 45.516 623.511 47.24 622.651 49.7684C622.25 50.9177 622.078 52.2394 622.078 53.6761V66.7781H612.16Z" fill="white"/>
<path d="M646.485 51.9521C646.485 43.2749 652.332 36.494 661.849 36.494C670.563 36.494 675.493 42.5853 675.493 50.8028C675.493 51.7797 675.263 53.9059 675.263 53.9059H656.632C657.377 57.5262 660.358 59.1927 663.511 59.1927C667.754 59.1927 671.652 56.2045 671.652 56.2045L675.321 63.1578C675.321 63.1578 670.563 67.4677 662.709 67.4677C652.16 67.4677 646.485 59.8248 646.485 51.9521ZM656.861 48.2169H665.518C665.518 45.9757 663.97 43.9645 661.619 43.9645C658.753 43.9645 657.377 46.0332 656.861 48.2169Z" fill="white"/>
<path d="M678.73 51.9521C678.73 44.0219 684.578 36.494 695.184 36.494C703.209 36.494 706.936 40.9763 706.936 40.9763L702.751 47.6422C702.751 47.6422 699.884 44.769 695.814 44.769C691.113 44.769 688.763 48.3318 688.763 51.8372C688.763 55.3425 691.171 59.1927 696.158 59.1927C700.286 59.1927 704.241 55.6299 704.241 55.6299L707.853 62.5831C707.853 62.5831 703.439 67.4677 695.184 67.4677C684.635 67.4677 678.73 60.1121 678.73 51.9521Z" fill="white"/>
<path d="M713.975 55.8597V45.4585H710.191V37.7008H714.261V29.1959H723.892V37.7008H730.084V45.4585H723.892V54.538C723.892 57.871 727.275 58.3307 729.166 58.3307C729.969 58.3307 730.485 58.2733 730.485 58.2733V66.893C730.485 66.893 729.396 67.0654 727.791 67.0654C723.09 67.0654 713.975 65.8012 713.975 55.8597Z" fill="white"/>
<path d="M736.392 33.4483V25.6906H746.08V33.4483H736.392ZM736.277 66.7781V37.1836H746.195V66.7781H736.277Z" fill="white"/>
<path d="M751.342 52.067C751.342 42.7577 758.795 36.494 768.024 36.494C777.369 36.494 784.821 42.7577 784.821 52.067C784.821 61.3189 777.369 67.4677 768.082 67.4677C758.795 67.4677 751.342 61.3189 751.342 52.067ZM761.374 52.067C761.374 56.4918 764.47 59.1927 768.082 59.1927C771.693 59.1927 774.789 56.4918 774.789 52.067C774.789 47.5848 771.693 44.769 768.082 44.769C764.47 44.769 761.374 47.5848 761.374 52.067Z" fill="white"/>
<path d="M789.966 66.7781V37.1836H799.483V39.7695C799.483 40.7464 799.368 41.6084 799.368 41.6084H799.483C800.858 39.3098 803.668 36.494 808.884 36.494C814.846 36.494 819.49 39.2523 819.49 47.5848V66.7781H809.572V49.4236C809.572 46.6653 808.483 45.516 806.305 45.516C803.209 45.516 801.317 47.24 800.457 49.7684C800.056 50.9177 799.884 52.2394 799.884 53.6761V66.7781H789.966Z" fill="white"/>
<path d="M0 65.0376L6.03908 56.3649C6.03908 56.3649 11.3561 61.1903 17.2639 61.1903C19.627 61.1903 22.187 60.2774 22.187 57.4734C22.187 51.9307 1.05027 52.1264 1.05027 37.7806C1.05027 29.1731 8.33655 23.5 17.6577 23.5C27.7666 23.5 32.7554 28.7819 32.7554 28.7819L27.8979 38.1066C27.8979 38.1066 23.1717 33.9985 17.5264 33.9985C15.1633 33.9985 12.5376 35.0418 12.5376 37.6502C12.5376 43.5189 33.6744 42.4756 33.6744 57.2126C33.6744 64.9724 27.701 71.6888 17.1326 71.6888C6.10472 71.6888 0 65.0376 0 65.0376Z" fill="white"/>
<path d="M39.7843 59.1036V37.3241H51.1403V57.017C51.1403 60.147 52.3875 61.4511 54.7507 61.4511C59.6082 61.4511 61.9057 57.2126 61.9057 52.1916V37.3241H73.2617V70.9063H62.3652V67.9719C62.3652 66.8634 62.4964 65.8853 62.4964 65.8853H62.3652C60.5272 69.4717 56.3261 71.6888 51.7968 71.6888C45.1013 71.6888 39.7843 68.5588 39.7843 59.1036Z" fill="white"/>
<path d="M79.029 66.733L83.8865 59.1688C83.8865 59.1688 87.6281 62.5597 92.4857 62.5597C94.1924 62.5597 95.8334 62.1032 95.8334 60.9947C95.8334 58.0603 80.0136 57.7343 80.0136 46.7793C80.0136 40.4541 86.1184 36.5416 93.9298 36.5416C101.807 36.5416 105.811 40.3889 105.811 40.3889L101.938 48.4095C101.938 48.4095 98.656 45.6708 93.9298 45.6708C92.2231 45.6708 90.582 46.1272 90.582 47.301C90.582 49.8441 106.402 50.2353 106.402 61.0599C106.402 66.7982 101.282 71.6888 92.5513 71.6888C84.0835 71.6888 79.029 66.733 79.029 66.733Z" fill="white"/>
<path d="M114.259 58.5168V46.7141H109.927V37.911H114.588V28.2602H125.615V37.911H132.705V46.7141H125.615V57.017C125.615 60.799 129.488 61.3207 131.655 61.3207C132.574 61.3207 133.164 61.2555 133.164 61.2555V71.0367C133.164 71.0367 131.917 71.2323 130.079 71.2323C124.696 71.2323 114.259 69.7978 114.259 58.5168Z" fill="white"/>
<path d="M137.237 60.8642C137.237 51.083 151.612 49.9745 156.864 49.9745H157.323V49.3876C157.323 46.5837 155.157 45.6708 152.334 45.6708C148.068 45.6708 143.21 48.866 143.21 48.866L139.272 40.9106C139.272 40.9106 145.114 36.5416 153.45 36.5416C162.968 36.5416 168.679 41.6931 168.679 50.2353V70.9063H158.308V68.8848C158.308 67.7763 158.439 66.7982 158.439 66.7982H158.308C158.308 66.7982 155.813 71.6888 148.724 71.6888C142.422 71.6888 137.237 67.5155 137.237 60.8642ZM148.658 60.2774C148.658 61.8424 149.643 63.0813 151.875 63.0813C154.829 63.0813 157.454 59.8861 157.454 57.1474V56.4301H156.404C152.794 56.4301 148.658 57.4734 148.658 60.2774Z" fill="white"/>
<path d="M176.659 33.0856V24.2825H187.753V33.0856H176.659ZM176.528 70.9063V37.3241H187.884V70.9063H176.528Z" fill="white"/>
<path d="M196.272 70.9063V37.3241H207.169V40.2585C207.169 41.367 207.037 42.3451 207.037 42.3451H207.169C208.744 39.7368 211.96 36.5416 217.934 36.5416C224.761 36.5416 230.078 39.6716 230.078 49.1268V70.9063H218.722V51.2134C218.722 48.0835 217.474 46.7793 214.98 46.7793C211.435 46.7793 209.269 48.7355 208.285 51.6047C207.825 52.9089 207.628 54.4086 207.628 56.0388V70.9063H196.272Z" fill="white"/>
<path d="M235.443 60.8642C235.443 51.083 249.819 49.9745 255.07 49.9745H255.53V49.3876C255.53 46.5837 253.364 45.6708 250.541 45.6708C246.274 45.6708 241.417 48.866 241.417 48.866L237.478 40.9106C237.478 40.9106 243.32 36.5416 251.657 36.5416C261.175 36.5416 266.886 41.6931 266.886 50.2353V70.9063H256.515V68.8848C256.515 67.7763 256.646 66.7982 256.646 66.7982H256.515C256.515 66.7982 254.02 71.6888 246.931 71.6888C240.629 71.6888 235.443 67.5155 235.443 60.8642ZM246.865 60.2774C246.865 61.8424 247.85 63.0813 250.082 63.0813C253.036 63.0813 255.661 59.8861 255.661 57.1474V56.4301H254.611C251.001 56.4301 246.865 57.4734 246.865 60.2774Z" fill="white"/>
<path d="M274.735 70.9063V24.2825H286.091V37.2589C286.091 38.9543 285.96 40.1281 285.96 40.1281H286.091C286.091 40.1281 289.242 36.5416 295.215 36.5416C304.405 36.5416 310.444 43.7145 310.444 54.1478C310.444 64.7767 303.683 71.6888 294.69 71.6888C288.454 71.6888 285.435 67.9067 285.435 67.9067H285.303C285.303 67.9067 285.369 68.7544 285.369 69.7978V70.9063H274.735ZM285.763 54.3434C285.763 58.3863 287.929 62.364 292.393 62.364C295.937 62.364 299.022 59.4949 299.022 54.3434C299.022 49.3224 296.331 46.062 292.393 46.062C288.979 46.062 285.763 48.5399 285.763 54.3434Z" fill="white"/>
<path d="M316.662 33.0856V24.2825H327.755V33.0856H316.662ZM316.53 70.9063V37.3241H327.887V70.9063H316.53Z" fill="white"/>
<path d="M335.815 58.5168V24.2825H347.171V57.017C347.171 60.2122 347.762 61.3207 350.322 61.3207C351.044 61.3207 351.7 61.2555 351.7 61.2555V71.0367C351.7 71.0367 350.125 71.2323 348.287 71.2323C342.248 71.2323 335.815 69.7978 335.815 58.5168Z" fill="white"/>
<path d="M357.624 33.0856V24.2825H368.717V33.0856H357.624ZM357.493 70.9063V37.3241H368.849V70.9063H357.493Z" fill="white"/>
<path d="M378.943 58.5168V46.7141H374.611V37.911H379.272V28.2602H390.299V37.911H397.389V46.7141H390.299V57.017C390.299 60.799 394.172 61.3207 396.338 61.3207C397.257 61.3207 397.848 61.2555 397.848 61.2555V71.0367C397.848 71.0367 396.601 71.2323 394.763 71.2323C389.38 71.2323 378.943 69.7978 378.943 58.5168Z" fill="white"/>
<path d="M400.345 82.2525L403.955 73.9711C403.955 73.9711 405.793 75.21 407.435 75.21C409.273 75.21 411.701 74.6884 412.883 71.8192L413.539 70.2542L399.164 37.3241H412.029L417.018 52.7784C417.609 54.6043 418.265 57.9951 418.265 57.9951H418.397C418.397 57.9951 419.053 54.7999 419.513 52.9741L423.779 37.3241H436.186L422.335 74.4927C419.513 81.9917 413.605 84.6 408.222 84.6C403.759 84.6 400.345 82.2525 400.345 82.2525Z" fill="white"/>
<defs>
<linearGradient id="paint0_linear_284_1278" x1="461.665" y1="93.9984" x2="858.663" y2="16.9681" gradientUnits="userSpaceOnUse">
<stop stop-color="#763F98"/>
<stop offset="0.25" stop-color="#20419A"/>
<stop offset="0.5" stop-color="#00A19C"/>
<stop offset="0.75" stop-color="#BFD730"/>
<stop offset="1" stop-color="#FDB924"/>
</linearGradient>
</defs>
</svg>
