<svg width="397" height="209" viewBox="0 0 397 209" fill="none" xmlns="http://www.w3.org/2000/svg">
<path d="M0 50C0 22.3858 22.3858 0 50 0H397V159C397 186.614 374.614 209 347 209H0V50Z" fill="#00A19C"/>
<path d="M45.8076 115.107C45.8076 104.061 54.7619 95.1067 65.8076 95.1067H352.367V147.904C352.367 158.95 343.412 167.904 332.367 167.904H45.8076V115.107Z" fill="url(#paint0_linear_289_391)"/>
<path d="M72.8086 130.752C72.8086 121.471 79.9499 114.332 89.546 114.332C97.4461 114.332 101.508 118.839 101.508 118.839L97.8924 124.728C97.8924 124.728 94.3218 121.471 89.9031 121.471C83.7883 121.471 80.8872 125.978 80.8872 130.573C80.8872 135.303 84.0115 140.166 89.9031 140.166C94.7235 140.166 98.3834 136.24 98.3834 136.24L102.4 141.951C102.4 141.951 97.8924 147.305 89.546 147.305C79.5482 147.305 72.8086 140.211 72.8086 130.752Z" fill="white"/>
<path d="M104.531 135.347C104.531 128.119 110.333 123.256 117.519 123.256C124.794 123.256 130.596 128.119 130.596 135.347C130.596 142.531 124.794 147.305 117.563 147.305C110.333 147.305 104.531 142.531 104.531 135.347ZM112.341 135.347C112.341 138.783 114.752 140.88 117.563 140.88C120.375 140.88 122.785 138.783 122.785 135.347C122.785 131.867 120.375 129.681 117.563 129.681C114.752 129.681 112.341 131.867 112.341 135.347Z" fill="white"/>
<path d="M134.602 146.77V123.791H142.011V125.799C142.011 126.558 141.922 127.227 141.922 127.227H142.011C143.082 125.442 145.269 123.256 149.331 123.256C153.973 123.256 157.588 125.398 157.588 131.867V146.77H149.866V133.295C149.866 131.153 149.018 130.261 147.322 130.261C144.912 130.261 143.439 131.599 142.77 133.563C142.457 134.455 142.323 135.481 142.323 136.597V146.77H134.602Z" fill="white"/>
<path d="M162.977 146.77V123.791H170.386V125.799C170.386 126.558 170.297 127.227 170.297 127.227H170.386C171.457 125.442 173.644 123.256 177.706 123.256C182.348 123.256 185.963 125.398 185.963 131.867V146.77H178.241V133.295C178.241 131.153 177.393 130.261 175.697 130.261C173.287 130.261 171.814 131.599 171.145 133.563C170.832 134.455 170.698 135.481 170.698 136.597V146.77H162.977Z" fill="white"/>
<path d="M189.701 135.258C189.701 128.521 194.253 123.256 201.662 123.256C208.447 123.256 212.285 127.985 212.285 134.366C212.285 135.124 212.107 136.775 212.107 136.775H197.601C198.181 139.586 200.502 140.88 202.957 140.88C206.26 140.88 209.295 138.56 209.295 138.56L212.151 143.959C212.151 143.959 208.447 147.305 202.332 147.305C194.119 147.305 189.701 141.371 189.701 135.258ZM197.779 132.358H204.519C204.519 130.618 203.314 129.056 201.484 129.056C199.252 129.056 198.181 130.662 197.779 132.358Z" fill="white"/>
<path d="M214.806 135.258C214.806 129.101 219.358 123.256 227.615 123.256C233.864 123.256 236.765 126.736 236.765 126.736L233.507 131.912C233.507 131.912 231.275 129.681 228.106 129.681C224.447 129.681 222.617 132.447 222.617 135.169C222.617 137.891 224.491 140.88 228.374 140.88C231.588 140.88 234.668 138.114 234.668 138.114L237.479 143.512C237.479 143.512 234.043 147.305 227.615 147.305C219.403 147.305 214.806 141.594 214.806 135.258Z" fill="white"/>
<path d="M242.245 138.292V130.216H239.3V124.193H242.469V117.589H249.967V124.193H254.787V130.216H249.967V137.266C249.967 139.854 252.6 140.211 254.073 140.211C254.698 140.211 255.1 140.166 255.1 140.166V146.859C255.1 146.859 254.252 146.993 253.002 146.993C249.342 146.993 242.245 146.011 242.245 138.292Z" fill="white"/>
<path d="M259.699 120.891V114.868H267.242V120.891H259.699ZM259.609 146.77V123.791H267.331V146.77H259.609Z" fill="white"/>
<path d="M271.338 135.347C271.338 128.119 277.14 123.256 284.326 123.256C291.602 123.256 297.404 128.119 297.404 135.347C297.404 142.531 291.602 147.305 284.371 147.305C277.14 147.305 271.338 142.531 271.338 135.347ZM279.149 135.347C279.149 138.783 281.559 140.88 284.371 140.88C287.183 140.88 289.593 138.783 289.593 135.347C289.593 131.867 287.183 129.681 284.371 129.681C281.559 129.681 279.149 131.867 279.149 135.347Z" fill="white"/>
<path d="M301.409 146.77V123.791H308.818V125.799C308.818 126.558 308.729 127.227 308.729 127.227H308.818C309.89 125.442 312.077 123.256 316.138 123.256C320.78 123.256 324.395 125.398 324.395 131.867V146.77H316.674V133.295C316.674 131.153 315.826 130.261 314.13 130.261C311.72 130.261 310.247 131.599 309.577 133.563C309.265 134.455 309.131 135.481 309.131 136.597V146.77H301.409Z" fill="white"/>
<path d="M58.7278 71.7576L62.6307 66.0911C62.6307 66.0911 66.0669 69.2439 69.8849 69.2439C71.4121 69.2439 73.0666 68.6474 73.0666 66.8154C73.0666 63.1939 59.4065 63.3217 59.4065 53.9485C59.4065 48.3246 64.1154 44.6179 70.1394 44.6179C76.6725 44.6179 79.8966 48.069 79.8966 48.069L76.7573 54.1616C76.7573 54.1616 73.7029 51.4774 70.0546 51.4774C68.5274 51.4774 66.8305 52.1591 66.8305 53.8633C66.8305 57.6978 80.4905 57.0161 80.4905 66.645C80.4905 71.715 76.6301 76.1034 69.8001 76.1034C62.6731 76.1034 58.7278 71.7576 58.7278 71.7576Z" fill="white"/>
<path d="M84.4391 67.8805V53.6503H91.7782V66.5171C91.7782 68.5622 92.5842 69.4143 94.1115 69.4143C97.2507 69.4143 98.7355 66.645 98.7355 63.3643V53.6503H106.075V75.5921H99.0325V73.6749C99.0325 72.9506 99.1173 72.3115 99.1173 72.3115H99.0325C97.8446 74.6548 95.1296 76.1034 92.2024 76.1034C87.8753 76.1034 84.4391 74.0583 84.4391 67.8805Z" fill="white"/>
<path d="M109.802 72.8654L112.941 67.9231C112.941 67.9231 115.359 70.1386 118.498 70.1386C119.601 70.1386 120.662 69.8404 120.662 69.1161C120.662 67.1988 110.438 66.9858 110.438 59.8281C110.438 55.6954 114.383 53.139 119.432 53.139C124.522 53.139 127.11 55.6527 127.11 55.6527L124.607 60.8932C124.607 60.8932 122.486 59.1038 119.432 59.1038C118.329 59.1038 117.268 59.402 117.268 60.1689C117.268 61.8305 127.492 62.0862 127.492 69.1587C127.492 72.908 124.183 76.1034 118.541 76.1034C113.068 76.1034 109.802 72.8654 109.802 72.8654Z" fill="white"/>
<path d="M132.57 67.4971V59.7855H129.77V54.0337H132.782V47.7281H139.909V54.0337H144.491V59.7855H139.909V66.5171C139.909 68.9883 142.412 69.3291 143.812 69.3291C144.406 69.3291 144.788 69.2865 144.788 69.2865V75.6773C144.788 75.6773 143.982 75.8051 142.794 75.8051C139.315 75.8051 132.57 74.8678 132.57 67.4971Z" fill="white"/>
<path d="M147.42 69.0309C147.42 62.64 156.71 61.9158 160.104 61.9158H160.401V61.5323C160.401 59.7003 159.001 59.1038 157.177 59.1038C154.419 59.1038 151.28 61.1915 151.28 61.1915L148.735 55.9936C148.735 55.9936 152.51 53.139 157.898 53.139C164.049 53.139 167.74 56.5049 167.74 62.0862V75.5921H161.037V74.2713C161.037 73.5471 161.122 72.908 161.122 72.908H161.037C161.037 72.908 159.425 76.1034 154.844 76.1034C150.771 76.1034 147.42 73.3766 147.42 69.0309ZM154.801 68.6474C154.801 69.67 155.437 70.4795 156.88 70.4795C158.789 70.4795 160.486 68.3918 160.486 66.6024V66.1337H159.807C157.474 66.1337 154.801 66.8154 154.801 68.6474Z" fill="white"/>
<path d="M172.897 50.8809V45.1292H180.067V50.8809H172.897ZM172.812 75.5921V53.6503H180.152V75.5921H172.812Z" fill="white"/>
<path d="M185.572 75.5921V53.6503H192.614V55.5675C192.614 56.2918 192.53 56.9309 192.53 56.9309H192.614C193.633 55.2267 195.711 53.139 199.572 53.139C203.984 53.139 207.42 55.1841 207.42 61.3619V75.5921H200.081V62.7253C200.081 60.6802 199.275 59.8281 197.663 59.8281C195.372 59.8281 193.972 61.1062 193.336 62.9809C193.039 63.833 192.911 64.8129 192.911 65.8781V75.5921H185.572Z" fill="white"/>
<path d="M210.888 69.0309C210.888 62.64 220.178 61.9158 223.572 61.9158H223.869V61.5323C223.869 59.7003 222.469 59.1038 220.645 59.1038C217.887 59.1038 214.748 61.1915 214.748 61.1915L212.203 55.9936C212.203 55.9936 215.978 53.139 221.366 53.139C227.517 53.139 231.208 56.5049 231.208 62.0862V75.5921H224.505V74.2713C224.505 73.5471 224.59 72.908 224.59 72.908H224.505C224.505 72.908 222.893 76.1034 218.312 76.1034C214.239 76.1034 210.888 73.3766 210.888 69.0309ZM218.269 68.6474C218.269 69.67 218.906 70.4795 220.348 70.4795C222.257 70.4795 223.954 68.3918 223.954 66.6024V66.1337H223.275C220.942 66.1337 218.269 66.8154 218.269 68.6474Z" fill="white"/>
<path d="M236.281 75.5921V45.1292H243.62V53.6077C243.62 54.7154 243.535 55.4823 243.535 55.4823H243.62C243.62 55.4823 245.656 53.139 249.516 53.139C255.455 53.139 259.358 57.8256 259.358 64.6425C259.358 71.5872 254.989 76.1034 249.177 76.1034C245.147 76.1034 243.195 73.6323 243.195 73.6323H243.111C243.111 73.6323 243.153 74.1861 243.153 74.8678V75.5921H236.281ZM243.407 64.7703C243.407 67.4119 244.807 70.0108 247.692 70.0108C249.983 70.0108 251.977 68.1362 251.977 64.7703C251.977 61.4897 250.238 59.3594 247.692 59.3594C245.486 59.3594 243.407 60.9784 243.407 64.7703Z" fill="white"/>
<path d="M263.377 50.8809V45.1292H270.546V50.8809H263.377ZM263.292 75.5921V53.6503H270.631V75.5921H263.292Z" fill="white"/>
<path d="M275.755 67.4971V45.1292H283.094V66.5171C283.094 68.6048 283.476 69.3291 285.13 69.3291C285.597 69.3291 286.021 69.2865 286.021 69.2865V75.6773C286.021 75.6773 285.003 75.8051 283.815 75.8051C279.912 75.8051 275.755 74.8678 275.755 67.4971Z" fill="white"/>
<path d="M289.849 50.8809V45.1292H297.019V50.8809H289.849ZM289.764 75.5921V53.6503H297.103V75.5921H289.764Z" fill="white"/>
<path d="M303.627 67.4971V59.7855H300.827V54.0337H303.839V47.7281H310.966V54.0337H315.548V59.7855H310.966V66.5171C310.966 68.9883 313.469 69.3291 314.869 69.3291C315.463 69.3291 315.845 69.2865 315.845 69.2865V75.6773C315.845 75.6773 315.039 75.8051 313.851 75.8051C310.372 75.8051 303.627 74.8678 303.627 67.4971Z" fill="white"/>
<path d="M317.459 83.0055L319.792 77.5946C319.792 77.5946 320.98 78.4041 322.04 78.4041C323.228 78.4041 324.798 78.0632 325.561 76.1886L325.986 75.1661L316.695 53.6503H325.01L328.234 63.7478C328.616 64.9407 329.04 67.1562 329.04 67.1562H329.125C329.125 67.1562 329.549 65.0686 329.846 63.8756L332.603 53.6503H340.621L331.67 77.9354C329.846 82.835 326.028 84.5393 322.549 84.5393C319.665 84.5393 317.459 83.0055 317.459 83.0055Z" fill="white"/>
<defs>
<linearGradient id="paint0_linear_289_391" x1="45.8076" y1="167.904" x2="354.832" y2="107.78" gradientUnits="userSpaceOnUse">
<stop stop-color="#763F98"/>
<stop offset="0.25" stop-color="#20419A"/>
<stop offset="0.5" stop-color="#00A19C"/>
<stop offset="0.75" stop-color="#BFD730"/>
<stop offset="1" stop-color="#FDB924"/>
</linearGradient>
</defs>
</svg>
