<svg width="1132" height="70" viewBox="0 0 1132 70" fill="none" xmlns="http://www.w3.org/2000/svg">
<g clip-path="url(#clip0_264_416)">
<path fill-rule="evenodd" clip-rule="evenodd" d="M476.074 33.5747C476.074 22.9542 484.853 14.3384 495.678 14.3384C506.504 14.3384 515.282 22.9471 515.282 33.5747C515.282 44.2023 506.504 52.811 495.678 52.811C484.853 52.811 476.074 44.2023 476.074 33.5747Z" fill="#FAB520"/>
<path fill-rule="evenodd" clip-rule="evenodd" d="M1092.78 33.5747C1092.78 22.9542 1101.56 14.3384 1112.39 14.3384C1123.21 14.3384 1131.99 22.9471 1131.99 33.5747C1131.99 44.2023 1123.21 52.811 1112.39 52.811C1101.56 52.811 1092.78 44.2023 1092.78 33.5747Z" fill="#754198"/>
<path fill-rule="evenodd" clip-rule="evenodd" d="M250.629 33.5747C250.629 22.9542 259.407 14.3384 270.233 14.3384C281.058 14.3384 289.837 22.9471 289.837 33.5747C289.837 44.2023 281.058 52.811 270.233 52.811C259.407 52.811 250.629 44.2023 250.629 33.5747Z" fill="#BBD531"/>
<path fill-rule="evenodd" clip-rule="evenodd" d="M0 33.5747C0 22.9542 8.77869 14.3384 19.6043 14.3384C30.4298 14.3384 39.2085 22.9471 39.2085 33.5747C39.2085 44.2023 30.4298 52.811 19.6043 52.811C8.77869 52.811 0 44.1952 0 33.5747Z" fill="#1F4694"/>
<path d="M83.1464 32.4231L64.5471 0.895752H80.2276L86.6121 13.7484C88.4225 17.4094 89.9964 21.4401 89.9964 21.4401H90.1516C90.1516 21.4401 91.7256 17.4094 93.536 13.7484L99.8392 0.895752H115.52L96.9278 32.4231V54.311H83.139V32.4231H83.1464Z" fill="white"/>
<path d="M135.922 14.9426C148.765 14.9426 159.007 23.0822 159.007 35.1884C159.007 47.2946 148.765 55.2067 136.003 55.2067C123.242 55.2067 113 47.2164 113 35.1884C113 23.1604 123.242 14.9426 135.922 14.9426ZM136.003 44.4511C140.969 44.4511 145.218 40.9394 145.218 35.1884C145.218 29.4374 140.962 25.6982 136.003 25.6982C131.045 25.6982 126.789 29.3592 126.789 35.1884C126.789 41.0176 131.045 44.4511 136.003 44.4511Z" fill="white"/>
<path d="M165.539 15.8384H179.165V38.4016C179.165 41.9844 180.665 43.4844 183.495 43.4844C189.326 43.4844 192.082 38.6291 192.082 32.8781V15.8455H205.708V54.3181H192.629V50.9557C192.629 49.6832 192.784 48.5671 192.784 48.5671H192.629C190.419 52.676 185.38 55.2138 179.941 55.2138C171.909 55.2138 165.524 51.631 165.524 40.7973V15.8384H165.539Z" fill="white"/>
<path d="M333.827 0.895752H348.798L356.993 23.459C358.256 26.8925 359.83 32.2738 359.83 32.2738H359.985C359.985 32.2738 361.559 26.8925 362.823 23.459L371.018 0.895752H385.989L390.556 54.311H376.767L375.03 30.2549C374.713 26.2243 375.03 21.2908 375.03 21.2908H374.875C374.875 21.2908 372.983 26.8925 371.727 30.2549L365.816 45.7165H354L348.088 30.2549C346.825 26.8925 344.94 21.2908 344.94 21.2908H344.785C344.785 21.2908 345.103 26.2243 344.785 30.2549L343.049 54.311H329.186L333.834 0.895752H333.827Z" fill="white"/>
<path d="M418.665 14.9426C430.643 14.9426 437.412 22.8618 437.412 33.5463C437.412 34.8187 437.094 37.5769 437.094 37.5769H411.49C412.517 42.2829 416.611 44.4511 420.941 44.4511C426.771 44.4511 432.129 40.5697 432.129 40.5697L437.168 49.6121C437.168 49.6121 430.629 55.2138 419.84 55.2138C405.342 55.2138 397.546 45.2757 397.546 35.0462C397.546 23.7646 405.578 14.9497 418.658 14.9497L418.665 14.9426ZM423.712 30.1838C423.712 27.2692 421.584 24.6532 418.355 24.6532C414.416 24.6532 412.524 27.3403 411.815 30.1838H423.712Z" fill="white"/>
<path d="M553.974 37.648C553.974 37.648 560.358 43.1786 567.445 43.1786C570.282 43.1786 573.356 42.1336 573.356 38.9205C573.356 32.5724 547.988 32.7927 547.988 16.3573C547.988 6.49741 556.73 0 567.918 0C580.051 0 586.037 6.04956 586.037 6.04956L580.206 16.734C580.206 16.734 574.531 12.028 567.762 12.028C564.925 12.028 561.777 13.2223 561.777 16.208C561.777 22.9329 587.145 21.7386 587.145 38.6219C587.145 47.515 579.977 55.2067 567.29 55.2067C554.602 55.2067 546.725 47.5861 546.725 47.5861L553.974 37.648Z" fill="white"/>
<path d="M594.468 15.8384H608.094V38.4016C608.094 41.9844 609.594 43.4844 612.424 43.4844C618.255 43.4844 621.011 38.6291 621.011 32.8781V15.8455H634.637V54.3181H621.558V50.9557C621.558 49.6832 621.713 48.5671 621.713 48.5671H621.558C619.348 52.676 614.309 55.2138 608.87 55.2138C600.838 55.2138 594.453 51.631 594.453 40.7973V15.8384H594.468Z" fill="white"/>
<path d="M647.399 40.8612C647.399 40.8612 651.891 44.7426 657.722 44.7426C659.769 44.7426 661.742 44.2165 661.742 42.9512C661.742 39.5887 642.758 39.2191 642.758 26.665C642.758 19.4212 650.088 14.9355 659.458 14.9355C668.828 14.9355 673.72 19.343 673.72 19.343L669.072 28.5346C669.072 28.5346 665.133 25.3996 659.458 25.3996C657.411 25.3996 655.438 25.9257 655.438 27.2693C655.438 30.1838 674.422 30.6317 674.422 43.0294C674.422 49.605 668.274 55.2067 657.796 55.2067C647.317 55.2067 641.568 49.5268 641.568 49.5268L647.399 40.8612Z" fill="white"/>
<path d="M683.873 26.5939H678.671V16.5065H684.265V5.45239H697.499V16.5065H706.005V26.5939H697.499V38.3944C697.499 42.7307 702.147 43.3279 704.748 43.3279C705.849 43.3279 706.559 43.2568 706.559 43.2568V54.4602C706.559 54.4602 705.059 54.6877 702.857 54.6877C696.398 54.6877 683.873 53.0456 683.873 40.1218V26.601V26.5939Z" fill="white"/>
<path d="M735.001 30.3331H735.555V29.6578C735.555 26.4446 732.954 25.3996 729.57 25.3996C724.449 25.3996 718.618 29.0606 718.618 29.0606L713.889 19.9472C713.889 19.9472 720.902 14.9426 730.907 14.9426C742.331 14.9426 749.181 20.8429 749.181 30.6317V54.311H736.73V51.9935C736.73 50.721 736.885 49.605 736.885 49.605H736.73C736.73 49.605 733.737 55.2067 725.225 55.2067C717.665 55.2067 711.436 50.4225 711.436 42.809C711.436 31.6056 728.69 30.3331 734.993 30.3331H735.001ZM729.015 45.3468C732.562 45.3468 735.71 41.6858 735.71 38.5508V37.7262H734.447C730.116 37.7262 725.151 38.9205 725.151 42.1336C725.151 43.9251 726.333 45.3468 729.008 45.3468H729.015Z" fill="white"/>
<path d="M758.632 15.8384H772.258V54.311H758.632V15.8384ZM758.787 0.895752H772.103V10.9831H758.787V0.895752Z" fill="white"/>
<path d="M782.345 15.8383H795.425V19.2008C795.425 20.4732 795.269 21.5893 795.269 21.5893H795.425C797.316 18.6036 801.174 14.9426 808.341 14.9426C816.536 14.9426 822.913 18.5254 822.913 29.3592V54.311H809.287V31.7477C809.287 28.1649 807.787 26.665 804.794 26.665C800.538 26.665 797.937 28.9042 796.755 32.1956C796.201 33.6884 795.964 35.4088 795.964 37.2784V54.311H782.338V15.8383H782.345Z" fill="white"/>
<path d="M852.929 30.3331H853.483V29.6578C853.483 26.4446 850.882 25.3996 847.498 25.3996C842.377 25.3996 836.547 29.0606 836.547 29.0606L831.818 19.9472C831.818 19.9472 838.83 14.9426 848.835 14.9426C860.26 14.9426 867.11 20.8429 867.11 30.6317V54.311H854.658V51.9935C854.658 50.721 854.814 49.605 854.814 49.605H854.658C854.658 49.605 851.666 55.2067 843.153 55.2067C835.594 55.2067 829.364 50.4225 829.364 42.809C829.364 31.6056 846.619 30.3331 852.922 30.3331H852.929ZM846.944 45.3468C850.491 45.3468 853.639 41.6858 853.639 38.5508V37.7262H852.375C848.045 37.7262 843.079 38.9205 843.079 42.1336C843.079 43.9251 844.261 45.3468 846.936 45.3468H846.944Z" fill="white"/>
<path d="M876.561 0.895752H890.187V15.7602C890.187 17.7009 890.032 19.0444 890.032 19.0444H890.187C890.187 19.0444 893.97 14.9356 901.138 14.9356C912.171 14.9356 919.412 23.1533 919.412 35.1031C919.412 47.053 911.299 55.1996 900.503 55.1996C893.017 55.1996 889.396 50.8703 889.396 50.8703H889.241C889.241 50.8703 889.322 51.8443 889.322 53.0385V54.311H876.561V0.895752ZM897.754 44.5222C902.01 44.5222 905.712 41.238 905.712 35.3306C905.712 29.4232 902.483 25.8404 897.754 25.8404C893.66 25.8404 889.795 28.6768 889.795 35.3306C889.795 39.9655 892.396 44.5222 897.754 44.5222Z" fill="white"/>
<path d="M926.743 15.8384H940.369V54.311H926.743V15.8384ZM926.898 0.895752H940.214V10.9831H926.898V0.895752Z" fill="white"/>
<path d="M949.901 0.895752H963.528V38.3945C963.528 42.0555 964.237 43.328 967.311 43.328C968.176 43.328 968.966 43.2569 968.966 43.2569V54.4603C968.966 54.4603 967.074 54.6878 964.872 54.6878C957.623 54.6878 949.901 53.0456 949.901 40.1219V0.895752Z" fill="white"/>
<path d="M975.897 15.8384H989.524V54.311H975.897V15.8384ZM976.053 0.895752H989.368V10.9831H976.053V0.895752Z" fill="white"/>
<path d="M1001.66 26.5939H996.455V16.5065H1002.05V5.45239H1015.28V16.5065H1023.79V26.5939H1015.28V38.3944C1015.28 42.7307 1019.93 43.3279 1022.53 43.3279C1023.63 43.3279 1024.34 43.2568 1024.34 43.2568V54.4602C1024.34 54.4602 1022.84 54.6877 1020.64 54.6877C1014.18 54.6877 1001.66 53.0456 1001.66 40.1218V26.601V26.5939Z" fill="white"/>
<path d="M1031.67 57.8227C1031.67 57.8227 1033.87 59.2445 1035.84 59.2445C1038.05 59.2445 1040.96 58.6473 1042.38 55.3631L1043.17 53.5717L1025.92 15.8455H1041.36L1047.35 33.5534C1048.06 35.6434 1048.85 39.5319 1048.85 39.5319H1049C1049 39.5319 1049.79 35.8708 1050.34 33.7809L1055.46 15.8526H1070.35L1053.72 58.4341C1050.34 67.0215 1043.25 70.0142 1036.79 70.0142C1031.43 70.0142 1027.34 67.3271 1027.34 67.3271L1031.67 57.8369V57.8227Z" fill="white"/>
</g>
<defs>
<clipPath id="clip0_264_416">
<rect width="1132" height="70" fill="white"/>
</clipPath>
</defs>
</svg>
