<svg width="262" height="108" viewBox="0 0 262 108" fill="none" xmlns="http://www.w3.org/2000/svg">
<path d="M33.8643 107.208C23.8577 107.208 14.5069 102.752 8.19811 94.9868C1.88937 87.2215 -0.550248 77.1454 1.4995 67.353C4.68932 52.1119 18.2992 41.043 33.8643 41.043H180.915C181.151 41.043 181.376 41.1493 181.529 41.3325C181.677 41.5157 181.736 41.758 181.689 41.9944L168.179 106.582C168.102 106.948 167.783 107.208 167.405 107.208H33.8643Z" fill="white"/>
<path d="M180.914 41.8289L167.405 106.416H33.864C13.3783 106.416 -1.92694 87.5701 2.26708 67.5066C5.39782 52.5432 18.5824 41.8289 33.864 41.8289H180.914ZM180.92 40.2451H33.864C26.1139 40.2451 18.5292 42.9399 12.5158 47.8273C6.50244 52.7146 2.31433 59.5876 0.725334 67.1816C-1.37167 77.2104 1.12701 87.5228 7.58934 95.4773C14.0458 103.432 23.627 107.994 33.8699 107.994H167.411C168.155 107.994 168.805 107.468 168.959 106.741L182.456 42.2249C182.492 42.1008 182.503 41.9648 182.503 41.8289C182.503 40.9543 181.8 40.251 180.926 40.251L180.92 40.2451Z" fill="white"/>
<path d="M167.511 107.208C167.222 107.208 166.95 107.049 166.814 106.789C160.901 95.5956 168.468 61.0947 178.575 41.7522C178.699 41.5099 178.947 41.3503 179.219 41.3326C180.831 41.2144 182.355 41.1139 183.785 41.0194C192.616 40.4225 197.944 40.062 200.815 38.3895C205.263 35.807 207.809 32.6808 212.434 27.0015L212.7 26.6765C216.238 22.3328 218.282 19.6085 219.747 17.2623C220.675 15.7849 221.366 14.3725 222.169 12.7414C223.02 11.0098 223.983 9.05372 225.495 6.41799C227.468 2.98444 231.242 0.797852 232.979 0.797852C233.05 0.797852 233.115 0.797852 233.174 0.803761C235.549 1.01651 238.768 3.12037 238.478 7.14488C238.195 11.0926 235.094 22.5692 234.149 25.991C233.215 29.3831 232.607 32.9881 232.022 36.4807C231.644 38.7559 231.248 41.0962 230.77 43.336C232.926 43.6728 236.145 44.0747 239.536 44.4943C244.911 45.1621 249.324 45.8594 251.964 46.4445C253.382 46.7636 255.148 47.1536 256.554 48.1524C258.397 49.4643 259.189 51.5327 259.762 53.0456C260.045 53.7902 262.426 60.3855 258.958 63.4881C257.659 64.6523 256.093 65.7515 254.298 66.7739C255.733 69.2087 256.442 71.5135 256.412 73.6351C256.371 76.4481 255.077 78.9183 252.561 80.9808C252.023 81.4241 251.421 81.8614 250.771 82.2869C251.285 84.5739 250.44 87.4815 248.308 90.7496C247.398 92.1384 246.164 93.3735 244.622 94.4195C244.586 96.0861 243.984 97.729 242.838 99.3246C241.556 101.103 239.855 102.421 238.656 103.213C235.98 104.98 232.749 106.044 229.051 106.375C228.561 106.416 228.041 106.469 227.509 106.523C225.672 106.706 223.599 106.913 221.543 106.913C218.985 106.913 216.953 106.582 215.352 105.908C215.323 105.908 215.293 105.914 215.264 105.914C215.264 105.914 167.511 107.208 167.499 107.208H167.511Z" fill="#BFD730"/>
<path d="M232.979 1.57789C233.021 1.57789 233.068 1.57789 233.109 1.57789C235.23 1.767 237.947 3.59902 237.693 7.07393C237.474 10.0642 235.466 18.2433 233.393 25.7663C231.75 31.7233 231.148 38.1472 229.825 43.9683C231.94 44.3288 235.596 44.7838 239.441 45.2625C244.817 45.9303 249.212 46.6217 251.793 47.2009C253.14 47.5023 254.823 47.8746 256.094 48.7847C257.742 49.9607 258.456 51.8223 259.023 53.3174C259.13 53.5952 261.563 60.0841 258.433 62.8853C256.997 64.1677 255.255 65.3614 253.193 66.4665C254.835 69.0314 255.656 71.4366 255.627 73.6114C255.591 76.1821 254.392 78.4514 252.065 80.3603C251.397 80.904 250.653 81.4299 249.856 81.9264C250.594 84.0302 249.832 86.9673 247.652 90.3063C246.725 91.7247 245.455 92.948 243.836 93.9881C243.901 95.6251 243.352 97.2621 242.206 98.8518C240.995 100.536 239.377 101.789 238.231 102.545C235.661 104.241 232.554 105.258 228.992 105.577C228.496 105.624 227.97 105.672 227.427 105.725C225.619 105.902 223.569 106.109 221.555 106.109C219.269 106.109 217.042 105.843 215.282 104.986L215.258 105.11L167.517 106.404C161.888 95.7433 169.118 61.5497 179.284 42.1067C190.909 41.2734 197.708 41.1021 201.223 39.0573C205.878 36.3506 208.518 33.053 213.32 27.161C216.835 22.8469 218.932 20.0576 220.427 17.6641C222.341 14.6029 223.221 11.9613 226.186 6.79026C228.011 3.61083 231.502 1.56607 232.985 1.56607M232.979 0C230.752 0 226.848 2.47026 224.81 6.01609C223.286 8.66955 222.317 10.6434 221.46 12.3868C220.669 14.0001 219.984 15.3948 219.08 16.8427C217.633 19.1593 215.606 21.86 212.086 26.18L211.826 26.4992C207.254 32.1075 204.737 35.1923 200.419 37.7099C197.708 39.2878 192.15 39.6601 183.726 40.2333C182.297 40.3279 180.773 40.4343 179.16 40.5465C178.616 40.5879 178.126 40.907 177.872 41.3916C167.677 60.8937 160.098 95.7728 166.111 107.161C166.383 107.681 166.92 108 167.505 108C167.517 108 167.535 108 167.547 108L215.223 106.706C216.888 107.374 218.968 107.705 221.549 107.705C223.64 107.705 225.731 107.498 227.574 107.314C228.112 107.261 228.626 107.208 229.122 107.167C232.95 106.824 236.299 105.719 239.087 103.881C240.339 103.054 242.123 101.671 243.476 99.7973C244.628 98.2017 245.266 96.5411 245.39 94.8568C246.867 93.799 248.066 92.5697 248.964 91.1928C251.061 87.9838 251.97 85.0644 251.634 82.6651C252.142 82.3164 252.614 81.9618 253.057 81.6013C255.763 79.3852 257.157 76.7081 257.198 73.6527C257.228 71.5903 256.607 69.38 255.361 67.0693C256.92 66.1356 258.303 65.1369 259.478 64.0849C263.347 60.6277 260.796 53.5656 260.494 52.7737C259.88 51.1663 259.041 48.9679 257.003 47.52C255.473 46.4267 253.542 45.9953 252.13 45.6821C249.472 45.0911 245.03 44.3938 239.631 43.7201C236.659 43.3477 233.812 42.9932 231.709 42.6918C232.117 40.6884 232.459 38.6318 232.796 36.6225C233.375 33.1535 233.977 29.5663 234.905 26.2155C235.856 22.776 238.969 11.2344 239.258 7.21576C239.56 3.07896 236.429 0.319124 233.239 0.0354583C233.156 0.0295486 233.068 0.0236389 232.973 0.0236389L232.979 0Z" fill="white"/>
<path d="M228.236 57.9158C228.225 57.7503 228.272 57.0116 228.721 50.5937C228.892 48.1648 229.063 45.7004 229.164 44.1994L230.96 43.9512C230.859 45.4522 230.688 47.9284 230.516 50.3573C230.292 53.5604 230.038 57.1889 230.032 57.4962L229.412 57.6144L228.23 57.9276L228.236 57.9158Z" fill="white"/>
<path d="M227.314 73.9603C223.923 73.9603 219.912 73.3162 219.02 70.8932C218.028 68.2102 220.349 62.7496 221.873 60.5808C222.96 59.0324 227.521 57.2654 234.355 54.7538C236.73 53.8791 238.974 53.0518 239.872 52.5908L240.428 54.1214C239.412 54.6415 237.208 55.4511 234.662 56.3908C230.959 57.7559 224.059 60.2912 223.291 61.3608C221.968 63.2519 220.013 68.0861 220.727 70.0127C221.1 71.0232 222.641 71.7501 225.063 72.0574C227.491 72.3706 230.013 72.1697 231.425 71.9038C240.658 70.184 247.611 68.0329 252.685 65.3322L253.275 66.845C248.006 69.6522 240.847 71.8742 231.402 73.6353C230.474 73.8067 228.968 73.9603 227.314 73.9603Z" fill="white"/>
<path d="M230.179 87.1444C228.726 87.1444 227.255 87.0794 225.755 86.9553C221.49 86.5948 218.749 84.0655 217.603 81.8198C216.705 80.0646 216.587 78.1912 217.272 76.6842C218.005 75.0709 218.968 73.3512 221.029 71.6787L221.992 72.9434C220.403 74.2258 219.606 75.5318 218.897 77.1038C218.448 78.0967 218.578 79.4736 219.251 80.7915C220.232 82.7181 222.594 84.8869 226.275 85.2001C232.199 85.7025 237.722 85.1824 243.145 83.6045C245.23 83.0017 247.41 82.0266 249.283 80.8624L250.009 82.2985C247.965 83.569 245.585 84.6328 243.316 85.2947C239.034 86.5357 234.704 87.1503 230.185 87.1503L230.179 87.1444Z" fill="white"/>
<path d="M226.706 98.58C224.444 98.58 222.181 98.2609 219.623 97.3922C216.658 96.3816 215.447 94.5851 214.177 92.3394C213.527 91.1988 213.521 89.5382 214.154 87.6707C214.963 85.2891 216.67 83.0139 218.613 81.7314L219.387 83.132C217.857 84.1367 216.505 85.9628 215.849 87.8953C215.382 89.2781 215.359 90.5015 215.79 91.2579C217.001 93.3854 217.981 94.851 220.504 95.7138C225.158 97.3035 228.673 96.9312 233.505 96.1807C237.48 95.5661 240.688 94.5141 243.045 93.0485L243.766 94.4846C241.155 96.1039 237.67 97.2622 233.416 97.9181C231.006 98.2905 228.85 98.58 226.694 98.58H226.706Z" fill="white"/>
<path d="M167.31 107.308C165.36 105.068 164.433 100.742 164.545 94.4545C164.64 89.0412 165.52 82.2923 167.091 74.9466C170.157 60.5623 175.284 46.5977 179.555 40.9775L180.92 41.8285C172.378 53.0629 161.35 97.4626 168.781 106.02L167.31 107.314V107.308Z" fill="white"/>
<path d="M221.454 106.546C217.963 106.546 214.572 105.943 212.706 103.567L212.617 103.455C212.074 102.775 210.94 101.357 211.383 99.2415C211.708 97.6931 212.57 96.2039 213.74 95.1461C214.691 94.2951 215.955 93.7809 217.036 93.8282L216.604 95.5893C216.02 95.5716 215.317 95.8611 214.797 96.328C213.976 97.0667 213.373 98.1246 213.137 99.2415C212.848 100.618 213.639 101.605 214.112 102.196L214.206 102.315C216.693 105.476 222.718 104.879 227.556 104.401C228.1 104.347 228.631 104.294 229.133 104.247L228.927 106.002C228.43 106.049 227.911 106.097 227.367 106.15C225.548 106.333 223.48 106.534 221.448 106.534L221.454 106.546Z" fill="white"/>
<path d="M40.243 93.9708C40.0067 93.9708 39.7822 93.8644 39.6346 93.6812C39.4869 93.498 39.4219 93.2616 39.4692 93.0311L44.7914 65.6751H34.9385C34.7022 65.6751 34.4777 65.5687 34.33 65.3855C34.1823 65.2023 34.1174 64.9659 34.1646 64.7354L35.6178 57.2242C35.6886 56.8519 36.0135 56.5859 36.3916 56.5859H66.7775C67.0138 56.5859 67.2383 56.6923 67.386 56.8755C67.5336 57.0587 67.5986 57.2951 67.5513 57.5256L66.0982 65.0368C66.0273 65.4091 65.7024 65.6751 65.3244 65.6751H55.1583L49.777 93.3325C49.7061 93.7048 49.3812 93.9708 49.0032 93.9708H40.243Z" fill="#20419A"/>
<path d="M66.7778 57.3719L65.3247 64.8831H54.5088L49.0034 93.1788H40.2433L45.7486 64.8831H34.9328L36.386 57.3719H66.7719M66.7778 55.7881H36.386C35.6298 55.7881 34.9801 56.3259 34.8383 57.0646L33.3852 64.5758C33.2966 65.0368 33.4147 65.5155 33.716 65.8819C34.0172 66.2483 34.4602 66.4551 34.9328 66.4551H43.8289L38.6897 92.8715C38.6011 93.3325 38.7192 93.8112 39.0205 94.1776C39.3218 94.544 39.7648 94.7508 40.2374 94.7508H48.9975C49.7536 94.7508 50.4034 94.213 50.5452 93.4743L55.8025 66.4551H65.3128C66.069 66.4551 66.7187 65.9173 66.8605 65.1786L68.2959 57.7383C68.3255 57.6201 68.3373 57.496 68.3373 57.366C68.3373 56.4913 67.6343 55.7881 66.7601 55.7881H66.7778Z" fill="white"/>
<path d="M62.1699 93.9703C61.9336 93.9703 61.7091 93.8639 61.5615 93.6807C61.4138 93.4975 61.3488 93.2611 61.3961 93.0306L66.3994 67.2407C66.4702 66.8683 66.7951 66.6024 67.1732 66.6024H75.4844C75.7207 66.6024 75.9452 66.7088 76.0928 66.892C76.2405 67.0752 76.3055 67.3116 76.2582 67.548L75.8329 69.7286C77.9004 67.548 80.6531 66.1592 83.2463 66.1592C84.1442 66.1592 84.8412 66.2656 84.8648 66.2656C85.0775 66.2951 85.2665 66.4133 85.3906 66.5906C85.5146 66.7679 85.5619 66.9865 85.5205 67.1934L83.8665 75.7093C83.8252 75.922 83.7011 76.1052 83.5239 76.2234C83.394 76.3062 83.2463 76.3534 83.0927 76.3534C83.0336 76.3534 82.9746 76.3475 82.9155 76.3357C82.9155 76.3357 82.3248 76.2057 81.3915 76.2057C79.1586 76.2057 74.5925 77.955 73.3047 84.5798L71.6035 93.3439C71.5326 93.7162 71.2077 93.9821 70.8297 93.9821H62.1699V93.9703Z" fill="#20419A"/>
<path d="M83.2465 66.9334C84.0971 66.9334 84.7469 67.0339 84.7469 67.0339L83.0929 75.5498C83.0929 75.5498 82.4431 75.402 81.3917 75.402C78.7866 75.402 73.8838 77.4527 72.5311 84.4143L70.8298 93.1784H62.1701L67.1734 67.3885H75.4846L74.634 71.7439C74.4863 72.5949 74.2323 73.3454 74.2323 73.3454H74.2796C75.9335 69.841 79.5841 66.9334 83.2406 66.9334M83.2465 65.3555C81.1199 65.3555 78.9402 66.1711 77.0559 67.5598C77.1031 67.1403 76.9791 66.7088 76.7074 66.3779C76.4061 66.0115 75.9631 65.8047 75.4905 65.8047H67.1793C66.4232 65.8047 65.7734 66.3424 65.6316 67.0812L60.6283 92.8711C60.5397 93.3321 60.6579 93.8108 60.9591 94.1772C61.2604 94.5436 61.7034 94.7504 62.176 94.7504H70.8357C71.5918 94.7504 72.2416 94.2126 72.3834 93.4739L74.0846 84.7098C75.2719 78.5874 79.3892 76.974 81.3976 76.974C82.2305 76.974 82.7503 77.0863 82.7562 77.0863C82.8684 77.1099 82.9807 77.1218 83.0929 77.1218C83.4001 77.1218 83.7072 77.0331 83.9671 76.8617C84.3216 76.6253 84.5697 76.2648 84.6524 75.8453L86.3063 67.3294C86.389 66.9098 86.2945 66.4725 86.0464 66.1179C85.7983 65.7633 85.4203 65.5328 84.995 65.4678C84.9182 65.456 84.1975 65.3496 83.2524 65.3496L83.2465 65.3555Z" fill="white"/>
<path d="M92.9048 94.5673C87.2518 94.5673 84.0088 91.6125 84.0088 86.4651C84.0088 85.5078 84.186 84.4558 84.375 83.463L87.5294 67.2349C87.6003 66.8626 87.9252 66.5967 88.3032 66.5967H96.963C97.1993 66.5967 97.4237 66.7031 97.5714 66.8863C97.7191 67.0695 97.7841 67.3058 97.7368 67.5422L94.8305 82.3638C94.7301 82.9607 94.6947 83.4571 94.6947 83.7171C94.6947 84.7986 95.0491 85.1295 96.2069 85.1295C99.2785 85.1295 101.553 81.7965 102.138 78.6643L104.341 67.2408C104.412 66.8685 104.737 66.6026 105.115 66.6026H113.774C114.011 66.6026 114.235 66.709 114.383 66.8922C114.531 67.0754 114.596 67.3118 114.548 67.5422L109.545 93.3322C109.474 93.7045 109.149 93.9705 108.771 93.9705H100.413C100.176 93.9705 99.952 93.8641 99.8043 93.6809C99.6566 93.4977 99.5916 93.2613 99.6389 93.0308L99.8338 92.0084C98.0794 93.4504 95.6339 94.5733 92.9048 94.5733V94.5673Z" fill="#20419A"/>
<path d="M113.78 67.3885L108.777 93.1785H100.418L100.666 91.8783C100.914 90.5782 101.316 89.3253 101.316 89.3253H101.216C99.7625 91.6301 96.4604 93.7813 92.9044 93.7813C88.4505 93.7813 84.794 91.8311 84.794 86.471C84.794 85.62 84.9417 84.6685 85.1425 83.6166L88.2969 67.3885H96.9566L94.0504 82.2101C93.9499 82.8128 93.9027 83.3624 93.9027 83.7111C93.9027 85.2654 94.6529 85.9154 96.2064 85.9154C99.5085 85.9154 102.214 82.5587 102.917 78.8061L105.12 67.3885H113.78ZM113.78 65.8047H105.114C104.358 65.8047 103.708 66.3425 103.567 67.0871L101.363 78.5047C100.826 81.3768 98.7524 84.3376 96.2064 84.3376C95.728 84.3376 95.5626 84.2489 95.5448 84.2371C95.5448 84.2371 95.4799 84.0952 95.4799 83.7111C95.4799 83.4984 95.5153 83.0492 95.6039 82.4878L98.5043 67.684C98.5929 67.223 98.4747 66.7384 98.1735 66.3779C97.8722 66.0115 97.4292 65.8047 96.9566 65.8047H88.2969C87.5408 65.8047 86.891 66.3425 86.7492 67.0812L83.5948 83.3093C83.3999 84.3494 83.2168 85.4427 83.2168 86.465C83.2168 92.032 86.8378 95.3533 92.9044 95.3533C95.1491 95.3533 97.2106 94.6441 98.9 93.6217C98.9591 93.8226 99.0595 94.0117 99.1954 94.1772C99.4967 94.5377 99.9397 94.7505 100.412 94.7505H108.771C109.527 94.7505 110.177 94.2127 110.318 93.474L115.31 67.7549C115.339 67.6367 115.357 67.5126 115.357 67.3826C115.357 66.5079 114.654 65.8047 113.78 65.8047Z" fill="white"/>
<path d="M128.897 94.5676C119.256 94.5676 114.944 88.5101 114.944 82.5118C114.944 73.0976 121.678 65.9941 130.604 65.9941C137.994 65.9941 142.406 70.0718 142.406 76.9035C142.406 79.3619 141.449 82.1099 141.408 82.2222C141.296 82.5413 141 82.7482 140.664 82.7482H125.24C125.542 84.7102 127.007 85.774 129.452 85.774C132.92 85.774 136.635 83.3273 136.676 83.3037C136.806 83.215 136.96 83.1737 137.114 83.1737C137.196 83.1737 137.285 83.1855 137.368 83.215C137.598 83.2919 137.781 83.4751 137.858 83.7056L140.061 90.1649C140.173 90.4899 140.061 90.8504 139.784 91.0572C139.589 91.1991 134.952 94.5676 128.903 94.5676H128.897ZM132.412 76.212C132.412 76.1707 132.412 76.1352 132.412 76.0998C132.412 74.8351 131.679 74.0845 130.444 74.0845C128.578 74.0845 127.461 75.166 126.806 76.212H132.406H132.412Z" fill="#20419A"/>
<path d="M130.598 66.7859C137.905 66.7859 141.608 70.9404 141.608 76.9033C141.608 79.2554 140.657 81.962 140.657 81.962H124.389C124.389 84.8696 126.244 86.5716 129.446 86.5716C133.203 86.5716 137.107 83.9654 137.107 83.9654L139.311 90.4247C139.311 90.4247 134.756 93.7815 128.896 93.7815C120.083 93.7815 115.73 88.575 115.73 82.5116C115.73 73.5466 122.086 66.7859 130.598 66.7859ZM125.541 77.0038H133.149C133.149 77.0038 133.197 76.401 133.197 76.0996C133.197 74.4981 132.193 73.2925 130.444 73.2925C127.939 73.2925 126.339 74.9472 125.535 76.9979M130.598 65.208C121.223 65.208 114.152 72.6483 114.152 82.5116C114.152 88.906 118.713 95.3594 128.896 95.3594C135.199 95.3594 140.043 91.849 140.244 91.6953C140.799 91.2876 141.024 90.5666 140.799 89.9165L138.625 83.5399H140.657C141.325 83.5399 141.921 83.1144 142.146 82.488C142.187 82.3698 143.186 79.4977 143.186 76.9033C143.186 69.6876 138.359 65.208 130.592 65.208H130.598ZM128.595 75.4259C129.085 75.095 129.694 74.8763 130.45 74.8763C130.674 74.8763 131.241 74.8763 131.495 75.4259H128.595ZM126.28 83.5399H134.644C133.309 84.2018 131.324 84.9878 129.452 84.9878C127.579 84.9878 126.669 84.2905 126.285 83.5399H126.28Z" fill="white"/>
<path fill-rule="evenodd" clip-rule="evenodd" d="M135.726 21.7242C135.726 19.0944 137.84 16.9551 140.445 16.9551C143.05 16.9551 145.165 19.0885 145.165 21.7242C145.165 24.3599 143.05 26.4934 140.445 26.4934C137.84 26.4934 135.726 24.3599 135.726 21.7242Z" fill="#FDB924"/>
<path fill-rule="evenodd" clip-rule="evenodd" d="M181.068 21.7242C181.068 19.0944 183.183 16.9551 185.788 16.9551C188.393 16.9551 190.508 19.0885 190.508 21.7242C190.508 24.3599 188.393 26.4934 185.788 26.4934C183.183 26.4934 181.068 24.3599 181.068 21.7242Z" fill="#763F98"/>
<path fill-rule="evenodd" clip-rule="evenodd" d="M90.3887 21.7242C90.3887 19.0944 92.5034 16.9551 95.1084 16.9551C97.7134 16.9551 99.8282 19.0885 99.8282 21.7242C99.8282 24.3599 97.7134 26.4934 95.1084 26.4934C92.5034 26.4934 90.3887 24.3599 90.3887 21.7242Z" fill="#BED731"/>
<path fill-rule="evenodd" clip-rule="evenodd" d="M45.0459 21.7242C45.0459 19.0944 47.1606 16.9551 49.7656 16.9551C52.3707 16.9551 54.4854 19.0885 54.4854 21.7242C54.4854 24.3599 52.3707 26.4934 49.7656 26.4934C47.1606 26.4934 45.0459 24.3599 45.0459 21.7242Z" fill="#20419A"/>
</svg>
