<svg width="506" height="134" viewBox="0 0 506 134" fill="none" xmlns="http://www.w3.org/2000/svg">
<path d="M349.82 93.8249C349.617 93.8249 349.423 93.733 349.29 93.5748C349.163 93.4167 349.112 93.2075 349.152 93.0034L360.815 37.2449C360.882 36.9286 361.157 36.7041 361.483 36.7041H476.77C485.409 36.7041 493.481 40.5509 498.928 47.2548C504.374 53.9587 506.48 62.6574 504.711 71.1163C501.957 84.2741 490.207 93.8299 476.77 93.8299H349.82V93.8249Z" fill="white"/>
<path d="M476.77 37.3829C494.455 37.3829 507.669 53.6529 504.048 70.9738C501.345 83.8918 489.963 93.1415 476.77 93.1415H349.821L361.483 37.3829H476.77ZM476.77 36.0207H361.483C360.841 36.0207 360.28 36.4748 360.147 37.1023L348.484 92.8609C348.403 93.2639 348.5 93.6823 348.76 93.9986C349.02 94.3149 349.407 94.5037 349.815 94.5037H476.765C483.456 94.5037 490.004 92.1772 495.195 87.958C500.386 83.7387 504.002 77.8052 505.374 71.2493C507.184 62.5914 505.027 53.6886 499.448 46.8214C493.874 39.9543 485.603 36.0156 476.76 36.0156L476.77 36.0207Z" fill="white"/>
<path d="M312.211 132.482C311.028 132.482 309.814 132.181 308.601 131.584C307.372 130.977 306.785 129.155 307.219 121.278V121.151C307.239 120.86 307.254 120.625 307.259 120.452C307.458 115.391 308.045 111.324 308.616 107.396C309.09 104.11 309.238 102.452 309.406 99.1614C307.331 99.3706 303.348 99.7226 298.932 99.7226C292.705 99.7226 287.713 99.0339 284.082 97.6819C283.868 97.6002 283.001 97.1666 282.705 96.5135C281.435 93.7075 281.389 91.8657 281.466 89.3709C281.552 86.4985 282.756 83.6721 284.694 81.8048C284.107 81.1211 283.658 80.3099 283.261 79.514C282.618 78.2386 282.317 76.1672 282.511 74.356C282.781 71.8306 285.051 68.4684 286.912 67.0348C287.06 66.9226 287.218 66.8154 287.386 66.7236C286.494 65.2236 286.31 63.1931 286.83 60.6728C287.055 59.581 288.784 54.7342 291.16 53.1373C291.797 52.7087 292.537 52.3771 293.399 52.1322C293.083 50.9435 293.103 49.5915 293.475 48.3109C294.653 44.2549 297.728 41.0713 302.624 38.8571C305.755 37.4388 309.921 36.75 315.352 36.75C315.73 36.75 316.097 36.75 316.449 36.7602C318.014 36.7806 322.461 36.7908 329.662 36.7908C338.138 36.7908 348.816 36.7755 356.644 36.7653C356.644 36.7653 363.977 36.7551 364.926 36.7551C365.13 36.7551 365.329 36.8469 365.456 37.0102C365.517 37.0867 365.563 37.1786 365.589 37.2755C368.348 44.9742 368.623 55.0505 366.364 65.6573C365.283 70.7388 363.681 75.6672 361.606 80.315C359.734 84.5037 356.863 90.2994 353.798 94.136C353.686 94.2789 353.523 94.3656 353.339 94.386C353.314 94.386 353.288 94.386 353.263 94.386C353.197 94.386 353.125 94.3758 353.064 94.3554H352.824C352.131 94.3401 351.335 94.3299 350.473 94.3299C347.465 94.3299 343.048 94.4524 339.392 95.5238C334.277 97.0186 330.702 99.942 328.464 104.467C325.016 111.426 322.655 116.809 320.58 122.472C318.285 128.732 317.821 129.895 317.168 130.477C315.664 131.808 313.991 132.487 312.206 132.487L312.211 132.482Z" fill="#FDB924"/>
<path d="M315.363 37.4239C315.74 37.4239 316.102 37.4239 316.449 37.4341C318.223 37.4596 323.359 37.4647 329.728 37.4647C338.357 37.4647 349.239 37.4494 357.088 37.4392C361.32 37.4341 363.513 37.429 364.936 37.429C367.669 45.0257 367.945 54.9948 365.706 65.5047C364.635 70.5352 363.049 75.4228 360.994 80.0247C358.877 84.7592 356.119 90.1366 353.273 93.6977L353.237 93.6671H352.845C352.146 93.6518 351.35 93.6416 350.484 93.6416C347.148 93.6416 342.798 93.8151 339.208 94.861C333.905 96.4119 330.192 99.4527 327.857 104.157C324.623 110.682 322.165 116.172 319.947 122.233C317.805 128.079 317.249 129.493 316.724 129.957C315.342 131.181 313.817 131.794 312.216 131.794C311.145 131.794 310.034 131.518 308.906 130.962C308.009 130.523 307.494 128.712 307.902 121.304C307.922 120.952 307.938 120.666 307.943 120.472C308.136 115.447 308.723 111.396 309.289 107.483C309.799 103.968 309.937 102.274 310.125 98.3966C308.402 98.5751 303.98 99.0343 298.932 99.0343C293.883 99.0343 288.498 98.5955 284.321 97.0395C284.107 96.9578 283.495 96.6007 283.327 96.2283C282.113 93.5498 282.072 91.8559 282.149 89.3866C282.23 86.6673 283.373 83.999 285.209 82.2491C285.362 82.1062 285.52 81.9685 285.678 81.8358C284.882 81.1267 284.332 80.1267 283.867 79.2033C283.291 78.0502 283.011 76.086 283.184 74.4279C283.429 72.1371 285.571 68.923 287.325 67.571C287.641 67.3312 288.008 67.1424 288.426 67.0047C287.238 65.6322 286.927 63.5558 287.498 60.8059C287.753 59.5763 289.457 55.1019 291.542 53.6989C292.317 53.1785 293.251 52.8316 294.286 52.6071C293.786 51.4133 293.72 49.9286 294.138 48.4899C295.26 44.6329 298.208 41.5972 302.909 39.4647C306.79 37.7045 311.676 37.4188 315.363 37.4188M315.363 36.0617C309.824 36.0617 305.571 36.7709 302.348 38.23C297.269 40.5309 294.067 43.8574 292.827 48.1175C292.481 49.3113 292.409 50.5307 292.603 51.6684C291.925 51.9082 291.323 52.2092 290.783 52.5714C288.197 54.306 286.412 59.3365 286.162 60.5355C285.668 62.9282 285.78 64.9231 286.494 66.4945C284.479 68.0454 282.123 71.5453 281.828 74.285C281.624 76.2136 281.95 78.438 282.644 79.8206C282.975 80.4787 283.337 81.1471 283.781 81.7593C281.975 83.7388 280.864 86.5245 280.777 89.3509C280.701 91.9376 280.746 93.8559 282.077 96.7946C282.465 97.6517 283.48 98.1874 283.837 98.32C287.539 99.7027 292.618 100.402 298.927 100.402C302.874 100.402 306.464 100.121 308.677 99.9118C308.524 102.677 308.366 104.305 307.932 107.289C307.361 111.238 306.77 115.325 306.571 120.421C306.566 120.61 306.55 120.881 306.53 121.212C306.117 128.763 306.53 131.324 308.289 132.191C309.595 132.834 310.911 133.161 312.201 133.161C314.159 133.161 315.98 132.426 317.612 130.982C318.392 130.288 318.83 129.197 321.212 122.702C323.282 117.059 325.628 111.697 329.065 104.764C331.217 100.422 334.654 97.6109 339.576 96.1721C343.15 95.1263 347.505 95.0089 350.468 95.0089C351.299 95.0089 352.049 95.0191 352.804 95.0293H352.962C353.059 95.0548 353.156 95.065 353.253 95.065C353.299 95.065 353.35 95.065 353.401 95.0548C353.763 95.014 354.094 94.8354 354.318 94.5497C357.424 90.657 360.331 84.8051 362.218 80.5808C364.314 75.8921 365.93 70.9127 367.022 65.7853C369.301 55.0764 369.021 44.888 366.241 37.077C366.088 36.4903 365.558 36.0566 364.926 36.0566C363.997 36.0566 362.738 36.0566 360.795 36.0566H357.077L356.955 36.0617C349.081 36.0719 338.301 36.0872 329.718 36.0872C322.487 36.0872 318.025 36.077 316.454 36.0566C316.102 36.0566 315.73 36.0464 315.347 36.0464L315.363 36.0617Z" fill="white"/>
<path d="M286.014 83.2647L285.152 82.1882C286.856 80.5658 289.186 79.6576 291.726 79.6321C292.348 79.627 293.648 79.6933 295.306 79.775C299.156 79.9688 304.98 80.2647 307.647 79.9127L307.499 81.4943C304.699 81.8616 298.804 81.5657 294.908 81.3668C293.276 81.2851 291.991 81.2188 291.41 81.2239C290.181 81.2392 287.845 81.5198 286.019 83.2595L286.014 83.2647Z" fill="white"/>
<path d="M288.365 68.4794L287.687 67.2498C289.844 65.6172 293.909 65.9386 298.621 66.3111C302.445 66.6121 306.397 66.9284 309.631 66.2448L309.595 67.8059C306.153 68.5304 302.098 68.209 298.177 67.9029C294.148 67.5814 289.982 67.2549 288.36 68.4794H288.365Z" fill="white"/>
<path d="M294.286 53.9793L294.209 52.4436C297.438 51.5202 302.348 51.7906 306.673 52.0253C309.666 52.1885 312.492 52.3467 314.2 52.0712L314.093 53.6477C312.231 53.9436 309.335 53.7854 306.265 53.6171C302.048 53.3824 297.264 53.1222 294.281 53.9742L294.286 53.9793Z" fill="white"/>
<path d="M353.334 93.7536L352.279 92.8914C357.669 86.1467 362.014 76.3765 364.201 66.086C366.461 55.469 366.241 45.5764 363.589 38.2195L365.012 37.3828C367.756 44.9897 367.985 55.1833 365.665 66.0962C363.416 76.6776 358.918 86.7589 353.329 93.7536H353.334Z" fill="white"/>
<path d="M310.039 98.7333L310.263 97.1466L314.445 96.8252L314.22 98.417L310.039 98.7333Z" fill="white"/>
<path d="M385.651 49.2397H404.534L403.326 55.7243H391.959L390.704 62.2087H400.082L398.874 68.6933H389.455L387.206 80.1521H379.684L385.651 49.2397Z" fill="#763F98"/>
<path d="M416.202 66.2746H416.503C416.544 65.9736 416.59 65.5807 416.59 65.4532C416.59 63.9838 415.555 63.4226 413.78 63.4226C410.97 63.4226 407.339 65.4532 407.339 65.4532L405.738 59.8309C405.738 59.8309 410.317 57.3667 415.244 57.3667C419.002 57.3667 424.061 58.836 424.061 64.4583C424.061 65.1063 423.974 65.8409 423.847 66.6215L421.256 80.1568H414.428L414.688 78.815C414.815 78.0804 415.075 77.4324 415.075 77.4324H414.989C414.989 77.4324 412.566 80.6772 408.42 80.6772C405.09 80.6772 401.893 78.6875 401.893 74.9274C401.893 68.1827 410.496 66.2797 416.197 66.2797L416.202 66.2746ZM411.235 74.9631C413.178 74.9631 415.3 72.8458 415.641 71.0296L415.728 70.5551H415.034C413.433 70.5551 409.415 70.902 409.415 73.5397C409.415 74.3611 409.976 74.9682 411.23 74.9682L411.235 74.9631Z" fill="#763F98"/>
<path d="M427.783 71.5041L432.103 49.2344H439.579L435.428 70.6827C435.3 71.2439 435.213 71.9786 435.213 72.3663C435.213 73.4888 435.994 73.7949 436.901 73.7949C437.376 73.7949 437.809 73.7541 437.809 73.7541L436.555 80.2386C436.555 80.2386 435.56 80.3661 434.525 80.3661C430.593 80.3661 427.482 78.8968 427.482 74.2285C427.482 73.4479 427.569 72.5449 427.783 71.5041Z" fill="#763F98"/>
<path d="M442.996 72.6264C442.996 72.6264 445.285 74.6162 448.615 74.6162C449.783 74.6162 451.038 74.2693 451.038 73.4938C451.038 71.504 442.221 71.1571 442.221 64.5859C442.221 60.2646 446.8 57.3667 451.558 57.3667C456.918 57.3667 459.942 59.9176 459.942 59.9176L456.744 65.0195C456.744 65.0195 454.888 63.4175 451.558 63.4175C450.477 63.4175 449.136 63.7645 449.136 64.5859C449.136 66.3154 457.994 66.7899 457.994 73.4938C457.994 77.8151 454.189 80.6721 448.615 80.6721C443.042 80.6721 439.278 77.4273 439.278 77.4273L442.996 72.6264Z" fill="#763F98"/>
<path d="M474.027 57.3667C480.335 57.3667 483.532 60.9533 483.532 66.1011C483.532 68.1317 482.711 70.4683 482.711 70.4683H468.667C468.667 72.9785 470.268 74.4478 473.032 74.4478C476.276 74.4478 479.646 72.1979 479.646 72.1979L481.549 77.7742C481.549 77.7742 477.617 80.6721 472.558 80.6721C464.949 80.6721 461.191 76.1774 461.191 70.9428C461.191 63.2033 466.678 57.3667 474.027 57.3667ZM476.23 66.1879C476.23 66.1879 476.27 65.6675 476.27 65.4073C476.27 64.0247 475.404 62.9839 473.894 62.9839C471.732 62.9839 470.35 64.4124 469.656 66.1828H476.225L476.23 66.1879Z" fill="#763F98"/>
<path d="M30.0344 93.3073C21.3957 93.3073 13.323 89.4604 7.87663 82.7566C2.43026 76.0527 0.324124 67.354 2.09369 58.9001C4.84747 45.7424 16.597 36.1865 30.0344 36.1865H156.984C157.188 36.1865 157.382 36.2784 157.514 36.4365C157.642 36.5947 157.693 36.8039 157.652 37.0079L145.989 92.7665C145.923 93.0828 145.647 93.3073 145.321 93.3073H30.0344Z" fill="white"/>
<path d="M156.984 36.8654L145.321 92.6239H30.0343C12.3489 92.6239 -0.86422 76.354 2.7565 59.0331C5.45929 46.1151 16.8416 36.8654 30.0343 36.8654H156.984ZM156.989 35.498H30.0343C23.3436 35.498 16.7957 37.8245 11.6043 42.0438C6.41291 46.263 2.79729 52.1965 1.4255 58.7525C-0.384858 67.4104 1.77227 76.3132 7.35124 83.1803C12.9251 90.0474 21.1967 93.9861 30.0394 93.9861H145.326C145.969 93.9861 146.53 93.532 146.662 92.9045L158.315 37.2072C158.345 37.1 158.356 36.9827 158.356 36.8654C158.356 36.1103 157.749 35.5031 156.994 35.5031L156.989 35.498Z" fill="white"/>
<path d="M145.413 93.3075C145.163 93.3075 144.928 93.1697 144.811 92.9453C139.706 83.2823 146.239 53.4974 154.964 36.799C155.071 36.5898 155.286 36.452 155.52 36.4367C156.912 36.3347 158.228 36.248 159.462 36.1663C167.086 35.651 171.686 35.3398 174.164 33.896C178.004 31.6665 180.202 28.9676 184.195 24.0646L184.425 23.784C187.479 20.0342 189.244 17.6822 190.509 15.6567C191.309 14.3813 191.906 13.1619 192.599 11.7538C193.334 10.2589 194.165 8.57021 195.47 6.29477C197.174 3.33057 200.432 1.44287 201.932 1.44287C201.993 1.44287 202.049 1.44287 202.1 1.44797C204.15 1.63164 206.929 3.44791 206.679 6.9223C206.435 10.3304 203.757 20.2382 202.941 23.1922C202.136 26.1207 201.61 29.2329 201.105 32.2481C200.779 34.2123 200.437 36.2327 200.024 38.1663C201.886 38.4571 204.665 38.804 207.592 39.1662C212.233 39.7428 216.042 40.3448 218.322 40.8499C219.546 41.1254 221.07 41.4621 222.284 42.3243C223.875 43.4569 224.559 45.2426 225.053 46.5487C225.298 47.1915 227.353 52.8852 224.36 55.5637C223.238 56.5688 221.886 57.5177 220.336 58.4004C221.575 60.5023 222.187 62.4921 222.162 64.3237C222.126 66.7522 221.009 68.8847 218.837 70.6653C218.373 71.0479 217.853 71.4255 217.292 71.7928C217.735 73.7673 217.006 76.2774 215.165 79.0987C214.38 80.2977 213.314 81.364 211.983 82.267C211.952 83.7057 211.432 85.1241 210.443 86.5016C209.336 88.0372 207.868 89.175 206.832 89.8586C204.522 91.3841 201.733 92.3024 198.54 92.5881C198.117 92.6238 197.668 92.6698 197.209 92.7157C195.623 92.8738 193.833 93.0524 192.059 93.0524C189.851 93.0524 188.096 92.7667 186.714 92.1851C186.689 92.1851 186.663 92.1902 186.638 92.1902C186.638 92.1902 145.413 93.3075 145.403 93.3075H145.413Z" fill="#BFD730"/>
<path d="M201.932 2.11611C201.967 2.11611 202.008 2.11611 202.044 2.11611C203.875 2.27937 206.221 3.86096 206.001 6.86087C205.813 9.44242 204.079 16.5034 202.289 22.9981C200.871 28.1408 200.351 33.6866 199.209 38.712C201.034 39.0232 204.191 39.416 207.511 39.8293C212.151 40.4058 215.946 41.0027 218.174 41.5027C219.337 41.7629 220.79 42.0843 221.887 42.87C223.309 43.8853 223.926 45.4924 224.416 46.7831C224.508 47.0229 226.609 52.6248 223.906 55.0431C222.667 56.1502 221.162 57.1808 219.383 58.1348C220.8 60.3491 221.509 62.4255 221.484 64.303C221.453 66.5224 220.418 68.4815 218.409 70.1294C217.832 70.5988 217.19 71.0528 216.501 71.4814C217.139 73.2977 216.481 75.8333 214.599 78.7159C213.799 79.9403 212.702 80.9964 211.305 81.8943C211.361 83.3076 210.887 84.7208 209.897 86.0932C208.852 87.5472 207.455 88.6288 206.465 89.2819C204.247 90.7461 201.565 91.6236 198.49 91.8991C198.061 91.94 197.607 91.9808 197.138 92.0267C195.578 92.1797 193.808 92.3583 192.069 92.3583C190.096 92.3583 188.173 92.1287 186.653 91.389L186.633 91.4961L145.418 92.6134C140.558 83.4096 146.8 53.8901 155.576 37.1049C165.612 36.3855 171.482 36.2375 174.516 34.4723C178.535 32.1356 180.814 29.2888 184.96 24.2022C187.995 20.4778 189.805 18.0697 191.095 16.0035C192.747 13.3607 193.507 11.0801 196.067 6.61598C197.643 3.87116 200.657 2.10591 201.937 2.10591M201.932 0.753906C200.009 0.753906 196.638 2.8865 194.879 5.94763C193.563 8.23838 192.727 9.94241 191.988 11.4475C191.304 12.8403 190.713 14.0443 189.932 15.2943C188.683 17.2942 186.934 19.6258 183.895 23.3553L183.67 23.6308C179.723 28.4725 177.551 31.1357 173.823 33.3091C171.482 34.6713 166.683 34.9927 159.411 35.4876C158.177 35.5692 156.862 35.661 155.469 35.758C155 35.7937 154.577 36.0692 154.358 36.4875C145.556 53.3238 139.013 83.4351 144.204 93.2665C144.439 93.7154 144.903 93.9909 145.408 93.9909C145.418 93.9909 145.433 93.9909 145.444 93.9909L186.602 92.8736C188.04 93.4501 189.836 93.7358 192.064 93.7358C193.869 93.7358 195.675 93.5573 197.266 93.3991C197.73 93.3532 198.173 93.3073 198.602 93.2716C201.906 92.9756 204.798 92.0216 207.205 90.4349C208.286 89.7206 209.826 88.5268 210.994 86.9095C211.988 85.532 212.539 84.0984 212.646 82.6443C213.921 81.7311 214.956 80.6699 215.731 79.4811C217.542 76.7108 218.327 74.1905 218.036 72.1191C218.475 71.8181 218.883 71.512 219.265 71.2008C221.601 69.2876 222.804 66.9764 222.84 64.3387C222.866 62.5582 222.33 60.6501 221.254 58.6552C222.6 57.8491 223.794 56.9869 224.809 56.0788C228.149 53.0942 225.946 46.9974 225.686 46.3138C225.155 44.9261 224.431 43.0282 222.672 41.7782C221.351 40.8343 219.684 40.4619 218.465 40.1915C216.17 39.6813 212.335 39.0793 207.674 38.4977C205.109 38.1763 202.651 37.8701 200.835 37.61C201.187 35.8804 201.483 34.105 201.774 32.3703C202.273 29.3755 202.794 26.2787 203.594 23.3859C204.415 20.4166 207.103 10.4526 207.353 6.98331C207.613 3.41199 204.91 1.02941 202.156 0.784518C202.085 0.779416 202.008 0.774314 201.927 0.774314L201.932 0.753906Z" fill="white"/>
<path d="M197.837 50.7525C197.826 50.6097 197.867 49.972 198.255 44.4313C198.403 42.3344 198.551 40.2069 198.637 38.9111L200.188 38.6968C200.101 39.9927 199.953 42.1303 199.805 44.2272C199.611 46.9924 199.392 50.125 199.387 50.3903L198.851 50.4923L197.832 50.7627L197.837 50.7525Z" fill="white"/>
<path d="M197.041 64.6042C194.114 64.6042 190.651 64.0481 189.881 61.9563C189.025 59.6401 191.029 54.9259 192.345 53.0535C193.283 51.7168 197.22 50.1914 203.12 48.0231C205.17 47.268 207.108 46.5537 207.883 46.1558L208.362 47.4772C207.485 47.9261 205.583 48.6251 203.385 49.4363C200.188 50.6148 194.231 52.8035 193.568 53.727C192.426 55.3596 190.738 59.5329 191.355 61.1961C191.677 62.0686 193.008 62.6961 195.098 62.9614C197.194 63.2318 199.372 63.0583 200.591 62.8287C208.561 61.3441 214.564 59.487 218.944 57.1554L219.454 58.4615C214.905 60.8849 208.724 62.8032 200.57 64.3236C199.77 64.4715 198.469 64.6042 197.041 64.6042Z" fill="white"/>
<path d="M199.514 75.9864C198.26 75.9864 196.99 75.9303 195.695 75.8231C192.013 75.5119 189.647 73.3283 188.657 71.3896C187.882 69.8743 187.78 68.257 188.372 66.9561C189.004 65.5632 189.835 64.0786 191.615 62.6348L192.446 63.7266C191.075 64.8337 190.386 65.9612 189.774 67.3183C189.387 68.1754 189.499 69.3642 190.08 70.5019C190.927 72.1651 192.966 74.0375 196.144 74.3079C201.258 74.7415 206.027 74.2926 210.708 72.9304C212.508 72.41 214.39 71.5682 216.006 70.5631L216.634 71.8029C214.869 72.8998 212.814 73.8181 210.856 74.3895C207.159 75.4609 203.421 75.9915 199.519 75.9915L199.514 75.9864Z" fill="white"/>
<path d="M196.516 85.8585C194.563 85.8585 192.61 85.583 190.402 84.833C187.842 83.9606 186.796 82.4096 185.7 80.4709C185.139 79.4862 185.134 78.0526 185.679 76.4404C186.378 74.3843 187.852 72.4201 189.53 71.313L190.198 72.5221C188.877 73.3895 187.709 74.9659 187.143 76.6343C186.74 77.8281 186.72 78.8842 187.092 79.5372C188.138 81.3739 188.984 82.6392 191.162 83.3841C195.18 84.7565 198.214 84.435 202.386 83.7871C205.818 83.2565 208.587 82.3484 210.622 81.0831L211.244 82.3229C208.99 83.7208 205.981 84.7208 202.309 85.2871C200.229 85.6085 198.367 85.8585 196.506 85.8585H196.516Z" fill="white"/>
<path d="M145.24 93.394C143.557 91.4604 142.756 87.7258 142.853 82.2974C142.935 77.624 143.694 71.7977 145.051 65.456C147.698 53.038 152.124 40.9823 155.811 36.1304L156.989 36.865C149.615 46.5637 140.094 84.8942 146.509 92.2818L145.24 93.3991V93.394Z" fill="white"/>
<path d="M191.982 92.7362C188.969 92.7362 186.041 92.2159 184.43 90.1649L184.353 90.068C183.884 89.4812 182.905 88.2568 183.288 86.4303C183.568 85.0936 184.313 83.8079 185.322 82.8947C186.143 82.16 187.235 81.7162 188.168 81.757L187.796 83.2773C187.291 83.262 186.684 83.512 186.235 83.9151C185.526 84.5528 185.006 85.4661 184.802 86.4303C184.552 87.6191 185.236 88.4711 185.644 88.9813L185.725 89.0833C187.872 91.8128 193.074 91.2975 197.25 90.8843C197.72 90.8383 198.178 90.7924 198.612 90.7516L198.433 92.2669C198.005 92.3077 197.556 92.3485 197.087 92.3944C195.516 92.5526 193.732 92.726 191.977 92.726L191.982 92.7362Z" fill="white"/>
<path d="M35.5419 81.879C35.3379 81.879 35.1441 81.7872 35.0166 81.6291C34.8891 81.4709 34.833 81.2668 34.8738 81.0678L39.4686 57.4512H30.9624C30.7584 57.4512 30.5647 57.3594 30.4372 57.2012C30.3097 57.043 30.2536 56.839 30.2944 56.64L31.5489 50.1555C31.6101 49.8341 31.8906 49.6045 32.2169 49.6045H58.4493C58.6533 49.6045 58.8471 49.6963 58.9745 49.8545C59.102 50.0126 59.1581 50.2167 59.1173 50.4157L57.8628 56.9002C57.8016 57.2216 57.5212 57.4512 57.1948 57.4512H48.4184L43.7726 81.328C43.7114 81.6495 43.431 81.879 43.1046 81.879H35.5419Z" fill="#20419A"/>
<path d="M58.4493 50.2828L57.1948 56.7673H47.8574L43.1046 81.1952H35.5419L40.2947 56.7673H30.9573L32.2118 50.2828H58.4442M58.4493 48.9155H32.2118C31.5591 48.9155 30.9981 49.3798 30.8757 50.0175L29.6212 56.502C29.5447 56.9 29.6467 57.3132 29.9068 57.6296C30.1669 57.9459 30.5494 58.1244 30.9573 58.1244H38.6373L34.2007 80.9299C34.1242 81.3278 34.2262 81.7411 34.4862 82.0574C34.7463 82.3737 35.1288 82.5523 35.5368 82.5523H43.0995C43.7522 82.5523 44.3132 82.088 44.4356 81.4503L48.9742 58.1244H57.1846C57.8373 58.1244 58.3983 57.6602 58.5207 57.0224L59.7599 50.5991C59.7854 50.4971 59.7956 50.39 59.7956 50.2777C59.7956 49.5227 59.1887 48.9155 58.434 48.9155H58.4493Z" fill="white"/>
<path d="M54.4717 81.8791C54.2677 81.8791 54.0739 81.7873 53.9464 81.6291C53.819 81.471 53.7629 81.2669 53.8037 81.0679L58.123 58.8033C58.1842 58.4819 58.4647 58.2523 58.7911 58.2523H65.9662C66.1702 58.2523 66.364 58.3441 66.4915 58.5023C66.619 58.6604 66.6751 58.8645 66.6343 59.0686L66.2671 60.9512C68.0519 59.0686 70.4284 57.8696 72.6671 57.8696C73.4422 57.8696 74.044 57.9615 74.0644 57.9615C74.248 57.987 74.4111 58.089 74.5182 58.2421C74.6253 58.3951 74.6661 58.5839 74.6304 58.7625L73.2025 66.1143C73.1668 66.298 73.0598 66.4561 72.9068 66.5581C72.7946 66.6296 72.6671 66.6704 72.5345 66.6704C72.4835 66.6704 72.4325 66.6653 72.3815 66.6551C72.3815 66.6551 71.8715 66.5428 71.0658 66.5428C69.1382 66.5428 65.1962 68.053 64.0845 73.7722L62.6158 81.3383C62.5546 81.6597 62.2741 81.8893 61.9477 81.8893H54.4717V81.8791Z" fill="#20419A"/>
<path d="M72.6671 58.5382C73.4015 58.5382 73.9624 58.6249 73.9624 58.6249L72.5345 65.9768C72.5345 65.9768 71.9736 65.8492 71.0659 65.8492C68.8169 65.8492 64.5843 67.6196 63.4165 73.6296L61.9478 81.1957H54.4718L58.7911 58.931H65.9663L65.2319 62.6911C65.1044 63.4258 64.8851 64.0738 64.8851 64.0738H64.9259C66.3538 61.0483 69.5054 58.5382 72.662 58.5382M72.6671 57.176C70.8313 57.176 68.9495 57.8801 67.3228 59.079C67.3636 58.7168 67.2565 58.3443 67.0219 58.0586C66.7618 57.7423 66.3793 57.5637 65.9714 57.5637H58.7962C58.1435 57.5637 57.5825 58.028 57.4601 58.6658L53.1408 80.9304C53.0643 81.3283 53.1663 81.7416 53.4263 82.0579C53.6864 82.3742 54.0689 82.5528 54.4769 82.5528H61.9529C62.6056 82.5528 63.1666 82.0885 63.289 81.4508L64.7577 73.8847C65.7827 68.5991 69.3371 67.2063 71.071 67.2063C71.79 67.2063 72.2388 67.3033 72.2439 67.3033C72.3408 67.3237 72.4377 67.3339 72.5345 67.3339C72.7997 67.3339 73.0649 67.2573 73.2893 67.1094C73.5953 66.9053 73.8094 66.5941 73.8808 66.2318L75.3087 58.88C75.3801 58.5178 75.2985 58.1403 75.0843 57.8341C74.8702 57.528 74.5438 57.3291 74.1766 57.2729C74.1103 57.2627 73.4882 57.1709 72.6722 57.1709L72.6671 57.176Z" fill="white"/>
<path d="M81.005 82.3943C76.1246 82.3943 73.325 79.8434 73.325 75.3996C73.325 74.5731 73.4779 73.665 73.6411 72.8079L76.3643 58.7981C76.4255 58.4767 76.706 58.2471 77.0324 58.2471H84.5084C84.7124 58.2471 84.9061 58.3389 85.0336 58.4971C85.1611 58.6552 85.2172 58.8593 85.1764 59.0634L82.6674 71.8589C82.5807 72.3742 82.5501 72.8028 82.5501 73.0272C82.5501 73.9609 82.8561 74.2466 83.8556 74.2466C86.5074 74.2466 88.4708 71.3691 88.9756 68.6651L90.8778 58.8032C90.939 58.4818 91.2195 58.2522 91.5458 58.2522H99.0218C99.2258 58.2522 99.4196 58.344 99.5471 58.5022C99.6746 58.6603 99.7307 58.8644 99.6899 59.0634L95.3705 81.328C95.3093 81.6494 95.0289 81.879 94.7025 81.879H87.4865C87.2826 81.879 87.0888 81.7872 86.9613 81.629C86.8338 81.4709 86.7777 81.2668 86.8185 81.0678L86.9868 80.1852C85.4722 81.4301 83.361 82.3994 81.005 82.3994V82.3943Z" fill="#20419A"/>
<path d="M99.0269 58.9308L94.7076 81.1954H87.4916L87.7058 80.073C87.92 78.9506 88.2668 77.869 88.2668 77.869H88.1801C86.9256 79.8587 84.0749 81.7158 81.0049 81.7158C77.1598 81.7158 74.0032 80.0322 74.0032 75.4048C74.0032 74.6701 74.1307 73.8487 74.3041 72.9406L77.0273 58.9308H84.5033L81.9943 71.7263C81.9076 72.2467 81.8668 72.7212 81.8668 73.0222C81.8668 74.364 82.5144 74.9252 83.8556 74.9252C86.7063 74.9252 89.0419 72.0273 89.6488 68.7876L91.5509 58.9308H99.0269ZM99.0269 57.5635H91.5458C90.8931 57.5635 90.3321 58.0277 90.2097 58.6706L88.3076 68.5274C87.8435 71.007 86.0536 73.563 83.8556 73.563C83.4426 73.563 83.2998 73.4865 83.2845 73.4763C83.2845 73.4763 83.2284 73.3538 83.2284 73.0222C83.2284 72.8385 83.259 72.4508 83.3355 71.9661L85.8394 59.1859C85.9159 58.7879 85.8139 58.3696 85.5538 58.0584C85.2937 57.742 84.9112 57.5635 84.5033 57.5635H77.0273C76.3745 57.5635 75.8136 58.0278 75.6912 58.6655L72.968 72.6753C72.7997 73.5732 72.6416 74.5171 72.6416 75.3997C72.6416 80.2057 75.7677 83.0729 81.0049 83.0729C82.9428 83.0729 84.7226 82.4607 86.181 81.5781C86.232 81.7515 86.3187 81.9148 86.436 82.0576C86.6961 82.3689 87.0786 82.5525 87.4865 82.5525H94.7025C95.3552 82.5525 95.9162 82.0883 96.0386 81.4505L100.348 59.2471C100.373 59.1451 100.389 59.0379 100.389 58.9257C100.389 58.1706 99.7817 57.5635 99.0269 57.5635Z" fill="white"/>
<path d="M112.077 82.3947C103.754 82.3947 100.031 77.1652 100.031 71.9868C100.031 63.8595 105.845 57.7271 113.55 57.7271C119.93 57.7271 123.739 61.2474 123.739 67.1451C123.739 69.2675 122.913 71.6399 122.877 71.7368C122.781 72.0123 122.526 72.1909 122.235 72.1909H108.92C109.18 73.8847 110.445 74.8031 112.556 74.8031C115.549 74.8031 118.757 72.6909 118.793 72.6705C118.905 72.594 119.037 72.5582 119.17 72.5582C119.241 72.5582 119.318 72.5684 119.389 72.594C119.588 72.6603 119.746 72.8184 119.813 73.0174L121.715 78.5938C121.812 78.8744 121.715 79.1856 121.475 79.3642C121.307 79.4866 117.304 82.3947 112.082 82.3947H112.077ZM115.111 66.5482C115.111 66.5125 115.111 66.4819 115.111 66.4513C115.111 65.3595 114.478 64.7115 113.413 64.7115C111.801 64.7115 110.837 65.6452 110.271 66.5482H115.106H115.111Z" fill="#20419A"/>
<path d="M113.545 58.4101C119.854 58.4101 123.051 61.9967 123.051 67.1445C123.051 69.175 122.23 71.5117 122.23 71.5117H108.186C108.186 74.0218 109.787 75.4912 112.551 75.4912C115.794 75.4912 119.165 73.2412 119.165 73.2412L121.067 78.8176C121.067 78.8176 117.136 81.7155 112.077 81.7155C104.468 81.7155 100.71 77.2207 100.71 71.9862C100.71 64.2466 106.197 58.4101 113.545 58.4101ZM109.18 67.2312H115.748C115.748 67.2312 115.789 66.7108 115.789 66.4506C115.789 65.068 114.922 64.0272 113.413 64.0272C111.251 64.0272 109.869 65.4558 109.175 67.2261M113.545 57.0479C105.452 57.0479 99.3481 63.4711 99.3481 71.9862C99.3481 77.5064 103.285 83.0777 112.077 83.0777C117.518 83.0777 121.7 80.0472 121.873 79.9145C122.352 79.5625 122.546 78.9401 122.352 78.3788L120.476 72.8739H122.23C122.806 72.8739 123.321 72.5066 123.515 71.9658C123.551 71.8637 124.413 69.3842 124.413 67.1445C124.413 60.9151 120.246 57.0479 113.54 57.0479H113.545ZM111.817 65.869C112.24 65.5833 112.765 65.3945 113.418 65.3945C113.612 65.3945 114.101 65.3945 114.321 65.869H111.817ZM109.818 72.8739H117.039C115.886 73.4453 114.173 74.1239 112.556 74.1239C110.94 74.1239 110.154 73.5219 109.823 72.8739H109.818Z" fill="white"/>
<path d="M254.438 87.1891C267.678 87.1891 278.411 76.4511 278.411 63.2052C278.411 49.9592 267.678 39.2212 254.438 39.2212C241.198 39.2212 230.465 49.9592 230.465 63.2052C230.465 76.4511 241.198 87.1891 254.438 87.1891Z" fill="#00A19C" stroke="white" stroke-width="2.85" stroke-miterlimit="10"/>
<path d="M248.212 55.4966C252.587 55.4966 255.749 58.0679 255.749 62.0219C255.749 67.1646 251.205 70.7206 246.687 70.7206C242.169 70.7206 239.15 68.1799 239.15 64.1953C239.15 59.0832 243.668 55.4966 248.212 55.4966ZM246.774 66.6493C248.722 66.6493 250.812 64.981 250.812 62.328C250.812 60.6036 249.685 59.5628 248.161 59.5628C246.243 59.5628 244.096 61.3127 244.096 63.9708C244.096 65.6646 245.223 66.6544 246.779 66.6544L246.774 66.6493Z" fill="white"/>
<path d="M259.614 55.8332H264.301L263.821 58.2923C263.735 58.7719 263.597 59.1954 263.597 59.1954H263.628C264.561 57.2158 266.621 55.5781 268.681 55.5781C269.161 55.5781 269.528 55.6342 269.528 55.6342L268.595 60.4351C268.595 60.4351 268.228 60.3484 267.636 60.3484C266.167 60.3484 263.403 61.5065 262.638 65.4299L261.68 70.3736H256.794L259.619 55.8281L259.614 55.8332Z" fill="white"/>
<path fill-rule="evenodd" clip-rule="evenodd" d="M117.972 19.5088C117.972 17.2385 119.797 15.3916 122.046 15.3916C124.295 15.3916 126.121 17.2334 126.121 19.5088C126.121 21.7843 124.295 23.6261 122.046 23.6261C119.797 23.6261 117.972 21.7843 117.972 19.5088Z" fill="#FDB924"/>
<path fill-rule="evenodd" clip-rule="evenodd" d="M157.116 19.5088C157.116 17.2385 158.942 15.3916 161.191 15.3916C163.44 15.3916 165.266 17.2334 165.266 19.5088C165.266 21.7843 163.44 23.6261 161.191 23.6261C158.942 23.6261 157.116 21.7843 157.116 19.5088Z" fill="#763F98"/>
<path fill-rule="evenodd" clip-rule="evenodd" d="M78.8325 19.5088C78.8325 17.2385 80.6582 15.3916 82.9071 15.3916C85.156 15.3916 86.9817 17.2334 86.9817 19.5088C86.9817 21.7843 85.156 23.6261 82.9071 23.6261C80.6582 23.6261 78.8325 21.7843 78.8325 19.5088Z" fill="#BED731"/>
<path fill-rule="evenodd" clip-rule="evenodd" d="M39.6877 19.5088C39.6877 17.2385 41.5134 15.3916 43.7623 15.3916C46.0113 15.3916 47.8369 17.2334 47.8369 19.5088C47.8369 21.7843 46.0113 23.6261 43.7623 23.6261C41.5134 23.6261 39.6877 21.7843 39.6877 19.5088Z" fill="#20419A"/>
<path fill-rule="evenodd" clip-rule="evenodd" d="M389.434 109.697C389.434 111.967 387.608 113.814 385.359 113.814C383.11 113.814 381.285 111.972 381.285 109.697C381.285 107.421 383.11 105.58 385.359 105.58C387.608 105.58 389.434 107.421 389.434 109.697Z" fill="#FDB924"/>
<path fill-rule="evenodd" clip-rule="evenodd" d="M350.289 109.697C350.289 111.967 348.464 113.814 346.215 113.814C343.966 113.814 342.14 111.972 342.14 109.697C342.14 107.421 343.966 105.58 346.215 105.58C348.464 105.58 350.289 107.421 350.289 109.697Z" fill="#763F98"/>
<path fill-rule="evenodd" clip-rule="evenodd" d="M428.573 109.697C428.573 111.967 426.748 113.814 424.499 113.814C422.25 113.814 420.424 111.972 420.424 109.697C420.424 107.421 422.25 105.58 424.499 105.58C426.748 105.58 428.573 107.421 428.573 109.697Z" fill="#BED731"/>
<path fill-rule="evenodd" clip-rule="evenodd" d="M467.718 109.697C467.718 111.967 465.892 113.814 463.643 113.814C461.394 113.814 459.569 111.972 459.569 109.697C459.569 107.421 461.394 105.58 463.643 105.58C465.892 105.58 467.718 107.421 467.718 109.697Z" fill="#20419A"/>
</svg>
