<svg width="288" height="176" viewBox="0 0 288 176" fill="none" xmlns="http://www.w3.org/2000/svg">
<path d="M141.345 138.8C141.154 138.8 140.973 138.714 140.849 138.566C140.729 138.418 140.682 138.222 140.72 138.031L151.635 85.8488C151.697 85.5527 151.954 85.3427 152.26 85.3427H260.153C268.237 85.3427 275.792 88.9428 280.889 95.2167C285.986 101.491 287.958 109.631 286.301 117.548C283.724 129.862 272.728 138.805 260.153 138.805H141.345V138.8Z" fill="white"/>
<path d="M260.153 85.9776C276.704 85.9776 289.07 101.204 285.681 117.414C283.152 129.504 272.499 138.16 260.153 138.16H141.345L152.26 85.9776H260.153ZM260.153 84.7028H152.26C151.659 84.7028 151.134 85.1277 151.01 85.715L140.095 137.897C140.018 138.275 140.109 138.666 140.352 138.962C140.596 139.258 140.959 139.435 141.34 139.435H260.148C266.41 139.435 272.537 137.258 277.396 133.309C282.254 129.36 285.638 123.807 286.922 117.672C288.616 109.569 286.597 101.237 281.376 94.8108C276.16 88.3841 268.419 84.698 260.143 84.698L260.153 84.7028Z" fill="white"/>
<path d="M106.148 174.978C105.04 174.978 103.905 174.696 102.769 174.137C101.619 173.569 101.07 171.865 101.475 164.492V164.373C101.494 164.101 101.509 163.881 101.514 163.719C101.7 158.983 102.249 155.177 102.783 151.501C103.227 148.426 103.365 146.874 103.523 143.794C101.58 143.99 97.853 144.319 93.72 144.319C87.8927 144.319 83.2204 143.675 79.8224 142.41C79.6219 142.333 78.8106 141.927 78.5338 141.316C77.3454 138.69 77.3025 136.966 77.3741 134.632C77.4552 131.944 78.5815 129.298 80.3951 127.551C79.8463 126.911 79.4263 126.152 79.054 125.407C78.4527 124.213 78.1711 122.275 78.3524 120.58C78.6054 118.216 80.7292 115.07 82.4711 113.728C82.6095 113.623 82.7575 113.523 82.915 113.437C82.0798 112.033 81.908 110.133 82.3948 107.774C82.6048 106.752 84.2227 102.216 86.4467 100.722C87.0432 100.321 87.7353 100.01 88.5418 99.7813C88.2459 98.6688 88.265 97.4035 88.6134 96.205C89.7159 92.4092 92.5937 89.4298 97.1753 87.3576C100.106 86.0302 104.005 85.3856 109.088 85.3856C109.441 85.3856 109.784 85.3856 110.114 85.3952C111.579 85.4143 115.741 85.4238 122.479 85.4238C130.411 85.4238 140.405 85.4095 147.731 85.3999C147.731 85.3999 154.594 85.3904 155.481 85.3904C155.672 85.3904 155.858 85.4763 155.978 85.6291C156.035 85.7007 156.078 85.7867 156.102 85.8774C158.684 93.0824 158.942 102.512 156.827 112.439C155.816 117.195 154.317 121.807 152.375 126.157C150.623 130.077 147.936 135.501 145.068 139.091C144.963 139.225 144.81 139.306 144.638 139.325C144.614 139.325 144.59 139.325 144.567 139.325C144.505 139.325 144.438 139.316 144.381 139.297H144.156C143.507 139.282 142.763 139.273 141.956 139.273C139.14 139.273 135.007 139.387 131.585 140.39C126.798 141.789 123.453 144.525 121.358 148.76C118.132 155.273 115.922 160.31 113.979 165.61C111.832 171.468 111.398 172.557 110.787 173.101C109.379 174.347 107.813 174.982 106.143 174.982L106.148 174.978Z" fill="#FDB924"/>
<path d="M109.097 86.0158C109.45 86.0158 109.789 86.0158 110.114 86.0254C111.774 86.0493 116.58 86.054 122.541 86.054C130.616 86.054 140.801 86.0397 148.146 86.0302C152.107 86.0254 154.159 86.0206 155.491 86.0206C158.049 93.1301 158.307 102.46 156.212 112.296C155.209 117.004 153.725 121.578 151.802 125.884C149.821 130.315 147.239 135.348 144.576 138.681L144.543 138.652H144.175C143.521 138.638 142.777 138.628 141.966 138.628C138.844 138.628 134.773 138.79 131.413 139.769C126.45 141.221 122.976 144.066 120.79 148.469C117.764 154.575 115.464 159.713 113.388 165.385C111.383 170.857 110.863 172.18 110.371 172.614C109.078 173.76 107.651 174.333 106.152 174.333C105.15 174.333 104.11 174.075 103.055 173.555C102.215 173.144 101.733 171.449 102.115 164.516C102.134 164.187 102.148 163.919 102.153 163.738C102.334 159.035 102.883 155.244 103.413 151.582C103.89 148.292 104.019 146.707 104.196 143.078C102.583 143.245 98.4448 143.675 93.72 143.675C88.9952 143.675 83.9554 143.264 80.0466 141.808C79.8462 141.732 79.2735 141.397 79.116 141.049C77.9801 138.542 77.942 136.957 78.0135 134.646C78.0899 132.101 79.159 129.604 80.8771 127.966C81.0202 127.832 81.1682 127.704 81.3161 127.579C80.5716 126.916 80.0562 125.98 79.6219 125.116C79.0826 124.037 78.8201 122.198 78.9824 120.647C79.2115 118.503 81.2159 115.495 82.8577 114.229C83.1536 114.005 83.4972 113.828 83.8885 113.699C82.7765 112.415 82.4854 110.472 83.0199 107.898C83.2586 106.747 84.8526 102.56 86.8046 101.247C87.53 100.76 88.4034 100.435 89.3722 100.225C88.9045 99.108 88.8424 97.7186 89.2338 96.3721C90.2837 92.7625 93.0423 89.9215 97.4426 87.9257C101.074 86.2785 105.647 86.0111 109.097 86.0111M109.097 84.741C103.914 84.741 99.9338 85.4047 96.9176 86.7702C92.1641 88.9236 89.167 92.0367 88.0072 96.0236C87.6827 97.1408 87.6159 98.282 87.7973 99.3468C87.1625 99.5712 86.5993 99.8529 86.0935 100.192C83.6738 101.815 82.0034 106.523 81.7695 107.645C81.3066 109.884 81.4116 111.751 82.0798 113.222C80.1946 114.673 77.9897 117.949 77.7129 120.513C77.522 122.318 77.8274 124.399 78.4765 125.693C78.7867 126.309 79.1255 126.935 79.5408 127.508C77.8513 129.36 76.8109 131.967 76.7297 134.613C76.6581 137.033 76.7011 138.829 77.9467 141.579C78.3094 142.381 79.2592 142.882 79.5933 143.006C83.0581 144.3 87.8116 144.954 93.7152 144.954C97.4091 144.954 100.769 144.692 102.84 144.496C102.697 147.084 102.549 148.607 102.144 151.4C101.609 155.096 101.055 158.92 100.869 163.69C100.864 163.867 100.85 164.12 100.831 164.43C100.444 171.497 100.831 173.894 102.478 174.705C103.699 175.307 104.931 175.613 106.138 175.613C107.971 175.613 109.675 174.925 111.202 173.574C111.932 172.925 112.342 171.903 114.571 165.825C116.509 160.544 118.704 155.526 121.921 149.037C123.935 144.974 127.152 142.343 131.757 140.996C135.103 140.017 139.178 139.908 141.951 139.908C142.729 139.908 143.431 139.917 144.137 139.927H144.285C144.376 139.951 144.466 139.96 144.557 139.96C144.6 139.96 144.648 139.96 144.695 139.951C145.034 139.912 145.345 139.745 145.555 139.478C148.461 135.835 151.181 130.358 152.947 126.405C154.909 122.017 156.422 117.357 157.443 112.558C159.576 102.536 159.314 93.0012 156.713 85.6912C156.57 85.1421 156.073 84.7362 155.481 84.7362C154.613 84.7362 153.434 84.7362 151.616 84.7362H148.136L148.022 84.741C140.653 84.7506 130.564 84.7649 122.532 84.7649C115.764 84.7649 111.588 84.7553 110.118 84.7362C109.789 84.7362 109.441 84.7267 109.083 84.7267L109.097 84.741Z" fill="white"/>
<path d="M81.631 128.916L80.8245 127.909C82.4185 126.391 84.5995 125.541 86.9763 125.517C87.5585 125.512 88.7755 125.574 90.3266 125.65C93.9299 125.832 99.3801 126.109 101.876 125.779L101.738 127.259C99.1176 127.603 93.6006 127.326 89.9543 127.14C88.4271 127.064 87.2244 127.002 86.6804 127.006C85.5302 127.021 83.3444 127.283 81.6358 128.912L81.631 128.916Z" fill="white"/>
<path d="M83.8313 115.079L83.1965 113.929C85.2153 112.401 89.019 112.702 93.4289 113.05C97.0083 113.332 100.707 113.628 103.733 112.988L103.699 114.449C100.478 115.127 96.6837 114.826 93.0136 114.54C89.2433 114.239 85.3442 113.933 83.8265 115.079H83.8313Z" fill="white"/>
<path d="M89.3721 101.51L89.3005 100.073C92.3216 99.2083 96.9175 99.4614 100.965 99.681C103.766 99.8338 106.41 99.9818 108.009 99.724L107.909 101.199C106.167 101.476 103.456 101.328 100.583 101.171C96.6359 100.951 92.1593 100.708 89.3674 101.505L89.3721 101.51Z" fill="white"/>
<path d="M144.633 138.733L143.646 137.926C148.69 131.614 152.756 122.471 154.804 112.84C156.918 102.904 156.713 93.6458 154.231 86.7607L155.563 85.9777C158.13 93.0967 158.345 102.637 156.173 112.85C154.069 122.752 149.859 132.187 144.629 138.733H144.633Z" fill="white"/>
<path d="M104.115 143.393L104.324 141.908L108.238 141.607L108.028 143.097L104.115 143.393Z" fill="white"/>
<path d="M174.877 97.0741H192.55L191.419 103.143H180.781L179.607 109.211H188.383L187.252 115.28H178.437L176.333 126.004H169.293L174.877 97.0741Z" fill="#763F98"/>
<path d="M203.469 113.017H203.751C203.789 112.735 203.832 112.367 203.832 112.248C203.832 110.873 202.863 110.348 201.202 110.348C198.573 110.348 195.175 112.248 195.175 112.248L193.676 106.986C193.676 106.986 197.962 104.68 202.572 104.68C206.09 104.68 210.824 106.055 210.824 111.317C210.824 111.923 210.743 112.611 210.623 113.341L208.199 126.009H201.809L202.052 124.753C202.171 124.065 202.415 123.459 202.415 123.459H202.334C202.334 123.459 200.067 126.496 196.186 126.496C193.07 126.496 190.078 124.633 190.078 121.114C190.078 114.802 198.129 113.021 203.465 113.021L203.469 113.017ZM198.821 121.148C200.639 121.148 202.625 119.166 202.944 117.467L203.026 117.023H202.376C200.878 117.023 197.117 117.347 197.117 119.816C197.117 120.585 197.642 121.153 198.816 121.153L198.821 121.148Z" fill="#763F98"/>
<path d="M214.308 117.911L218.35 97.0692H225.347L221.462 117.142C221.342 117.667 221.261 118.355 221.261 118.718C221.261 119.768 221.991 120.055 222.841 120.055C223.285 120.055 223.691 120.016 223.691 120.016L222.516 126.085C222.516 126.085 221.586 126.204 220.617 126.204C216.937 126.204 214.026 124.829 214.026 120.46C214.026 119.73 214.107 118.885 214.308 117.911Z" fill="#763F98"/>
<path d="M228.544 118.961C228.544 118.961 230.687 120.823 233.804 120.823C234.897 120.823 236.071 120.499 236.071 119.773C236.071 117.911 227.819 117.586 227.819 111.436C227.819 107.392 232.105 104.68 236.557 104.68C241.573 104.68 244.404 107.067 244.404 107.067L241.411 111.842C241.411 111.842 239.674 110.343 236.557 110.343C235.546 110.343 234.29 110.667 234.29 111.436C234.29 113.055 242.58 113.499 242.58 119.773C242.58 123.817 239.02 126.491 233.804 126.491C228.587 126.491 225.065 123.454 225.065 123.454L228.544 118.961Z" fill="#763F98"/>
<path d="M257.585 104.68C263.489 104.68 266.481 108.037 266.481 112.854C266.481 114.755 265.713 116.941 265.713 116.941H252.569C252.569 119.291 254.068 120.666 256.655 120.666C259.69 120.666 262.845 118.56 262.845 118.56L264.625 123.779C264.625 123.779 260.945 126.491 256.211 126.491C249.09 126.491 245.573 122.284 245.573 117.385C245.573 110.142 250.708 104.68 257.585 104.68ZM259.647 112.935C259.647 112.935 259.685 112.448 259.685 112.205C259.685 110.911 258.874 109.937 257.461 109.937C255.438 109.937 254.144 111.274 253.495 112.931H259.642L259.647 112.935Z" fill="#763F98"/>
<path d="M28.231 86.6173C20.1463 86.6173 12.5914 83.0172 7.49429 76.7433C2.39722 70.4694 0.426165 62.3285 2.08224 54.4169C4.65941 42.103 15.6553 33.16 28.231 33.16H147.039C147.229 33.16 147.411 33.246 147.535 33.394C147.654 33.542 147.702 33.7378 147.664 33.9288L136.749 86.1112C136.687 86.4073 136.429 86.6173 136.124 86.6173H28.231Z" fill="white"/>
<path d="M147.039 33.7951L136.124 85.9776H28.2311C11.6799 85.9776 -0.685751 70.7511 2.70275 54.5411C5.2322 42.4516 15.8845 33.7951 28.2311 33.7951H147.039ZM147.043 32.5155H28.2311C21.9695 32.5155 15.8416 34.6928 10.9831 38.6414C6.12466 42.5901 2.74093 48.143 1.45712 54.2785C-0.237133 62.3811 1.78165 70.7129 7.00281 77.1396C12.2192 83.5664 19.9603 87.2524 28.2358 87.2524H136.129C136.73 87.2524 137.255 86.8275 137.379 86.2402L148.284 34.115C148.313 34.0148 148.322 33.9049 148.322 33.7951C148.322 33.0885 147.755 32.5203 147.048 32.5203L147.043 32.5155Z" fill="white"/>
<path d="M136.21 86.6174C135.976 86.6174 135.756 86.4885 135.647 86.2784C130.869 77.2351 136.983 49.3606 145.149 33.7331C145.249 33.5373 145.449 33.4084 145.669 33.3941C146.972 33.2986 148.203 33.2174 149.358 33.141C156.493 32.6588 160.798 32.3675 163.117 31.0163C166.711 28.9297 168.768 26.4039 172.505 21.8155L172.72 21.5528C175.578 18.0435 177.23 15.8423 178.413 13.9468C179.163 12.7531 179.721 11.612 180.37 10.2942C181.057 8.89518 181.835 7.31476 183.057 5.18525C184.651 2.41116 187.701 0.644531 189.104 0.644531C189.161 0.644531 189.213 0.644531 189.261 0.649306C191.18 0.821194 193.781 2.52098 193.547 5.77254C193.318 8.96202 190.812 18.2344 190.049 20.999C189.295 23.7397 188.803 26.6522 188.331 29.474C188.025 31.3123 187.705 33.2031 187.319 35.0127C189.061 35.2848 191.662 35.6095 194.401 35.9485C198.744 36.488 202.309 37.0515 204.443 37.5241C205.588 37.782 207.015 38.0971 208.151 38.904C209.64 39.964 210.279 41.6352 210.742 42.8575C210.971 43.4591 212.895 48.7876 210.093 51.2943C209.043 52.2349 207.779 53.123 206.328 53.949C207.488 55.9162 208.06 57.7783 208.036 59.4924C208.003 61.7652 206.958 63.761 204.925 65.4274C204.49 65.7855 204.004 66.1388 203.479 66.4826C203.894 68.3304 203.211 70.6795 201.488 73.3199C200.753 74.442 199.756 75.4399 198.51 76.285C198.482 77.6314 197.995 78.9588 197.069 80.248C196.033 81.6852 194.659 82.7499 193.69 83.3897C191.528 84.8173 188.918 85.6768 185.93 85.9442C185.534 85.9776 185.114 86.0206 184.684 86.0635C183.2 86.2115 181.525 86.3787 179.864 86.3787C177.798 86.3787 176.156 86.1113 174.862 85.567C174.839 85.567 174.815 85.5717 174.791 85.5717C174.791 85.5717 136.21 86.6174 136.2 86.6174H136.21Z" fill="#BFD730"/>
<path d="M189.104 1.27484C189.137 1.27484 189.175 1.27484 189.209 1.27484C190.922 1.42763 193.117 2.90778 192.912 5.71529C192.736 8.13128 191.113 14.7394 189.438 20.8176C188.111 25.6305 187.624 30.8205 186.555 35.5236C188.264 35.8149 191.218 36.1825 194.325 36.5693C198.668 37.1088 202.219 37.6674 204.304 38.1354C205.392 38.3789 206.753 38.6797 207.779 39.415C209.11 40.3651 209.688 41.8692 210.146 43.0771C210.232 43.3016 212.198 48.5442 209.669 50.8074C208.509 51.8435 207.101 52.8079 205.435 53.7008C206.762 55.773 207.426 57.7163 207.402 59.4734C207.373 61.5504 206.404 63.3839 204.524 64.9261C203.985 65.3653 203.383 65.7903 202.739 66.1914C203.335 67.8912 202.72 70.2642 200.959 72.9619C200.209 74.1078 199.183 75.0961 197.876 75.9365C197.928 77.2591 197.484 78.5817 196.558 79.866C195.58 81.2268 194.272 82.2391 193.347 82.8502C191.27 84.2206 188.76 85.0418 185.882 85.2996C185.481 85.3378 185.057 85.376 184.618 85.419C183.157 85.5622 181.501 85.7294 179.874 85.7294C178.027 85.7294 176.227 85.5145 174.805 84.8222L174.786 84.9224L136.214 85.9681C131.666 77.3546 137.508 49.7283 145.721 34.0196C155.114 33.3464 160.607 33.2079 163.447 31.5558C167.207 29.369 169.341 26.7048 173.221 21.9444C176.06 18.4589 177.755 16.2053 178.962 14.2715C180.508 11.7982 181.22 9.66395 183.615 5.48611C185.09 2.91733 187.911 1.26529 189.109 1.26529M189.104 0C187.304 0 184.15 1.99582 182.503 4.86062C181.272 7.00445 180.489 8.5992 179.797 10.0077C179.158 11.3112 178.604 12.438 177.874 13.6078C176.705 15.4795 175.068 17.6615 172.223 21.1518L172.013 21.4097C168.319 25.9408 166.286 28.4332 162.798 30.4672C160.607 31.7421 156.116 32.0429 149.31 32.506C148.155 32.5824 146.924 32.6684 145.621 32.7591C145.182 32.7925 144.786 33.0503 144.581 33.4418C136.343 49.1983 130.22 77.3784 135.079 86.5792C135.298 86.9994 135.732 87.2572 136.205 87.2572C136.214 87.2572 136.229 87.2572 136.238 87.2572L174.757 86.2116C176.103 86.7511 177.783 87.0185 179.869 87.0185C181.558 87.0185 183.248 86.8514 184.737 86.7034C185.171 86.6604 185.586 86.6174 185.987 86.584C189.08 86.3071 191.786 85.4142 194.039 83.9293C195.05 83.2608 196.492 82.1436 197.585 80.63C198.515 79.3408 199.031 77.9991 199.131 76.6384C200.324 75.7837 201.293 74.7906 202.018 73.6781C203.712 71.0854 204.447 68.7267 204.175 66.7882C204.586 66.5065 204.968 66.22 205.326 65.9288C207.511 64.1383 208.638 61.9753 208.671 59.5068C208.695 57.8405 208.194 56.0547 207.187 54.1878C208.447 53.4334 209.564 52.6265 210.513 51.7766C213.639 48.9834 211.578 43.2777 211.334 42.6379C210.838 41.3392 210.16 39.563 208.514 38.3932C207.278 37.5099 205.717 37.1613 204.576 36.9083C202.429 36.4308 198.84 35.8674 194.478 35.3231C192.077 35.0223 189.777 34.7358 188.078 34.4923C188.407 32.8737 188.684 31.2121 188.956 29.5887C189.423 26.7859 189.91 23.8877 190.66 21.1805C191.428 18.4016 193.943 9.07666 194.177 5.82988C194.42 2.48761 191.891 0.257833 189.314 0.0286481C189.247 0.0238734 189.175 0.0190987 189.099 0.0190987L189.104 0Z" fill="white"/>
<path d="M185.271 46.7918C185.262 46.6581 185.3 46.0613 185.663 40.876C185.801 38.9136 185.94 36.9226 186.021 35.7098L187.472 35.5093C187.39 36.722 187.252 38.7226 187.114 40.685C186.932 43.2729 186.727 46.2046 186.722 46.4528L186.221 46.5483L185.267 46.8014L185.271 46.7918Z" fill="white"/>
<path d="M184.527 59.7551C181.787 59.7551 178.547 59.2347 177.826 57.277C177.024 55.1093 178.9 50.6975 180.131 48.9452C181.009 47.6943 184.694 46.2666 190.216 44.2374C192.134 43.5307 193.948 42.8623 194.673 42.4899L195.122 43.7265C194.301 44.1467 192.521 44.8008 190.464 45.56C187.472 46.6629 181.897 48.7113 181.277 49.5755C180.208 51.1034 178.628 55.0091 179.205 56.5656C179.506 57.3821 180.752 57.9694 182.709 58.2177C184.67 58.4707 186.708 58.3084 187.849 58.0935C195.308 56.7041 200.925 54.9661 205.025 52.7841L205.502 54.0064C201.245 56.2744 195.461 58.0696 187.829 59.4925C187.08 59.631 185.863 59.7551 184.527 59.7551Z" fill="white"/>
<path d="M186.842 70.4074C185.667 70.4074 184.479 70.3549 183.267 70.2547C179.821 69.9634 177.607 67.9198 176.681 66.1055C175.955 64.6874 175.86 63.1738 176.414 61.9563C177.005 60.6528 177.783 59.2633 179.449 57.9121L180.227 58.9339C178.943 59.97 178.299 61.0252 177.726 62.2953C177.363 63.0974 177.468 64.2099 178.012 65.2747C178.805 66.8312 180.714 68.5835 183.687 68.8366C188.474 69.2424 192.936 68.8222 197.317 67.5474C199.002 67.0604 200.763 66.2726 202.276 65.332L202.863 66.4922C201.212 67.5188 199.288 68.3782 197.456 68.913C193.996 69.9157 190.497 70.4122 186.846 70.4122L186.842 70.4074Z" fill="white"/>
<path d="M184.035 79.6464C182.208 79.6464 180.38 79.3886 178.313 78.6867C175.917 77.8702 174.939 76.4187 173.913 74.6044C173.388 73.6828 173.383 72.3412 173.894 70.8324C174.548 68.9082 175.927 67.0699 177.497 66.0338L178.122 67.1654C176.886 67.9771 175.793 69.4525 175.263 71.0138C174.886 72.1311 174.867 73.1194 175.216 73.7306C176.194 75.4495 176.986 76.6336 179.024 77.3307C182.785 78.6151 185.625 78.3143 189.529 77.7079C192.741 77.2113 195.332 76.3614 197.236 75.1773L197.819 76.3376C195.709 77.6458 192.893 78.5817 189.457 79.1117C187.51 79.4125 185.768 79.6464 184.026 79.6464H184.035Z" fill="white"/>
<path d="M136.048 86.6987C134.473 84.8891 133.723 81.394 133.814 76.3137C133.89 71.9401 134.601 66.4874 135.871 60.5525C138.348 48.931 142.49 37.6484 145.941 33.1077L147.043 33.7952C140.142 42.8719 131.232 78.744 137.236 85.6578L136.048 86.7034V86.6987Z" fill="white"/>
<path d="M179.793 86.0827C176.972 86.0827 174.233 85.5957 172.724 83.6763L172.653 83.5855C172.214 83.0365 171.297 81.8905 171.655 80.1812C171.918 78.9302 172.615 77.727 173.56 76.8724C174.328 76.1848 175.349 75.7694 176.223 75.8076L175.874 77.2305C175.402 77.2161 174.834 77.4501 174.414 77.8273C173.751 78.4241 173.264 79.2788 173.073 80.1812C172.839 81.2937 173.478 82.0911 173.86 82.5685L173.937 82.664C175.946 85.2185 180.814 84.7362 184.723 84.3495C185.162 84.3065 185.591 84.2636 185.997 84.2254L185.83 85.6434C185.429 85.6816 185.009 85.7198 184.57 85.7628C183.1 85.9108 181.43 86.0732 179.788 86.0732L179.793 86.0827Z" fill="white"/>
<path d="M33.3854 75.9223C33.1945 75.9223 33.0131 75.8363 32.8938 75.6883C32.7745 75.5403 32.722 75.3493 32.7602 75.1631L37.0602 53.0611H29.0997C28.9087 53.0611 28.7274 52.9752 28.6081 52.8271C28.4888 52.6791 28.4363 52.4881 28.4744 52.3019L29.6485 46.2333C29.7058 45.9325 29.9683 45.7177 30.2737 45.7177H54.8236C55.0145 45.7177 55.1959 45.8036 55.3152 45.9516C55.4345 46.0996 55.487 46.2906 55.4488 46.4768L54.2748 52.5454C54.2175 52.8462 53.955 53.0611 53.6496 53.0611H45.436L41.0883 75.4066C41.031 75.7074 40.7685 75.9223 40.4631 75.9223H33.3854Z" fill="#20419A"/>
<path d="M54.8237 46.3526L53.6496 52.4212H44.9111L40.4631 75.2824H33.3854L37.8334 52.4212H29.0949L30.2689 46.3526H54.8189M54.8237 45.073H30.2689C29.6581 45.073 29.1331 45.5075 29.0185 46.1043L27.8445 52.1729C27.7729 52.5454 27.8684 52.9321 28.1118 53.2281C28.3552 53.5242 28.7131 53.6913 29.0949 53.6913H36.2823L32.1302 75.0341C32.0586 75.4065 32.1541 75.7933 32.3975 76.0893C32.6409 76.3853 32.9988 76.5525 33.3806 76.5525H40.4583C41.0692 76.5525 41.5942 76.118 41.7087 75.5211L45.9563 53.6913H53.6401C54.2509 53.6913 54.7759 53.2568 54.8905 52.66L56.0502 46.6486C56.0741 46.5531 56.0836 46.4529 56.0836 46.3478C56.0836 45.6412 55.5157 45.073 54.8093 45.073H54.8237Z" fill="white"/>
<path d="M51.1011 75.9223C50.9102 75.9223 50.7289 75.8363 50.6095 75.6883C50.4902 75.5403 50.4377 75.3493 50.4759 75.1631L54.5183 54.3264C54.5755 54.0256 54.838 53.8107 55.1435 53.8107H61.8584C62.0493 53.8107 62.2307 53.8967 62.35 54.0447C62.4693 54.1927 62.5218 54.3837 62.4836 54.5747L62.14 56.3365C63.8104 54.5747 66.0344 53.4526 68.1295 53.4526C68.855 53.4526 69.4181 53.5386 69.4372 53.5386C69.609 53.5625 69.7617 53.6579 69.862 53.8012C69.9622 53.9444 70.0004 54.1211 69.967 54.2882L68.6306 61.1685C68.5972 61.3404 68.497 61.4884 68.3538 61.5839C68.2488 61.6508 68.1295 61.689 68.0054 61.689C67.9577 61.689 67.91 61.6842 67.8623 61.6746C67.8623 61.6746 67.385 61.5696 66.631 61.5696C64.8269 61.5696 61.1378 62.9829 60.0974 68.3353L58.7229 75.4162C58.6656 75.717 58.4031 75.9318 58.0977 75.9318H51.1011V75.9223Z" fill="#20419A"/>
<path d="M68.1295 54.0781C68.8168 54.0781 69.3418 54.1592 69.3418 54.1592L68.0054 61.0396C68.0054 61.0396 67.4805 60.9202 66.6309 60.9202C64.5263 60.9202 60.5651 62.577 59.4721 68.2016L58.0977 75.2824H51.1011L55.1435 54.4457H61.8584L61.1712 57.9647C61.0519 58.6522 60.8466 59.2586 60.8466 59.2586H60.8848C62.2211 56.4272 65.1706 54.0781 68.1248 54.0781M68.1295 52.8032C66.4114 52.8032 64.6503 53.4621 63.1279 54.5842C63.1661 54.2452 63.0659 53.8966 62.8463 53.6293C62.6029 53.3332 62.245 53.1661 61.8632 53.1661H55.1482C54.5373 53.1661 54.0124 53.6006 53.8978 54.1974L49.8555 75.0341C49.7839 75.4066 49.8793 75.7933 50.1227 76.0893C50.3661 76.3854 50.7241 76.5525 51.1059 76.5525H58.1024C58.7133 76.5525 59.2383 76.118 59.3528 75.5212L60.7273 68.4403C61.6866 63.4937 65.0131 62.1903 66.6357 62.1903C67.3087 62.1903 67.7286 62.281 67.7334 62.281C67.8241 62.3001 67.9148 62.3096 68.0054 62.3096C68.2536 62.3096 68.5018 62.238 68.7118 62.0995C68.9981 61.9085 69.1986 61.6173 69.2654 61.2783L70.6017 54.398C70.6685 54.059 70.5922 53.7056 70.3917 53.4192C70.1913 53.1327 69.8858 52.9465 69.5422 52.894C69.4802 52.8844 68.8979 52.7985 68.1343 52.7985L68.1295 52.8032Z" fill="white"/>
<path d="M75.9326 76.4045C71.3652 76.4045 68.7451 74.0171 68.7451 69.8584C68.7451 69.0849 68.8883 68.235 69.041 67.4328L71.5895 54.3216C71.6468 54.0208 71.9093 53.8059 72.2148 53.8059H79.2113C79.4022 53.8059 79.5835 53.8919 79.7029 54.0399C79.8222 54.1879 79.8747 54.3789 79.8365 54.5699L77.4884 66.5447C77.4073 67.027 77.3786 67.4281 77.3786 67.6382C77.3786 68.5119 77.665 68.7793 78.6004 68.7793C81.0821 68.7793 82.9196 66.0864 83.392 63.5558L85.1722 54.3263C85.2295 54.0255 85.492 53.8107 85.7974 53.8107H92.7939C92.9848 53.8107 93.1662 53.8966 93.2855 54.0446C93.4048 54.1927 93.4573 54.3836 93.4191 54.5699L89.3768 75.4065C89.3195 75.7074 89.057 75.9222 88.7516 75.9222H81.9985C81.8076 75.9222 81.6262 75.8363 81.5069 75.6883C81.3876 75.5402 81.3351 75.3493 81.3733 75.163L81.5307 74.337C80.1133 75.502 78.1375 76.4092 75.9326 76.4092V76.4045Z" fill="#20419A"/>
<path d="M92.7988 54.4458L88.7565 75.2824H82.0033L82.2038 74.232C82.4042 73.1816 82.7288 72.1694 82.7288 72.1694H82.6476C81.4736 74.0315 78.8057 75.7695 75.9327 75.7695C72.3342 75.7695 69.38 74.1938 69.38 69.8632C69.38 69.1756 69.4993 68.4069 69.6616 67.557L72.2101 54.4458H79.2066L76.8585 66.4206C76.7774 66.9077 76.7392 67.3517 76.7392 67.6334C76.7392 68.8892 77.3453 69.4144 78.6005 69.4144C81.2684 69.4144 83.4542 66.7024 84.0221 63.6704L85.8023 54.4458H92.7988ZM92.7988 53.1661H85.7975C85.1866 53.1661 84.6616 53.6006 84.5471 54.2022L82.767 63.4269C82.3327 65.7474 80.6575 68.1395 78.6005 68.1395C78.2139 68.1395 78.0803 68.0679 78.066 68.0584C78.066 68.0584 78.0135 67.9438 78.0135 67.6334C78.0135 67.4615 78.0421 67.0986 78.1137 66.6451L80.457 54.6845C80.5286 54.3121 80.4332 53.9205 80.1898 53.6293C79.9464 53.3333 79.5884 53.1661 79.2066 53.1661H72.2101C71.5992 53.1661 71.0742 53.6006 70.9597 54.1975L68.4112 67.3087C68.2537 68.1491 68.1057 69.0324 68.1057 69.8584C68.1057 74.3562 71.0313 77.0395 75.9327 77.0395C77.7462 77.0395 79.4119 76.4666 80.7768 75.6405C80.8245 75.8029 80.9057 75.9557 81.0154 76.0894C81.2588 76.3806 81.6168 76.5525 81.9986 76.5525H88.7517C89.3626 76.5525 89.8876 76.118 90.0021 75.5212L94.0349 54.7418C94.0588 54.6463 94.0731 54.546 94.0731 54.441C94.0731 53.7343 93.5052 53.1661 92.7988 53.1661Z" fill="white"/>
<path d="M105.012 76.4044C97.2227 76.4044 93.7388 71.5104 93.7388 66.6641C93.7388 59.058 99.1795 53.3188 106.391 53.3188C112.361 53.3188 115.926 56.6134 115.926 62.1329C115.926 64.1192 115.153 66.3394 115.12 66.4301C115.029 66.688 114.79 66.8551 114.518 66.8551H102.057C102.301 68.4403 103.484 69.2997 105.46 69.2997C108.262 69.2997 111.264 67.323 111.297 67.3039C111.402 67.2323 111.526 67.1988 111.65 67.1988C111.717 67.1988 111.789 67.2084 111.855 67.2323C112.041 67.2943 112.189 67.4423 112.251 67.6286L114.032 72.8473C114.122 73.1099 114.032 73.4011 113.807 73.5683C113.65 73.6829 109.903 76.4044 105.016 76.4044H105.012ZM107.851 61.5743C107.851 61.5408 107.851 61.5122 107.851 61.4836C107.851 60.4618 107.259 59.8554 106.262 59.8554C104.754 59.8554 103.852 60.7292 103.322 61.5743H107.846H107.851Z" fill="#20419A"/>
<path d="M106.386 53.9587C112.29 53.9587 115.282 57.3153 115.282 62.1329C115.282 64.0333 114.514 66.2201 114.514 66.2201H101.37C101.37 68.5692 102.869 69.9443 105.455 69.9443C108.491 69.9443 111.645 67.8387 111.645 67.8387L113.426 73.0574C113.426 73.0574 109.746 75.7694 105.012 75.7694C97.891 75.7694 94.3736 71.5629 94.3736 66.6641C94.3736 59.4209 99.5089 53.9587 106.386 53.9587ZM102.301 62.2141H108.448C108.448 62.2141 108.486 61.7271 108.486 61.4836C108.486 60.1896 107.675 59.2156 106.262 59.2156C104.238 59.2156 102.945 60.5525 102.296 62.2093M106.386 52.6838C98.8121 52.6838 93.0994 58.6952 93.0994 66.6641C93.0994 71.8303 96.7838 77.0442 105.012 77.0442C110.104 77.0442 114.017 74.2081 114.18 74.084C114.628 73.7545 114.81 73.172 114.628 72.6468L112.872 67.4949H114.514C115.053 67.4949 115.535 67.1511 115.716 66.645C115.75 66.5495 116.556 64.229 116.556 62.1329C116.556 56.303 112.657 52.6838 106.381 52.6838H106.386ZM104.768 60.9393C105.164 60.6719 105.656 60.4952 106.267 60.4952C106.448 60.4952 106.906 60.4952 107.112 60.9393H104.768ZM102.897 67.4949H109.655C108.577 68.0297 106.973 68.6647 105.46 68.6647C103.947 68.6647 103.212 68.1013 102.902 67.4949H102.897Z" fill="white"/>
<path d="M143.617 107.106C156.008 107.106 166.052 97.0563 166.052 84.6599C166.052 72.2634 156.008 62.2141 143.617 62.2141C131.226 62.2141 121.181 72.2634 121.181 84.6599C121.181 97.0563 131.226 107.106 143.617 107.106Z" fill="#00A19C" stroke="white" stroke-width="2.85" stroke-miterlimit="10"/>
<path d="M137.789 77.4453C141.884 77.4453 144.843 79.8518 144.843 83.5521C144.843 88.365 140.591 91.693 136.362 91.693C132.134 91.693 129.309 89.3152 129.309 85.5861C129.309 80.8019 133.537 77.4453 137.789 77.4453ZM136.444 87.8828C138.267 87.8828 140.223 86.3214 140.223 83.8386C140.223 82.2248 139.169 81.2507 137.742 81.2507C135.947 81.2507 133.938 82.8884 133.938 85.3761C133.938 86.9612 134.993 87.8875 136.448 87.8875L136.444 87.8828Z" fill="white"/>
<path d="M148.461 77.7605H152.847L152.398 80.0619C152.317 80.5107 152.188 80.907 152.188 80.907H152.217C153.09 79.0544 155.018 77.5217 156.946 77.5217C157.395 77.5217 157.739 77.5743 157.739 77.5743L156.865 82.0672C156.865 82.0672 156.522 81.9861 155.968 81.9861C154.593 81.9861 152.007 83.0699 151.291 86.7416L150.394 91.3683H145.822L148.466 77.7557L148.461 77.7605Z" fill="white"/>
<path fill-rule="evenodd" clip-rule="evenodd" d="M110.529 17.5517C110.529 15.4269 112.237 13.6985 114.342 13.6985C116.447 13.6985 118.155 15.4221 118.155 17.5517C118.155 19.6812 116.447 21.4048 114.342 21.4048C112.237 21.4048 110.529 19.6812 110.529 17.5517Z" fill="#FDB924"/>
<path fill-rule="evenodd" clip-rule="evenodd" d="M147.163 17.5517C147.163 15.4269 148.871 13.6985 150.976 13.6985C153.081 13.6985 154.789 15.4221 154.789 17.5517C154.789 19.6812 153.081 21.4048 150.976 21.4048C148.871 21.4048 147.163 19.6812 147.163 17.5517Z" fill="#763F98"/>
<path fill-rule="evenodd" clip-rule="evenodd" d="M73.8994 17.5517C73.8994 15.4269 75.608 13.6985 77.7127 13.6985C79.8174 13.6985 81.5259 15.4221 81.5259 17.5517C81.5259 19.6812 79.8174 21.4048 77.7127 21.4048C75.608 21.4048 73.8994 19.6812 73.8994 17.5517Z" fill="#BED731"/>
<path fill-rule="evenodd" clip-rule="evenodd" d="M37.2654 17.5517C37.2654 15.4269 38.9739 13.6985 41.0786 13.6985C43.1833 13.6985 44.8919 15.4221 44.8919 17.5517C44.8919 19.6812 43.1833 21.4048 41.0786 21.4048C38.9739 21.4048 37.2654 19.6812 37.2654 17.5517Z" fill="#20419A"/>
<path fill-rule="evenodd" clip-rule="evenodd" d="M178.418 153.654C178.418 155.779 176.709 157.507 174.605 157.507C172.5 157.507 170.792 155.783 170.792 153.654C170.792 151.524 172.5 149.801 174.605 149.801C176.709 149.801 178.418 151.524 178.418 153.654Z" fill="#FDB924"/>
<path fill-rule="evenodd" clip-rule="evenodd" d="M141.784 153.654C141.784 155.779 140.075 157.507 137.971 157.507C135.866 157.507 134.157 155.783 134.157 153.654C134.157 151.524 135.866 149.801 137.971 149.801C140.075 149.801 141.784 151.524 141.784 153.654Z" fill="#763F98"/>
<path fill-rule="evenodd" clip-rule="evenodd" d="M215.047 153.654C215.047 155.779 213.339 157.507 211.234 157.507C209.129 157.507 207.421 155.783 207.421 153.654C207.421 151.524 209.129 149.801 211.234 149.801C213.339 149.801 215.047 151.524 215.047 153.654Z" fill="#BED731"/>
<path fill-rule="evenodd" clip-rule="evenodd" d="M251.681 153.654C251.681 155.779 249.973 157.507 247.868 157.507C245.763 157.507 244.055 155.783 244.055 153.654C244.055 151.524 245.763 149.801 247.868 149.801C249.973 149.801 251.681 151.524 251.681 153.654Z" fill="#20419A"/>
</svg>
