<svg width="25" height="25" viewBox="0 0 25 25" fill="none" xmlns="http://www.w3.org/2000/svg">
<path fill-rule="evenodd" clip-rule="evenodd" d="M1.50039 15.3965C2.1079 15.3965 2.60039 15.8828 2.60039 16.4827V21.9137H22.4004V16.4827C22.4004 15.8828 22.8929 15.3965 23.5004 15.3965C24.1079 15.3965 24.6004 15.8828 24.6004 16.4827V22.9999C24.6004 23.5998 24.1079 24.0861 23.5004 24.0861H1.50039C0.892877 24.0861 0.400391 23.5998 0.400391 22.9999V16.4827C0.400391 15.8828 0.892877 15.3965 1.50039 15.3965Z" fill="white"/>
<path fill-rule="evenodd" clip-rule="evenodd" d="M4.72257 8.14438L11.7229 1.2318C12.1525 0.807609 12.849 0.807609 13.2786 1.2318L20.2789 8.14438C20.7085 8.56857 20.7085 9.25632 20.2789 9.68051C19.8493 10.1047 19.1529 10.1047 18.7233 9.68051L13.6007 4.6222L13.6007 17.2068C13.6007 17.8067 13.1083 18.293 12.5007 18.293C11.8932 18.293 11.4007 17.8067 11.4007 17.2068L11.4007 4.6222L6.27821 9.68051C5.84863 10.1047 5.15215 10.1047 4.72257 9.68051C4.293 9.25632 4.293 8.56857 4.72257 8.14438Z" fill="white"/>
</svg>
